<svg xmlns="http://www.w3.org/2000/svg" xmlns:xlink="http://www.w3.org/1999/xlink" width="376" height="266" fill="none" viewBox="0 0 376 266"><desc>Created with Pixso.</desc><path id="Fill-4" fill="#CDEEEC" fill-opacity="1" fill-rule="evenodd" d="M83.37 54.58C59.85 54.58 40.61 73.01 40.61 95.53L40.61 159.37L-0.59 159.37L40.61 194.2L40.61 194.73C40.61 217.25 59.85 235.68 83.37 235.68L167.92 235.68C191.44 235.68 210.69 217.25 210.69 194.73L210.69 95.53C210.69 73.01 191.44 54.58 167.92 54.58L83.37 54.58Z"/><mask id="mask18408_28010" width="375.657" height="265.612" x="-.583" y="0" mask-type="alpha" maskUnits="userSpaceOnUse"><path id="Vector" fill="#FFF" fill-opacity="1" fill-rule="nonzero" d="M-0.59 16.89L-0.59 159.37L40.61 194.19L40.61 194.73C40.61 217.25 59.85 235.68 83.37 235.68L167.92 235.68C174.38 235.68 163.74 256.76 187.24 258.96C249.29 264.76 375.07 270.44 375.07 258.96C375.07 229.99 375.07 149.3 375.07 16.89C375.07 -5.64 -0.59 -5.64 -0.59 16.89Z"/></mask><g mask="url(#mask18408_28010)"><path id="Fill-1" fill="#EED3C7" fill-opacity="1" fill-rule="evenodd" d="M129.94 261.62C129.89 261.74 129.76 261.81 129.64 261.77L101.57 253.21L97.91 252.1C97.79 252.06 97.73 251.93 97.76 251.81C97.8 251.69 97.94 251.62 98.05 251.65L101.69 252.76L129.78 261.32C129.91 261.36 129.97 261.5 129.94 261.62Z"/><path id="Fill-3" fill="#EED3C7" fill-opacity="1" fill-rule="evenodd" d="M6.13 412.15L6.13 412.15C6.08 412.24 6.03 412.31 5.99 412.39C3.71 411.44 1.54 410.32 -0.62 409.15C-3.13 407.77 -5.6 406.31 -7.94 404.62C-5.24 405.68 -2.67 406.99 -0.14 408.36C1.99 409.54 4.11 410.76 6.13 412.15Z"/><path id="Fill-5" fill="#EED3C7" fill-opacity="1" fill-rule="evenodd" d="M-39.8 487.24L-39.8 487.25C-39.87 487.39 -39.95 487.5 -40.02 487.63C-40.08 487.61 -40.14 487.6 -40.2 487.58L-43.96 486.55C-46.46 485.86 -48.95 485.11 -51.43 484.35C-53.9 483.56 -56.38 482.79 -58.82 481.94C-59.29 481.78 -59.75 481.63 -60.22 481.47C-60.13 481.27 -60.04 481.08 -59.96 480.89C-59.5 481.01 -59.05 481.14 -58.59 481.27C-56.09 481.95 -53.61 482.71 -51.13 483.47C-48.65 484.24 -46.18 485.02 -43.73 485.88L-40.05 487.15C-39.97 487.18 -39.88 487.21 -39.8 487.24Z"/><path id="Fill-7" fill="#EED3C7" fill-opacity="1" fill-rule="evenodd" d="M98.9 263.34L93.1 280.21C93.06 280.33 92.93 280.39 92.81 280.36C92.79 280.35 92.78 280.35 92.77 280.34L86.79 285.26L73.73 306.91C73.86 306.49 73.97 306.08 74.09 305.67L86.6 285.12C86.61 285.11 86.62 285.1 86.63 285.09L92.67 280.22C92.65 280.17 92.65 280.13 92.67 280.08L98.47 263.21C98.51 263.09 98.64 263.03 98.75 263.06C98.81 263.08 98.87 263.12 98.9 263.18C98.92 263.23 98.92 263.28 98.9 263.34Z"/><path id="Fill-9" fill="#EDFBFB" fill-opacity="1" fill-rule="evenodd" d="M118.95 260.76L118.95 260.77C118.86 261.01 118.61 261.14 118.36 261.06L103.75 256.59L102.74 259.51L104.39 260.02C104.63 260.09 104.76 260.34 104.67 260.59C104.59 260.83 104.33 260.97 104.09 260.89L99.91 259.61C99.68 259.53 99.56 259.29 99.64 259.05C99.72 258.84 99.93 258.71 100.14 258.73C100.17 258.73 100.2 258.74 100.23 258.75L101.87 259.25L103.03 255.89C103.11 255.65 103.37 255.52 103.61 255.59L118.66 260.2C118.9 260.27 119.03 260.53 118.95 260.76Z"/><path id="Fill-11" fill="#EED3C7" fill-opacity="1" fill-rule="evenodd" d="M124.9 262.57L122.29 270.12L116.37 268.32L116.37 268.31C116.46 268.07 116.33 267.82 116.09 267.75L101.5 263.29L102.51 260.38L104.15 260.88C104.39 260.95 104.65 260.82 104.73 260.58C104.82 260.34 104.69 260.08 104.45 260.01L102.81 259.51L103.81 256.6L118.41 261.05C118.65 261.13 118.9 261 118.99 260.76L124.9 262.57Z"/><path id="Fill-13" fill="#EED3C7" fill-opacity="1" fill-rule="evenodd" d="M70.43 424.34C68.3 424.43 66.17 424.41 64.05 424.38C61.93 424.36 59.8 424.27 57.68 424.17C55.57 424.05 53.45 423.94 51.34 423.74L48.18 423.46C47.12 423.33 46.07 423.24 45.02 423.08C46.09 423.03 47.14 423.04 48.21 423.02L51.4 423.05C53.52 423.07 55.64 423.16 57.76 423.26C59.88 423.38 61.99 423.5 64.11 423.68C66.22 423.86 68.33 424.05 70.43 424.34Z"/><path id="Fill-15" fill="#EED3C7" fill-opacity="1" fill-rule="evenodd" d="M99.38 359.8C95.11 371.24 91.6 380.53 89.59 385.54L97.69 364.17L99.38 359.8Z"/><path id="Fill-17" fill="#96DAD5" fill-opacity="1" fill-rule="evenodd" d="M41.37 509.67L41.36 509.68C39.16 515.19 37.83 518.51 37.6 519.09L37.27 519.09L14.36 512.11C14.38 512.03 15.39 508.57 17.18 502.5C17.53 502.62 17.87 502.75 18.23 502.87C18.79 503.06 19.36 503.25 19.92 503.44C20.27 503.55 20.6 503.67 20.95 503.78C23.05 504.49 25.17 505.14 27.28 505.79C29.75 506.54 32.21 507.27 34.71 507.95L38.45 508.96C38.85 509.06 39.26 509.16 39.66 509.25C40.22 509.4 40.79 509.54 41.37 509.67Z"/><path id="Fill-19" fill="#EED3C7" fill-opacity="1" fill-rule="evenodd" d="M39.76 509.15C39.73 509.25 39.69 509.34 39.64 509.44C39.24 509.34 38.83 509.24 38.42 509.14L34.66 508.1C32.15 507.41 29.68 506.66 27.2 505.9C25.07 505.23 22.94 504.56 20.83 503.84C20.48 503.73 20.14 503.61 19.79 503.49C19.23 503.3 18.65 503.1 18.09 502.91C18.15 502.72 18.19 502.52 18.25 502.32C18.85 502.48 19.43 502.65 20.02 502.81C21.06 503.1 22.09 503.39 23.13 503.7C24.58 504.13 26.04 504.58 27.49 505.02C29.97 505.8 32.44 506.58 34.89 507.43L38.57 508.7C38.97 508.85 39.36 509 39.76 509.15Z"/><path id="Fill-21" fill="#2A4D52" fill-opacity="1" fill-rule="evenodd" d="M-38.41 487.76C-38.44 487.85 -38.48 487.93 -38.5 488.01C-39.01 487.88 -39.51 487.75 -40.02 487.63C-40.08 487.61 -40.14 487.6 -40.2 487.58L-43.96 486.55C-46.46 485.86 -48.95 485.11 -51.43 484.35C-53.9 483.56 -56.38 482.79 -58.82 481.94C-59.29 481.78 -59.75 481.62 -60.22 481.46C-60.91 481.22 -61.61 480.98 -62.3 480.73C-62.25 480.58 -62.21 480.44 -62.17 480.28C-61.43 480.48 -60.7 480.68 -59.96 480.88C-59.5 481.01 -59.05 481.14 -58.59 481.26C-56.09 481.94 -53.61 482.7 -51.13 483.47C-48.65 484.24 -46.18 485.02 -43.73 485.88L-40.05 487.15C-39.97 487.18 -39.88 487.21 -39.8 487.25C-39.34 487.42 -38.87 487.59 -38.41 487.76Z"/><path id="Fill-23" fill="#2A4D52" fill-opacity="1" fill-rule="evenodd" d="M-67.74 499.56C-67.52 498.89 -66.55 495.64 -64.98 490.29L-64.1 487.72L-40.95 494.15L-42.21 496.7L-43.63 496.7L-43.64 496.7L-47.06 496.69C-47.32 496.69 -47.53 496.89 -47.54 497.14C-47.54 497.35 -47.41 497.52 -47.23 497.58C-47.18 497.59 -47.14 497.6 -47.09 497.59L-42.37 497.6L-40.82 497.6L-37.32 500.1L-38.85 500.1L-38.86 500.1L-44.11 500.09C-44.37 500.09 -44.58 500.3 -44.59 500.55C-44.61 500.74 -44.47 500.92 -44.27 500.98C-44.24 500.99 -44.2 501 -44.15 501L-37.59 501.01L-36.04 501.01L-17.35 514.32C-16.54 515.07 -17.38 516.41 -18.43 516.05L-67.74 499.56Z"/><path id="Fill-25" fill="#2A4D52" fill-opacity="1" fill-rule="evenodd" d="M-41.43 494.26L-41.05 494.26C-41.09 494.32 -41.11 494.35 -41.11 494.35L-41.43 494.26Z"/><path id="Fill-27" fill="#2A4D52" fill-opacity="1" fill-rule="evenodd" d="M-40.04 495.16L-41.02 494.48C-41 494.44 -40.98 494.37 -40.95 494.27L-41.05 494.27C-40.99 494.17 -40.88 494 -40.74 493.75C-40.73 493.74 -40.72 493.73 -40.72 493.72C-40.87 494.11 -40.97 494.36 -41.01 494.48L-40.04 495.16Z"/><path id="Fill-29" fill="#EDFBFB" fill-opacity="1" fill-rule="evenodd" d="M-40.03 495.12L-41.58 495.12L-46.29 495.11C-46.35 495.12 -46.39 495.11 -46.43 495.09C-46.62 495.04 -46.75 494.87 -46.75 494.66C-46.74 494.41 -46.53 494.22 -46.27 494.22L-42.85 494.22L-42.85 494.22L-41.43 494.22L-41.1 494.31C-41.1 494.31 -41.08 494.28 -41.05 494.22L-40.95 494.22C-40.98 494.32 -41 494.39 -41.02 494.43L-40.03 495.12Z"/><path id="Fill-31" fill="#EDFBFB" fill-opacity="1" fill-rule="evenodd" d="M-41.05 494.26C-41.09 494.32 -41.11 494.35 -41.11 494.35L-41.43 494.26L-41.05 494.26Z"/><path id="Fill-33" fill="#EDFBFB" fill-opacity="1" fill-rule="evenodd" d="M-35.21 498.51L-36.75 498.51L-43.31 498.5C-43.35 498.5 -43.4 498.49 -43.43 498.48C-43.62 498.42 -43.76 498.24 -43.75 498.05C-43.74 497.8 -43.53 497.59 -43.27 497.59L-38.02 497.6L-38.01 497.6L-36.48 497.6L-35.21 498.51Z"/><path id="Fill-35" fill="#2A4D52" fill-opacity="1" fill-rule="evenodd" d="M11.1 524.15C11.32 523.46 13.08 517.47 14.71 511.94C30.04 516.63 37.7 518.97 37.7 518.97C37.69 518.97 37.33 519.82 36.63 521.53L35.62 521.52L32.57 521.52C32.3 521.52 32.1 521.72 32.09 521.96C32.08 522.17 32.21 522.34 32.4 522.4C32.44 522.41 32.49 522.43 32.54 522.42L36.87 522.43L36.88 522.43L38.36 522.43L38.36 522.43L41.86 524.93L40.39 524.92L40.38 524.92L35.51 524.92C35.26 524.92 35.04 525.12 35.03 525.38C35.02 525.57 35.15 525.75 35.35 525.81C35.39 525.82 35.42 525.83 35.48 525.83L41.66 525.83L41.67 525.84L43.15 525.84L43.16 525.84L61.49 538.92C62.31 539.66 61.47 541 60.41 540.65L11.1 524.15Z"/><path id="Fill-38" fill="#2A4D52" fill-opacity="1" fill-rule="evenodd" d="M37.41 519.09L37.75 519.09C37.72 519.15 37.71 519.18 37.71 519.18L37.41 519.09Z"/><path id="Fill-40" fill="#2A4D52" fill-opacity="1" fill-rule="evenodd" d="M42.72 506.46C42.26 507.59 41.83 508.65 41.43 509.64C41.41 509.68 41.4 509.72 41.38 509.75C40.12 512.85 39.15 515.26 38.52 516.85C38.02 518.09 37.73 518.84 37.65 519.07L37.7 519.1L37.57 519.1C37.8 518.52 39.12 515.21 41.32 509.74L41.32 509.73C40.75 509.6 40.18 509.46 39.62 509.31C39.22 509.22 38.81 509.12 38.41 509.02L34.68 508.01C32.19 507.34 29.74 506.61 27.28 505.87C25.17 505.22 23.06 504.57 20.97 503.87C21.71 503.81 22.47 503.76 23.24 503.73C24.68 504.15 26.13 504.59 27.57 505.02C30.03 505.77 32.48 506.53 34.91 507.36L38.56 508.59C38.95 508.74 39.34 508.88 39.74 509.03C40.28 509.22 40.82 509.42 41.36 509.62C41.76 508.64 42.18 507.57 42.63 506.44L42.64 506.44L42.72 506.46Z"/><path id="Fill-42" fill="#EDFBFB" fill-opacity="1" fill-rule="evenodd" d="M39.14 519.96L37.67 519.96L37.65 519.95L33.33 519.94C33.28 519.96 33.24 519.94 33.2 519.93C33.01 519.87 32.87 519.7 32.88 519.49C32.89 519.25 33.1 519.05 33.36 519.05L36.41 519.05L37.42 519.06L37.72 519.15C37.72 519.15 37.73 519.12 37.76 519.06L37.89 519.05L39.14 519.96Z"/><path id="Fill-44" fill="#EDFBFB" fill-opacity="1" fill-rule="evenodd" d="M37.75 519.09C37.72 519.15 37.71 519.18 37.71 519.18L37.41 519.09L37.75 519.09Z"/><path id="Fill-46" fill="#EDFBFB" fill-opacity="1" fill-rule="evenodd" d="M43.99 523.34L42.51 523.34L42.5 523.34L36.32 523.33C36.27 523.33 36.23 523.32 36.19 523.31C36 523.25 35.87 523.08 35.88 522.88C35.89 522.63 36.1 522.42 36.35 522.42L41.22 522.43L41.23 522.43L42.7 522.44L42.71 522.44L43.99 523.34Z"/><path id="Fill-48" fill="#96DAD5" fill-opacity="1" fill-rule="evenodd" d="M129.94 261.62C129.89 261.74 129.76 261.81 129.64 261.77L101.57 253.21L97.91 252.1C97.79 252.06 97.73 251.93 97.76 251.81C97.8 251.69 97.94 251.62 98.05 251.65L101.69 252.76L129.78 261.32C129.91 261.36 129.97 261.5 129.94 261.62Z"/><path id="Fill-50" fill="#96DAD5" fill-opacity="1" fill-rule="evenodd" d="M70.43 424.34C68.3 424.43 66.17 424.41 64.05 424.38C61.93 424.36 59.8 424.27 57.68 424.17C55.57 424.05 53.45 423.94 51.34 423.74L48.18 423.46C47.12 423.33 46.07 423.24 45.02 423.08C46.09 423.03 47.14 423.04 48.21 423.02L51.4 423.05C53.52 423.07 55.64 423.16 57.76 423.26C59.88 423.38 61.99 423.5 64.11 423.68C66.22 423.86 68.33 424.05 70.43 424.34Z"/><path id="Fill-52" fill="#96DAD5" fill-opacity="1" fill-rule="evenodd" d="M98.9 263.33L93.1 280.2C93.06 280.31 92.93 280.38 92.8 280.35C92.79 280.34 92.78 280.34 92.77 280.32L86.79 285.25L73.73 306.89L73.72 306.92L71.54 310.52C71.67 310.08 71.81 309.64 71.93 309.2L71.94 309.18L74.09 305.65L86.6 285.11C86.6 285.1 86.62 285.09 86.63 285.08L92.67 280.2C92.65 280.16 92.65 280.11 92.67 280.07L98.47 263.2C98.51 263.07 98.64 263.01 98.75 263.05C98.81 263.07 98.87 263.11 98.9 263.17C98.92 263.22 98.92 263.27 98.9 263.33Z"/><path id="Fill-54" fill="#96DAD5" fill-opacity="1" fill-rule="evenodd" d="M37.75 519.09C37.72 519.15 37.71 519.18 37.71 519.18L37.41 519.09L37.75 519.09Z"/><path id="Fill-56" fill="#96DAD5" fill-opacity="1" fill-rule="evenodd" d="M41.4 509.76C41.39 509.8 41.37 509.83 41.36 509.87C40.78 509.74 40.21 509.59 39.64 509.44C39.24 509.34 38.83 509.24 38.42 509.14L34.66 508.1C32.15 507.41 29.68 506.66 27.2 505.9C25.07 505.23 22.94 504.56 20.83 503.84C20.48 503.73 20.14 503.61 19.79 503.49C19.23 503.3 18.65 503.1 18.09 502.91C17.73 502.78 17.39 502.65 17.03 502.53C17.08 502.36 17.13 502.2 17.17 502.03C17.53 502.13 17.9 502.22 18.25 502.32C18.85 502.48 19.43 502.65 20.02 502.81C21.06 503.1 22.09 503.39 23.13 503.7C24.58 504.13 26.04 504.57 27.5 505.02C29.97 505.8 32.44 506.58 34.89 507.43L38.57 508.7C38.97 508.85 39.36 509 39.76 509.15C40.31 509.34 40.85 509.55 41.4 509.76Z"/><path id="Fill-58" fill="#96DAD5" fill-opacity="1" fill-rule="evenodd" d="M115.3 318.92C104.79 346.74 92.11 379.7 80.08 410.79L82.32 404.74L87.45 391.22L89.41 386.03L89.55 385.68L89.6 385.56L97.7 364.18L99.39 359.82L99.47 359.61L108.17 337.21L113.4 323.71L115.3 318.92Z"/><path id="Fill-60" fill="#96DAD5" fill-opacity="1" fill-rule="evenodd" d="M124.9 262.57L122.29 270.12L116.37 268.32L116.37 268.31C116.46 268.07 116.33 267.82 116.09 267.75L101.5 263.29L102.51 260.38L104.15 260.88C104.39 260.95 104.65 260.82 104.73 260.58C104.82 260.34 104.69 260.08 104.45 260.01L102.81 259.51L103.81 256.6L118.41 261.05C118.65 261.13 118.9 261 118.99 260.76L124.9 262.57Z"/><path id="Fill-62" fill="#96DAD5" fill-opacity="1" fill-rule="evenodd" d="M101.56 253.18L97.91 252.08C97.79 252.05 97.73 251.92 97.76 251.8C97.8 251.68 97.94 251.61 98.05 251.65L101.68 252.74L101.56 253.18Z"/><path id="Fill-64" fill="#96DAD5" fill-opacity="1" fill-rule="evenodd" d="M56.44 423.94C54.36 423.83 52.29 423.71 50.22 423.52L47.12 423.25C46.08 423.12 45.04 423.03 44.01 422.88C45.06 422.83 46.1 422.84 47.15 422.81L50.27 422.85C52.36 422.86 54.44 422.96 56.52 423.05C58.59 423.17 60.67 423.28 62.74 423.46C64.81 423.64 66.89 423.83 68.94 424.11C66.85 424.19 64.77 424.18 62.68 424.15C60.6 424.12 58.52 424.03 56.44 423.94ZM-0.58 409.74C-3.05 408.39 -5.47 406.97 -7.77 405.32C-5.12 406.35 -2.6 407.63 -0.12 408.96C1.98 410.12 4.05 411.31 6.04 412.66L6.03 412.67C6.38 412.9 6.72 413.14 7.07 413.38C6.67 413.23 6.28 413.07 5.89 412.9C3.66 411.97 1.53 410.88 -0.58 409.74ZM133.99 264.1C135.51 259.99 136.34 256.42 137.28 253.87L72.58 234.14C71.59 233.68 68.37 235.73 68.37 235.73C68.37 235.73 62.51 242.31 62.56 242.17C54.74 251.57 42.2 270.62 30.48 292.42C18.75 314.23 -45.8 445.94 -62.81 481.69C-62.61 481.74 -62.4 481.79 -62.19 481.84C-61.47 482.03 -60.75 482.22 -60.03 482.42C-59.58 482.54 -59.14 482.66 -58.7 482.78C-56.25 483.44 -53.82 484.17 -51.4 484.9C-48.97 485.65 -46.55 486.39 -44.16 487.22L-40.56 488.44C-40.48 488.47 -40.4 488.5 -40.32 488.53C-39.87 488.7 -39.41 488.86 -38.96 489.03C-38.62 489.15 -38.29 489.26 -37.96 489.39L-27.61 472.24L-11.28 445.36L-1.65 429.52L1.38 424.52C24.66 386.12 71.86 309.81 71.86 309.81L71.85 309.83C53.57 372.24 24.6 471.07 15.39 502.48C15.74 502.57 16.1 502.66 16.45 502.76C17.03 502.91 17.6 503.07 18.18 503.23C19.19 503.51 20.2 503.79 21.22 504.08C22.64 504.5 24.06 504.92 25.49 505.35C27.91 506.1 30.32 506.85 32.72 507.66L36.32 508.89C36.71 509.03 37.09 509.17 37.48 509.32C38.02 509.5 38.55 509.7 39.09 509.91C39.48 508.93 39.89 507.88 40.34 506.76L40.34 506.75C47.79 488.08 62.61 450.86 78.54 410.44L78.6 410.3L78.65 410.17L80.94 404.09L86.19 390.5L88.2 385.28L88.34 384.92L88.39 384.8L96.69 363.31L98.42 358.92L98.5 358.71L107.4 336.19L112.75 322.62L114.7 317.8L114.71 317.76C121.7 299.58 127.75 283.58 132.07 271.72L133.99 264.1Z"/><path id="Fill-66" fill="#96DAD5" fill-opacity="1" fill-rule="evenodd" d="M-41.05 494.26C-41.09 494.32 -41.11 494.35 -41.11 494.35L-41.43 494.26L-41.05 494.26Z"/><path id="Fill-68" fill="#96DAD5" fill-opacity="1" fill-rule="evenodd" d="M-1.38 428.35C-17.78 455.36 -31.48 477.91 -37.82 488.36C-37.85 488.4 -37.87 488.44 -37.9 488.48C-38.2 488.97 -38.48 489.44 -38.75 489.88L-37.91 488.47C-38.24 488.39 -38.59 488.31 -38.93 488.22C-39.43 488.09 -39.92 487.97 -40.42 487.85C-40.48 487.83 -40.54 487.82 -40.6 487.81L-44.29 486.82C-46.75 486.15 -49.19 485.43 -51.62 484.69C-54.05 483.94 -56.49 483.19 -58.89 482.38C-59.34 482.22 -59.8 482.07 -60.26 481.92C-60.94 481.68 -61.62 481.45 -62.3 481.21C-62.52 481.14 -62.73 481.06 -62.95 480.98C-62.9 480.86 -62.85 480.74 -62.79 480.63C-62.59 480.68 -62.38 480.73 -62.17 480.78C-61.45 480.97 -60.73 481.16 -60 481.36C-59.55 481.48 -59.11 481.6 -58.66 481.72C-56.2 482.38 -53.77 483.11 -51.33 483.85C-48.9 484.59 -46.47 485.34 -44.06 486.17L-40.45 487.39C-40.37 487.42 -40.29 487.45 -40.2 487.48C-39.75 487.65 -39.29 487.82 -38.84 487.98C-38.5 488.1 -38.17 488.22 -37.84 488.35L-27.44 471.16L-11.05 444.23L-1.38 428.35Z"/><path id="Fill-70" fill="#96DAD5" fill-opacity="1" fill-rule="evenodd" d="M7.19 412.89C6.79 412.74 6.39 412.57 5.99 412.4C3.71 411.44 1.54 410.32 -0.61 409.16C-3.13 407.77 -5.6 406.31 -7.94 404.62C-5.24 405.68 -2.67 406.99 -0.14 408.36C2 409.54 4.11 410.77 6.13 412.15L6.13 412.16C6.49 412.4 6.84 412.64 7.19 412.89Z"/><path id="Fill-72" fill="#672448" fill-opacity="1" fill-rule="evenodd" d="M73.35 238.25L70.75 245.74L60.98 242.77C60.93 242.91 66.78 236.25 66.78 236.25L73.35 238.25Z"/><path id="Fill-74" fill="#672448" fill-opacity="1" fill-rule="evenodd" d="M72.61 246.48L97.14 253.97L99.76 246.4L75.23 238.91L72.61 246.48Z"/><path id="Fill-76" fill="#672448" fill-opacity="1" fill-rule="evenodd" d="M102.18 251.42C102.1 251.65 102.22 251.89 102.44 251.97L104.08 252.47L102.93 255.77L99.02 254.58L101.6 247.15L105.51 248.34L104.37 251.61L102.76 251.12C102.73 251.11 102.7 251.1 102.67 251.1C102.46 251.08 102.26 251.21 102.18 251.42Z"/><path id="Fill-77" fill="#EDFBFB" fill-opacity="1" fill-rule="evenodd" d="M118.95 260.74L118.95 260.74C118.85 260.98 118.6 261.11 118.36 261.03L103.31 256.43C103.07 256.35 102.94 256.11 103.02 255.87L104.18 252.49L105.05 252.76L104.04 255.69L118.66 260.17C118.9 260.24 119.03 260.5 118.95 260.74Z"/><path id="Fill-78" fill="#672448" fill-opacity="1" fill-rule="evenodd" d="M127.44 255.05L124.83 262.61L118.91 260.81L118.92 260.8C119 260.56 118.87 260.31 118.63 260.23L104.04 255.78L105.05 252.87L106.69 253.37C106.93 253.44 107.19 253.31 107.28 253.07C107.36 252.82 107.23 252.57 106.99 252.5L105.35 252L106.36 249.09L120.95 253.54C121.19 253.61 121.44 253.48 121.53 253.25L127.44 255.05Z"/><path id="Fill-79" fill="#672448" fill-opacity="1" fill-rule="evenodd" d="M137.37 258.23C136.57 260.48 135.67 262.97 134.69 265.68L126.71 263.26L129.31 255.78L137.37 258.23Z"/><path id="Fill-80" fill="#2A4D52" fill-opacity="1" fill-rule="evenodd" d="M129.94 261.62C129.89 261.74 129.76 261.81 129.64 261.77L101.57 253.21L97.91 252.1C97.79 252.06 97.73 251.93 97.76 251.81C97.8 251.69 97.94 251.62 98.05 251.65L101.69 252.76L129.78 261.32C129.91 261.36 129.97 261.5 129.94 261.62Z"/><path id="Fill-81" fill="#96DAD5" fill-opacity="1" fill-rule="evenodd" d="M-37.45 488.1L-38.3 489.53L-39.39 491.34L-40.24 492.73L-40.76 493.6L-40.82 493.68L-40.82 493.7C-40.83 493.71 -40.84 493.72 -40.84 493.73C-40.99 493.98 -41.09 494.16 -41.15 494.26L-41.53 494.26L-43.56 493.69L-63.19 488.17L-64.3 487.85L-66.12 487.34C-66.12 487.33 -64.95 484.85 -62.86 480.46C-62.64 480.53 -62.41 480.62 -62.19 480.69C-61.51 480.94 -60.82 481.17 -60.12 481.41C-59.66 481.57 -59.2 481.72 -58.73 481.88C-56.3 482.71 -53.83 483.47 -51.37 484.24C-48.89 484.99 -46.42 485.73 -43.92 486.41L-40.18 487.42C-40.12 487.43 -40.06 487.44 -40 487.46C-39.49 487.58 -39 487.71 -38.49 487.84C-38.14 487.93 -37.79 488.01 -37.45 488.1Z"/><path id="Fill-82" fill="#2A4D52" fill-opacity="1" fill-rule="evenodd" d="M93.06 279.43C93.05 279.46 93.05 279.47 93.03 279.48L92.86 279.61L86.87 284.54L73.79 306.19L73.78 306.22L71.6 309.82L71.59 309.84L54.5 338.14L22.05 391.73L-10.54 445.24L-26.84 471.98L-37.3 488.98L-37.38 489.09L-40.67 494.45L-40.16 493.6L-39.34 492.24L-38.28 490.47L-37.45 489.07L-37.38 488.95L-27.1 471.84L-10.9 445.03L-1.35 429.23L1.66 424.24L21.51 391.42L54.07 337.89L71.99 308.5L72 308.48L74.15 304.95L86.68 284.4C86.69 284.39 86.7 284.38 86.71 284.37L92.76 279.49L92.9 279.38L93.08 278.44L93.41 277.46L93.06 279.43Z"/><path id="Fill-83" fill="#2A4D52" fill-opacity="1" fill-rule="evenodd" d="M98.9 263.48L93.19 280.3C93.15 280.42 93.02 280.48 92.9 280.45C92.89 280.44 92.88 280.44 92.87 280.43C92.82 280.4 92.78 280.36 92.77 280.31C92.75 280.26 92.75 280.22 92.76 280.17L98.48 263.34C98.52 263.22 98.65 263.16 98.76 263.2C98.82 263.22 98.87 263.26 98.9 263.32C98.92 263.36 98.92 263.42 98.9 263.48Z"/><path id="Fill-84" fill="#2A4D52" fill-opacity="1" fill-rule="evenodd" d="M70.43 424.34C68.3 424.43 66.17 424.41 64.05 424.38C61.93 424.36 59.8 424.27 57.68 424.17C55.57 424.05 53.45 423.94 51.34 423.74L48.18 423.46C47.12 423.33 46.07 423.24 45.02 423.08C46.09 423.03 47.14 423.04 48.21 423.02L51.4 423.05C53.52 423.07 55.64 423.16 57.76 423.26C59.88 423.38 61.99 423.5 64.11 423.68C66.22 423.86 68.33 424.05 70.43 424.34Z"/><path id="Fill-85" fill="#2A4D52" fill-opacity="1" fill-rule="evenodd" d="M7.19 412.89C6.79 412.74 6.39 412.57 5.99 412.4C3.71 411.44 1.54 410.32 -0.61 409.16C-3.13 407.77 -5.6 406.31 -7.94 404.62C-5.24 405.68 -2.67 406.99 -0.14 408.36C2 409.54 4.11 410.77 6.13 412.15L6.13 412.16C6.49 412.4 6.84 412.64 7.19 412.89Z"/><path id="Fill-86" fill="#2A4D52" fill-opacity="1" fill-rule="evenodd" d="M118.74 310.26L113.71 323.81L108.59 337.34L98.34 364.37L87.87 391.36L82.63 404.84L77.3 418.3L79.98 411.06L80.04 410.92L80.09 410.79L82.33 404.74L87.45 391.23L89.42 386.03L89.55 385.68L89.6 385.56L97.71 364.18L99.4 359.82L99.48 359.61L108.17 337.21L113.4 323.71L115.31 318.92L115.32 318.88L118.74 310.26Z"/><path id="Fill-87" fill="#2A4D52" fill-opacity="1" fill-rule="evenodd" d="M-36.41 488.53C-36.73 488.45 -37.06 488.38 -37.38 488.29C-37.4 488.29 -37.43 488.29 -37.45 488.28L-37.46 488.28C-37.8 488.19 -38.15 488.11 -38.5 488.01C-39.01 487.88 -39.51 487.75 -40.02 487.63C-40.08 487.61 -40.14 487.6 -40.2 487.58L-43.96 486.56C-46.46 485.86 -48.95 485.11 -51.43 484.35C-53.9 483.56 -56.38 482.78 -58.83 481.94C-59.29 481.77 -59.76 481.62 -60.22 481.46C-60.92 481.22 -61.61 480.97 -62.3 480.73C-62.52 480.65 -62.74 480.56 -62.97 480.48C-64.04 480.1 -65.1 479.7 -66.15 479.29C-65.03 479.55 -63.91 479.82 -62.8 480.12C-62.59 480.17 -62.38 480.22 -62.17 480.28C-61.43 480.47 -60.7 480.67 -59.96 480.88C-59.5 481 -59.05 481.13 -58.59 481.26C-56.09 481.94 -53.61 482.7 -51.13 483.46C-48.65 484.24 -46.18 485.02 -43.72 485.88L-40.05 487.15C-39.97 487.19 -39.88 487.21 -39.8 487.25C-39.34 487.42 -38.87 487.6 -38.41 487.77C-38.06 487.89 -37.72 488.01 -37.39 488.14C-37.38 488.15 -37.37 488.16 -37.37 488.16C-37.35 488.16 -37.32 488.16 -37.31 488.18C-37 488.29 -36.71 488.41 -36.41 488.53Z"/><path id="Fill-88" fill="#2A4D52" fill-opacity="1" fill-rule="evenodd" d="M42.21 510.08C41.95 510.02 41.68 509.96 41.42 509.89C41.4 509.88 41.38 509.89 41.36 509.87C40.78 509.74 40.21 509.59 39.64 509.44C39.24 509.34 38.83 509.24 38.42 509.14L34.66 508.1C32.15 507.41 29.68 506.66 27.19 505.9C25.07 505.23 22.94 504.56 20.83 503.83C20.48 503.72 20.14 503.6 19.79 503.48C19.23 503.29 18.65 503.1 18.09 502.9C17.73 502.77 17.38 502.65 17.03 502.52C15.51 501.99 13.99 501.43 12.47 500.84C14.05 501.2 15.62 501.61 17.17 502.03C17.53 502.12 17.89 502.22 18.25 502.32C18.84 502.48 19.43 502.64 20.02 502.81C21.06 503.09 22.09 503.39 23.13 503.69C24.58 504.13 26.04 504.57 27.49 505.02C29.97 505.79 32.44 506.58 34.89 507.43L38.57 508.7C38.97 508.85 39.36 509 39.76 509.15C40.31 509.35 40.85 509.55 41.4 509.76L41.47 509.78C41.72 509.88 41.96 509.97 42.21 510.08Z"/><path id="Fill-1" fill="#EED3C7" fill-opacity="1" fill-rule="evenodd" d="M109.56 125.81C109.85 125.74 111.43 125.45 113.01 125.24C111.12 125.35 109.29 125.68 107.47 126.27C105.78 126.81 104.12 127.59 102.45 128.63C104.64 127.38 107.12 126.4 109.56 125.81Z"/><path id="Fill-3" fill="#EED3C7" fill-opacity="1" fill-rule="evenodd" d="M148.03 217.56C149 213.71 149.97 209.81 150.91 205.99C150 209.55 149.04 213.21 148.03 217.56Z"/><path id="Fill-5" fill="#EED3C7" fill-opacity="1" fill-rule="evenodd" d="M141.04 245.05L72.96 223.33C72.92 223.61 72.88 223.89 72.83 224.16L140.81 245.85C140.89 245.59 140.96 245.32 141.04 245.05Z"/><path id="Fill-7" fill="#EED3C7" fill-opacity="1" fill-rule="evenodd" d="M129.22 252.47L129.21 252.47L71.43 234.03C71.39 234.3 71.37 234.44 71.37 234.44C71.33 234.59 71.53 234.8 71.96 235.08L128.06 252.98L134.82 255.13L137.75 256.06C137.84 255.84 137.94 255.59 138.04 255.28L135.34 254.42L129.22 252.47Z"/><path id="Fill-9" fill="#EED3C7" fill-opacity="1" fill-rule="evenodd" d="M309.05 203.4C307.97 202.79 304.47 203.22 300.96 203.75C300.95 203.76 300.95 203.76 300.95 203.76C299.49 203.97 298.04 204.2 296.77 204.39L296.61 204.4C295.52 204.56 294.57 204.67 293.85 204.7C293.82 204.7 293.79 204.7 293.76 204.71C293.43 204.71 293.16 204.7 292.95 204.67C295.43 203.25 305.86 198.43 305.6 197.6C305.15 196.19 299.97 196.86 293.99 199.11C293.6 199.25 292.96 199.44 292.15 199.64C291.81 199.73 291.45 199.81 291.06 199.89C290.75 199.97 290.45 200.04 290.15 200.09C288.57 200.41 286.75 200.7 285.02 200.83C284.74 200.86 284.45 200.87 284.17 200.88C282.59 200.97 281.13 200.9 280.07 200.57C280.02 200.56 279.97 200.54 279.91 200.52C278.72 200.11 278.11 199.35 278.5 198.08C279.15 195.93 282.61 194.29 284.36 193.15C285.67 192.3 287.1 191.31 288.28 190.2C288.93 189.59 291.51 187.18 290.94 186.17C290.81 185.96 290.51 185.9 290.25 185.88C283.65 185.29 277.24 188.16 271.43 191.06C259.82 196.85 250.82 206.2 239.94 213.1C229.27 219.88 213.64 231.25 200.6 226.91C191.04 223.74 184.02 213.16 178.65 200.52C178.55 200.28 178.45 200.04 178.35 199.79C178.26 199.57 178.17 199.35 178.07 199.13C177.03 196.58 176.05 193.96 175.13 191.31C173.35 186.17 171.78 180.92 170.38 175.85C169.78 173.68 169.21 171.54 168.66 169.46C168.6 169.23 168.54 168.99 168.48 168.76C168.43 168.58 168.39 168.41 168.35 168.24L168.34 168.24C166.57 161.42 165.55 155.13 163.75 150.74C158.4 137.72 144.47 131.4 144.47 131.4C142.43 130.14 140.08 129.1 137.38 128.39C136.18 128.07 135 127.77 133.85 127.46C133.66 127.42 133.48 127.37 133.29 127.32C132.8 127.2 132.33 127.07 131.87 126.95C131.4 126.82 130.94 126.7 130.48 126.58C130.38 126.56 130.27 126.52 130.16 126.5C129.82 126.41 129.48 126.33 129.14 126.24C129.05 126.21 128.95 126.19 128.86 126.17C124.79 125.16 121.07 124.39 117.55 124.19C117.04 124.62 103.45 127.64 103.46 127.62L103.45 127.62C99.8 129.91 96.15 133.48 92.27 138.79C92.04 139.1 91.8 139.45 91.58 139.86C91.57 139.87 91.56 139.87 91.56 139.88C88.44 142.83 85.2 145.65 81.85 148.35C81.84 148.36 81.82 148.37 81.8 148.38C76.83 152.4 71.61 156.12 66.18 159.53C64.54 160.57 62.87 161.57 61.19 162.54C61.02 162.64 60.85 162.74 60.67 162.83C55.68 165.69 50.52 168.3 45.26 170.59C34.33 175.4 22.88 178.98 11.19 181.26C8.18 181.84 5.15 182.34 2.12 182.76C1.2 182.88 0.27 183 -0.66 183.11C-6.01 183.75 -11.38 184.11 -16.75 184.2C-18.03 184.23 -19.3 184.23 -20.57 184.23C-27.05 184.19 -36.96 182.32 -40.62 182.76C-45.98 183.39 -51.36 184.05 -56.67 185C-57.58 185.15 -68.62 187.47 -66.87 188.9C-64.54 190.84 -50.02 189.84 -46.98 190.84C-50.32 192.05 -64.1 195.7 -63.99 196.78C-63.79 198.38 -58.86 198.82 -52.43 197.94C-55.97 199.2 -58.15 200.53 -58.02 201.55C-57.78 203.43 -49.73 203.58 -40.06 201.87C-36.71 201.28 -27.98 200.15 -28.47 201.09C-29.96 204.02 -43.19 204.7 -44.45 207.7C-45.54 210.27 -34.94 210.25 -24.78 209.73C-18.06 209.39 -11.54 208.83 -8.72 208.65C-5.71 208.47 -2.7 208.21 0.29 207.87C1.33 207.76 2.36 207.63 3.4 207.5C7.42 207 11.41 206.35 15.39 205.58C19.35 204.81 23.3 203.9 27.2 202.87C29.28 202.33 31.34 201.76 33.4 201.14C33.53 201.1 33.67 201.06 33.8 201.01C35.48 200.51 37.15 199.98 38.81 199.44C42.63 198.16 46.43 196.76 50.16 195.24C51.95 194.51 53.74 193.75 55.51 192.97C57.43 192.12 59.34 191.24 61.23 190.32C62.45 189.74 63.67 189.13 64.88 188.51C66.13 187.87 67.37 187.22 68.6 186.56C68.9 186.41 69.19 186.25 69.48 186.08C70.32 185.63 71.15 185.17 71.98 184.7C74.58 183.23 77.15 181.7 79.67 180.1C79.96 179.93 80.23 179.75 80.52 179.58C80.2 181.12 79.9 182.67 79.59 184.23C80.37 183.17 153.33 194.61 152.41 198.59C152.21 199.46 152.01 200.31 151.81 201.16C152.01 200.31 152.23 199.47 152.43 198.64C152.46 198.73 152.49 198.82 152.53 198.91C152.74 199.44 152.95 199.97 153.16 200.51C154.64 204.22 156.25 207.93 158 211.66C158.7 213.16 159.43 214.66 160.19 216.17C163.13 222.05 166.49 228.03 170.42 234.24C173.57 239.23 177.69 243.31 182.41 246.38C193.64 253.7 208.32 255.32 221.76 249.82C225.43 248.32 229.05 246.73 232.63 245.04C235.09 243.87 237.54 242.66 239.94 241.39C241.74 240.45 243.53 239.47 245.28 238.47C251.9 234.71 262.26 227.19 269.97 221.51C275.54 217.4 279.74 214.26 280.15 214.19C283.2 213.64 286.24 212.8 289.08 211.94C293.25 210.68 297.44 209.39 301.52 207.9C302.22 207.66 310.67 204.27 309.05 203.4Z"/><path id="Fill-12" fill="#672348" fill-opacity="1" fill-rule="evenodd" d="M191.92 222.2C191.91 222.21 191.9 222.23 191.88 222.22C190.83 222.25 189.84 222.35 188.87 222.6C187.92 222.84 186.96 223.13 186.1 223.64C184.37 224.67 183.03 226.37 182.47 228.33C182.47 228.35 182.44 228.36 182.42 228.36C182.41 228.35 182.39 228.33 182.39 228.32C182.57 227.3 182.94 226.31 183.52 225.42C184.09 224.53 184.85 223.74 185.74 223.12C186.62 222.49 187.64 221.98 188.73 221.82C189.81 221.66 190.93 221.74 191.9 222.14C191.92 222.16 191.93 222.18 191.92 222.2Z"/><path id="Fill-14" fill="#672348" fill-opacity="1" fill-rule="evenodd" d="M301.26 205.92C300.25 206.43 299.12 206.57 298.04 206.76C296.95 206.93 295.85 207.04 294.75 207.18C292.55 207.41 290.36 207.68 288.17 208.02C289.24 207.69 290.32 207.45 291.42 207.25C292.3 207.1 293.19 206.98 294.08 206.87C294.12 206.86 294.14 206.86 294.17 206.86C294.35 206.83 294.53 206.81 294.71 206.79L296.93 206.57L297.09 206.55L298.01 206.46C298.56 206.4 299.12 206.34 299.66 206.26C300.19 206.19 300.74 206.12 301.26 205.92Z"/><path id="Fill-16" fill="#672348" fill-opacity="1" fill-rule="evenodd" d="M292.44 201.75C292.42 201.75 292.41 201.77 292.39 201.77C291.38 202.19 290.32 202.5 289.25 202.76C288.17 203.02 287.07 203.21 285.96 203.31C284.84 203.38 283.73 203.42 282.62 203.27C281.83 203.16 281.05 202.99 280.32 202.7C280.26 202.68 280.21 202.67 280.16 202.64C279.92 202.55 279.69 202.44 279.47 202.32C281.06 202.87 282.73 203.05 284.41 203.01C284.69 203 284.98 202.98 285.26 202.96C285.48 202.95 285.71 202.93 285.93 202.91C287.02 202.84 288.11 202.65 289.2 202.46C289.6 202.39 289.99 202.31 290.39 202.22C290.69 202.17 290.99 202.1 291.3 202.02C291.68 201.94 292.07 201.85 292.44 201.75Z"/><path id="Fill-18" fill="#672348" fill-opacity="1" fill-rule="evenodd" d="M280.84 208.68C280.84 208.69 280.82 208.68 280.82 208.68C280.2 208.22 279.6 207.75 279 207.29C278.37 206.85 277.78 206.38 277.13 205.98C275.86 205.14 274.59 204.31 273.22 203.64C271.85 202.97 270.42 202.4 268.93 202.02C267.44 201.64 265.89 201.38 264.34 201.48C264.33 201.48 264.33 201.48 264.32 201.46C264.32 201.45 264.33 201.44 264.34 201.44C265.9 201.28 267.47 201.5 268.99 201.83C270.5 202.17 271.96 202.71 273.37 203.34C274.78 203.98 276.12 204.75 277.37 205.64C278.01 206.09 278.59 206.59 279.19 207.06C279.76 207.57 280.3 208.11 280.85 208.64C280.85 208.65 280.86 208.67 280.84 208.68Z"/><path id="Fill-20" fill="#2A8C79" fill-opacity="1" fill-rule="evenodd" d="M141.21 245.54L139.83 245.11L72.76 224.19L60.53 220.37L78.49 186.46C78.87 185.71 79.31 185 79.81 184.33C80.58 183.28 81.5 182.33 82.54 181.51C86.01 178.74 89.1 175.6 91.76 172.17L91.76 172.16C91.77 172.15 91.77 172.15 91.78 172.15C95.31 167.57 98.07 162.48 99.95 157.09C101.54 152.5 102.49 147.69 102.73 142.78L103.41 129.03L103.41 129.02C103.41 128.94 103.44 128.52 103.45 128.49C105.62 127.25 108.09 126.27 110.52 125.68C110.81 125.61 112.38 125.33 113.95 125.12C113.97 125.12 113.98 125.12 113.99 125.11C115.1 125.04 116.24 125.04 117.4 125.11C117.64 126.16 117.7 129.06 117.7 129.06C117.67 134.48 136.43 166.66 141.87 168.34C141.87 168.34 148.07 140.8 144.89 133.93C144.68 133.48 144.52 133.15 144.43 132.95C144.41 132.92 144.4 132.89 144.38 132.86L144.05 132.22C144.09 132.24 146.03 133.21 146.16 133.33C148.68 135.37 150.03 138.32 151.35 140.48C152.33 142.05 153.07 143.6 153.61 144.99C157.66 155.45 156.73 167.93 155.18 180C154.19 187.71 153.1 193.37 151.92 198.5C151.72 199.35 151.53 200.19 151.32 201.03C151.06 202.06 150.81 203.09 150.54 204.13C150.42 204.64 150.28 205.15 150.15 205.66C149.22 209.26 148.24 212.95 147.2 217.33C147.19 217.4 147.16 217.5 147.13 217.61C146.64 219.39 144.36 226.7 143.17 232.82C142.36 236.88 141.76 241.28 141.21 245.54Z"/><path id="Fill-22" fill="#2A8C79" fill-opacity="1" fill-rule="evenodd" d="M116.5 125.35C115.33 125.28 114.18 125.28 113.05 125.35C114.74 125.13 116.42 125 116.5 125.35Z"/><path id="Fill-24" fill="#2A8C79" fill-opacity="1" fill-rule="evenodd" d="M136.81 266.62C136.51 266.69 136.12 266.72 135.64 266.72C133.85 266.68 130.88 266.11 127.09 265.16C122.51 264.01 116.72 262.29 110.39 260.29L110.38 260.28C86.82 252.79 55.72 241.23 50.93 239.44C50.52 239.29 50.3 239.2 50.3 239.2L55.3 229.65L59.46 230.97L59.47 230.97L60.64 231.34L72.11 234.96L128.1 252.63L134.85 254.76L137.77 255.67L138.29 255.84L138.78 255.99L140.98 256.69C140.03 262.19 138.83 266.13 136.81 266.62Z"/><path id="Fill-26" fill="#2A8C79" fill-opacity="1" fill-rule="evenodd" d="M140.94 256.29L138.76 255.61L138.31 255.47L137.89 255.33L135.19 254.48L129.08 252.55L129.07 252.55L71.39 234.32L61.34 231.14L60.16 230.77L55.48 229.29L60.31 220.06L72.97 224.07L140.83 245.52L142.35 246C141.89 249.66 141.45 253.2 140.94 256.29Z"/><path id="Fill-28" fill="#2A8C79" fill-opacity="1" fill-rule="evenodd" d="M142.34 246.34L140.81 245.85L72.83 224.16L60.16 220.11L60.54 219.35L72.96 223.32L141.04 245.05L142.45 245.5C142.41 245.78 142.37 246.06 142.34 246.34Z"/><path id="Fill-30" fill="#2A8C79" fill-opacity="1" fill-rule="evenodd" d="M140.96 257.09L138.76 256.39L138.27 256.23L137.75 256.06L134.82 255.13L128.06 252.98L71.96 235.07L60.47 231.41L59.29 231.03L59.28 231.03L55.11 229.7L55.5 228.94L60.18 230.44L61.37 230.82L71.43 234.02L129.21 252.47L129.22 252.47L135.34 254.42L138.04 255.28L138.47 255.42L138.91 255.56L141.1 256.26C141.06 256.53 141.01 256.82 140.96 257.09Z"/><path id="Fill-32" fill="#672348" fill-opacity="1" fill-rule="evenodd" d="M48.55 178.07C48.56 178.09 48.55 178.11 48.53 178.13C48.51 178.13 48.49 178.12 48.48 178.12C47.7 177.42 46.93 176.83 46.06 176.36C45.21 175.9 44.31 175.47 43.33 175.28C41.37 174.89 39.21 175.28 37.42 176.39C37.4 176.4 37.37 176.39 37.36 176.37C37.35 176.36 37.35 176.34 37.37 176.33C38.21 175.68 39.18 175.18 40.22 174.88C41.27 174.59 42.37 174.51 43.45 174.64C44.53 174.76 45.61 175.06 46.51 175.67C47.4 176.28 48.14 177.1 48.55 178.07Z"/><path id="Fill-34" fill="#672348" fill-opacity="1" fill-rule="evenodd" d="M-27.52 196.47C-27.53 196.47 -27.54 196.48 -27.55 196.48C-29.18 195.68 -30.77 194.83 -32.32 193.92C-33.87 193.02 -35.4 192.07 -36.95 191.14C-38.48 190.22 -40.05 189.29 -41.86 189.02C-43.65 188.73 -45.46 188.47 -47.23 188.08C-47.25 188.08 -47.25 188.07 -47.25 188.06C-47.25 188.05 -47.23 188.04 -47.23 188.04C-45.44 188.39 -43.63 188.61 -41.82 188.87C-39.99 189.11 -38.36 190.04 -36.81 190.92C-35.25 191.81 -33.66 192.67 -32.1 193.57C-30.54 194.47 -29.02 195.42 -27.53 196.44C-27.52 196.44 -27.52 196.46 -27.52 196.47Z"/><path id="Fill-36" fill="#672348" fill-opacity="1" fill-rule="evenodd" d="M-39.28 192.7C-39.29 192.71 -39.29 192.72 -39.3 192.72C-40.42 193.05 -41.54 193.3 -42.67 193.56C-43.8 193.81 -44.95 193.98 -46.08 194.18L-52.91 195.37C-52.92 195.37 -52.93 195.36 -52.93 195.35C-52.94 195.34 -52.93 195.33 -52.92 195.33L-46.14 193.87C-45 193.63 -43.88 193.36 -42.74 193.17C-41.6 192.98 -40.46 192.79 -39.31 192.68C-39.3 192.68 -39.29 192.69 -39.28 192.7Z"/><path id="Fill-38" fill="#EDFBFB" fill-opacity="1" fill-rule="evenodd" d="M142.34 246.34L140.81 245.85L72.83 224.16L60.16 220.11L60.54 219.35L72.96 223.32L141.04 245.05L142.45 245.5C142.41 245.78 142.37 246.06 142.34 246.34Z"/><path id="Fill-40" fill="#EDFBFB" fill-opacity="1" fill-rule="evenodd" d="M140.96 257.09L138.76 256.39L138.27 256.23L137.75 256.06L134.82 255.13L128.06 252.98L71.96 235.07L60.47 231.41L59.29 231.03L59.28 231.03L55.11 229.7L55.5 228.94L60.18 230.44L61.37 230.82L71.43 234.02L129.21 252.47L129.22 252.47L135.34 254.42L138.04 255.28L138.47 255.42L138.91 255.56L141.1 256.26C141.06 256.53 141.01 256.82 140.96 257.09Z"/><path id="Fill-42" fill="#672448" fill-opacity="1" fill-rule="evenodd" d="M140.3 149.05C140.29 149.06 140.29 149.07 140.28 149.07C139.68 149.08 139.09 149.08 138.5 149.07C138.2 149.07 137.9 149.09 137.61 149.05C137.32 149.01 137.03 148.97 136.74 148.86C136.73 148.86 136.73 148.86 136.73 148.84C136.73 148.84 136.73 148.83 136.74 148.84C137.04 148.77 137.34 148.75 137.64 148.75C137.94 148.75 138.23 148.8 138.52 148.83C139.11 148.89 139.7 148.96 140.28 149.04C140.29 149.04 140.3 149.04 140.3 149.05Z"/><path id="Fill-44" fill="#672448" fill-opacity="1" fill-rule="evenodd" d="M132.68 148.46C132.69 148.47 132.69 148.49 132.67 148.49C132.67 148.5 132.66 148.5 132.65 148.5C132.2 148.34 131.8 148.11 131.42 147.87C131.23 147.75 131.04 147.61 130.86 147.48L130.87 147.47C130.69 147.33 130.51 147.17 130.34 147.04C129.62 146.47 128.92 145.89 128.23 145.3C128.21 145.29 128.21 145.27 128.22 145.27C128.23 145.26 128.24 145.26 128.25 145.26C129.03 145.74 129.81 146.23 130.56 146.73C130.74 146.84 130.91 146.95 131.09 147.05C131.3 147.19 131.51 147.33 131.7 147.49C132.05 147.78 132.39 148.09 132.68 148.46Z"/><path id="Fill-1" fill="#EED3C7" fill-opacity="1" fill-rule="evenodd" d="M123.79 96.82C124.54 97.44 125.35 98.01 126.19 98.54C125.29 98.14 124.5 97.55 123.79 96.82Z"/><path id="Fill-3" fill="#EED3C7" fill-opacity="1" fill-rule="evenodd" d="M181.84 103.03C181.58 102.85 180.66 101.65 181.45 101.94C181.78 102.42 183.72 104.34 181.84 103.03ZM134.77 87.02L134.65 87.15C133.2 84.96 129.39 86.76 131.8 88.84L131.77 88.9C129.23 86.95 132.84 84.7 134.64 86.71C137.04 79.89 122.59 79.21 125.91 89.78L125.85 89.81C121.16 77.95 138.54 79.62 134.77 87.02ZM187.59 98.53C184.09 87.43 192.09 75.19 189.04 64.11C183.35 64.82 172.94 63.39 165.8 61.34C162.46 71.55 151.45 80.87 140.48 82.85C127.81 67.59 109.81 94.27 129.45 99.21C129.56 99.29 143.24 116.08 143.39 116.1L143.38 116.13C148.63 120.98 155.1 128.34 163.45 125.9C172.65 122.23 180.46 113.35 183.17 104.19C187.13 106.88 190.06 101.81 187.59 98.53Z"/><path id="Fill-6" fill="#EED3C7" fill-opacity="1" fill-rule="evenodd" d="M134.47 86.65L134.35 86.78C132.9 84.59 129.09 86.38 131.5 88.46L131.47 88.52C128.93 86.57 132.54 84.32 134.34 86.34C136.74 79.52 122.29 78.83 125.61 89.41L125.55 89.44C120.86 77.58 138.24 79.25 134.47 86.65Z"/><path id="Fill-8" fill="#EED3C7" fill-opacity="1" fill-rule="evenodd" d="M143.55 115.69L143.54 115.72C139.49 111.99 135.08 108.41 131.96 104.07C131.96 104.07 131.94 104.07 131.95 104.06C131.08 102.44 129.08 100.62 129.55 98.72C129.66 98.8 143.39 115.68 143.55 115.69Z"/><path id="Fill-10" fill="#EED3C7" fill-opacity="1" fill-rule="evenodd" d="M182.28 103.32C182.02 103.15 181.1 101.93 181.89 102.23C182.22 102.71 184.17 104.64 182.28 103.32Z"/><path id="Fill-12" fill="#672348" fill-opacity="1" fill-rule="evenodd" d="M182.28 103.32C182.02 103.15 181.1 101.93 181.89 102.23C182.22 102.71 184.17 104.64 182.28 103.32Z"/><path id="Fill-14" fill="#672348" fill-opacity="1" fill-rule="evenodd" d="M134.47 86.65L134.35 86.78C132.9 84.59 129.09 86.38 131.5 88.46L131.47 88.52C128.93 86.57 132.54 84.32 134.34 86.34C136.74 79.52 122.29 78.83 125.61 89.41L125.55 89.44C120.86 77.58 138.24 79.25 134.47 86.65Z"/><path id="Fill-16" fill="#672348" fill-opacity="1" fill-rule="evenodd" d="M189.21 64.17C183.23 64.97 172.89 63.55 165.49 61.45C162.14 71.67 151.12 80.99 140.14 82.98C127.46 67.7 109.44 94.41 129.09 99.36L128.86 100.03L128.76 99.8C99.83 88.79 116.9 40.04 146.84 44.02C152.05 41.17 163.69 40.7 176.57 43.25C198.78 47.04 209.73 60.37 189.21 64.17Z"/><path id="Fill-19" fill="#672348" fill-opacity="1" fill-rule="evenodd" d="M129.14 99.37L128.91 100.01C127.97 99.57 127.07 99.08 126.21 98.55C127.07 98.94 128 99.15 129.04 99.14C129.07 99.22 129.1 99.3 129.14 99.37Z"/><path id="Fill-21" fill="#EED3C7" fill-opacity="1" fill-rule="evenodd" d="M141.58 121.54C141.6 121.49 143.57 115.57 143.58 115.53C143.46 115.53 129.82 98.78 129.73 98.72C127.38 105.95 122.31 121.62 120.16 128.71L137.43 133.96L141.58 121.54Z"/><path id="Fill-23" fill="#EED3C7" fill-opacity="1" fill-rule="evenodd" d="M141.58 121.68C139.53 120.03 134.91 110.35 132.02 104.05C132.02 104.05 132 104.04 132.01 104.04C130.66 101.09 129.71 98.92 129.62 98.72C129.73 98.8 143.41 115.6 143.56 115.61C143.28 116.48 141.79 120.9 141.58 121.68Z"/><path id="Fill-35" fill="#672348" fill-opacity="1" fill-rule="evenodd" d="M181.77 78.04C179.17 76.54 174.75 76.88 172.39 78.77C177.33 71.27 186.79 77.57 181.77 78.04Z"/><path id="Fill-1" fill="#672348" fill-opacity="1" fill-rule="evenodd" d="M177.42 87.54C176.91 89.23 175.58 90.36 174.46 90.06C173.33 89.76 172.83 88.16 173.35 86.48C173.86 84.79 175.19 83.67 176.31 83.96C177.44 84.26 177.94 85.86 177.42 87.54Z"/><path id="Fill-3" fill="#672348" fill-opacity="1" fill-rule="evenodd" d="M169.14 87.09C169.1 87.08 169.06 87.06 169.03 87.04C168.85 86.92 168.8 86.67 168.93 86.49C171.2 83.31 175.63 82.45 178.81 84.55C178.99 84.68 179.04 84.92 178.91 85.11C178.77 85.29 178.52 85.34 178.33 85.22C175.52 83.36 171.6 84.12 169.6 86.93C169.49 87.08 169.3 87.14 169.14 87.09Z"/><path id="Fill-31" fill="#EDFBFB" fill-opacity="1" fill-rule="evenodd" d="M175.14 111.28C166.53 111.32 166.15 104.95 166.15 104.95C166.15 104.95 169.27 107.03 175.43 108.66C175.38 109.03 175.25 110.42 175.14 111.28Z"/></g></svg>