<svg width="451.000000" height="646.000000" viewBox="0 0 451 646" fill="none" xmlns="http://www.w3.org/2000/svg" xmlns:xlink="http://www.w3.org/1999/xlink">
	<desc>
			Created with Pixso.
	</desc>
	<defs/>
	<path id="Fill-1" d="M215.98 29.46C215.44 33.19 214.34 36.22 212.89 38.66C212.86 37.3 212.81 35.93 212.73 34.57C215.04 30.01 216.23 24.89 215.35 21.22C216.15 23.73 216.41 26.52 215.98 29.46ZM196.03 46.99C191.43 46.51 184.28 43.74 182.82 39.78C182.28 38.34 182.54 36.83 183.56 35.29C182.84 37.52 183.43 40.86 186.3 42.9C191.44 46.55 200.67 46.96 206.02 43.01C206.91 42.36 207.77 41.55 208.59 40.66C208.58 41.64 208.55 42.63 208.52 43.61C204.72 46.52 200.11 47.42 196.03 46.99ZM189.58 12.49C192.11 10.52 195.25 9.65 198.93 9.86C193.83 10.06 188.26 12.72 184.55 20.35C185.37 17.55 186.92 14.56 189.58 12.49ZM215.27 20.94C215.25 20.82 215.21 20.71 215.17 20.59C215.21 20.7 215.24 20.82 215.27 20.94ZM205.75 10.66C198.89 8.37 193.33 8.84 189.22 12.04C186.17 14.42 184.49 17.89 183.73 21.01C183.55 21.03 183.37 21.06 183.19 21.08C177.55 18.97 171.74 19.78 166.95 22.45C164.8 23.65 163.61 25.17 161.48 26.41C159.9 27.38 158.32 28.35 156.75 29.32C152 33.32 148.02 37.86 147.99 44.13C147.98 45.96 148.6 50.5 149.53 54.86C148.73 54.73 148.25 54.69 147.83 54.55C141.12 52.33 136.01 56.1 136.27 63.17C136.46 68.42 138.99 72.48 143.64 74.67C146.37 75.95 146.99 77.44 146.75 80.2C145.25 97.68 142.41 114.94 138.84 132.11C138.43 134.08 138.78 136.21 138.78 138.42C142.42 138.3 142.28 136.04 142.69 134.14C146.54 116.28 149.48 98.28 151.1 80.07C151.61 74.38 151.55 74.2 146.07 71.37C141.86 69.19 139.42 64.51 140.92 60.93C141.43 59.71 142.69 58.2 143.8 58C144.8 57.83 146.19 59.17 147.19 60.08C147.84 60.66 147.94 61.86 148.59 62.42C149.59 63.28 150.85 63.83 152 64.51C152.13 64.27 152.26 64.04 152.4 63.8C152.49 63.94 152.58 64.09 152.66 64.2C152.8 63.64 152.95 63.1 153.1 62.55C153.3 62.15 153.48 61.74 153.55 61.32C153.59 61.05 153.62 60.77 153.66 60.5C158.36 44.76 168.06 33.26 183.74 26.33C183.88 26.44 184.36 26.96 184.96 27.25C185.74 27.62 186.65 27.73 187.43 28.1C189.68 29.17 191.23 31.33 189.93 33.24C188.19 35.77 186.03 35.89 185 33.55C184.95 33.43 184.65 33.63 184.47 33.67L184.26 33.48C182.16 35.69 181.5 37.88 182.27 39.98C183.89 44.35 191.4 47.09 195.97 47.56C196.62 47.63 197.29 47.66 197.97 47.66C201.5 47.66 205.26 46.68 208.5 44.35C208.43 46.11 208.33 47.86 208.17 49.61C206.78 64.69 204.8 79.69 198 93.53C194.86 99.91 191.58 101.33 184.59 99.18C179.46 97.59 174.56 95.5 170.41 91.93C169.22 90.9 167.73 89.18 166.24 91.16C164.87 92.96 166.62 94.27 167.91 95.22C170.13 96.86 172.4 98.49 174.84 99.73C180.97 102.84 187.35 105.09 194.34 103.8C194.97 105.66 195.51 107.03 195.92 108.44C198.36 116.94 200.72 125.47 203.23 133.96C203.85 136.07 203.71 138.84 208.09 139.94C207.75 137.41 207.72 135.63 207.26 133.97C204.73 124.73 202.03 115.53 199.52 106.28C198.97 104.26 197.8 102.29 199.27 99.96C205.07 90.76 207.84 80.45 209.82 69.87C211.69 59.91 212.95 49.88 212.89 39.78C214.62 37.15 215.93 33.79 216.55 29.54C217.83 20.83 213.49 13.24 205.75 10.66Z" fill="#000000" fill-opacity="1.000000" fill-rule="evenodd"/>
	<path id="Fill-1" d="M193.5 49.57L197.03 63.53L191.88 64.05L193.5 49.57Z" fill="#000000" fill-opacity="1.000000" fill-rule="evenodd"/>
	<path id="Fill-2" d="M193.51 49.71L191.91 64.02L197 63.52L193.51 49.71ZM191.88 64.07C191.88 64.07 191.87 64.07 191.86 64.07C191.86 64.06 191.86 64.05 191.86 64.05L193.47 49.57C193.48 49.56 193.49 49.55 193.5 49.55C193.51 49.55 193.52 49.56 193.52 49.57L197.05 63.53C197.05 63.54 197.05 63.54 197.05 63.55C197.04 63.55 197.04 63.56 197.03 63.56L191.88 64.07L191.88 64.07Z" fill="#000000" fill-opacity="1.000000" fill-rule="evenodd"/>
	<path id="Fill-4" d="M187.92 39.95C187.92 39.95 188.66 44.17 187.83 45.17C184.16 44.62 176.04 45.63 170.93 50.31C172.02 44.13 187.92 39.95 187.92 39.95Z" fill="#000000" fill-opacity="1.000000" fill-rule="evenodd"/>
	<path id="Fill-6" d="M187.9 39.98C187.55 40.07 183.73 41.11 179.84 42.83C177.46 43.89 175.51 44.99 174.06 46.1C172.28 47.47 171.24 48.87 170.97 50.24C173.83 47.65 177.4 46.38 179.91 45.76C182.1 45.22 185.32 44.78 187.82 45.15C188.58 44.18 187.96 40.34 187.9 39.98ZM170.93 50.34C170.93 50.34 170.92 50.33 170.92 50.33C170.91 50.33 170.91 50.32 170.91 50.31C171.16 48.89 172.21 47.46 174.03 46.06C175.49 44.95 177.44 43.84 179.82 42.79C183.89 40.99 187.87 39.93 187.91 39.93C187.92 39.92 187.93 39.92 187.93 39.93C187.94 39.93 187.94 39.94 187.94 39.94C187.97 40.12 188.67 44.18 187.85 45.19C187.84 45.2 187.83 45.2 187.82 45.2C185.34 44.83 182.11 45.27 179.92 45.81C177.41 46.42 173.81 47.71 170.95 50.33C170.94 50.33 170.94 50.34 170.93 50.34Z" fill="#000000" fill-opacity="1.000000" fill-rule="evenodd"/>
	<path id="Fill-8" d="M197.4 39.28C197.4 39.28 196.74 43.51 197.6 44.51C201.59 44.48 207.84 46.18 212.1 48.61C210.77 44.36 197.4 39.28 197.4 39.28Z" fill="#000000" fill-opacity="1.000000" fill-rule="evenodd"/>
	<path id="Fill-10" d="M197.71 44.48C201.8 44.48 207.93 46.22 212.06 48.56C211.32 46.38 207.41 44 204.24 42.37C200.94 40.68 197.75 39.44 197.42 39.32C197.36 39.7 196.82 43.54 197.61 44.48C197.64 44.48 197.67 44.48 197.71 44.48ZM212.1 48.63C212.1 48.63 212.09 48.63 212.09 48.63C207.97 46.28 201.82 44.53 197.71 44.53L197.6 44.53C197.59 44.53 197.58 44.53 197.58 44.52C197.22 44.11 197.08 43.1 197.15 41.52C197.21 40.35 197.37 39.29 197.37 39.28C197.37 39.27 197.38 39.27 197.38 39.26C197.39 39.26 197.4 39.26 197.4 39.26C197.44 39.27 200.79 40.55 204.26 42.33C207.47 43.97 211.43 46.39 212.12 48.6C212.13 48.61 212.12 48.62 212.12 48.63C212.11 48.63 212.11 48.63 212.1 48.63Z" fill="#000000" fill-opacity="1.000000" fill-rule="evenodd"/>
	<path id="Fill-13" d="M184.26 62.36C186.8 66.12 188.86 68.22 192.29 68.58C195.72 68.94 198.12 66.96 198.12 66.96C198.12 66.96 195.38 74.3 192.06 75.66C185.19 78.48 185.52 70.01 184.26 62.36Z" fill="#000000" fill-opacity="1.000000" fill-rule="evenodd"/>
	<path id="Fill-17" d="M174.36 56.36L173.63 55.71C173.75 55.57 176.57 52.41 181.4 52.16C187.36 51.86 189.98 54.63 190.09 54.74L189.37 55.41C189.34 55.38 186.91 52.86 181.45 53.14C177.05 53.36 174.39 56.33 174.36 56.36Z" fill="#000000" fill-opacity="1.000000" fill-rule="evenodd"/>
	<path id="Fill-19" d="M210.58 55.38C210.56 55.35 208.2 52.45 204.26 52.28C201.69 52.18 199.88 52.82 198.82 53.38C197.66 53.99 197.11 54.63 197.1 54.63L196.35 54C196.46 53.88 198.89 51.08 204.3 51.3C208.7 51.49 211.24 54.64 211.35 54.77L210.58 55.38Z" fill="#000000" fill-opacity="1.000000" fill-rule="evenodd"/>
	<path id="Path-37" d="M4.61 187.08L66.97 187.08C50.65 228.66 42.48 253.87 42.48 262.71C42.48 271.56 41.45 283.03 39.39 297.13L4.61 300.25L4.61 187.08Z" fill="#FFFFFF" fill-opacity="1.000000" fill-rule="evenodd"/>
	<path id="Path-38" d="M74.68 174.51C80.88 157 85.72 148.25 89.21 148.25C92.7 148.25 108.88 145 137.74 138.49C154.32 153.87 166.94 161.56 175.59 161.56C184.24 161.56 195.74 154.55 210.11 140.52C238.59 144.83 255.83 148.57 261.82 151.74C270.81 156.5 288.37 174.73 288.37 181.08C288.37 185.31 292.29 197.55 300.11 217.8C317.57 203.07 327.18 194.33 328.95 191.57C331.6 187.43 345.72 167.03 343.42 157.64C341.12 148.25 344.19 113.35 348.73 109.1C347.84 103.13 347.84 98.32 348.73 94.69L397.49 95.97L402.75 109.1C409.43 112.58 412.11 119.04 410.78 128.49C409.45 137.94 404.59 155.47 396.2 181.08L386.33 227.68L375.76 276.02C373.26 286.23 368.13 294.61 360.37 301.16C352.61 307.7 328.61 311.49 288.37 312.53C285.5 304.95 281.83 301.16 277.36 301.16C270.65 301.16 217.32 304.62 210.11 301.16C205.29 298.84 196.59 292.74 183.99 282.85L186.36 312.53C145.3 313.58 124.78 314.11 124.78 314.11C124.78 314.11 100 313.99 50.44 313.77C44.77 292.9 44.77 273.34 50.44 255.08C56.12 236.81 64.2 209.96 74.68 174.51Z" fill="#009DE9" fill-opacity="1.000000" fill-rule="evenodd"/>
	<path id="Path-39" d="M89.45 316.42C85.59 352.5 88.34 376.59 97.72 388.7C107.11 400.81 119.41 409.91 134.65 415.99L205.84 423.84L220.58 433.62L235.32 457.16L188.92 511.29L209.66 533.59L240.55 565.86L280.41 521.66L296.03 551.01L362.61 521.66L329.38 457.16C347.18 429.69 357.17 410.81 359.35 400.52C362.61 385.1 347.78 352.19 329.38 345.2C317.12 340.55 296.45 330.99 267.36 316.54L89.45 316.42Z" fill="#FFFFFF" fill-opacity="1.000000" fill-rule="evenodd"/>
	<path id="Path-40" d="M177.84 568L195.98 549.69L226.34 579.2L208.36 600.5L177.84 568Z" fill="#FF38B7" fill-opacity="1.000000" fill-rule="evenodd"/>
	<path id="Path-41" d="M172.17 570.48C162.39 584.19 156.51 592.96 154.52 596.79C152.53 600.61 147.99 607.55 140.88 617.59L156.53 630.69L172.17 625.78L172.17 637.11L252 639.77C255.57 635.08 254.49 632.05 248.74 630.69C242.99 629.33 227.43 624.96 202.07 617.59L210.88 604.76L172.17 570.48Z" fill="#6236FF" fill-opacity="1.000000" fill-rule="evenodd"/>
	<path id="Path-42" d="M311.79 562L315.74 575.1L360.3 559.76L347.89 540.45L311.79 562Z" fill="#FF38B7" fill-opacity="1.000000" fill-rule="evenodd"/>
	<path id="Path-43" d="M314.1 580.17C319.81 594.26 322.66 603.38 322.66 607.52C322.66 611.67 322.66 622.17 322.66 639.03L342.87 636.82L348.79 627.5L353.27 639.77C411.86 635.74 442.86 632.69 446.27 630.62C449.67 628.54 448.24 624.96 441.95 619.88C407.42 611.64 387.13 604.8 381.08 599.35C375.04 593.9 370.22 580.42 366.63 558.93L314.1 580.17Z" fill="#6236FF" fill-opacity="1.000000" fill-rule="evenodd"/>
	<path id="Fill-1" d="M349.45 90.44C349.45 89.89 349.29 89.11 349.58 88.83C353.12 85.54 351.21 81.6 350.86 77.92C349.87 67.64 348.47 57.4 347.67 47.11C346.68 34.23 346.12 21.33 345.4 8.44C345.31 6.97 345.1 5.44 345.41 4.03C346.26 0.1 348.7 -0.93 352.38 0.8C362.56 5.58 366.36 14.54 367.84 24.83C368.56 29.88 368.68 35.01 369.11 40.62C376.23 36.89 382.53 33.42 388.99 30.3C391.77 28.96 394.84 27.89 397.88 27.5C402.52 26.92 404.61 28.48 406.45 32.78C407.03 34.14 407.6 35.53 407.86 36.97C408.25 39.2 409.42 40.47 411.52 41.34C416.22 43.28 419.14 46.35 418.06 52.04C417.84 53.18 418.84 54.77 419.68 55.85C425.67 63.57 422.63 72.48 416.65 77.54C414.12 79.67 411.24 81.36 408.54 83.29C406.59 84.68 404.59 86.03 402.79 87.59C401.13 89.03 399.71 90.74 398.23 92.28C398.27 93 398.3 93.55 398.32 94.09L349.45 90.44Z" fill="#000000" fill-opacity="1.000000" fill-rule="evenodd"/>
	<path id="Fill-4" d="M349.45 5.06C351.53 33.03 351.72 60.28 356.58 87.13C357.54 87.31 358.26 87.5 358.98 87.56C369.62 88.5 380.24 89.48 390.89 90.24C392.3 90.34 394.01 89.54 395.2 88.65C396.61 87.6 397.61 85.99 398.24 85.26C395.74 82.96 393.57 80.95 390.74 78.35C388.97 78.32 385.23 79.26 384.04 75.98C383.2 73.65 384.26 70.64 384.48 67.87C381.75 67.64 377.85 68.45 376.72 64.73C375.9 62 376.61 58.8 376.64 55.42C371.87 55.3 368.99 52.56 368.68 47.08C365.61 48.15 364.71 46.54 364.6 44.12C364.52 42.28 364.62 40.43 364.53 38.59C364.14 30.87 363.98 23.1 360.83 15.82C358.72 10.92 355.45 7.22 349.45 5.06Z" fill="#FFFFFF" fill-opacity="1.000000" fill-rule="evenodd"/>
	<path id="Fill-6" d="M373.78 50.65C385.58 50.81 394.6 45.48 403.51 40.31C402.44 30.03 398.64 30.5 392.19 33.57C388.38 35.39 384.54 37.21 380.94 39.4C377.15 41.7 373.88 44.61 373.78 50.65Z" fill="#FFFFFF" fill-opacity="1.000000" fill-rule="evenodd"/>
	<path id="Fill-8" d="M380.65 62.52C381.6 62.91 381.96 63.22 382.27 63.17C392.98 61.41 402.59 56.69 412.18 51.93C413.87 51.09 414.19 49.31 413.16 47.63C411.79 45.39 407.32 44.05 404.94 45.17C398.76 48.05 392.51 50.82 386.48 54C383.29 55.68 380.26 57.96 380.65 62.52Z" fill="#FFFFFF" fill-opacity="1.000000" fill-rule="evenodd"/>
	<path id="Fill-10" d="M388.61 73.46C398.78 70.88 408.87 68.31 418.43 62.34C416.58 59.98 415.2 58.22 413.8 56.44C403.98 60.61 394.86 64.78 388.61 73.46Z" fill="#FFFFFF" fill-opacity="1.000000" fill-rule="evenodd"/>
	<path id="Fill-12" d="M396.96 78.49C404.37 79.94 413.75 75.28 415.32 69.15C409.42 73.11 402 72.69 396.96 78.49Z" fill="#FFFFFF" fill-opacity="1.000000" fill-rule="evenodd"/>
	<path id="Fill-14" d="M280.6 305.11C281.82 309.76 281.82 309.76 284.83 309.73C283.47 308.24 282.34 307.01 280.6 305.11ZM184.5 311.29C184.5 302.42 184.7 294.19 184.42 285.98C184.27 281.42 183.61 281.23 178.04 282.13C177.92 291.81 175.89 301.47 176.2 311.29L184.5 311.29ZM308.85 559.27C320.92 552.51 332.39 546.08 344.06 539.53C342.51 536.83 341.37 534.84 340.24 532.87C327.73 538.45 315.85 543.76 303.63 549.21C305.3 552.42 306.81 555.32 308.85 559.27ZM399.98 103.86C400.46 95.72 400.27 95.37 393.34 95.15C380.62 94.74 367.9 94.48 355.18 94.21C353.59 94.17 352 94.5 350.53 94.65C349.55 103.51 349.82 103.91 357.7 104C369.88 104.14 382.06 104.18 394.23 104.22C396.04 104.23 397.86 104 399.98 103.86ZM345.9 543.51C334.04 550.16 322.76 556.48 311.17 562.98C313.55 566.98 315.75 570.69 318.13 574.68C330.39 569.59 342.16 564.71 354.24 559.69C351.34 554.07 348.83 549.19 345.9 543.51ZM208.07 536.4C204.34 541.18 200.55 546.04 196.93 550.68C206.36 559.39 215.39 567.73 224.65 576.29C226.7 574.15 228.74 572.06 230.75 569.93C232.38 568.2 233.97 566.44 235.52 564.74C230.85 557.76 212.01 538.19 208.07 536.4ZM99 640.05C121.91 639.72 144.43 639.4 166.58 639.08C166.29 635.86 166.06 633.28 165.79 630.32C164.08 631.09 162.44 631.77 160.87 632.57C158.12 633.99 155.63 633.89 153.23 631.77C151.85 630.56 150.36 629.42 148.77 628.53C147.05 627.56 145.13 626.2 143.35 626.26C131.4 626.69 119.43 627.03 107.55 628.25C99.57 629.06 98.25 631.58 99 640.05ZM221.26 580.14C212.41 570.92 203.85 562.08 193.28 554.62C188.77 559.73 184.42 564.64 179.99 569.65C187.39 580.35 195.86 589.11 205.81 596.83C211.11 591.1 216.08 585.74 221.26 580.14ZM189.15 312.41C218.39 312.69 247.68 313.81 278.02 311.01C273.21 305.1 267.7 303.13 261.81 302.49C255.4 301.79 248.92 301.58 242.47 301.55C235.28 301.53 228.08 302.16 220.89 302.13C210.56 302.08 200.73 299.96 192.03 293.99C191.39 293.55 190.5 293.47 189.15 293.03L189.15 312.41ZM117.91 451.32C118.23 459.96 118.53 468.15 118.86 476.82C133.49 478 147.5 479.45 162.42 478.25C161.94 469.2 163.07 460.5 161.85 451.32L117.91 451.32ZM114.8 408.66C113.4 407.44 112.76 406.81 112.05 406.28C97.23 395.11 89.06 380.13 86.78 361.88C85.22 349.4 85.01 336.86 85.92 324.31C86.11 321.63 86.2 318.95 86.36 315.96C79.75 315.79 73.84 316.07 67.63 316.87C75.18 347.41 74.45 377.97 76.62 408.66L114.8 408.66ZM138.05 621.57C137.07 616.79 137.07 616.79 140.37 613.21C151.07 601.57 151.08 601.57 150.86 586.43C150.38 553.95 149.91 521.47 149.42 488.99C149.4 487.19 149.23 485.39 149.1 483.17C143.13 482.87 137.53 482.6 131.57 482.3C131.35 486.39 131.01 489.87 131 493.35C130.93 511.25 130.97 529.15 130.93 547.06C130.9 557.02 130.58 566.99 130.77 576.95C131 589.11 131.63 601.27 132.11 613.43C132.22 616.12 132.43 618.81 132.61 621.57L138.05 621.57ZM174.6 570.14C173.7 571.36 173.22 571.91 172.86 572.53C169.8 577.78 167.19 583.35 163.64 588.24C157.25 597.05 150.36 605.48 143.57 613.99C141.07 617.11 140.83 618.38 143.97 620.83C146.7 622.95 150.09 624.22 152.78 626.37C156.59 629.42 159.68 628.42 163.2 625.92C165.82 624.06 168.69 622.27 172.77 622.72C172.1 626.66 171.49 630.35 170.84 634.2C172.44 634.59 173.65 635.05 174.91 635.19C188.83 636.65 202.74 638.36 216.69 639.39C224.76 639.99 232.91 639.62 241.02 639.39C244.57 639.3 248.1 638.47 252.06 637.91C250.34 634.24 247.86 632.57 245.12 631.61C239.22 629.54 233.27 627.5 227.2 626.07C220.92 624.6 214.37 624.28 208.14 622.67C201.86 621.05 198.86 616.94 203.79 611.62C205.89 609.35 207.85 606.96 209.84 604.67C195.22 596.11 184.94 583.55 174.6 570.14ZM239.67 561.86C251.97 547.56 263.77 533.93 274.46 519.43C262.69 498.62 249.37 479.28 236.15 459.31C221.21 476.69 206.82 493.41 192.04 510.59C207.98 527.76 223.6 544.57 239.67 561.86ZM38.13 295.82C38.32 293.73 38.45 292.11 38.63 290.5C39.33 283.91 39.6 277.24 40.86 270.75C46.13 243.55 53.34 216.9 64.82 191.55C65.46 190.14 65.85 188.62 66.56 186.57C45.49 186.56 25.16 186.45 4.47 186.93C4.97 224.12 5.46 260.56 5.96 297.64C17.04 297.01 27.44 296.42 38.13 295.82ZM321.2 637.96C326.77 637.66 331.55 637.28 336.34 637.19C338.96 637.14 340.49 636.09 341.17 633.6C341.65 631.82 342.08 630 342.82 628.33C343.22 627.44 344.32 626.15 344.95 626.24C345.99 626.37 347.09 627.31 347.83 628.19C348.51 629.01 348.75 630.19 349.16 631.21C350.37 634.25 351.57 637.3 352.81 640.41C355.48 640.41 357.68 640.51 359.88 640.39C378.47 639.43 397.05 638.62 415.4 634.99C422.8 633.53 430.36 632.85 437.81 631.56C440.57 631.08 443.66 631.07 445.86 628.78C444.41 622.86 441.1 619.77 435.05 619.19C422.52 618 410.28 615.2 398.52 610.73C393.56 608.85 388.71 606.41 384.28 603.5C375.68 597.86 370.55 589.77 369.16 579.44C368.44 574.14 367.66 568.85 366.85 563.56C366.66 562.34 366.19 561.17 365.77 559.67C348.74 566.81 332.06 573.79 315.1 580.89C320.16 589.86 321.79 598.82 321.55 608.23C321.36 615.79 321.3 623.36 321.2 630.93C321.17 633.11 321.2 635.29 321.2 637.96ZM24.57 433.85C27.7 434.8 30.61 436.09 33.65 436.55C51.7 439.26 69.71 442.73 87.88 444.14C110.5 445.91 133.25 446.09 155.96 446.63C168.51 446.93 181.13 447.29 193.62 446.3C203.82 445.5 213.85 445.97 223.95 446.66C224.92 446.73 225.92 446.56 227.51 446.46C223.83 440.32 220.55 434.8 215.78 430.39C214.34 429.05 212.56 427.73 210.71 427.22C205.04 425.62 199.32 423.86 193.5 423.17C181.23 421.73 168.88 420.93 156.57 419.86C145.91 418.92 135.19 418.36 125.06 414.38C123.9 413.93 122.55 413.83 121.29 413.82C90.63 413.63 59.98 413.47 29.32 413.34C27.37 413.33 25.42 413.58 23.11 413.73C23.61 420.6 24.06 426.83 24.57 433.85ZM229.6 449.66C227.16 450.2 225.14 451.07 223.15 450.99C214.52 450.63 205.96 449.88 197.25 450.83C189.22 451.7 181.03 451.19 172.91 451.32C171.1 451.35 169.3 451.5 167.06 451.62C167.06 454.79 167.06 457.52 167.06 460.25C167.06 465.61 167.16 470.96 167.01 476.31C166.87 481.49 165.92 482.35 160.85 482.73C158.69 482.9 156.53 483.09 154.11 483.28C154.03 485.07 153.89 486.51 153.91 487.95C154.32 517.29 154.69 546.63 155.24 575.96C155.34 580.95 156.2 585.94 156.84 592.28C158.89 588.99 160.43 586.78 161.7 584.42C164.47 579.22 167.09 573.92 169.82 568.7C170.76 566.9 171.76 564.74 174.25 565.28C177.64 566.02 179.26 563.97 181.07 561.82C183.44 559 186.06 556.38 188.43 553.55C194.32 546.5 200.12 539.38 206.25 531.94C202 527.57 198.15 523.66 194.35 519.7C186.19 511.18 186.13 510.31 193.62 501.57C205.74 487.43 217.92 473.32 230.06 459.19C231.22 457.84 232.27 456.4 233.34 455.05C232.03 453.03 231.05 451.48 230.02 449.96C229.83 449.68 229.43 449.55 229.6 449.66ZM91.48 316.18C91.18 316.81 90.92 317.12 90.89 317.46C89.14 333.88 89.2 350.27 92.02 366.57C96.37 391.74 120.45 412.21 141.13 413.6C159.36 414.82 177.58 416.18 195.81 417.52C198.36 417.71 201.01 417.79 203.43 418.52C212.19 421.17 219.39 426.1 224.53 433.82C229.03 440.58 233.5 447.37 238.06 454.09C257.32 482.52 276.6 510.93 295.93 539.32C297.35 541.42 299.13 543.28 301.02 545.59C320.28 537.01 339.24 528.55 358.22 520.09C357.37 517 357.01 514.19 355.86 511.75C351.56 502.58 347.19 493.42 342.5 484.43C333.52 467.26 324.14 450.3 315.24 433.08C307.95 418.97 300.85 404.82 291.9 391.62C283.58 379.36 273.53 369.53 259.52 364.14C252.13 361.29 244.77 358.37 237.42 355.44C228.84 352.03 220.27 348.61 211.74 345.1C210.2 344.46 208.85 343.38 207.41 342.5C207.59 342.06 207.77 341.62 207.95 341.18C209.47 341.47 211.02 341.63 212.49 342.05C229.18 346.85 245.44 352.79 261.35 359.77C272.36 364.6 282.19 370.96 289.4 380.77C297.16 391.34 304.51 402.17 310.44 413.94C316.08 425.14 322.01 436.21 327.83 447.33C328.66 448.9 329.64 450.4 330.69 452.17C331.53 451.27 332.13 450.81 332.5 450.2C338.9 439.63 345.57 429.2 351.52 418.38C354.42 413.1 356.22 407.17 358.03 401.37C360.99 391.84 359.35 382.77 354.34 374.23C344.63 357.66 331.2 344.86 313.73 337.13C298.24 330.27 282.08 324.93 266.25 318.82C262.94 317.54 259.67 316.97 256.07 317C235.39 317.14 214.71 317.12 194.03 317.02C187.23 316.99 180.39 315.93 173.66 316.49C159.42 317.69 145.25 316.82 131.04 316.29C117.97 315.8 104.87 316.18 91.48 316.18ZM279.42 267.14C279.42 264.35 279.12 262.88 279.47 261.6C280.94 256.26 282.42 250.92 284.24 245.7C287.34 236.8 292.64 228.98 297.24 220.84C299.02 217.69 299.62 214.88 298.53 211.43C297.03 206.69 295.89 201.83 294.59 197.02C290.32 181.24 281.6 168.32 269.83 157.1C265.49 152.95 260.37 150.41 255.07 149.03C243.5 146.01 231.66 143.95 219.87 141.82C213.98 140.75 208.46 141.57 205.11 147.6C204.5 148.7 203.44 149.56 202.52 150.47C191.85 161.11 178.44 163.51 164.9 157.02C157.37 153.41 150.36 148.83 144.6 142.77C141.8 139.84 139.28 139.23 135.41 139.98C122.92 142.41 110.4 144.85 97.79 146.34C91.21 147.13 87.29 149.8 84.9 155.74C81.25 164.81 77.56 173.88 73.46 182.75C60.92 209.85 51.92 238.07 45.94 267.29C43.63 278.55 42.4 289.9 42.97 301.4C43.22 306.57 45.32 309.48 49.84 310.06C56.59 310.92 63.41 311.72 70.2 311.75C88.48 311.85 106.76 311.32 125.05 311.42C138.15 311.49 151.25 312.2 164.36 312.52C166.49 312.58 168.63 312.1 171.26 311.82C171.94 301.45 172.61 291.54 173.25 281.63C173.43 278.74 171.61 277.07 169.24 276.3C164.87 274.87 160.45 273.33 155.93 272.68C146.07 271.25 136.14 270.37 126.24 269.22C123.49 268.9 120.72 268.57 118.03 267.97C114.07 267.07 113.67 266.03 115.07 262.21C116.34 258.75 117.62 255.28 118.64 251.74C120.26 246.07 121.56 240.32 123.23 234.67C123.57 233.53 124.9 231.87 125.8 231.86C128.19 231.82 127.81 233.93 127.68 235.57C127.61 236.49 127.48 237.41 127.25 238.3C126.02 242.93 124.81 247.57 123.46 252.17C122.37 255.86 121.1 259.5 119.74 263.67C123.2 264.11 126.28 264.52 129.36 264.88C138.89 266 148.47 266.81 157.93 268.33C162.79 269.11 167.83 270.44 172.07 272.81C175.82 274.91 179.19 277.13 183.65 277.31C186.51 277.43 188.45 278.99 188.73 282.14C189.07 286 191.53 288.41 194.56 290.41C199.23 293.49 204.27 295.78 209.81 296.67C223.25 298.84 236.64 296.7 250.57 296.62C250.59 286.73 249.39 277.45 247.83 268.23C246.15 258.24 244.19 248.29 242.32 238.33C241.92 236.19 242.63 234.42 244.67 234C247.05 233.52 247.02 235.69 247.31 237.31C250.42 254.93 254.06 272.47 254.99 290.41C255.1 292.51 255.67 294.58 255.96 296.33C262.54 296.98 268.41 297.46 274.26 298.16C280.26 298.87 285.07 301.68 288.34 306.9C288.81 307.65 289.44 308.29 289.49 308.35C298.86 308.18 307.49 308.06 316.11 307.85C326.26 307.6 336.41 307.33 346.56 306.95C352.37 306.73 357.34 304.45 361.1 299.95C363.21 297.41 365.34 294.79 366.95 291.93C373.26 280.71 376.83 268.52 379.18 255.94C380.4 249.43 380.93 242.67 383.06 236.46C387.8 222.61 391.26 208.5 393.6 194.09C396.06 178.92 399.18 163.98 406.42 150.19C407.78 147.6 408.51 144.68 409.56 141.92C413.39 131.79 411.36 122.31 406.27 113.22C404.54 110.15 401.99 108.52 398.15 108.55C383.75 108.67 369.34 108.55 354.94 108.46C349.16 108.42 348.12 108.58 346.47 114.13C344.91 119.37 344.03 124.92 343.72 130.38C343.26 138.29 343.9 146.27 343.5 154.19C342.53 173.6 335.29 190.01 319.4 201.93C312.35 207.22 306.45 213.44 302.29 221.25C301.07 223.53 299.88 225.83 298.49 228C292.28 237.72 287.59 248.09 284.8 259.29C284.4 260.9 284.19 262.65 283.41 264.05C282.84 265.07 281.45 265.62 279.42 267.14ZM275.54 316.72C278.03 317.75 279.67 318.44 281.31 319.11C294.13 324.31 307.01 329.37 319.75 334.76C327.8 338.16 335.43 342.74 341.31 349.09C349.81 358.26 357.7 368.09 362.05 380.13C364.37 386.57 364.36 393.16 362.9 399.77C360.86 409.04 357.42 417.8 352.56 425.92C346.97 435.26 341.08 444.42 335.33 453.66C334.65 454.75 334.03 455.86 333.33 457.03C336.99 464.17 340.66 471.2 344.2 478.27C350.57 490.98 356.87 503.71 363.17 516.45C365.61 521.37 365.35 521.95 360.16 524.17C355.41 526.21 350.67 528.24 345.93 530.3C345.62 530.44 345.41 530.81 344.87 531.35C349.29 540 353.77 548.76 358.42 557.85C361.09 556.68 363.27 555.75 365.42 554.77C367.85 553.67 369.49 554.52 370.02 556.96C370.94 561.28 371.65 565.65 372.36 570.02C372.9 573.3 373.26 576.6 373.81 579.88C375.24 588.34 379.5 595.17 386.7 599.71C391.65 602.83 396.98 605.57 402.47 607.56C413.26 611.44 424.46 613.87 435.9 615.03C444.07 615.86 447.83 619.17 450.7 628.43C451.56 631.16 450.5 632.86 447.98 633.47C442.44 634.83 436.82 635.9 431.26 637.18C427.35 638.08 423.48 639.12 419.58 640.07C418.69 640.28 417.77 640.39 416.86 640.48C402.88 641.77 388.92 643.16 374.93 644.28C368.5 644.79 362.01 644.66 355.56 645.04C351.44 645.28 348.83 643.82 347.78 639.71C347.48 638.52 346.77 637.43 345.8 635.32C343.62 641.78 338.87 641.71 334.06 641.83C330.01 641.93 325.97 642.53 321.91 642.74C318.26 642.92 316.72 641.71 316.48 638.11C316.24 634.62 316.57 631.1 316.57 627.59C316.59 618.37 316.73 609.14 316.47 599.92C316.32 594.32 314.35 589.1 311.65 584.19C309.14 579.61 309.18 579.59 313.53 575.73C311.97 573.01 310.34 570.18 308.72 567.35C306.44 563.34 304.13 559.34 301.89 555.31C300.59 552.97 299.98 550.19 296.21 550.27C295.13 550.3 293.81 548.2 292.91 546.87C287.87 539.37 282.92 531.81 277.72 523.94C276.75 524.81 275.89 525.4 275.25 526.17C264.98 538.51 254.81 550.94 244.44 563.2C242.11 565.96 238.92 567.97 236.42 570.62C228.69 578.8 221.09 587.12 213.46 595.41C212.48 596.48 211.65 597.68 210.72 598.86C217.62 602.65 217.64 602.86 212.4 608.66C210.32 610.97 208.27 613.3 206.39 615.4C207.14 618.53 209.37 618.4 211.32 618.75C218.95 620.12 226.66 621.17 234.17 623.02C239.32 624.28 244.34 626.34 249.14 628.64C253.76 630.86 257.03 634.59 258.2 640.65C255.96 641.34 253.81 642.18 251.57 642.66C236.18 645.95 220.7 644.54 205.22 643.41C200.26 643.05 195.28 643.01 190.31 643.06C178.67 643.18 167.04 643.41 155.4 643.67C136.77 644.09 118.15 644.57 99.52 645.04C94.78 645.17 94.11 644.59 93.99 639.82C93.96 638.17 94.1 636.51 94.22 634.85C94.58 629.65 97.14 625.97 102.3 624.94C108.25 623.74 114.3 623.08 120.33 622.29C122.51 622.01 124.73 622 127.61 621.82C124.66 575.28 127.32 528.9 126.26 482.28C124.36 481.92 122.59 481.57 120.82 481.24C115.19 480.19 114.35 479.26 114.12 473.7C113.85 467.25 113.59 460.79 113.3 454.33C113.25 453.25 113.07 452.17 112.9 450.64C110.83 450.45 108.85 450.16 106.86 450.1C83.55 449.42 60.5 446.37 37.6 442.18C33.08 441.35 28.61 440.07 24.24 438.62C19.73 437.13 19.63 436.2 19.56 431.44C19.49 426.1 18.87 420.76 18.41 415.43C17.97 410.35 18.82 409.17 24.07 409.04C36.45 408.74 48.82 408.6 61.19 408.42C64.49 408.38 67.79 408.42 71.04 408.42C72.94 397.77 68.91 332.32 62.73 317.2C58.67 316.42 54.59 315.49 50.45 314.88C43.15 313.81 39.44 309.5 38.56 302.4C38.49 301.88 38.25 301.38 37.94 300.4C36.03 300.4 34.05 300.3 32.07 300.41C23.77 300.89 15.48 301.45 7.19 301.95C2.02 302.27 1.41 301.74 1.34 296.57C0.88 260.75 0.43 224.93 0 189.11C-0.07 182.75 0.43 182.19 6.98 182.15C25.26 182.06 43.54 182.05 61.82 182.01C64.03 182.01 66.24 182.01 68.81 182.01C70.54 178.08 72.24 174.23 73.91 170.36C76.54 164.26 79.13 158.14 81.77 152.05C84.62 145.46 89.58 142.67 96.82 141.83C109.07 140.4 121.26 138.19 133.33 135.6C139.49 134.28 143.72 134.87 148.38 139.86C155.32 147.28 163.93 152.86 174.11 155.41C182.47 157.5 189.86 155.35 196.37 150.06C198.93 147.98 201.59 145.67 203.25 142.9C206.67 137.18 211.8 136.52 217.5 137.03C220.8 137.33 224.09 137.92 227.34 138.57C237.64 140.65 248.08 142.02 257.93 146.07C273.11 152.31 284.72 162.45 291.39 177.47C295.34 186.36 298.11 195.78 301.37 204.97C301.92 206.53 302.29 208.15 302.88 210.26C304.02 209.3 304.92 208.58 305.79 207.81C309.1 204.87 312.2 201.65 315.73 199.01C331.84 187.04 338.58 170.54 339.16 151.07C339.37 144.06 339.2 137.04 339.12 130.02C339.03 121.55 340.39 113.49 345.36 106.33C347.5 103.25 345.83 99.86 345.49 96.7C344.91 91.37 345.23 90.86 350.27 89.76C358.17 88.03 366.1 89.01 373.99 89.2C382.08 89.39 390.14 90.32 398.22 90.8C401.23 90.98 403.21 92.25 403.72 95.21C404.29 98.47 403.96 102.03 405.19 104.98C406.4 107.9 409.45 110.01 411.03 112.84C416.97 123.47 417.68 134.55 413.05 145.88C411.24 150.32 409.56 154.83 407.49 159.15C403.3 167.92 401.15 177.22 399.66 186.74C396.52 206.81 391.28 226.4 386.28 246.06C383.29 257.85 381.33 269.9 376.95 281.34C374.03 289.01 370.32 296.12 364.9 302.34C360.29 307.63 354.56 310.7 347.63 311.22C340.83 311.74 334 311.9 327.18 312.17C315.74 312.64 304.29 312.82 292.89 313.61C287.45 313.99 282.1 315.5 275.54 316.72Z" fill="#000000" fill-opacity="1.000000" fill-rule="evenodd"/>
</svg>
