<svg xmlns="http://www.w3.org/2000/svg" xmlns:xlink="http://www.w3.org/1999/xlink" width="195" height="195" fill="none" viewBox="0 0 195 195"><desc>Created with Pixso.</desc><defs><clipPath id="clip18408_29743"><rect id="expand-svgrepo-com 1" width="195" height="195" fill="#fff" fill-opacity="0"/></clipPath></defs><rect id="expand-svgrepo-com 1" width="195" height="195" fill="#FFF" fill-opacity="0"/><g clip-path="url(#clip18408_29743)"><path id="Vector" fill="#5D9BEB" fill-opacity="1" fill-rule="nonzero" d="M0 97.5C0 151.35 43.64 195 97.49 194.99C151.35 195 195 151.35 195 97.5C195 43.64 151.35 0 97.49 0C43.64 0 0 43.65 0 97.5Z"/><path id="Vector" fill="#4988DB" fill-opacity="1" fill-rule="nonzero" d="M195 97.5C195 96.42 194.95 95.36 194.91 94.29C194.79 94.16 161.83 61.13 161.58 60.96C161.09 60.27 160.33 59.8 159.43 59.8C157.94 59.8 156.73 61 156.73 62.49L156.73 107.15L145.17 95.59L129.02 79.43C127.97 78.38 126.26 78.38 125.21 79.43C124.16 80.49 124.16 82.19 125.21 83.24L136.77 94.8L85.06 94.8C85.02 94.77 84.98 94.75 84.95 94.73C84.86 94.6 84.81 94.46 84.7 94.35C84.59 94.24 69.89 79.55 69.78 79.43C68.73 78.38 67.02 78.38 65.97 79.43L61.13 84.27C61.01 84.14 60.86 84.06 60.72 83.96C60.54 83.71 38.59 61.75 38.34 61.58C38.17 61.34 37.96 61.13 37.72 60.96C37.23 60.27 36.47 59.8 35.56 59.8C34.08 59.8 32.87 61 32.87 62.49L32.87 132.5C32.87 133.41 33.35 134.17 34.03 134.65C34.2 134.9 93.46 194.15 93.71 194.33C93.87 194.56 94.07 194.75 94.29 194.91C95.36 194.95 96.42 195 97.49 195C151.35 195 195 151.35 195 97.5Z"/><path id="Vector" fill="#F4F6F9" fill-opacity="1" fill-rule="nonzero" d="M145.75 96.47C145.62 96.14 145.42 95.84 145.17 95.59L129.02 79.44C127.97 78.38 126.26 78.38 125.21 79.44C124.16 80.49 124.16 82.19 125.21 83.24L136.77 94.8L58.22 94.8L69.78 83.24C70.83 82.19 70.83 80.49 69.78 79.44C68.73 78.38 67.02 78.38 65.97 79.44L49.82 95.59C49.57 95.84 49.37 96.14 49.24 96.47C48.96 97.12 48.96 97.87 49.24 98.52C49.37 98.85 49.57 99.15 49.82 99.4L65.97 115.56C66.5 116.08 67.19 116.34 67.88 116.34C68.57 116.34 69.25 116.08 69.78 115.56C70.83 114.5 70.83 112.8 69.78 111.75L58.22 100.19L136.77 100.19L125.21 111.75C124.16 112.8 124.16 114.5 125.21 115.56C125.74 116.08 126.43 116.34 127.11 116.34C127.8 116.34 128.49 116.08 129.02 115.56L145.17 99.4C145.42 99.15 145.62 98.85 145.75 98.52C146.03 97.87 146.03 97.12 145.75 96.47Z"/><path id="Vector" fill="#F4F6F9" fill-opacity="1" fill-rule="nonzero" d="M35.56 59.8C34.08 59.8 32.87 61 32.87 62.49L32.87 132.5C32.87 133.99 34.08 135.19 35.56 135.19C37.05 135.19 38.26 133.99 38.26 132.5L38.26 62.49C38.26 61 37.05 59.8 35.56 59.8Z"/><path id="Vector" fill="#F4F6F9" fill-opacity="1" fill-rule="nonzero" d="M159.42 59.8C157.94 59.8 156.73 61 156.73 62.49L156.73 132.5C156.73 133.99 157.94 135.19 159.42 135.19C160.91 135.19 162.12 133.99 162.12 132.5L162.12 62.49C162.12 61 160.91 59.8 159.42 59.8Z"/></g></svg>