<svg xmlns="http://www.w3.org/2000/svg" xmlns:xlink="http://www.w3.org/1999/xlink" width="195" height="195" fill="none" viewBox="0 0 195 195"><desc>Created with Pixso.</desc><defs><clipPath id="clip18408_29697"><rect id="division-svgrepo-com 1" width="195" height="195" fill="#fff" fill-opacity="0"/></clipPath></defs><rect id="division-svgrepo-com 1" width="195" height="195" fill="#FFF" fill-opacity="0"/><g clip-path="url(#clip18408_29697)"><path id="Vector" fill="#FA6E51" fill-opacity="1" fill-rule="nonzero" d="M0 97.5C0 151.35 43.64 195 97.49 195C151.35 195 195 151.35 195 97.5C195 43.65 151.35 0 97.49 0C43.64 0 0 43.65 0 97.5Z"/><path id="Vector" fill="#E8573F" fill-opacity="1" fill-rule="nonzero" d="M195 97.5C195 90.9 194.33 84.46 193.08 78.23L193.03 78.18L160.95 46.09L160.23 45.37C160.23 45.37 149.14 34.28 149.14 34.28L148.52 33.66C147.47 32.61 145.76 32.61 144.71 33.66L106.3 72.07C106.28 72.05 106.25 72.03 106.23 72C106.03 71.79 74.74 40.51 74.53 40.3C70.12 35.73 63.95 32.87 57.11 32.87C43.74 32.87 32.87 43.74 32.87 57.11C32.87 63.95 35.73 70.12 40.3 74.53C40.51 74.74 72.05 106.28 72.07 106.3L33.66 144.71C32.61 145.76 32.61 147.46 33.66 148.52L47.1 161.95L47.34 162.19L78.23 193.08C84.46 194.33 90.9 195 97.49 195C151.35 195 195 151.35 195 97.5Z"/><path id="Vector" fill="#F4F6F9" fill-opacity="1" fill-rule="nonzero" d="M161.33 46.47L148.52 33.66C147.46 32.61 145.76 32.61 144.71 33.66L33.66 144.71C32.61 145.76 32.61 147.46 33.66 148.52L46.47 161.33C47 161.86 47.69 162.12 48.38 162.12C49.07 162.12 49.76 161.86 50.28 161.33L161.33 50.28C162.38 49.23 162.38 47.53 161.33 46.47ZM48.38 155.62L39.37 146.61L146.61 39.37L155.62 48.38L48.38 155.62Z"/><path id="Vector" fill="#F4F6F9" fill-opacity="1" fill-rule="nonzero" d="M57.11 81.34C70.47 81.34 81.34 70.47 81.34 57.1C81.34 43.74 70.47 32.87 57.11 32.87C43.74 32.87 32.87 43.74 32.87 57.1C32.87 70.47 43.74 81.34 57.11 81.34ZM57.11 38.26C67.5 38.26 75.95 46.71 75.95 57.1C75.95 67.5 67.5 75.95 57.11 75.95C46.71 75.95 38.26 67.5 38.26 57.1C38.26 46.71 46.71 38.26 57.11 38.26Z"/><path id="Vector" fill="#F4F6F9" fill-opacity="1" fill-rule="nonzero" d="M137.89 113.65C124.52 113.65 113.65 124.52 113.65 137.88C113.65 151.25 124.52 162.12 137.89 162.12C151.25 162.12 162.12 151.25 162.12 137.88C162.12 124.52 151.25 113.65 137.89 113.65ZM137.89 156.73C127.49 156.73 119.04 148.28 119.04 137.88C119.04 127.49 127.49 119.04 137.89 119.04C148.28 119.04 156.73 127.49 156.73 137.88C156.73 148.28 148.28 156.73 137.89 156.73Z"/></g></svg>