<svg width="108.000000" height="27.000000" viewBox="0 0 108 27" fill="none" xmlns="http://www.w3.org/2000/svg" xmlns:xlink="http://www.w3.org/1999/xlink">
	<desc>
			Created with Pixso.
	</desc>
	<defs>
		<clipPath id="clip18408_1923">
			<rect id="Faci-logo 1" width="108.000000" height="27.000000" fill="white" fill-opacity="0"/>
		</clipPath>
	</defs>
	<rect id="Faci-logo 1" width="108.000000" height="27.000000" fill="#FFFFFF" fill-opacity="0"/>
	<g clip-path="url(#clip18408_1923)">
		<path id="Vector" d="M4.57 17.33L10.38 17.33L10.38 20.08L4.57 20.08L4.57 17.33ZM4.82 24.4L1.26 24.4L1.26 11.8L11.14 11.8L11.14 14.56L4.82 14.56L4.82 24.4ZM18.85 24.4L18.85 22.58L18.62 22.13L18.62 18.79C18.62 18.25 18.45 17.83 18.11 17.54C17.79 17.24 17.27 17.09 16.55 17.09C16.08 17.09 15.61 17.17 15.13 17.33C14.65 17.47 14.24 17.68 13.9 17.94L12.75 15.62C13.3 15.26 13.96 14.98 14.73 14.79C15.51 14.59 16.28 14.48 17.05 14.48C18.64 14.48 19.86 14.85 20.72 15.58C21.6 16.3 22.04 17.44 22.04 18.98L22.04 24.4L18.85 24.4ZM15.97 24.56C15.19 24.56 14.53 24.43 13.99 24.17C13.45 23.9 13.04 23.54 12.75 23.09C12.47 22.63 12.34 22.12 12.34 21.56C12.34 20.96 12.49 20.44 12.79 20.01C13.1 19.57 13.57 19.23 14.21 19C14.84 18.76 15.67 18.64 16.67 18.64L18.98 18.64L18.98 20.42L17.14 20.42C16.59 20.42 16.2 20.51 15.97 20.69C15.76 20.87 15.65 21.11 15.65 21.41C15.65 21.71 15.76 21.95 15.99 22.13C16.22 22.31 16.53 22.4 16.93 22.4C17.3 22.4 17.63 22.31 17.93 22.13C18.25 21.94 18.47 21.65 18.62 21.27L19.09 22.53C18.91 23.2 18.55 23.71 18.02 24.06C17.51 24.4 16.82 24.56 15.97 24.56ZM29.79 24.56C28.71 24.56 27.74 24.35 26.89 23.92C26.05 23.48 25.39 22.89 24.91 22.13C24.43 21.37 24.19 20.49 24.19 19.51C24.19 18.52 24.43 17.65 24.91 16.9C25.39 16.14 26.05 15.55 26.89 15.13C27.74 14.7 28.71 14.48 29.79 14.48C30.89 14.48 31.84 14.72 32.65 15.19C33.45 15.65 34.02 16.31 34.36 17.17L31.71 18.52C31.48 18.06 31.2 17.73 30.87 17.53C30.53 17.31 30.16 17.2 29.77 17.2C29.37 17.2 29.01 17.29 28.69 17.47C28.36 17.65 28.11 17.92 27.91 18.26C27.73 18.6 27.64 19.01 27.64 19.51C27.64 20.01 27.73 20.44 27.91 20.78C28.11 21.13 28.36 21.4 28.69 21.58C29.01 21.76 29.37 21.85 29.77 21.85C30.16 21.85 30.53 21.74 30.87 21.54C31.2 21.32 31.48 20.99 31.71 20.53L34.36 21.88C34.02 22.73 33.45 23.39 32.65 23.86C31.84 24.33 30.89 24.56 29.79 24.56ZM36.09 24.4L36.09 14.65L39.51 14.65L39.51 24.4L36.09 24.4ZM37.8 13.57C37.18 13.57 36.67 13.39 36.29 13.04C35.9 12.7 35.71 12.26 35.71 11.75C35.71 11.23 35.9 10.8 36.29 10.45C36.67 10.1 37.18 9.93 37.8 9.93C38.42 9.93 38.93 10.1 39.31 10.43C39.7 10.76 39.89 11.18 39.89 11.69C39.89 12.23 39.7 12.68 39.31 13.04C38.94 13.39 38.44 13.57 37.8 13.57ZM50.32 24.4L50.32 11.8L53.26 11.8L58.48 20.37L56.93 20.37L62.01 11.8L64.94 11.8L64.98 24.4L61.7 24.4L61.66 16.79L62.22 16.79L58.42 23.16L56.84 23.16L52.93 16.79L53.62 16.79L53.62 24.4L50.32 24.4ZM73.77 24.4L73.77 22.58L73.54 22.13L73.54 18.79C73.54 18.25 73.37 17.83 73.04 17.54C72.71 17.24 72.19 17.09 71.47 17.09C71 17.09 70.53 17.17 70.05 17.33C69.57 17.47 69.16 17.68 68.82 17.94L67.67 15.62C68.22 15.26 68.88 14.98 69.65 14.79C70.43 14.59 71.21 14.48 71.97 14.48C73.56 14.48 74.78 14.85 75.65 15.58C76.52 16.3 76.96 17.44 76.96 18.98L76.96 24.4L73.77 24.4ZM70.89 24.56C70.11 24.56 69.45 24.43 68.91 24.17C68.37 23.9 67.96 23.54 67.67 23.09C67.4 22.63 67.26 22.12 67.26 21.56C67.26 20.96 67.41 20.44 67.71 20.01C68.02 19.57 68.49 19.23 69.13 19C69.77 18.76 70.59 18.64 71.6 18.64L73.9 18.64L73.9 20.42L72.06 20.42C71.51 20.42 71.12 20.51 70.89 20.69C70.68 20.87 70.57 21.11 70.57 21.41C70.57 21.71 70.68 21.95 70.91 22.13C71.14 22.31 71.45 22.4 71.85 22.4C72.22 22.4 72.56 22.31 72.86 22.13C73.17 21.94 73.4 21.65 73.54 21.27L74.01 22.53C73.83 23.2 73.47 23.71 72.95 24.06C72.43 24.4 71.75 24.56 70.89 24.56ZM83.96 24.56C82.71 24.56 81.74 24.26 81.04 23.65C80.34 23.02 80 22.09 80 20.84L80 12.47L83.42 12.47L83.42 20.8C83.42 21.15 83.51 21.43 83.7 21.63C83.9 21.82 84.14 21.92 84.44 21.92C84.85 21.92 85.2 21.82 85.49 21.61L86.33 24.01C86.04 24.2 85.69 24.34 85.27 24.42C84.85 24.52 84.41 24.56 83.96 24.56ZM78.57 17.56L78.57 15.01L85.65 15.01L85.65 17.56L78.57 17.56ZM94.48 14.48C95.24 14.48 95.92 14.64 96.54 14.95C97.15 15.25 97.63 15.72 97.98 16.36C98.34 16.99 98.52 17.81 98.52 18.82L98.52 24.4L95.1 24.4L95.1 19.38C95.1 18.68 94.95 18.18 94.66 17.87C94.39 17.54 94 17.38 93.49 17.38C93.13 17.38 92.8 17.47 92.5 17.63C92.2 17.79 91.97 18.04 91.8 18.37C91.63 18.71 91.55 19.15 91.55 19.69L91.55 24.4L88.13 24.4L88.13 11.05L91.55 11.05L91.55 17.42L90.76 16.61C91.13 15.9 91.64 15.37 92.29 15.02C92.94 14.66 93.67 14.48 94.48 14.48Z" fill="#2F2F2F" fill-opacity="1.000000" fill-rule="nonzero"/>
		<path id="Vector" d="M40.45 26.2L46.39 9.25L49.43 9.25L43.49 26.2L40.45 26.2Z" fill="#82CBAC" fill-opacity="1.000000" fill-rule="nonzero"/>
		<path id="Vector" d="M75.15 15L75.15 14.38L76.46 13.15C76.55 13.06 76.62 12.99 76.66 12.92C76.71 12.85 76.74 12.79 76.75 12.74C76.77 12.68 76.78 12.63 76.78 12.59C76.78 12.47 76.74 12.38 76.66 12.32C76.59 12.26 76.48 12.23 76.33 12.23C76.2 12.23 76.08 12.25 75.97 12.31C75.86 12.37 75.77 12.45 75.7 12.57L74.97 12.16C75.1 11.94 75.28 11.76 75.53 11.63C75.78 11.49 76.07 11.43 76.42 11.43C76.69 11.43 76.92 11.47 77.12 11.56C77.33 11.64 77.49 11.77 77.6 11.93C77.72 12.09 77.78 12.27 77.78 12.49C77.78 12.6 77.76 12.72 77.73 12.83C77.7 12.94 77.64 13.06 77.56 13.19C77.47 13.31 77.35 13.45 77.18 13.6L76.14 14.56L75.98 14.21L77.87 14.21L77.87 15L75.15 15Z" fill="#82CBAC" fill-opacity="1.000000" fill-rule="nonzero"/>
	</g>
</svg>
