<svg xmlns="http://www.w3.org/2000/svg" xmlns:xlink="http://www.w3.org/1999/xlink" width="195" height="195" fill="none" viewBox="0 0 195 195"><desc>Created with Pixso.</desc><defs><clipPath id="clip18408_29730"><rect id="checked-tick-svgrepo-com 1" width="195" height="195" fill="#fff" fill-opacity="0"/></clipPath></defs><rect id="checked-tick-svgrepo-com 1" width="195" height="195" fill="#FFF" fill-opacity="0"/><g clip-path="url(#clip18408_29730)"><path id="Vector" fill="#AB91EA" fill-opacity="1" fill-rule="nonzero" d="M0 97.5C0 151.35 43.64 195 97.49 195C151.35 195 195 151.35 195 97.5C195 43.65 151.35 0 97.49 0C43.64 0 0 43.65 0 97.5Z"/><path id="Vector" fill="#947ADB" fill-opacity="1" fill-rule="nonzero" d="M195 97.5C195 89.38 193.99 81.5 192.12 73.96C192 73.8 155.87 37.61 155.66 37.46C154.47 36.55 152.79 36.79 151.89 37.98L131.74 64.67C131.63 64.55 131.48 64.48 131.35 64.38C131.17 64.14 116.05 49.02 115.81 48.84C115.32 48.16 114.56 47.68 113.65 47.68L40.95 47.68C39.46 47.68 38.26 48.89 38.26 50.37L38.26 155.39C38.26 156.29 38.73 157.06 39.42 157.54C39.59 157.79 73.36 191.56 73.6 191.73C73.71 191.89 73.86 192 74 192.13C81.53 193.99 89.39 195 97.49 195C151.35 195 195 151.35 195 97.5Z"/><path id="Vector" fill="#F4F6F9" fill-opacity="1" fill-rule="nonzero" d="M155.66 37.46C154.47 36.55 152.79 36.79 151.89 37.98L86.69 124.36L61.71 99.22C60.66 98.17 58.95 98.16 57.9 99.21C56.84 100.26 56.84 101.96 57.89 103.02L85.06 130.36C85.57 130.87 86.25 131.16 86.97 131.16C87.03 131.16 87.09 131.15 87.15 131.15C87.93 131.1 88.65 130.71 89.12 130.08L156.19 41.23C157.09 40.04 156.85 38.35 155.66 37.46Z"/><path id="Vector" fill="#F4F6F9" fill-opacity="1" fill-rule="nonzero" d="M143.27 90.77C141.78 90.77 140.58 91.97 140.58 93.46L140.58 152.7L43.64 152.7L43.64 53.07L113.65 53.07C115.14 53.07 116.34 51.86 116.34 50.38C116.34 48.89 115.14 47.68 113.65 47.68L40.95 47.68C39.46 47.68 38.26 48.89 38.26 50.38L38.26 155.39C38.26 156.88 39.46 158.08 40.95 158.08L143.27 158.08C144.76 158.08 145.96 156.88 145.96 155.39L145.96 93.46C145.96 91.97 144.76 90.77 143.27 90.77Z"/></g></svg>