<svg width="423.000000" height="349.000000" viewBox="0 0 423 349" fill="none" xmlns="http://www.w3.org/2000/svg" xmlns:xlink="http://www.w3.org/1999/xlink">
	<desc>
			Created with Pixso.
	</desc>
	<defs/>
	<path id="Fill-4" d="M83.37 54.58C59.85 54.58 40.61 73.01 40.61 95.53L40.61 159.37L-0.59 159.37L40.61 194.2L40.61 194.73C40.61 217.25 59.85 235.68 83.37 235.68L167.92 235.68C191.44 235.68 210.69 217.25 210.69 194.73L210.69 95.53C210.69 73.01 191.44 54.58 167.92 54.58L83.37 54.58Z" fill="#CDEEEC" fill-opacity="1.000000" fill-rule="evenodd"/>
	<mask id="mask18408_28010" mask-type="alpha" maskUnits="userSpaceOnUse" x="-0.583328" y="0.000000" width="375.656982" height="265.612183">
		<path id="Vector" d="M-0.59 16.89L-0.59 159.37L40.61 194.19L40.61 194.73C40.61 217.25 59.85 235.68 83.37 235.68L167.92 235.68C174.38 235.68 163.74 256.76 187.24 258.96C249.29 264.76 375.07 270.44 375.07 258.96C375.07 229.99 375.07 149.3 375.07 16.89C375.07 -5.64 -0.59 -5.64 -0.59 16.89Z" fill="#FFFFFF" fill-opacity="1.000000" fill-rule="nonzero"/>
	</mask>
	<g mask="url(#mask18408_28010)">
		<path id="Fill-1" d="M129.94 261.62C129.89 261.74 129.76 261.81 129.64 261.77L101.57 253.21L97.91 252.1C97.79 252.06 97.73 251.93 97.76 251.81C97.8 251.69 97.94 251.62 98.05 251.65L101.69 252.76L129.78 261.32C129.91 261.36 129.97 261.5 129.94 261.62Z" fill="#EED3C7" fill-opacity="1.000000" fill-rule="evenodd"/>
		<path id="Fill-3" d="M6.13 412.15L6.13 412.15C6.08 412.24 6.03 412.31 5.99 412.39C3.71 411.44 1.54 410.32 -0.62 409.15C-3.13 407.77 -5.6 406.31 -7.94 404.62C-5.24 405.68 -2.67 406.99 -0.14 408.36C1.99 409.54 4.11 410.76 6.13 412.15Z" fill="#EED3C7" fill-opacity="1.000000" fill-rule="evenodd"/>
		<path id="Fill-5" d="M-39.8 487.24L-39.8 487.25C-39.87 487.39 -39.95 487.5 -40.02 487.63C-40.08 487.61 -40.14 487.6 -40.2 487.58L-43.96 486.55C-46.46 485.86 -48.95 485.11 -51.43 484.35C-53.9 483.56 -56.38 482.79 -58.82 481.94C-59.29 481.78 -59.75 481.63 -60.22 481.47C-60.13 481.27 -60.04 481.08 -59.96 480.89C-59.5 481.01 -59.05 481.14 -58.59 481.27C-56.09 481.95 -53.61 482.71 -51.13 483.47C-48.65 484.24 -46.18 485.02 -43.73 485.88L-40.05 487.15C-39.97 487.18 -39.88 487.21 -39.8 487.24Z" fill="#EED3C7" fill-opacity="1.000000" fill-rule="evenodd"/>
		<path id="Fill-7" d="M98.9 263.34L93.1 280.21C93.06 280.33 92.93 280.39 92.81 280.36C92.79 280.35 92.78 280.35 92.77 280.34L86.79 285.26L73.73 306.91C73.86 306.49 73.97 306.08 74.09 305.67L86.6 285.12C86.61 285.11 86.62 285.1 86.63 285.09L92.67 280.22C92.65 280.17 92.65 280.13 92.67 280.08L98.47 263.21C98.51 263.09 98.64 263.03 98.75 263.06C98.81 263.08 98.87 263.12 98.9 263.18C98.92 263.23 98.92 263.28 98.9 263.34Z" fill="#EED3C7" fill-opacity="1.000000" fill-rule="evenodd"/>
		<path id="Fill-9" d="M118.95 260.76L118.95 260.77C118.86 261.01 118.61 261.14 118.36 261.06L103.75 256.59L102.74 259.51L104.39 260.02C104.63 260.09 104.76 260.34 104.67 260.59C104.59 260.83 104.33 260.97 104.09 260.89L99.91 259.61C99.68 259.53 99.56 259.29 99.64 259.05C99.72 258.84 99.93 258.71 100.14 258.73C100.17 258.73 100.2 258.74 100.23 258.75L101.87 259.25L103.03 255.89C103.11 255.65 103.37 255.52 103.61 255.59L118.66 260.2C118.9 260.27 119.03 260.53 118.95 260.76Z" fill="#EDFBFB" fill-opacity="1.000000" fill-rule="evenodd"/>
		<path id="Fill-11" d="M124.9 262.57L122.29 270.12L116.37 268.32L116.37 268.31C116.46 268.07 116.33 267.82 116.09 267.75L101.5 263.29L102.51 260.38L104.15 260.88C104.39 260.95 104.65 260.82 104.73 260.58C104.82 260.34 104.69 260.08 104.45 260.01L102.81 259.51L103.81 256.6L118.41 261.05C118.65 261.13 118.9 261 118.99 260.76L124.9 262.57Z" fill="#EED3C7" fill-opacity="1.000000" fill-rule="evenodd"/>
		<path id="Fill-13" d="M70.43 424.34C68.3 424.43 66.17 424.41 64.05 424.38C61.93 424.36 59.8 424.27 57.68 424.17C55.57 424.05 53.45 423.94 51.34 423.74L48.18 423.46C47.12 423.33 46.07 423.24 45.02 423.08C46.09 423.03 47.14 423.04 48.21 423.02L51.4 423.05C53.52 423.07 55.64 423.16 57.76 423.26C59.88 423.38 61.99 423.5 64.11 423.68C66.22 423.86 68.33 424.05 70.43 424.34Z" fill="#EED3C7" fill-opacity="1.000000" fill-rule="evenodd"/>
		<path id="Fill-15" d="M99.38 359.8C95.11 371.24 91.6 380.53 89.59 385.54L97.69 364.17L99.38 359.8Z" fill="#EED3C7" fill-opacity="1.000000" fill-rule="evenodd"/>
		<path id="Fill-17" d="M41.37 509.67L41.36 509.68C39.16 515.19 37.83 518.51 37.6 519.09L37.27 519.09L14.36 512.11C14.38 512.03 15.39 508.57 17.18 502.5C17.53 502.62 17.87 502.75 18.23 502.87C18.79 503.06 19.36 503.25 19.92 503.44C20.27 503.55 20.6 503.67 20.95 503.78C23.05 504.49 25.17 505.14 27.28 505.79C29.75 506.54 32.21 507.27 34.71 507.95L38.45 508.96C38.85 509.06 39.26 509.16 39.66 509.25C40.22 509.4 40.79 509.54 41.37 509.67Z" fill="#96DAD5" fill-opacity="1.000000" fill-rule="evenodd"/>
		<path id="Fill-19" d="M39.76 509.15C39.73 509.25 39.69 509.34 39.64 509.44C39.24 509.34 38.83 509.24 38.42 509.14L34.66 508.1C32.15 507.41 29.68 506.66 27.2 505.9C25.07 505.23 22.94 504.56 20.83 503.84C20.48 503.73 20.14 503.61 19.79 503.49C19.23 503.3 18.65 503.1 18.09 502.91C18.15 502.72 18.19 502.52 18.25 502.32C18.85 502.48 19.43 502.65 20.02 502.81C21.06 503.1 22.09 503.39 23.13 503.7C24.58 504.13 26.04 504.58 27.49 505.02C29.97 505.8 32.44 506.58 34.89 507.43L38.57 508.7C38.97 508.85 39.36 509 39.76 509.15Z" fill="#EED3C7" fill-opacity="1.000000" fill-rule="evenodd"/>
		<path id="Fill-21" d="M-38.41 487.76C-38.44 487.85 -38.48 487.93 -38.5 488.01C-39.01 487.88 -39.51 487.75 -40.02 487.63C-40.08 487.61 -40.14 487.6 -40.2 487.58L-43.96 486.55C-46.46 485.86 -48.95 485.11 -51.43 484.35C-53.9 483.56 -56.38 482.79 -58.82 481.94C-59.29 481.78 -59.75 481.62 -60.22 481.46C-60.91 481.22 -61.61 480.98 -62.3 480.73C-62.25 480.58 -62.21 480.44 -62.17 480.28C-61.43 480.48 -60.7 480.68 -59.96 480.88C-59.5 481.01 -59.05 481.14 -58.59 481.26C-56.09 481.94 -53.61 482.7 -51.13 483.47C-48.65 484.24 -46.18 485.02 -43.73 485.88L-40.05 487.15C-39.97 487.18 -39.88 487.21 -39.8 487.25C-39.34 487.42 -38.87 487.59 -38.41 487.76Z" fill="#2A4D52" fill-opacity="1.000000" fill-rule="evenodd"/>
		<path id="Fill-23" d="M-67.74 499.56C-67.52 498.89 -66.55 495.64 -64.98 490.29L-64.1 487.72L-40.95 494.15L-42.21 496.7L-43.63 496.7L-43.64 496.7L-47.06 496.69C-47.32 496.69 -47.53 496.89 -47.54 497.14C-47.54 497.35 -47.41 497.52 -47.23 497.58C-47.18 497.59 -47.14 497.6 -47.09 497.59L-42.37 497.6L-40.82 497.6L-37.32 500.1L-38.85 500.1L-38.86 500.1L-44.11 500.09C-44.37 500.09 -44.58 500.3 -44.59 500.55C-44.61 500.74 -44.47 500.92 -44.27 500.98C-44.24 500.99 -44.2 501 -44.15 501L-37.59 501.01L-36.04 501.01L-17.35 514.32C-16.54 515.07 -17.38 516.41 -18.43 516.05L-67.74 499.56Z" fill="#2A4D52" fill-opacity="1.000000" fill-rule="evenodd"/>
		<path id="Fill-25" d="M-41.43 494.26L-41.05 494.26C-41.09 494.32 -41.11 494.35 -41.11 494.35L-41.43 494.26Z" fill="#2A4D52" fill-opacity="1.000000" fill-rule="evenodd"/>
		<path id="Fill-27" d="M-40.04 495.16L-41.02 494.48C-41 494.44 -40.98 494.37 -40.95 494.27L-41.05 494.27C-40.99 494.17 -40.88 494 -40.74 493.75C-40.73 493.74 -40.72 493.73 -40.72 493.72C-40.87 494.11 -40.97 494.36 -41.01 494.48L-40.04 495.16Z" fill="#2A4D52" fill-opacity="1.000000" fill-rule="evenodd"/>
		<path id="Fill-29" d="M-40.03 495.12L-41.58 495.12L-46.29 495.11C-46.35 495.12 -46.39 495.11 -46.43 495.09C-46.62 495.04 -46.75 494.87 -46.75 494.66C-46.74 494.41 -46.53 494.22 -46.27 494.22L-42.85 494.22L-42.85 494.22L-41.43 494.22L-41.1 494.31C-41.1 494.31 -41.08 494.28 -41.05 494.22L-40.95 494.22C-40.98 494.32 -41 494.39 -41.02 494.43L-40.03 495.12Z" fill="#EDFBFB" fill-opacity="1.000000" fill-rule="evenodd"/>
		<path id="Fill-31" d="M-41.05 494.26C-41.09 494.32 -41.11 494.35 -41.11 494.35L-41.43 494.26L-41.05 494.26Z" fill="#EDFBFB" fill-opacity="1.000000" fill-rule="evenodd"/>
		<path id="Fill-33" d="M-35.21 498.51L-36.75 498.51L-43.31 498.5C-43.35 498.5 -43.4 498.49 -43.43 498.48C-43.62 498.42 -43.76 498.24 -43.75 498.05C-43.74 497.8 -43.53 497.59 -43.27 497.59L-38.02 497.6L-38.01 497.6L-36.48 497.6L-35.21 498.51Z" fill="#EDFBFB" fill-opacity="1.000000" fill-rule="evenodd"/>
		<path id="Fill-35" d="M11.1 524.15C11.32 523.46 13.08 517.47 14.71 511.94C30.04 516.63 37.7 518.97 37.7 518.97C37.69 518.97 37.33 519.82 36.63 521.53L35.62 521.52L32.57 521.52C32.3 521.52 32.1 521.72 32.09 521.96C32.08 522.17 32.21 522.34 32.4 522.4C32.44 522.41 32.49 522.43 32.54 522.42L36.87 522.43L36.88 522.43L38.36 522.43L38.36 522.43L41.86 524.93L40.39 524.92L40.38 524.92L35.51 524.92C35.26 524.92 35.04 525.12 35.03 525.38C35.02 525.57 35.15 525.75 35.35 525.81C35.39 525.82 35.42 525.83 35.48 525.83L41.66 525.83L41.67 525.84L43.15 525.84L43.16 525.84L61.49 538.92C62.31 539.66 61.47 541 60.41 540.65L11.1 524.15Z" fill="#2A4D52" fill-opacity="1.000000" fill-rule="evenodd"/>
		<path id="Fill-38" d="M37.41 519.09L37.75 519.09C37.72 519.15 37.71 519.18 37.71 519.18L37.41 519.09Z" fill="#2A4D52" fill-opacity="1.000000" fill-rule="evenodd"/>
		<path id="Fill-40" d="M42.72 506.46C42.26 507.59 41.83 508.65 41.43 509.64C41.41 509.68 41.4 509.72 41.38 509.75C40.12 512.85 39.15 515.26 38.52 516.85C38.02 518.09 37.73 518.84 37.65 519.07L37.7 519.1L37.57 519.1C37.8 518.52 39.12 515.21 41.32 509.74L41.32 509.73C40.75 509.6 40.18 509.46 39.62 509.31C39.22 509.22 38.81 509.12 38.41 509.02L34.68 508.01C32.19 507.34 29.74 506.61 27.28 505.87C25.17 505.22 23.06 504.57 20.97 503.87C21.71 503.81 22.47 503.76 23.24 503.73C24.68 504.15 26.13 504.59 27.57 505.02C30.03 505.77 32.48 506.53 34.91 507.36L38.56 508.59C38.95 508.74 39.34 508.88 39.74 509.03C40.28 509.22 40.82 509.42 41.36 509.62C41.76 508.64 42.18 507.57 42.63 506.44L42.64 506.44L42.72 506.46Z" fill="#2A4D52" fill-opacity="1.000000" fill-rule="evenodd"/>
		<path id="Fill-42" d="M39.14 519.96L37.67 519.96L37.65 519.95L33.33 519.94C33.28 519.96 33.24 519.94 33.2 519.93C33.01 519.87 32.87 519.7 32.88 519.49C32.89 519.25 33.1 519.05 33.36 519.05L36.41 519.05L37.42 519.06L37.72 519.15C37.72 519.15 37.73 519.12 37.76 519.06L37.89 519.05L39.14 519.96Z" fill="#EDFBFB" fill-opacity="1.000000" fill-rule="evenodd"/>
		<path id="Fill-44" d="M37.75 519.09C37.72 519.15 37.71 519.18 37.71 519.18L37.41 519.09L37.75 519.09Z" fill="#EDFBFB" fill-opacity="1.000000" fill-rule="evenodd"/>
		<path id="Fill-46" d="M43.99 523.34L42.51 523.34L42.5 523.34L36.32 523.33C36.27 523.33 36.23 523.32 36.19 523.31C36 523.25 35.87 523.08 35.88 522.88C35.89 522.63 36.1 522.42 36.35 522.42L41.22 522.43L41.23 522.43L42.7 522.44L42.71 522.44L43.99 523.34Z" fill="#EDFBFB" fill-opacity="1.000000" fill-rule="evenodd"/>
		<path id="Fill-48" d="M129.94 261.62C129.89 261.74 129.76 261.81 129.64 261.77L101.57 253.21L97.91 252.1C97.79 252.06 97.73 251.93 97.76 251.81C97.8 251.69 97.94 251.62 98.05 251.65L101.69 252.76L129.78 261.32C129.91 261.36 129.97 261.5 129.94 261.62Z" fill="#96DAD5" fill-opacity="1.000000" fill-rule="evenodd"/>
		<path id="Fill-50" d="M70.43 424.34C68.3 424.43 66.17 424.41 64.05 424.38C61.93 424.36 59.8 424.27 57.68 424.17C55.57 424.05 53.45 423.94 51.34 423.74L48.18 423.46C47.12 423.33 46.07 423.24 45.02 423.08C46.09 423.03 47.14 423.04 48.21 423.02L51.4 423.05C53.52 423.07 55.64 423.16 57.76 423.26C59.88 423.38 61.99 423.5 64.11 423.68C66.22 423.86 68.33 424.05 70.43 424.34Z" fill="#96DAD5" fill-opacity="1.000000" fill-rule="evenodd"/>
		<path id="Fill-52" d="M98.9 263.33L93.1 280.2C93.06 280.31 92.93 280.38 92.8 280.35C92.79 280.34 92.78 280.34 92.77 280.32L86.79 285.25L73.73 306.89L73.72 306.92L71.54 310.52C71.67 310.08 71.81 309.64 71.93 309.2L71.94 309.18L74.09 305.65L86.6 285.11C86.6 285.1 86.62 285.09 86.63 285.08L92.67 280.2C92.65 280.16 92.65 280.11 92.67 280.07L98.47 263.2C98.51 263.07 98.64 263.01 98.75 263.05C98.81 263.07 98.87 263.11 98.9 263.17C98.92 263.22 98.92 263.27 98.9 263.33Z" fill="#96DAD5" fill-opacity="1.000000" fill-rule="evenodd"/>
		<path id="Fill-54" d="M37.75 519.09C37.72 519.15 37.71 519.18 37.71 519.18L37.41 519.09L37.75 519.09Z" fill="#96DAD5" fill-opacity="1.000000" fill-rule="evenodd"/>
		<path id="Fill-56" d="M41.4 509.76C41.39 509.8 41.37 509.83 41.36 509.87C40.78 509.74 40.21 509.59 39.64 509.44C39.24 509.34 38.83 509.24 38.42 509.14L34.66 508.1C32.15 507.41 29.68 506.66 27.2 505.9C25.07 505.23 22.94 504.56 20.83 503.84C20.48 503.73 20.14 503.61 19.79 503.49C19.23 503.3 18.65 503.1 18.09 502.91C17.73 502.78 17.39 502.65 17.03 502.53C17.08 502.36 17.13 502.2 17.17 502.03C17.53 502.13 17.9 502.22 18.25 502.32C18.85 502.48 19.43 502.65 20.02 502.81C21.06 503.1 22.09 503.39 23.13 503.7C24.58 504.13 26.04 504.57 27.5 505.02C29.97 505.8 32.44 506.58 34.89 507.43L38.57 508.7C38.97 508.85 39.36 509 39.76 509.15C40.31 509.34 40.85 509.55 41.4 509.76Z" fill="#96DAD5" fill-opacity="1.000000" fill-rule="evenodd"/>
		<path id="Fill-58" d="M115.3 318.92C104.79 346.74 92.11 379.7 80.08 410.79L82.32 404.74L87.45 391.22L89.41 386.03L89.55 385.68L89.6 385.56L97.7 364.18L99.39 359.82L99.47 359.61L108.17 337.21L113.4 323.71L115.3 318.92Z" fill="#96DAD5" fill-opacity="1.000000" fill-rule="evenodd"/>
		<path id="Fill-60" d="M124.9 262.57L122.29 270.12L116.37 268.32L116.37 268.31C116.46 268.07 116.33 267.82 116.09 267.75L101.5 263.29L102.51 260.38L104.15 260.88C104.39 260.95 104.65 260.82 104.73 260.58C104.82 260.34 104.69 260.08 104.45 260.01L102.81 259.51L103.81 256.6L118.41 261.05C118.65 261.13 118.9 261 118.99 260.76L124.9 262.57Z" fill="#96DAD5" fill-opacity="1.000000" fill-rule="evenodd"/>
		<path id="Fill-62" d="M101.56 253.18L97.91 252.08C97.79 252.05 97.73 251.92 97.76 251.8C97.8 251.68 97.94 251.61 98.05 251.65L101.68 252.74L101.56 253.18Z" fill="#96DAD5" fill-opacity="1.000000" fill-rule="evenodd"/>
		<path id="Fill-64" d="M56.44 423.94C54.36 423.83 52.29 423.71 50.22 423.52L47.12 423.25C46.08 423.12 45.04 423.03 44.01 422.88C45.06 422.83 46.1 422.84 47.15 422.81L50.27 422.85C52.36 422.86 54.44 422.96 56.52 423.05C58.59 423.17 60.67 423.28 62.74 423.46C64.81 423.64 66.89 423.83 68.94 424.11C66.85 424.19 64.77 424.18 62.68 424.15C60.6 424.12 58.52 424.03 56.44 423.94ZM-0.58 409.74C-3.05 408.39 -5.47 406.97 -7.77 405.32C-5.12 406.35 -2.6 407.63 -0.12 408.96C1.98 410.12 4.05 411.31 6.04 412.66L6.03 412.67C6.38 412.9 6.72 413.14 7.07 413.38C6.67 413.23 6.28 413.07 5.89 412.9C3.66 411.97 1.53 410.88 -0.58 409.74ZM133.99 264.1C135.51 259.99 136.34 256.42 137.28 253.87L72.58 234.14C71.59 233.68 68.37 235.73 68.37 235.73C68.37 235.73 62.51 242.31 62.56 242.17C54.74 251.57 42.2 270.62 30.48 292.42C18.75 314.23 -45.8 445.94 -62.81 481.69C-62.61 481.74 -62.4 481.79 -62.19 481.84C-61.47 482.03 -60.75 482.22 -60.03 482.42C-59.58 482.54 -59.14 482.66 -58.7 482.78C-56.25 483.44 -53.82 484.17 -51.4 484.9C-48.97 485.65 -46.55 486.39 -44.16 487.22L-40.56 488.44C-40.48 488.47 -40.4 488.5 -40.32 488.53C-39.87 488.7 -39.41 488.86 -38.96 489.03C-38.62 489.15 -38.29 489.26 -37.96 489.39L-27.61 472.24L-11.28 445.36L-1.65 429.52L1.38 424.52C24.66 386.12 71.86 309.81 71.86 309.81L71.85 309.83C53.57 372.24 24.6 471.07 15.39 502.48C15.74 502.57 16.1 502.66 16.45 502.76C17.03 502.91 17.6 503.07 18.18 503.23C19.19 503.51 20.2 503.79 21.22 504.08C22.64 504.5 24.06 504.92 25.49 505.35C27.91 506.1 30.32 506.85 32.72 507.66L36.32 508.89C36.71 509.03 37.09 509.17 37.48 509.32C38.02 509.5 38.55 509.7 39.09 509.91C39.48 508.93 39.89 507.88 40.34 506.76L40.34 506.75C47.79 488.08 62.61 450.86 78.54 410.44L78.6 410.3L78.65 410.17L80.94 404.09L86.19 390.5L88.2 385.28L88.34 384.92L88.39 384.8L96.69 363.31L98.42 358.92L98.5 358.71L107.4 336.19L112.75 322.62L114.7 317.8L114.71 317.76C121.7 299.58 127.75 283.58 132.07 271.72L133.99 264.1Z" fill="#96DAD5" fill-opacity="1.000000" fill-rule="evenodd"/>
		<path id="Fill-66" d="M-41.05 494.26C-41.09 494.32 -41.11 494.35 -41.11 494.35L-41.43 494.26L-41.05 494.26Z" fill="#96DAD5" fill-opacity="1.000000" fill-rule="evenodd"/>
		<path id="Fill-68" d="M-1.38 428.35C-17.78 455.36 -31.48 477.91 -37.82 488.36C-37.85 488.4 -37.87 488.44 -37.9 488.48C-38.2 488.97 -38.48 489.44 -38.75 489.88L-37.91 488.47C-38.24 488.39 -38.59 488.31 -38.93 488.22C-39.43 488.09 -39.92 487.97 -40.42 487.85C-40.48 487.83 -40.54 487.82 -40.6 487.81L-44.29 486.82C-46.75 486.15 -49.19 485.43 -51.62 484.69C-54.05 483.94 -56.49 483.19 -58.89 482.38C-59.34 482.22 -59.8 482.07 -60.26 481.92C-60.94 481.68 -61.62 481.45 -62.3 481.21C-62.52 481.14 -62.73 481.06 -62.95 480.98C-62.9 480.86 -62.85 480.74 -62.79 480.63C-62.59 480.68 -62.38 480.73 -62.17 480.78C-61.45 480.97 -60.73 481.16 -60 481.36C-59.55 481.48 -59.11 481.6 -58.66 481.72C-56.2 482.38 -53.77 483.11 -51.33 483.85C-48.9 484.59 -46.47 485.34 -44.06 486.17L-40.45 487.39C-40.37 487.42 -40.29 487.45 -40.2 487.48C-39.75 487.65 -39.29 487.82 -38.84 487.98C-38.5 488.1 -38.17 488.22 -37.84 488.35L-27.44 471.16L-11.05 444.23L-1.38 428.35Z" fill="#96DAD5" fill-opacity="1.000000" fill-rule="evenodd"/>
		<path id="Fill-70" d="M7.19 412.89C6.79 412.74 6.39 412.57 5.99 412.4C3.71 411.44 1.54 410.32 -0.61 409.16C-3.13 407.77 -5.6 406.31 -7.94 404.62C-5.24 405.68 -2.67 406.99 -0.14 408.36C2 409.54 4.11 410.77 6.13 412.15L6.13 412.16C6.49 412.4 6.84 412.64 7.19 412.89Z" fill="#96DAD5" fill-opacity="1.000000" fill-rule="evenodd"/>
		<path id="Fill-72" d="M73.35 238.25L70.75 245.74L60.98 242.77C60.93 242.91 66.78 236.25 66.78 236.25L73.35 238.25Z" fill="#672448" fill-opacity="1.000000" fill-rule="evenodd"/>
		<path id="Fill-74" d="M72.61 246.48L97.14 253.97L99.76 246.4L75.23 238.91L72.61 246.48Z" fill="#672448" fill-opacity="1.000000" fill-rule="evenodd"/>
		<path id="Fill-76" d="M102.18 251.42C102.1 251.65 102.22 251.89 102.44 251.97L104.08 252.47L102.93 255.77L99.02 254.58L101.6 247.15L105.51 248.34L104.37 251.61L102.76 251.12C102.73 251.11 102.7 251.1 102.67 251.1C102.46 251.08 102.26 251.21 102.18 251.42Z" fill="#672448" fill-opacity="1.000000" fill-rule="evenodd"/>
		<path id="Fill-77" d="M118.95 260.74L118.95 260.74C118.85 260.98 118.6 261.11 118.36 261.03L103.31 256.43C103.07 256.35 102.94 256.11 103.02 255.87L104.18 252.49L105.05 252.76L104.04 255.69L118.66 260.17C118.9 260.24 119.03 260.5 118.95 260.74Z" fill="#EDFBFB" fill-opacity="1.000000" fill-rule="evenodd"/>
		<path id="Fill-78" d="M127.44 255.05L124.83 262.61L118.91 260.81L118.92 260.8C119 260.56 118.87 260.31 118.63 260.23L104.04 255.78L105.05 252.87L106.69 253.37C106.93 253.44 107.19 253.31 107.28 253.07C107.36 252.82 107.23 252.57 106.99 252.5L105.35 252L106.36 249.09L120.95 253.54C121.19 253.61 121.44 253.48 121.53 253.25L127.44 255.05Z" fill="#672448" fill-opacity="1.000000" fill-rule="evenodd"/>
		<path id="Fill-79" d="M137.37 258.23C136.57 260.48 135.67 262.97 134.69 265.68L126.71 263.26L129.31 255.78L137.37 258.23Z" fill="#672448" fill-opacity="1.000000" fill-rule="evenodd"/>
		<path id="Fill-80" d="M129.94 261.62C129.89 261.74 129.76 261.81 129.64 261.77L101.57 253.21L97.91 252.1C97.79 252.06 97.73 251.93 97.76 251.81C97.8 251.69 97.94 251.62 98.05 251.65L101.69 252.76L129.78 261.32C129.91 261.36 129.97 261.5 129.94 261.62Z" fill="#2A4D52" fill-opacity="1.000000" fill-rule="evenodd"/>
		<path id="Fill-81" d="M-37.45 488.1L-38.3 489.53L-39.39 491.34L-40.24 492.73L-40.76 493.6L-40.82 493.68L-40.82 493.7C-40.83 493.71 -40.84 493.72 -40.84 493.73C-40.99 493.98 -41.09 494.16 -41.15 494.26L-41.53 494.26L-43.56 493.69L-63.19 488.17L-64.3 487.85L-66.12 487.34C-66.12 487.33 -64.95 484.85 -62.86 480.46C-62.64 480.53 -62.41 480.62 -62.19 480.69C-61.51 480.94 -60.82 481.17 -60.12 481.41C-59.66 481.57 -59.2 481.72 -58.73 481.88C-56.3 482.71 -53.83 483.47 -51.37 484.24C-48.89 484.99 -46.42 485.73 -43.92 486.41L-40.18 487.42C-40.12 487.43 -40.06 487.44 -40 487.46C-39.49 487.58 -39 487.71 -38.49 487.84C-38.14 487.93 -37.79 488.01 -37.45 488.1Z" fill="#96DAD5" fill-opacity="1.000000" fill-rule="evenodd"/>
		<path id="Fill-82" d="M93.06 279.43C93.05 279.46 93.05 279.47 93.03 279.48L92.86 279.61L86.87 284.54L73.79 306.19L73.78 306.22L71.6 309.82L71.59 309.84L54.5 338.14L22.05 391.73L-10.54 445.24L-26.84 471.98L-37.3 488.98L-37.38 489.09L-40.67 494.45L-40.16 493.6L-39.34 492.24L-38.28 490.47L-37.45 489.07L-37.38 488.95L-27.1 471.84L-10.9 445.03L-1.35 429.23L1.66 424.24L21.51 391.42L54.07 337.89L71.99 308.5L72 308.48L74.15 304.95L86.68 284.4C86.69 284.39 86.7 284.38 86.71 284.37L92.76 279.49L92.9 279.38L93.08 278.44L93.41 277.46L93.06 279.43Z" fill="#2A4D52" fill-opacity="1.000000" fill-rule="evenodd"/>
		<path id="Fill-83" d="M98.9 263.48L93.19 280.3C93.15 280.42 93.02 280.48 92.9 280.45C92.89 280.44 92.88 280.44 92.87 280.43C92.82 280.4 92.78 280.36 92.77 280.31C92.75 280.26 92.75 280.22 92.76 280.17L98.48 263.34C98.52 263.22 98.65 263.16 98.76 263.2C98.82 263.22 98.87 263.26 98.9 263.32C98.92 263.36 98.92 263.42 98.9 263.48Z" fill="#2A4D52" fill-opacity="1.000000" fill-rule="evenodd"/>
		<path id="Fill-84" d="M70.43 424.34C68.3 424.43 66.17 424.41 64.05 424.38C61.93 424.36 59.8 424.27 57.68 424.17C55.57 424.05 53.45 423.94 51.34 423.74L48.18 423.46C47.12 423.33 46.07 423.24 45.02 423.08C46.09 423.03 47.14 423.04 48.21 423.02L51.4 423.05C53.52 423.07 55.64 423.16 57.76 423.26C59.88 423.38 61.99 423.5 64.11 423.68C66.22 423.86 68.33 424.05 70.43 424.34Z" fill="#2A4D52" fill-opacity="1.000000" fill-rule="evenodd"/>
		<path id="Fill-85" d="M7.19 412.89C6.79 412.74 6.39 412.57 5.99 412.4C3.71 411.44 1.54 410.32 -0.61 409.16C-3.13 407.77 -5.6 406.31 -7.94 404.62C-5.24 405.68 -2.67 406.99 -0.14 408.36C2 409.54 4.11 410.77 6.13 412.15L6.13 412.16C6.49 412.4 6.84 412.64 7.19 412.89Z" fill="#2A4D52" fill-opacity="1.000000" fill-rule="evenodd"/>
		<path id="Fill-86" d="M118.74 310.26L113.71 323.81L108.59 337.34L98.34 364.37L87.87 391.36L82.63 404.84L77.3 418.3L79.98 411.06L80.04 410.92L80.09 410.79L82.33 404.74L87.45 391.23L89.42 386.03L89.55 385.68L89.6 385.56L97.71 364.18L99.4 359.82L99.48 359.61L108.17 337.21L113.4 323.71L115.31 318.92L115.32 318.88L118.74 310.26Z" fill="#2A4D52" fill-opacity="1.000000" fill-rule="evenodd"/>
		<path id="Fill-87" d="M-36.41 488.53C-36.73 488.45 -37.06 488.38 -37.38 488.29C-37.4 488.29 -37.43 488.29 -37.45 488.28L-37.46 488.28C-37.8 488.19 -38.15 488.11 -38.5 488.01C-39.01 487.88 -39.51 487.75 -40.02 487.63C-40.08 487.61 -40.14 487.6 -40.2 487.58L-43.96 486.56C-46.46 485.86 -48.95 485.11 -51.43 484.35C-53.9 483.56 -56.38 482.78 -58.83 481.94C-59.29 481.77 -59.76 481.62 -60.22 481.46C-60.92 481.22 -61.61 480.97 -62.3 480.73C-62.52 480.65 -62.74 480.56 -62.97 480.48C-64.04 480.1 -65.1 479.7 -66.15 479.29C-65.03 479.55 -63.91 479.82 -62.8 480.12C-62.59 480.17 -62.38 480.22 -62.17 480.28C-61.43 480.47 -60.7 480.67 -59.96 480.88C-59.5 481 -59.05 481.13 -58.59 481.26C-56.09 481.94 -53.61 482.7 -51.13 483.46C-48.65 484.24 -46.18 485.02 -43.72 485.88L-40.05 487.15C-39.97 487.19 -39.88 487.21 -39.8 487.25C-39.34 487.42 -38.87 487.6 -38.41 487.77C-38.06 487.89 -37.72 488.01 -37.39 488.14C-37.38 488.15 -37.37 488.16 -37.37 488.16C-37.35 488.16 -37.32 488.16 -37.31 488.18C-37 488.29 -36.71 488.41 -36.41 488.53Z" fill="#2A4D52" fill-opacity="1.000000" fill-rule="evenodd"/>
		<path id="Fill-88" d="M42.21 510.08C41.95 510.02 41.68 509.96 41.42 509.89C41.4 509.88 41.38 509.89 41.36 509.87C40.78 509.74 40.21 509.59 39.64 509.44C39.24 509.34 38.83 509.24 38.42 509.14L34.66 508.1C32.15 507.41 29.68 506.66 27.19 505.9C25.07 505.23 22.94 504.56 20.83 503.83C20.48 503.72 20.14 503.6 19.79 503.48C19.23 503.29 18.65 503.1 18.09 502.9C17.73 502.77 17.38 502.65 17.03 502.52C15.51 501.99 13.99 501.43 12.47 500.84C14.05 501.2 15.62 501.61 17.17 502.03C17.53 502.12 17.89 502.22 18.25 502.32C18.84 502.48 19.43 502.64 20.02 502.81C21.06 503.09 22.09 503.39 23.13 503.69C24.58 504.13 26.04 504.57 27.49 505.02C29.97 505.79 32.44 506.58 34.89 507.43L38.57 508.7C38.97 508.85 39.36 509 39.76 509.15C40.31 509.35 40.85 509.55 41.4 509.76L41.47 509.78C41.72 509.88 41.96 509.97 42.21 510.08Z" fill="#2A4D52" fill-opacity="1.000000" fill-rule="evenodd"/>
		<path id="Fill-1" d="M109.56 125.81C109.85 125.74 111.43 125.45 113.01 125.24C111.12 125.35 109.29 125.68 107.47 126.27C105.78 126.81 104.12 127.59 102.45 128.63C104.64 127.38 107.12 126.4 109.56 125.81Z" fill="#EED3C7" fill-opacity="1.000000" fill-rule="evenodd"/>
		<path id="Fill-3" d="M148.03 217.56C149 213.71 149.97 209.81 150.91 205.99C150 209.55 149.04 213.21 148.03 217.56Z" fill="#EED3C7" fill-opacity="1.000000" fill-rule="evenodd"/>
		<path id="Fill-5" d="M141.04 245.05L72.96 223.33C72.92 223.61 72.88 223.89 72.83 224.16L140.81 245.85C140.89 245.59 140.96 245.32 141.04 245.05Z" fill="#EED3C7" fill-opacity="1.000000" fill-rule="evenodd"/>
		<path id="Fill-7" d="M129.22 252.47L129.21 252.47L71.43 234.03C71.39 234.3 71.37 234.44 71.37 234.44C71.33 234.59 71.53 234.8 71.96 235.08L128.06 252.98L134.82 255.13L137.75 256.06C137.84 255.84 137.94 255.59 138.04 255.28L135.34 254.42L129.22 252.47Z" fill="#EED3C7" fill-opacity="1.000000" fill-rule="evenodd"/>
		<path id="Fill-9" d="M309.05 203.4C307.97 202.79 304.47 203.22 300.96 203.75C300.95 203.76 300.95 203.76 300.95 203.76C299.49 203.97 298.04 204.2 296.77 204.39L296.61 204.4C295.52 204.56 294.57 204.67 293.85 204.7C293.82 204.7 293.79 204.7 293.76 204.71C293.43 204.71 293.16 204.7 292.95 204.67C295.43 203.25 305.86 198.43 305.6 197.6C305.15 196.19 299.97 196.86 293.99 199.11C293.6 199.25 292.96 199.44 292.15 199.64C291.81 199.73 291.45 199.81 291.06 199.89C290.75 199.97 290.45 200.04 290.15 200.09C288.57 200.41 286.75 200.7 285.02 200.83C284.74 200.86 284.45 200.87 284.17 200.88C282.59 200.97 281.13 200.9 280.07 200.57C280.02 200.56 279.97 200.54 279.91 200.52C278.72 200.11 278.11 199.35 278.5 198.08C279.15 195.93 282.61 194.29 284.36 193.15C285.67 192.3 287.1 191.31 288.28 190.2C288.93 189.59 291.51 187.18 290.94 186.17C290.81 185.96 290.51 185.9 290.25 185.88C283.65 185.29 277.24 188.16 271.43 191.06C259.82 196.85 250.82 206.2 239.94 213.1C229.27 219.88 213.64 231.25 200.6 226.91C191.04 223.74 184.02 213.16 178.65 200.52C178.55 200.28 178.45 200.04 178.35 199.79C178.26 199.57 178.17 199.35 178.07 199.13C177.03 196.58 176.05 193.96 175.13 191.31C173.35 186.17 171.78 180.92 170.38 175.85C169.78 173.68 169.21 171.54 168.66 169.46C168.6 169.23 168.54 168.99 168.48 168.76C168.43 168.58 168.39 168.41 168.35 168.24L168.34 168.24C166.57 161.42 165.55 155.13 163.75 150.74C158.4 137.72 144.47 131.4 144.47 131.4C142.43 130.14 140.08 129.1 137.38 128.39C136.18 128.07 135 127.77 133.85 127.46C133.66 127.42 133.48 127.37 133.29 127.32C132.8 127.2 132.33 127.07 131.87 126.95C131.4 126.82 130.94 126.7 130.48 126.58C130.38 126.56 130.27 126.52 130.16 126.5C129.82 126.41 129.48 126.33 129.14 126.24C129.05 126.21 128.95 126.19 128.86 126.17C124.79 125.16 121.07 124.39 117.55 124.19C117.04 124.62 103.45 127.64 103.46 127.62L103.45 127.62C99.8 129.91 96.15 133.48 92.27 138.79C92.04 139.1 91.8 139.45 91.58 139.86C91.57 139.87 91.56 139.87 91.56 139.88C88.44 142.83 85.2 145.65 81.85 148.35C81.84 148.36 81.82 148.37 81.8 148.38C76.83 152.4 71.61 156.12 66.18 159.53C64.54 160.57 62.87 161.57 61.19 162.54C61.02 162.64 60.85 162.74 60.67 162.83C55.68 165.69 50.52 168.3 45.26 170.59C34.33 175.4 22.88 178.98 11.19 181.26C8.18 181.84 5.15 182.34 2.12 182.76C1.2 182.88 0.27 183 -0.66 183.11C-6.01 183.75 -11.38 184.11 -16.75 184.2C-18.03 184.23 -19.3 184.23 -20.57 184.23C-27.05 184.19 -36.96 182.32 -40.62 182.76C-45.98 183.39 -51.36 184.05 -56.67 185C-57.58 185.15 -68.62 187.47 -66.87 188.9C-64.54 190.84 -50.02 189.84 -46.98 190.84C-50.32 192.05 -64.1 195.7 -63.99 196.78C-63.79 198.38 -58.86 198.82 -52.43 197.94C-55.97 199.2 -58.15 200.53 -58.02 201.55C-57.78 203.43 -49.73 203.58 -40.06 201.87C-36.71 201.28 -27.98 200.15 -28.47 201.09C-29.96 204.02 -43.19 204.7 -44.45 207.7C-45.54 210.27 -34.94 210.25 -24.78 209.73C-18.06 209.39 -11.54 208.83 -8.72 208.65C-5.71 208.47 -2.7 208.21 0.29 207.87C1.33 207.76 2.36 207.63 3.4 207.5C7.42 207 11.41 206.35 15.39 205.58C19.35 204.81 23.3 203.9 27.2 202.87C29.28 202.33 31.34 201.76 33.4 201.14C33.53 201.1 33.67 201.06 33.8 201.01C35.48 200.51 37.15 199.98 38.81 199.44C42.63 198.16 46.43 196.76 50.16 195.24C51.95 194.51 53.74 193.75 55.51 192.97C57.43 192.12 59.34 191.24 61.23 190.32C62.45 189.74 63.67 189.13 64.88 188.51C66.13 187.87 67.37 187.22 68.6 186.56C68.9 186.41 69.19 186.25 69.48 186.08C70.32 185.63 71.15 185.17 71.98 184.7C74.58 183.23 77.15 181.7 79.67 180.1C79.96 179.93 80.23 179.75 80.52 179.58C80.2 181.12 79.9 182.67 79.59 184.23C80.37 183.17 153.33 194.61 152.41 198.59C152.21 199.46 152.01 200.31 151.81 201.16C152.01 200.31 152.23 199.47 152.43 198.64C152.46 198.73 152.49 198.82 152.53 198.91C152.74 199.44 152.95 199.97 153.16 200.51C154.64 204.22 156.25 207.93 158 211.66C158.7 213.16 159.43 214.66 160.19 216.17C163.13 222.05 166.49 228.03 170.42 234.24C173.57 239.23 177.69 243.31 182.41 246.38C193.64 253.7 208.32 255.32 221.76 249.82C225.43 248.32 229.05 246.73 232.63 245.04C235.09 243.87 237.54 242.66 239.94 241.39C241.74 240.45 243.53 239.47 245.28 238.47C251.9 234.71 262.26 227.19 269.97 221.51C275.54 217.4 279.74 214.26 280.15 214.19C283.2 213.64 286.24 212.8 289.08 211.94C293.25 210.68 297.44 209.39 301.52 207.9C302.22 207.66 310.67 204.27 309.05 203.4Z" fill="#EED3C7" fill-opacity="1.000000" fill-rule="evenodd"/>
		<path id="Fill-12" d="M191.92 222.2C191.91 222.21 191.9 222.23 191.88 222.22C190.83 222.25 189.84 222.35 188.87 222.6C187.92 222.84 186.96 223.13 186.1 223.64C184.37 224.67 183.03 226.37 182.47 228.33C182.47 228.35 182.44 228.36 182.42 228.36C182.41 228.35 182.39 228.33 182.39 228.32C182.57 227.3 182.94 226.31 183.52 225.42C184.09 224.53 184.85 223.74 185.74 223.12C186.62 222.49 187.64 221.98 188.73 221.82C189.81 221.66 190.93 221.74 191.9 222.14C191.92 222.16 191.93 222.18 191.92 222.2Z" fill="#672348" fill-opacity="1.000000" fill-rule="evenodd"/>
		<path id="Fill-14" d="M301.26 205.92C300.25 206.43 299.12 206.57 298.04 206.76C296.95 206.93 295.85 207.04 294.75 207.18C292.55 207.41 290.36 207.68 288.17 208.02C289.24 207.69 290.32 207.45 291.42 207.25C292.3 207.1 293.19 206.98 294.08 206.87C294.12 206.86 294.14 206.86 294.17 206.86C294.35 206.83 294.53 206.81 294.71 206.79L296.93 206.57L297.09 206.55L298.01 206.46C298.56 206.4 299.12 206.34 299.66 206.26C300.19 206.19 300.74 206.12 301.26 205.92Z" fill="#672348" fill-opacity="1.000000" fill-rule="evenodd"/>
		<path id="Fill-16" d="M292.44 201.75C292.42 201.75 292.41 201.77 292.39 201.77C291.38 202.19 290.32 202.5 289.25 202.76C288.17 203.02 287.07 203.21 285.96 203.31C284.84 203.38 283.73 203.42 282.62 203.27C281.83 203.16 281.05 202.99 280.32 202.7C280.26 202.68 280.21 202.67 280.16 202.64C279.92 202.55 279.69 202.44 279.47 202.32C281.06 202.87 282.73 203.05 284.41 203.01C284.69 203 284.98 202.98 285.26 202.96C285.48 202.95 285.71 202.93 285.93 202.91C287.02 202.84 288.11 202.65 289.2 202.46C289.6 202.39 289.99 202.31 290.39 202.22C290.69 202.17 290.99 202.1 291.3 202.02C291.68 201.94 292.07 201.85 292.44 201.75Z" fill="#672348" fill-opacity="1.000000" fill-rule="evenodd"/>
		<path id="Fill-18" d="M280.84 208.68C280.84 208.69 280.82 208.68 280.82 208.68C280.2 208.22 279.6 207.75 279 207.29C278.37 206.85 277.78 206.38 277.13 205.98C275.86 205.14 274.59 204.31 273.22 203.64C271.85 202.97 270.42 202.4 268.93 202.02C267.44 201.64 265.89 201.38 264.34 201.48C264.33 201.48 264.33 201.48 264.32 201.46C264.32 201.45 264.33 201.44 264.34 201.44C265.9 201.28 267.47 201.5 268.99 201.83C270.5 202.17 271.96 202.71 273.37 203.34C274.78 203.98 276.12 204.75 277.37 205.64C278.01 206.09 278.59 206.59 279.19 207.06C279.76 207.57 280.3 208.11 280.85 208.64C280.85 208.65 280.86 208.67 280.84 208.68Z" fill="#672348" fill-opacity="1.000000" fill-rule="evenodd"/>
		<path id="Fill-20" d="M141.21 245.54L139.83 245.11L72.76 224.19L60.53 220.37L78.49 186.46C78.87 185.71 79.31 185 79.81 184.33C80.58 183.28 81.5 182.33 82.54 181.51C86.01 178.74 89.1 175.6 91.76 172.17L91.76 172.16C91.77 172.15 91.77 172.15 91.78 172.15C95.31 167.57 98.07 162.48 99.95 157.09C101.54 152.5 102.49 147.69 102.73 142.78L103.41 129.03L103.41 129.02C103.41 128.94 103.44 128.52 103.45 128.49C105.62 127.25 108.09 126.27 110.52 125.68C110.81 125.61 112.38 125.33 113.95 125.12C113.97 125.12 113.98 125.12 113.99 125.11C115.1 125.04 116.24 125.04 117.4 125.11C117.64 126.16 117.7 129.06 117.7 129.06C117.67 134.48 136.43 166.66 141.87 168.34C141.87 168.34 148.07 140.8 144.89 133.93C144.68 133.48 144.52 133.15 144.43 132.95C144.41 132.92 144.4 132.89 144.38 132.86L144.05 132.22C144.09 132.24 146.03 133.21 146.16 133.33C148.68 135.37 150.03 138.32 151.35 140.48C152.33 142.05 153.07 143.6 153.61 144.99C157.66 155.45 156.73 167.93 155.18 180C154.19 187.71 153.1 193.37 151.92 198.5C151.72 199.35 151.53 200.19 151.32 201.03C151.06 202.06 150.81 203.09 150.54 204.13C150.42 204.64 150.28 205.15 150.15 205.66C149.22 209.26 148.24 212.95 147.2 217.33C147.19 217.4 147.16 217.5 147.13 217.61C146.64 219.39 144.36 226.7 143.17 232.82C142.36 236.88 141.76 241.28 141.21 245.54Z" fill="#2A8C79" fill-opacity="1.000000" fill-rule="evenodd"/>
		<path id="Fill-22" d="M116.5 125.35C115.33 125.28 114.18 125.28 113.05 125.35C114.74 125.13 116.42 125 116.5 125.35Z" fill="#2A8C79" fill-opacity="1.000000" fill-rule="evenodd"/>
		<path id="Fill-24" d="M136.81 266.62C136.51 266.69 136.12 266.72 135.64 266.72C133.85 266.68 130.88 266.11 127.09 265.16C122.51 264.01 116.72 262.29 110.39 260.29L110.38 260.28C86.82 252.79 55.72 241.23 50.93 239.44C50.52 239.29 50.3 239.2 50.3 239.2L55.3 229.65L59.46 230.97L59.47 230.97L60.64 231.34L72.11 234.96L128.1 252.63L134.85 254.76L137.77 255.67L138.29 255.84L138.78 255.99L140.98 256.69C140.03 262.19 138.83 266.13 136.81 266.62Z" fill="#2A8C79" fill-opacity="1.000000" fill-rule="evenodd"/>
		<path id="Fill-26" d="M140.94 256.29L138.76 255.61L138.31 255.47L137.89 255.33L135.19 254.48L129.08 252.55L129.07 252.55L71.39 234.32L61.34 231.14L60.16 230.77L55.48 229.29L60.31 220.06L72.97 224.07L140.83 245.52L142.35 246C141.89 249.66 141.45 253.2 140.94 256.29Z" fill="#2A8C79" fill-opacity="1.000000" fill-rule="evenodd"/>
		<path id="Fill-28" d="M142.34 246.34L140.81 245.85L72.83 224.16L60.16 220.11L60.54 219.35L72.96 223.32L141.04 245.05L142.45 245.5C142.41 245.78 142.37 246.06 142.34 246.34Z" fill="#2A8C79" fill-opacity="1.000000" fill-rule="evenodd"/>
		<path id="Fill-30" d="M140.96 257.09L138.76 256.39L138.27 256.23L137.75 256.06L134.82 255.13L128.06 252.98L71.96 235.07L60.47 231.41L59.29 231.03L59.28 231.03L55.11 229.7L55.5 228.94L60.18 230.44L61.37 230.82L71.43 234.02L129.21 252.47L129.22 252.47L135.34 254.42L138.04 255.28L138.47 255.42L138.91 255.56L141.1 256.26C141.06 256.53 141.01 256.82 140.96 257.09Z" fill="#2A8C79" fill-opacity="1.000000" fill-rule="evenodd"/>
		<path id="Fill-32" d="M48.55 178.07C48.56 178.09 48.55 178.11 48.53 178.13C48.51 178.13 48.49 178.12 48.48 178.12C47.7 177.42 46.93 176.83 46.06 176.36C45.21 175.9 44.31 175.47 43.33 175.28C41.37 174.89 39.21 175.28 37.42 176.39C37.4 176.4 37.37 176.39 37.36 176.37C37.35 176.36 37.35 176.34 37.37 176.33C38.21 175.68 39.18 175.18 40.22 174.88C41.27 174.59 42.37 174.51 43.45 174.64C44.53 174.76 45.61 175.06 46.51 175.67C47.4 176.28 48.14 177.1 48.55 178.07Z" fill="#672348" fill-opacity="1.000000" fill-rule="evenodd"/>
		<path id="Fill-34" d="M-27.52 196.47C-27.53 196.47 -27.54 196.48 -27.55 196.48C-29.18 195.68 -30.77 194.83 -32.32 193.92C-33.87 193.02 -35.4 192.07 -36.95 191.14C-38.48 190.22 -40.05 189.29 -41.86 189.02C-43.65 188.73 -45.46 188.47 -47.23 188.08C-47.25 188.08 -47.25 188.07 -47.25 188.06C-47.25 188.05 -47.23 188.04 -47.23 188.04C-45.44 188.39 -43.63 188.61 -41.82 188.87C-39.99 189.11 -38.36 190.04 -36.81 190.92C-35.25 191.81 -33.66 192.67 -32.1 193.57C-30.54 194.47 -29.02 195.42 -27.53 196.44C-27.52 196.44 -27.52 196.46 -27.52 196.47Z" fill="#672348" fill-opacity="1.000000" fill-rule="evenodd"/>
		<path id="Fill-36" d="M-39.28 192.7C-39.29 192.71 -39.29 192.72 -39.3 192.72C-40.42 193.05 -41.54 193.3 -42.67 193.56C-43.8 193.81 -44.95 193.98 -46.08 194.18L-52.91 195.37C-52.92 195.37 -52.93 195.36 -52.93 195.35C-52.94 195.34 -52.93 195.33 -52.92 195.33L-46.14 193.87C-45 193.63 -43.88 193.36 -42.74 193.17C-41.6 192.98 -40.46 192.79 -39.31 192.68C-39.3 192.68 -39.29 192.69 -39.28 192.7Z" fill="#672348" fill-opacity="1.000000" fill-rule="evenodd"/>
		<path id="Fill-38" d="M142.34 246.34L140.81 245.85L72.83 224.16L60.16 220.11L60.54 219.35L72.96 223.32L141.04 245.05L142.45 245.5C142.41 245.78 142.37 246.06 142.34 246.34Z" fill="#EDFBFB" fill-opacity="1.000000" fill-rule="evenodd"/>
		<path id="Fill-40" d="M140.96 257.09L138.76 256.39L138.27 256.23L137.75 256.06L134.82 255.13L128.06 252.98L71.96 235.07L60.47 231.41L59.29 231.03L59.28 231.03L55.11 229.7L55.5 228.94L60.18 230.44L61.37 230.82L71.43 234.02L129.21 252.47L129.22 252.47L135.34 254.42L138.04 255.28L138.47 255.42L138.91 255.56L141.1 256.26C141.06 256.53 141.01 256.82 140.96 257.09Z" fill="#EDFBFB" fill-opacity="1.000000" fill-rule="evenodd"/>
		<path id="Fill-42" d="M140.3 149.05C140.29 149.06 140.29 149.07 140.28 149.07C139.68 149.08 139.09 149.08 138.5 149.07C138.2 149.07 137.9 149.09 137.61 149.05C137.32 149.01 137.03 148.97 136.74 148.86C136.73 148.86 136.73 148.86 136.73 148.84C136.73 148.84 136.73 148.83 136.74 148.84C137.04 148.77 137.34 148.75 137.64 148.75C137.94 148.75 138.23 148.8 138.52 148.83C139.11 148.89 139.7 148.96 140.28 149.04C140.29 149.04 140.3 149.04 140.3 149.05Z" fill="#672448" fill-opacity="1.000000" fill-rule="evenodd"/>
		<path id="Fill-44" d="M132.68 148.46C132.69 148.47 132.69 148.49 132.67 148.49C132.67 148.5 132.66 148.5 132.65 148.5C132.2 148.34 131.8 148.11 131.42 147.87C131.23 147.75 131.04 147.61 130.86 147.48L130.87 147.47C130.69 147.33 130.51 147.17 130.34 147.04C129.62 146.47 128.92 145.89 128.23 145.3C128.21 145.29 128.21 145.27 128.22 145.27C128.23 145.26 128.24 145.26 128.25 145.26C129.03 145.74 129.81 146.23 130.56 146.73C130.74 146.84 130.91 146.95 131.09 147.05C131.3 147.19 131.51 147.33 131.7 147.49C132.05 147.78 132.39 148.09 132.68 148.46Z" fill="#672448" fill-opacity="1.000000" fill-rule="evenodd"/>
		<path id="Fill-1" d="M123.79 96.82C124.54 97.44 125.35 98.01 126.19 98.54C125.29 98.14 124.5 97.55 123.79 96.82Z" fill="#EED3C7" fill-opacity="1.000000" fill-rule="evenodd"/>
		<path id="Fill-3" d="M181.84 103.03C181.58 102.85 180.66 101.65 181.45 101.94C181.78 102.42 183.72 104.34 181.84 103.03ZM134.77 87.02L134.65 87.15C133.2 84.96 129.39 86.76 131.8 88.84L131.77 88.9C129.23 86.95 132.84 84.7 134.64 86.71C137.04 79.89 122.59 79.21 125.91 89.78L125.85 89.81C121.16 77.95 138.54 79.62 134.77 87.02ZM187.59 98.53C184.09 87.43 192.09 75.19 189.04 64.11C183.35 64.82 172.94 63.39 165.8 61.34C162.46 71.55 151.45 80.87 140.48 82.85C127.81 67.59 109.81 94.27 129.45 99.21C129.56 99.29 143.24 116.08 143.39 116.1L143.38 116.13C148.63 120.98 155.1 128.34 163.45 125.9C172.65 122.23 180.46 113.35 183.17 104.19C187.13 106.88 190.06 101.81 187.59 98.53Z" fill="#EED3C7" fill-opacity="1.000000" fill-rule="evenodd"/>
		<path id="Fill-6" d="M134.47 86.65L134.35 86.78C132.9 84.59 129.09 86.38 131.5 88.46L131.47 88.52C128.93 86.57 132.54 84.32 134.34 86.34C136.74 79.52 122.29 78.83 125.61 89.41L125.55 89.44C120.86 77.58 138.24 79.25 134.47 86.65Z" fill="#EED3C7" fill-opacity="1.000000" fill-rule="evenodd"/>
		<path id="Fill-8" d="M143.55 115.69L143.54 115.72C139.49 111.99 135.08 108.41 131.96 104.07C131.96 104.07 131.94 104.07 131.95 104.06C131.08 102.44 129.08 100.62 129.55 98.72C129.66 98.8 143.39 115.68 143.55 115.69Z" fill="#EED3C7" fill-opacity="1.000000" fill-rule="evenodd"/>
		<path id="Fill-10" d="M182.28 103.32C182.02 103.15 181.1 101.93 181.89 102.23C182.22 102.71 184.17 104.64 182.28 103.32Z" fill="#EED3C7" fill-opacity="1.000000" fill-rule="evenodd"/>
		<path id="Fill-12" d="M182.28 103.32C182.02 103.15 181.1 101.93 181.89 102.23C182.22 102.71 184.17 104.64 182.28 103.32Z" fill="#672348" fill-opacity="1.000000" fill-rule="evenodd"/>
		<path id="Fill-14" d="M134.47 86.65L134.35 86.78C132.9 84.59 129.09 86.38 131.5 88.46L131.47 88.52C128.93 86.57 132.54 84.32 134.34 86.34C136.74 79.52 122.29 78.83 125.61 89.41L125.55 89.44C120.86 77.58 138.24 79.25 134.47 86.65Z" fill="#672348" fill-opacity="1.000000" fill-rule="evenodd"/>
		<path id="Fill-16" d="M189.21 64.17C183.23 64.97 172.89 63.55 165.49 61.45C162.14 71.67 151.12 80.99 140.14 82.98C127.46 67.7 109.44 94.41 129.09 99.36L128.86 100.03L128.76 99.8C99.83 88.79 116.9 40.04 146.84 44.02C152.05 41.17 163.69 40.7 176.57 43.25C198.78 47.04 209.73 60.37 189.21 64.17Z" fill="#672348" fill-opacity="1.000000" fill-rule="evenodd"/>
		<path id="Fill-19" d="M129.14 99.37L128.91 100.01C127.97 99.57 127.07 99.08 126.21 98.55C127.07 98.94 128 99.15 129.04 99.14C129.07 99.22 129.1 99.3 129.14 99.37Z" fill="#672348" fill-opacity="1.000000" fill-rule="evenodd"/>
		<path id="Fill-21" d="M141.58 121.54C141.6 121.49 143.57 115.57 143.58 115.53C143.46 115.53 129.82 98.78 129.73 98.72C127.38 105.95 122.31 121.62 120.16 128.71L137.43 133.96L141.58 121.54Z" fill="#EED3C7" fill-opacity="1.000000" fill-rule="evenodd"/>
		<path id="Fill-23" d="M141.58 121.68C139.53 120.03 134.91 110.35 132.02 104.05C132.02 104.05 132 104.04 132.01 104.04C130.66 101.09 129.71 98.92 129.62 98.72C129.73 98.8 143.41 115.6 143.56 115.61C143.28 116.48 141.79 120.9 141.58 121.68Z" fill="#EED3C7" fill-opacity="1.000000" fill-rule="evenodd"/>
		<path id="Fill-35" d="M181.77 78.04C179.17 76.54 174.75 76.88 172.39 78.77C177.33 71.27 186.79 77.57 181.77 78.04Z" fill="#672348" fill-opacity="1.000000" fill-rule="evenodd"/>
		<path id="Fill-1" d="M177.42 87.54C176.91 89.23 175.58 90.36 174.46 90.06C173.33 89.76 172.83 88.16 173.35 86.48C173.86 84.79 175.19 83.67 176.31 83.96C177.44 84.26 177.94 85.86 177.42 87.54Z" fill="#672348" fill-opacity="1.000000" fill-rule="evenodd"/>
		<path id="Fill-3" d="M169.14 87.09C169.1 87.08 169.06 87.06 169.03 87.04C168.85 86.92 168.8 86.67 168.93 86.49C171.2 83.31 175.63 82.45 178.81 84.55C178.99 84.68 179.04 84.92 178.91 85.11C178.77 85.29 178.52 85.34 178.33 85.22C175.52 83.36 171.6 84.12 169.6 86.93C169.49 87.08 169.3 87.14 169.14 87.09Z" fill="#672348" fill-opacity="1.000000" fill-rule="evenodd"/>
		<path id="Fill-31" d="M175.14 111.28C166.53 111.32 166.15 104.95 166.15 104.95C166.15 104.95 169.27 107.03 175.43 108.66C175.38 109.03 175.25 110.42 175.14 111.28Z" fill="#EDFBFB" fill-opacity="1.000000" fill-rule="evenodd"/>
	</g>
	<path id="Fill-4" d="M338.54 167.38C362.06 167.38 381.3 185.8 381.3 208.33L381.3 272.17L422.5 272.17L381.3 306.99L381.3 307.52C381.3 330.04 362.06 348.47 338.54 348.47L253.99 348.47C230.47 348.47 211.22 330.04 211.22 307.52L211.22 208.33C211.22 185.8 230.47 167.38 253.99 167.38L338.54 167.38Z" fill="#CDEEEC" fill-opacity="1.000000" fill-rule="evenodd"/>
	<mask id="mask18408_28117" mask-type="alpha" maskUnits="userSpaceOnUse" x="152.442688" y="117.194458" width="270.538757" height="231.279663">
		<path id="Vector" d="M422.5 117.19C423.58 117.19 422.5 252.33 422.5 348.47C422.5 348.47 337.38 348.47 333.57 348.47L255.07 347.95C250.63 347.95 159.89 348.47 159.89 347.31C159.89 283.7 156.08 117.19 152.44 117.19L422.5 117.19Z" fill="#FFFFFF" fill-opacity="1.000000" fill-rule="nonzero"/>
	</mask>
	<g mask="url(#mask18408_28117)">
		<path id="Fill-1" d="M246.87 408.48C246.95 408.56 247.07 408.61 247.21 408.6L267.89 407.55L267.96 407.55L267.96 407.55L270.94 407.4C270.94 407.36 270.94 407.33 270.95 407.3L270.95 407.29C270.96 407.02 270.96 406.76 270.97 406.49C271.01 405.31 271.05 404.14 271.11 402.97C271.11 402.72 271.13 402.47 271.14 402.22C271.76 389.56 273.48 376.71 276.98 364.42C272.16 363.7 267.75 362.29 263.24 360.33L262.6 360.35C262.6 360.35 261.94 362.94 261.26 374.09L261.21 374.82C260.83 381.23 260.46 390.32 260.18 403.12L255.68 404.7L254.83 404.99L247.01 407.72C246.69 407.88 246.67 408.27 246.87 408.48Z" fill="#765040" fill-opacity="1.000000" fill-rule="evenodd"/>
		<path id="Fill-3" d="M291 368.18C291.31 371.98 292.18 375.04 294.55 378.88C294.56 378.9 294.58 378.91 294.59 378.94C295.47 380.36 296.51 381.54 297.68 382.51L297.7 382.52L297.76 382.56C298.18 382.91 298.63 383.23 299.09 383.52L299.25 383.63L299.27 383.63C310.03 390.34 329.15 382.82 339.3 379.13C339.31 379.13 349.42 388 349.42 388C349.54 388.1 349.67 388.12 349.8 388.07C350.01 388.01 350.18 387.78 350.08 387.54L341.71 368.45L341.67 368.36L341.22 367.34C341.23 367.36 341.24 367.38 341.23 367.41C341.23 367.57 340.99 367.76 340.56 367.96C339.9 368.28 338.78 368.64 337.39 369.03C337.29 369.05 337.18 369.08 337.09 369.11C336.88 369.16 336.66 369.22 336.44 369.28C336.38 369.3 336.32 369.31 336.26 369.33C329.75 371 319.01 372.88 317.49 372.95C311.54 373.2 306.26 371.49 305.17 366.19C305.12 366.2 305.07 366.21 305.03 366.23C300.39 367.51 295.84 368.06 291 368.18Z" fill="#765040" fill-opacity="1.000000" fill-rule="evenodd"/>
		<path id="Fill-5" d="M262.74 361.11C267.33 363.09 271.8 364.52 276.7 365.25L276.73 365.25C279.86 365.71 283.17 365.88 286.79 365.71C286.8 365.34 286.64 364.99 286.56 364.61C286.46 364.14 286.4 363.65 286.35 363.17L286.2 360.27C286.12 358.35 286.06 356.42 286.01 354.48C286.01 354.48 286.01 354.46 286.01 354.45C285.98 354.08 285.94 353.7 285.91 353.32C285.81 352.32 285.53 347.66 285.26 342.97C285.26 342.97 285.25 342.97 285.26 342.96C285.26 342.96 285.26 342.96 285.26 342.95C285.27 342.95 285.29 342.95 285.29 342.96C285.57 343.37 285.56 343.89 285.61 344.36C285.65 344.84 285.65 345.32 285.66 345.81C285.65 346.77 285.8 347.72 285.87 348.69L286.13 351.57C286.23 352.53 286.23 353.5 286.29 354.46C286.39 356.39 286.48 358.32 286.54 360.25L286.54 360.28C286.72 362.09 286.89 363.9 287.06 365.7C287.14 366.57 287.22 367.44 287.3 368.31C288.32 368.32 289.33 368.31 290.32 368.29C295.13 368.17 299.67 367.62 304.28 366.36C304.32 366.34 304.37 366.33 304.42 366.32C312.27 364.4 320.67 359.82 320.86 358.85C321 358.06 311.03 323.57 311.03 323.57L272.42 317.47C272.42 317.47 266.76 331.19 255.42 358.63C256.11 358.95 262.05 360.82 262.74 361.11Z" fill="#FF90A0" fill-opacity="1.000000" fill-rule="evenodd"/>
		<path id="Fill-7" d="M285.35 342.9C285.35 342.9 285.36 342.91 285.36 342.91C285.62 347.53 285.89 352.13 285.99 353.12C286.02 353.49 286.05 353.87 286.09 354.24C286.08 354.24 286.09 354.26 286.09 354.26C286.12 354.72 286.17 355.16 286.21 355.62L286.21 355.62C286.25 356.09 286.3 356.55 286.33 357.02L286.33 357.02C286.42 358 286.51 358.98 286.6 359.95C286.54 358.05 286.46 356.15 286.36 354.25C286.3 353.29 286.3 352.34 286.2 351.39L285.95 348.54C285.88 347.6 285.74 346.66 285.75 345.71C285.74 345.23 285.74 344.76 285.7 344.28C285.65 343.81 285.66 343.3 285.39 342.89C285.38 342.89 285.37 342.88 285.36 342.89C285.36 342.9 285.35 342.9 285.35 342.9Z" fill="#FF90A0" fill-opacity="1.000000" fill-rule="evenodd"/>
		<path id="Fill-9" d="M285.41 342.9C285.41 342.9 285.42 342.91 285.42 342.91C285.68 347.53 285.95 352.13 286.05 353.12C286.08 353.49 286.11 353.87 286.14 354.24C286.14 354.24 286.15 354.26 286.15 354.26C286.19 356.17 286.25 358.08 286.33 359.98L286.48 362.83C286.53 363.31 286.58 363.79 286.68 364.25C286.76 364.63 286.92 364.97 286.9 365.34C286.92 365.34 286.94 365.34 286.96 365.34C287.03 365.33 287.09 365.33 287.16 365.33C287 363.55 286.84 361.77 286.67 359.98L286.66 359.96C286.6 358.05 286.52 356.15 286.42 354.25C286.36 353.29 286.35 352.34 286.26 351.39L286.01 348.54C285.94 347.6 285.79 346.66 285.81 345.71C285.8 345.23 285.79 344.76 285.76 344.28C285.7 343.81 285.72 343.3 285.45 342.89C285.44 342.89 285.43 342.88 285.42 342.89C285.42 342.9 285.41 342.9 285.41 342.9Z" fill="#FF90A0" fill-opacity="1.000000" fill-rule="evenodd"/>
		<path id="Fill-11" d="M260.98 374.89C261.09 374.98 261.21 375.08 261.33 375.16C262.08 375.69 262.99 375.94 263.89 376.05C264.8 376.16 265.72 376.08 266.6 375.84C267.47 375.59 268.29 375.17 269 374.61C269.01 374.6 269.01 374.58 269.01 374.57C269 374.55 268.98 374.55 268.96 374.55C267.45 375.5 265.64 375.83 264 375.5C263.18 375.32 262.43 374.96 261.72 374.57C261.48 374.44 261.25 374.3 261.02 374.13L260.98 374.89Z" fill="#672448" fill-opacity="1.000000" fill-rule="evenodd"/>
		<path id="Fill-13" d="M299.29 383.15C300.17 383.25 301.07 383.18 301.93 382.94C302.8 382.69 303.62 382.26 304.32 381.72C304.34 381.71 304.34 381.69 304.33 381.68C304.32 381.66 304.3 381.65 304.29 381.66C302.78 382.6 300.96 382.93 299.33 382.6C298.76 382.48 298.23 382.27 297.72 382.03L299.29 383.15Z" fill="#672448" fill-opacity="1.000000" fill-rule="evenodd"/>
		<path id="Fill-15" d="M246.45 408.42L258.06 407.46L254.85 404.7L255.72 404.41L259.24 407.37L267.4 406.69C267.39 406.65 267.39 406.6 267.39 406.56C267.27 404.3 268.99 402.29 271.25 402C271.32 401.99 271.4 401.98 271.47 401.97C271.7 401.96 271.89 402.12 271.9 402.35C271.91 402.58 271.74 402.78 271.51 402.8C271.42 402.8 271.34 402.81 271.26 402.82C269.47 403.1 268.13 404.69 268.22 406.49C268.22 406.53 268.22 406.58 268.23 406.62L271.69 406.34C271.92 406.32 272.11 406.49 272.12 406.72C272.14 406.94 271.96 407.14 271.73 407.16L268.4 407.44L267.55 407.51L260.11 408.12L258.94 408.22L246.49 409.24C246.25 409.26 246.06 409.09 246.05 408.87C246.04 408.64 246.21 408.44 246.45 408.42Z" fill="#2A8C79" fill-opacity="1.000000" fill-rule="evenodd"/>
		<path id="Fill-18" d="M350.19 388.96L345.7 379.25L344.11 383.11L343.57 382.47L345.24 378.26L342.09 371.44C342.05 371.46 342.01 371.48 341.96 371.5C339.89 372.48 337.48 371.77 336.51 369.92C336.47 369.86 336.45 369.8 336.42 369.74C336.33 369.55 336.43 369.32 336.64 369.22C336.84 369.12 337.09 369.2 337.17 369.39C337.21 369.46 337.24 369.52 337.28 369.59C338.09 371.04 339.99 371.58 341.64 370.8C341.68 370.78 341.73 370.76 341.77 370.74L340.43 367.85C340.34 367.66 340.44 367.42 340.64 367.32C340.85 367.22 341.09 367.3 341.18 367.49L342.47 370.27L342.8 370.99L345.67 377.21L346.13 378.19L350.94 388.6C351.03 388.8 350.93 389.03 350.73 389.13C350.52 389.23 350.28 389.15 350.19 388.96Z" fill="#2A8C79" fill-opacity="1.000000" fill-rule="evenodd"/>
		<path id="Fill-21" d="M285.41 342.9C285.41 342.9 285.41 342.91 285.41 342.91L285.42 342.92C285.66 343.31 285.65 343.82 285.69 344.28C285.71 344.76 285.71 345.23 285.7 345.71C285.67 346.67 285.79 347.62 285.84 348.56L286.03 351.41C286.12 352.35 286.11 353.29 286.14 354.23C286.14 354.24 286.14 354.26 286.14 354.26C286.19 356.17 286.25 358.07 286.32 359.97L286.48 362.83C286.52 363.31 286.58 363.78 286.68 364.25C286.76 364.62 286.92 364.97 286.9 365.34C286.9 365.43 286.88 365.53 286.85 365.63C286.85 365.64 286.85 365.65 286.86 365.65C286.87 365.65 286.88 365.65 286.88 365.64C286.93 365.54 286.95 365.44 286.96 365.33C287.01 364.96 286.88 364.57 286.83 364.22C286.76 363.76 286.72 363.29 286.71 362.81L286.66 359.98L286.66 359.95C286.6 358.05 286.51 356.15 286.41 354.24C286.36 353.29 286.35 352.34 286.26 351.39L286.01 348.54C285.94 347.6 285.79 346.66 285.81 345.71C285.8 345.23 285.79 344.76 285.76 344.28C285.7 343.81 285.72 343.3 285.44 342.89C285.44 342.89 285.43 342.88 285.42 342.89C285.42 342.9 285.41 342.9 285.41 342.9Z" fill="#672448" fill-opacity="1.000000" fill-rule="evenodd"/>
		<path id="Fill-1" d="M238.84 323.9C239.05 324.2 239.22 324.5 239.44 324.77C239.64 325.04 239.84 325.33 240.08 325.58C240.58 326.07 241.2 326.44 241.9 326.65C241.91 326.66 241.91 326.67 241.91 326.68C241.91 326.68 241.9 326.69 241.89 326.69C241.16 326.57 240.47 326.26 239.89 325.78C239.61 325.55 239.33 325.29 239.15 324.96C238.97 324.63 238.83 324.28 238.81 323.91C238.81 323.9 238.81 323.89 238.82 323.89C238.83 323.89 238.84 323.89 238.84 323.9Z" fill="#672448" fill-opacity="1.000000" fill-rule="evenodd"/>
		<path id="Fill-3" d="M315.67 332.89L315.7 333L315.72 333.07C315.7 333 315.69 332.94 315.67 332.89Z" fill="#2A4D52" fill-opacity="1.000000" fill-rule="evenodd"/>
		<path id="Fill-7" d="M316.36 335.15L316.5 335.68L316.75 336.64C316.61 336.14 316.48 335.65 316.36 335.15Z" fill="#2A4D52" fill-opacity="1.000000" fill-rule="evenodd"/>
		<path id="Fill-9" d="M239.14 325.27C239.33 325.59 239.6 325.86 239.9 326.09C240.46 326.56 241.16 326.87 241.88 326.99C241.89 326.99 241.9 326.99 241.9 326.98C241.91 326.97 241.9 326.96 241.89 326.96C241.2 326.75 240.57 326.37 240.08 325.89C239.83 325.64 239.64 325.35 239.44 325.08C239.22 324.81 239.04 324.51 238.84 324.21C238.83 324.2 238.83 324.2 238.82 324.2C238.81 324.2 238.8 324.21 238.8 324.22C238.82 324.6 238.97 324.95 239.14 325.27ZM231.37 326.34C232.18 325.73 235.03 325.01 236.89 324.59C236.26 324.44 235.6 324.26 235 324.09C233.62 323.67 232.47 323.22 232.52 322.85C232.59 322.26 236.63 322.55 238.93 322.65L238.94 322.64L238.96 322.64C239.02 322.65 239.08 322.65 239.14 322.65C239.1 322.63 239.06 322.6 239.02 322.57C237.62 321.73 236.51 320.37 236.58 319.83C236.58 319.79 236.59 319.76 236.61 319.72C237.17 318.79 239.52 319.93 241.23 320.93C244.48 318.55 249.15 315.24 251.66 313.47C256.74 309.9 264.45 304.85 271.32 300.41L275.21 307.14C275.21 307.15 275.2 307.15 275.2 307.15C275.11 307.3 274.96 307.54 274.83 307.74C274.76 307.87 274.68 308 274.63 308.09C274.31 308.64 274 309.2 273.67 309.77C272.73 311.43 271.75 313.18 270.81 314.84C270.76 314.92 270.73 314.99 270.68 315.06C270.31 315.73 269.93 316.4 269.55 317.07C269.39 317.35 269.23 317.63 269.07 317.91C264.46 320.17 260.02 322.27 256.54 323.74C253.44 325.04 247.69 327.28 243.94 328.68C243.94 328.69 243.93 328.7 243.92 328.69C243.5 329.01 243.08 329.28 242.93 329.39C242.28 329.84 235.38 333.45 234.93 332.5C234.74 332.07 236.69 330.62 238.46 329.39C236.41 329.7 233.43 330.05 232.84 329.65C232.78 329.61 232.75 329.56 232.74 329.51C232.67 329.17 233.63 328.65 234.86 328.12C235.54 327.83 236.32 327.53 237.05 327.26C237.04 327.23 237.03 327.18 237.02 327.14C235.35 327.22 233 327.26 231.84 327.03C231.42 326.95 231.17 326.83 231.15 326.66C231.13 326.56 231.21 326.45 231.37 326.34Z" fill="#765040" fill-opacity="1.000000" fill-rule="evenodd"/>
		<path id="Fill-12" d="M238.9 322.36C238.89 322.36 238.88 322.36 238.88 322.35C238.9 322.33 238.92 322.31 238.95 322.29L238.96 322.29C239 322.32 239.04 322.34 239.08 322.36C239.02 322.36 238.96 322.36 238.9 322.36Z" fill="#765040" fill-opacity="1.000000" fill-rule="evenodd"/>
		<path id="Fill-14" d="" fill="#765040" fill-opacity="1.000000" fill-rule="nonzero"/>
		<path id="Fill-16" d="M239.09 322.36C239.08 322.36 239.08 322.36 239.08 322.36C239.04 322.34 239 322.32 238.96 322.29C239 322.32 239.04 322.34 239.09 322.36Z" fill="#765040" fill-opacity="1.000000" fill-rule="evenodd"/>
		<path id="Fill-18" d="M300.58 292.12L300.58 292.13C300.95 291.93 301.29 291.73 301.59 291.52L301.73 289.74C301.73 289.74 301.72 289.73 301.71 289.74L301.56 291.51C301.27 291.72 300.94 291.93 300.58 292.12Z" fill="#96DAD5" fill-opacity="1.000000" fill-rule="evenodd"/>
		<path id="Fill-20" d="M302.32 314.84C302.46 315.32 302.6 315.81 302.86 316.23C303.1 316.6 303.49 316.8 303.75 317.15L305.2 316.21L309.77 313.23L316.34 308.96L317.03 308.51C314.04 303.96 311.63 299.26 308.29 294.92C306.87 293.07 305.16 291.18 303.07 290.15C302.82 292.01 301.08 310.3 302.32 314.84Z" fill="#96DAD5" fill-opacity="1.000000" fill-rule="evenodd"/>
		<path id="Fill-22" d="M270.85 300.16L271.34 301.02L275.2 307.71C275.41 307.35 275.59 307.01 275.78 306.68C275.93 306.43 276.06 306.2 276.2 305.96C276.23 305.91 276.26 305.86 276.28 305.81C276.32 305.75 276.36 305.68 276.41 305.61C276.44 305.55 276.48 305.49 276.52 305.42C276.56 305.35 276.6 305.29 276.64 305.22C278.95 301.43 285.07 291.43 286.83 288.73C280.89 291.74 269.88 298.45 270.85 300.16Z" fill="#96DAD5" fill-opacity="1.000000" fill-rule="evenodd"/>
		<path id="Fill-24" d="M314.88 329.56L314.12 326.74L313.98 326.23L310.49 313.22L317.08 308.94C321.13 316.01 325.62 324.12 328.26 329.69C329.63 332.61 332 338.06 333.5 341.61C333.5 341.61 333.5 341.62 333.51 341.63C333.83 342.01 334.12 342.41 334.23 342.54C334.69 343.14 338.48 349.6 337.52 350.11C337.1 350.33 335.59 348.55 334.32 346.92C334.67 348.9 335.08 351.79 334.68 352.4C334.65 352.45 334.61 352.49 334.56 352.5C334.22 352.6 333.67 351.7 333.11 350.54C332.8 349.89 332.49 349.16 332.2 348.47C332.16 348.48 332.12 348.5 332.08 348.51C332.19 350.13 332.28 352.43 332.07 353.59C332 354 331.89 354.26 331.72 354.29C331.62 354.31 331.5 354.25 331.39 354.11C330.77 353.36 329.97 350.63 329.51 348.85C329.37 349.47 329.21 350.13 329.04 350.74C328.65 352.13 328.22 353.29 327.85 353.27C327.25 353.26 327.47 349.28 327.51 347.01L327.51 347C327.51 346.93 327.51 346.86 327.52 346.8C327.52 346.8 327.52 346.8 327.51 346.8C327.51 346.8 327.51 346.8 327.52 346.79C327.5 346.82 327.49 346.85 327.47 346.88C327.46 346.89 327.45 346.91 327.44 346.92C326.55 348.47 325.07 349.74 324.62 349.52C323.66 349.05 324.77 346.65 325.73 344.9C323.27 341.92 319.83 337.62 318.01 335.3C317.26 334.35 316.44 333.3 315.57 332.16L315.01 330.07L314.88 329.56Z" fill="#765040" fill-opacity="1.000000" fill-rule="evenodd"/>
		<path id="Fill-27" d="M304.04 317.02C304.05 317.03 304.07 317.06 304.12 317.13C304.14 317.15 304.15 317.17 304.18 317.2C304.2 317.23 304.22 317.26 304.25 317.3C304.26 317.32 304.28 317.34 304.29 317.36C304.31 317.38 304.32 317.4 304.34 317.41C304.34 317.43 304.35 317.44 304.36 317.46L304.39 317.49C304.4 317.51 304.41 317.53 304.43 317.54C306.26 319.98 313.93 330.25 315.01 331.83C315.04 331.88 315.07 331.93 315.12 331.97C315.12 331.99 315.14 332 315.15 332.02C315.15 332.02 315.16 332.03 315.16 332.04L314.6 329.95L314.47 329.43L313.71 326.62L313.57 326.1L310.08 313.1L305.49 316.08L304.04 317.02Z" fill="#765040" fill-opacity="1.000000" fill-rule="evenodd"/>
		<path id="Fill-29" d="M301.73 289.39L301.73 289.42C301.73 289.42 301.75 289.42 301.75 289.42L301.76 289.42C301.77 289.43 301.78 289.43 301.79 289.43L301.78 289.41C301.77 289.41 301.76 289.4 301.76 289.4C301.75 289.4 301.74 289.4 301.73 289.39Z" fill="#765040" fill-opacity="1.000000" fill-rule="evenodd"/>
		<path id="Fill-34" d="M292.06 294.06L292.07 294.06L292.08 294.05C292.07 294.06 292.07 294.06 292.06 294.06Z" fill="#765040" fill-opacity="1.000000" fill-rule="evenodd"/>
		<path id="Fill-36" d="M301.76 289.42C301.77 289.42 301.78 289.43 301.79 289.43L301.79 289.43C301.78 289.43 301.77 289.42 301.76 289.42L301.76 289.42Z" fill="#2A4D52" fill-opacity="1.000000" fill-rule="evenodd"/>
		<path id="Fill-39" d="M304.44 317.5C304.57 317.69 304.7 317.87 304.83 318.05C305.09 318.41 305.36 318.77 305.62 319.14C306.44 320.25 307.26 321.38 308.09 322.5C309.12 323.89 310.14 325.28 311.15 326.64C311.76 327.46 312.36 328.26 312.95 329.04C313.33 329.54 313.7 330.03 314.06 330.51C314.28 330.81 314.51 331.11 314.72 331.39C314.85 331.54 314.95 331.69 315.07 331.83C313.98 330.25 306.29 319.95 304.44 317.5Z" fill="#2A4D52" fill-opacity="1.000000" fill-rule="evenodd"/>
		<path id="Fill-43" d="M277.88 311.89C277.91 311.98 277.93 312.07 277.96 312.16C278.47 313.73 279.36 314.9 280.54 315.42L280.55 315.42C280.71 315.49 280.89 315.56 281.07 315.6C281.15 315.63 281.24 315.66 281.33 315.67C281.61 315.72 281.9 315.74 282.19 315.72C282.27 315.71 282.36 315.71 282.45 315.69C282.53 315.68 282.61 315.67 282.69 315.66C282.77 315.64 282.85 315.62 282.93 315.6C285.41 314.95 287.77 311.9 288.62 307.96L285.98 307.49L277.83 306.01L277.8 306.01C277.34 308.15 277.4 310.19 277.87 311.84C277.87 311.86 277.87 311.87 277.88 311.89ZM269.52 318.5C269.68 318.22 269.84 317.95 270 317.67C270.38 316.99 270.76 316.33 271.13 315.66C271.18 315.59 271.21 315.51 271.26 315.44C272.2 313.78 273.18 312.03 274.11 310.38C274.44 309.81 274.76 309.25 275.07 308.7C275.13 308.61 275.2 308.49 275.27 308.36C275.34 308.26 275.41 308.15 275.47 308.04C275.54 307.93 275.6 307.83 275.65 307.76C275.86 307.4 276.04 307.05 276.24 306.72C276.38 306.48 276.52 306.23 276.66 305.99C276.69 305.95 276.71 305.9 276.74 305.85C276.77 305.79 276.82 305.72 276.86 305.65C276.9 305.58 276.94 305.53 276.97 305.46C277.02 305.39 277.05 305.32 277.1 305.25C279.42 301.46 285.57 291.42 287.34 288.71C287.57 288.6 288.02 288.44 288.48 288.3C289.13 288.1 289.79 287.93 289.78 287.92C293.78 287.68 297.86 288.15 302.03 289.33C302.35 289.44 302.67 289.57 302.98 289.72C302.72 291.58 300.97 309.97 302.22 314.54C302.35 315.01 302.5 315.51 302.76 315.93C303.01 316.31 303.4 316.5 303.66 316.85C303.66 316.86 303.69 316.9 303.74 316.96C303.76 316.98 303.77 317.01 303.8 317.04C303.82 317.06 303.84 317.09 303.87 317.13C303.88 317.15 303.9 317.17 303.91 317.2C303.93 317.22 303.96 317.25 303.98 317.29L304.01 317.33C304.02 317.34 304.03 317.36 304.05 317.38C304.17 317.56 304.3 317.74 304.44 317.93C304.7 318.28 304.97 318.65 305.23 319.01C306.05 320.13 306.87 321.26 307.7 322.38C308.73 323.78 309.75 325.16 310.76 326.53C311.37 327.35 311.98 328.14 312.56 328.93C312.95 329.43 313.31 329.92 313.68 330.4C313.9 330.7 314.13 330.99 314.34 331.28C314.46 331.43 314.57 331.57 314.69 331.72C314.72 331.76 314.75 331.82 314.8 331.86C314.8 331.87 314.81 331.89 314.83 331.9C314.83 331.91 314.84 331.92 314.84 331.93C314.86 332.01 314.88 332.07 314.9 332.14L314.96 332.35L314.99 332.45L315.01 332.55C315.03 332.61 315.05 332.69 315.07 332.79L315.1 332.9L315.12 332.96C315.13 333 315.14 333.03 315.15 333.07C315.16 333.12 315.18 333.15 315.19 333.19C315.26 333.45 315.33 333.71 315.4 333.96C315.5 334.33 315.59 334.7 315.69 335.06C315.81 335.57 315.95 336.06 316.09 336.57C316.3 337.28 316.5 337.98 316.7 338.67L316.63 338.67C316.67 338.88 316.77 339.19 316.59 339.25C294.3 346.85 263.98 333.44 263.88 333.38C263.86 333.38 267.76 321.62 269.52 318.5Z" fill="#2A4D52" fill-opacity="1.000000" fill-rule="evenodd"/>
		<path id="Fill-45" d="M277.66 311.74C277.66 311.75 277.67 311.76 277.68 311.78C277.7 311.88 277.73 311.96 277.76 312.05C278.26 313.62 279.16 314.8 280.34 315.32L280.35 315.32C280.51 315.39 280.69 315.46 280.87 315.51C280.95 315.54 281.04 315.56 281.13 315.57C281.42 315.62 281.71 315.64 281.99 315.62C282.07 315.61 282.17 315.61 282.25 315.6C282.34 315.58 282.41 315.57 282.5 315.56C282.58 315.54 282.66 315.52 282.74 315.5C285.22 314.85 287.58 311.8 288.44 307.85L285.79 307.37L277.62 305.89L277.59 305.89C277.14 308.03 277.19 310.08 277.66 311.74Z" fill="#2A8C79" fill-opacity="1.000000" fill-rule="evenodd"/>
		<path id="Fill-1" d="M301.2 282.72L301.18 282.81C301.16 282.82 301.13 282.84 301.1 282.85L301.2 282.72ZM314.12 277.8C314.15 277.8 314.19 277.79 314.22 277.79C314.19 277.79 314.15 277.82 314.11 277.82C311.99 277.8 309.28 276.89 309.26 276.91L309.25 276.91C309.22 276.9 309.19 276.89 309.16 276.87C309.5 276.98 312.53 277.86 314.12 277.8Z" fill="#765040" fill-opacity="1.000000" fill-rule="evenodd"/>
		<path id="Fill-3" d="M286.6 276.02C289.93 276.54 293.16 274.3 293.81 271C294.45 267.71 292.28 264.61 288.94 264.08C285.61 263.56 282.39 265.8 281.74 269.09C281.09 272.39 283.27 275.49 286.6 276.02ZM310.55 267.78L310.6 267.95L310.77 267.89C311.27 267.68 311.85 267.62 312.39 267.71C312.93 267.78 313.47 268 313.78 268.43C314.1 268.85 314.01 269.48 313.76 269.96C313.49 270.43 312.95 270.78 312.39 270.83L312.39 270.89C312.98 270.87 313.55 270.53 313.87 270.01C314.16 269.51 314.3 268.83 313.94 268.32C313.6 267.82 313.01 267.56 312.44 267.46C311.92 267.36 311.37 267.38 310.84 267.54C310.73 266.75 310.98 265.95 311.55 265.4C312.16 264.8 313.04 264.5 313.89 264.33C314.74 264.18 315.64 264.15 316.49 264.31C317.33 264.45 318.12 264.81 318.77 265.3C320.09 266.34 320.41 268.16 320.05 269.83C319.7 271.51 318.75 273.11 317.44 274.36L317.48 274.41C318.23 273.88 318.9 273.21 319.42 272.45C319.97 271.69 320.38 270.84 320.6 269.93C320.83 269.04 320.91 268.08 320.68 267.15C320.48 266.23 319.94 265.38 319.18 264.81C318.41 264.26 317.52 263.9 316.59 263.78C315.67 263.65 314.73 263.7 313.81 263.88C312.9 264.09 311.97 264.43 311.28 265.13C310.58 265.83 310.34 266.89 310.55 267.78ZM260.74 257.35C261.31 256.98 261.97 256.78 262.64 256.72C262.71 256.2 262.79 255.66 262.89 255.13C263.39 252.59 264.18 250.17 265.19 247.9C265.19 247.91 265.2 247.91 265.2 247.91C266.42 245.55 267.67 243.33 269.19 241.31C269.42 241.02 269.64 240.72 269.88 240.43C270.03 240.23 270.2 240.04 270.37 239.84C270.44 239.76 270.52 239.67 270.6 239.58C270.63 239.55 270.66 239.52 270.68 239.49C270.78 239.37 270.88 239.26 270.99 239.15C271.02 239.12 271.05 239.1 271.07 239.07C271.1 239.04 271.12 239 271.16 238.98C271.18 238.95 271.21 238.92 271.24 238.89C271.3 238.83 271.35 238.77 271.41 238.71C271.46 238.66 271.51 238.61 271.56 238.56L271.56 238.55C271.88 238.24 272.21 237.94 272.53 237.64L272.53 237.63C272.87 237.33 273.21 237.02 273.55 236.72C273.56 236.71 273.56 236.71 273.56 236.71C273.75 236.55 273.93 236.4 274.11 236.24C274.29 236.08 274.48 235.94 274.67 235.79L274.67 235.78C274.9 235.61 275.13 235.44 275.35 235.27C275.57 235.11 275.81 234.94 276.04 234.78C275.67 237.41 276.36 240.02 278.16 242.18C278.42 242.51 278.71 242.8 279.01 243.09C282.6 246.46 288.38 246.64 292.45 243.35C292.61 243.21 292.76 243.07 292.92 242.92C293.17 243.86 293.62 244.76 294.27 245.56C294.73 246.11 295.26 246.57 295.84 246.95C295.43 247.74 295.18 248.62 295.14 249.51C295.12 249.77 295.12 250.04 295.14 250.3C295.16 250.49 295.18 250.68 295.23 250.87C295.79 254.09 298.84 256.27 302.2 255.79C303.1 255.66 303.94 255.35 304.68 254.9C304.69 255.08 304.69 255.25 304.71 255.43C305 257.9 306.32 259.97 308.22 261.28C307.12 261.68 306.15 262.33 305.72 263.42C305.51 263.94 305.5 264.49 305.7 264.94C305.35 265.38 305.16 265.92 305.33 266.49C305.48 267.01 306.73 268.48 305.81 268.91C305.55 269.02 305.16 269.32 305.17 269.63C305.17 269.93 305.45 269.96 305.7 269.85C306.44 269.51 307.11 268.85 307.25 268.03C307.4 267.2 306.87 266.65 306.57 265.97C306.53 265.89 306.5 265.8 306.48 265.71C307.25 266.11 308.23 266.09 308.95 265.54C309.59 265.06 309.89 264.05 308.92 263.8C308.3 263.65 307.48 263.82 306.83 264.11C306.62 263.64 306.73 263.05 307.2 262.69C307.77 262.24 308.6 262.06 309.33 261.93L309.34 261.93C310.83 262.65 312.55 262.95 314.36 262.69C316.41 262.4 318.22 261.44 319.56 260.06C320.33 260.55 321.04 261.15 321.66 261.85C323.4 263.81 324.16 266.19 324.01 268.54C323.99 268.9 323.95 269.24 323.89 269.6C323.46 271.89 322.18 274.06 320.04 275.64C318.18 277.03 315.96 277.75 313.74 277.83C313.71 277.84 313.67 277.84 313.63 277.84C312.05 277.9 309.03 277.02 308.69 276.92C308.67 276.91 308.66 276.91 308.66 276.91C306.33 279.4 303.68 281.35 300.74 282.75L300.65 282.87L300.6 283.13C300.18 283.34 299.74 283.52 299.31 283.7C299.3 283.7 299.3 283.7 299.29 283.7L299.11 283.74L297.92 283.96L297.91 283.96C295.33 284.84 292.57 285.35 289.63 285.52L289.58 285.52C289.06 285.56 288.53 285.58 288 285.57C285.55 285.61 283 285.42 280.37 285C275.54 284.24 269.85 282.35 266.78 277.71C265.06 275.13 263.75 272.06 262.99 268.66C262.68 267.25 262.45 265.79 262.34 264.28C262.32 264.27 262.3 264.29 262.28 264.29C260.25 263.99 258.94 261.92 259.17 259.92C259.28 258.89 259.86 257.92 260.74 257.35Z" fill="#765040" fill-opacity="1.000000" fill-rule="evenodd"/>
		<path id="Fill-5" d="M257.68 236.96C258.03 240.34 259.74 243.56 262.47 245.58C260.02 241.87 258.94 237.38 259.82 232.89C261.07 226.53 265.87 221.51 272.13 219.1C272.13 219.1 272.14 219.09 272.15 219.09C272.45 218.93 272.76 218.78 273.07 218.66C272.88 218.7 272.71 218.75 272.52 218.81C268.41 219.97 264.49 222.13 261.69 225.39C258.93 228.59 257.24 232.82 257.68 236.96ZM311.6 288.02C315.12 288.29 318.76 287.49 321.89 285.55C327.19 282.24 330.65 276.06 330.5 269.81C330.47 268.38 330.25 266.96 329.87 265.6L329.86 265.6C329.92 267.21 329.8 268.86 329.47 270.53C327.67 279.66 320.3 286.49 311.6 288.02ZM356.49 261.24C363.07 259.72 370.04 256.25 372.83 249.77C373.13 249.08 373.37 248.36 373.56 247.63C371.24 253.39 363.68 258.42 354.28 259.85C351.34 260.29 348.51 260.35 345.9 260.06C344.11 260.55 341.99 260.81 339.66 260.82C344.98 262.57 350.94 262.53 356.49 261.24ZM260.29 226.55C265.43 219.43 275.08 216.43 283.47 217.35C288.16 217.87 292.71 219.7 295.93 223.07C295.94 223.08 295.95 223.09 295.94 223.1C296.15 223.12 296.33 223.15 296.53 223.19C296.7 223.15 296.85 223.09 297.02 223.05C300 222.39 302.75 223.2 304.79 225.04C304.99 224.31 305.26 223.53 305.58 222.75C300.18 222.43 294.78 219.17 291.57 213.64C287.66 206.9 288.22 198.87 292.41 193.71C288.18 191.39 285.61 187.58 286.06 183.41C286.74 176.94 294.42 172.07 303.2 172.54C311.6 172.99 317.95 178.16 317.88 184.28C318.85 184.2 319.82 184.28 320.77 184.54C327.5 186.36 330.2 196.38 326.78 206.91C325.93 209.54 324.78 211.94 323.43 214.05C323.07 215.87 322.31 217.96 321.17 220.13C320.6 221.25 319.91 222.4 319.13 223.53C318.69 224.18 318.23 224.77 317.76 225.36L317.76 225.36C317.52 225.67 317.28 225.97 317.03 226.26C321.44 228.07 324.63 232.61 324.99 238.57C325.08 239.96 324.99 241.32 324.78 242.67C326.72 242.45 328.1 242.76 328.29 243.65C328.47 244.47 327.58 245.59 326.06 246.63C326.49 246.86 326.91 247.08 327.31 247.34C328.26 247.12 329.29 246.98 330.38 246.89C328.62 241.47 329.79 234.62 334.08 228.81C339.28 221.73 347.47 218.35 354.22 219.93C354.9 214.68 357.71 210.33 362.02 208.73C368.74 206.26 376.52 211.37 379.44 220.16C382.14 228.35 379.64 236.83 373.85 239.94C374.87 242.6 374.77 245.6 373.86 248.37C372.78 251.65 370.59 254.47 367.83 256.6C364.99 258.79 361.66 260.27 358.23 261.26C354.47 262.34 350.53 262.85 346.65 262.67C343.54 262.52 340.47 261.91 337.63 260.76L337.62 260.76C336.7 260.7 335.75 260.61 334.79 260.46C333.15 260.22 331.61 259.88 330.17 259.45C329.84 259.88 329.48 260.3 329.07 260.69C329.29 261.45 329.47 262.21 329.59 263.01C329.6 263.01 329.6 263.02 329.6 263.03C329.6 263.04 329.61 263.05 329.6 263.06L329.6 263.06C331.58 267.66 331.49 273.15 329.16 277.89C327.74 280.78 325.62 283.32 323.05 285.19C320.37 287.14 317.22 288.28 314.01 288.53C312.47 288.65 310.92 288.57 309.42 288.29L309.42 288.29C309.42 288.29 309.41 288.29 309.41 288.29C309.4 288.3 309.4 288.3 309.39 288.29C309.39 288.3 309.38 288.29 309.37 288.29C307.79 288.4 306.21 288.35 304.59 288.09C302.96 287.83 301.34 287.39 299.9 286.79L299.89 286.79L300.36 283.83L300.4 283.57L300.5 283.44C303.43 282.05 306.06 280.11 308.39 277.62C308.39 277.62 308.4 277.62 308.42 277.63C308.76 277.74 311.77 278.61 313.35 278.55C313.39 278.55 313.42 278.55 313.46 278.55C315.67 278.46 317.88 277.74 319.74 276.36C321.87 274.78 323.15 272.62 323.57 270.33C323.64 269.98 323.68 269.64 323.7 269.28C323.85 266.94 323.09 264.56 321.35 262.62C320.73 261.92 320.03 261.32 319.26 260.83C317.92 262.21 316.12 263.16 314.08 263.45C312.27 263.71 310.55 263.41 309.06 262.69L309.06 262.69C308.33 262.82 307.51 263.01 306.94 263.45C306.46 263.81 306.36 264.4 306.57 264.87C307.21 264.57 308.03 264.41 308.65 264.56C309.62 264.81 309.32 265.81 308.68 266.29C307.96 266.84 306.98 266.86 306.21 266.46C306.24 266.55 306.27 266.64 306.3 266.72C306.6 267.4 307.13 267.95 306.99 268.77C306.84 269.59 306.18 270.24 305.43 270.59C305.19 270.7 304.91 270.67 304.9 270.37C304.9 270.06 305.29 269.76 305.54 269.65C306.46 269.23 305.22 267.76 305.07 267.24C304.9 266.67 305.09 266.13 305.44 265.7C305.23 265.24 305.25 264.69 305.46 264.17C305.89 263.09 306.85 262.45 307.95 262.05C306.06 260.74 304.74 258.68 304.45 256.21C304.43 256.04 304.43 255.86 304.42 255.69C303.69 256.13 302.85 256.44 301.94 256.57C298.59 257.05 295.56 254.88 294.99 251.66C294.95 251.48 294.93 251.29 294.91 251.1C294.88 250.84 294.89 250.58 294.9 250.32C294.94 249.42 295.19 248.55 295.6 247.76C295.03 247.39 294.5 246.93 294.04 246.37C293.39 245.58 292.94 244.69 292.69 243.75C292.53 243.9 292.39 244.03 292.22 244.17C288.16 247.45 282.41 247.27 278.82 243.91C278.52 243.63 278.23 243.33 277.97 243C276.18 240.85 275.49 238.25 275.86 235.64C275.63 235.79 275.39 235.96 275.17 236.12C274.94 236.28 274.72 236.46 274.49 236.63L274.49 236.63C274.3 236.78 274.11 236.93 273.94 237.09C273.22 237.66 272.53 238.27 271.87 238.92C271.71 239.08 271.55 239.23 271.39 239.39L271.39 239.4C271.34 239.45 271.29 239.5 271.24 239.55C271.18 239.61 271.13 239.67 271.07 239.73C271.04 239.76 271.01 239.79 270.99 239.81C270.95 239.84 270.93 239.87 270.91 239.9C270.88 239.93 270.85 239.96 270.82 239.99C270.72 240.09 270.62 240.21 270.52 240.33C270.49 240.36 270.46 240.39 270.44 240.42C270.36 240.5 270.28 240.59 270.2 240.68C270.03 240.87 269.87 241.07 269.71 241.26C267.85 243.48 266.27 245.98 265.04 248.71C264.49 248.18 263.98 247.61 263.51 247.01C260.22 245.34 258.01 242.09 257.29 238.52C256.45 234.38 257.77 230.01 260.29 226.55Z" fill="#672448" fill-opacity="1.000000" fill-rule="evenodd"/>
		<path id="Fill-8" d="M310.91 268.04L310.96 268.22L311.12 268.15C311.62 267.95 312.19 267.89 312.74 267.97C313.27 268.05 313.82 268.26 314.12 268.69C314.45 269.12 314.35 269.74 314.1 270.21C313.83 270.69 313.3 271.04 312.74 271.08L312.74 271.15C313.32 271.12 313.89 270.78 314.21 270.27C314.5 269.77 314.64 269.1 314.28 268.58C313.94 268.08 313.36 267.83 312.78 267.73C312.26 267.63 311.72 267.65 311.19 267.81C311.09 267.02 311.33 266.22 311.9 265.67C312.51 265.08 313.38 264.77 314.23 264.61C315.08 264.46 315.97 264.43 316.82 264.59C317.66 264.73 318.45 265.09 319.1 265.57C320.41 266.61 320.73 268.42 320.37 270.09C320.02 271.76 319.08 273.36 317.77 274.6L317.81 274.65C318.56 274.12 319.22 273.46 319.75 272.7C320.29 271.95 320.7 271.09 320.92 270.19C321.15 269.3 321.23 268.34 321 267.42C320.8 266.51 320.27 265.66 319.51 265.09C318.74 264.54 317.85 264.18 316.92 264.06C316 263.93 315.07 263.98 314.15 264.16C313.24 264.37 312.32 264.71 311.63 265.41C310.93 266.11 310.69 267.16 310.91 268.04Z" fill="#765040" fill-opacity="1.000000" fill-rule="evenodd"/>
		<path id="Fill-10" d="M281.87 268.91C281.22 272.2 283.39 275.29 286.7 275.81C290.03 276.34 293.24 274.1 293.89 270.81C294.53 267.53 292.37 264.45 289.04 263.92C285.72 263.4 282.51 265.63 281.87 268.91Z" fill="#765040" fill-opacity="1.000000" fill-rule="evenodd"/>
		<path id="Fill-12" d="M270.95 238.59C271.26 238.28 271.59 237.98 271.91 237.68C271.75 237.83 271.58 237.97 271.43 238.12C271.26 238.28 271.11 238.43 270.95 238.59Z" fill="#765040" fill-opacity="1.000000" fill-rule="evenodd"/>
		<path id="Fill-14" d="M264.69 247.74C264.69 247.75 264.69 247.75 264.69 247.75C265.9 245.42 267.12 243.22 268.61 241.23C268.83 240.94 269.05 240.64 269.28 240.36C267.45 242.55 265.9 245.04 264.69 247.74Z" fill="#765040" fill-opacity="1.000000" fill-rule="evenodd"/>
		<path id="Fill-16" d="M310.91 268.04L310.96 268.22L311.12 268.15C311.62 267.95 312.19 267.89 312.74 267.97C313.27 268.05 313.82 268.26 314.12 268.69C314.45 269.12 314.35 269.74 314.1 270.21C313.83 270.69 313.3 271.04 312.74 271.08L312.74 271.15C313.32 271.12 313.89 270.78 314.21 270.27C314.5 269.77 314.64 269.1 314.28 268.58C313.94 268.08 313.36 267.83 312.78 267.73C312.26 267.63 311.72 267.65 311.19 267.81C311.09 267.02 311.33 266.22 311.9 265.67C312.51 265.08 313.38 264.77 314.23 264.61C315.08 264.46 315.97 264.43 316.82 264.59C317.66 264.73 318.45 265.09 319.1 265.57C320.41 266.61 320.73 268.42 320.37 270.09C320.02 271.76 319.08 273.36 317.77 274.6L317.81 274.65C318.56 274.12 319.22 273.46 319.75 272.7C320.29 271.95 320.7 271.09 320.92 270.19C321.15 269.3 321.23 268.34 321 267.42C320.8 266.51 320.27 265.66 319.51 265.09C318.74 264.54 317.85 264.18 316.92 264.06C316 263.93 315.07 263.98 314.15 264.16C313.24 264.37 312.32 264.71 311.63 265.41C310.93 266.11 310.69 267.16 310.91 268.04Z" fill="#672448" fill-opacity="1.000000" fill-rule="evenodd"/>
		<path id="Fill-18" d="M269.3 240.38C269.06 240.66 268.85 240.96 268.63 241.25C267.13 243.24 265.9 245.45 264.69 247.78C264.69 247.78 264.69 247.78 264.69 247.77C265.9 245.06 267.46 242.58 269.3 240.38ZM271.43 238.05C271.58 237.9 271.75 237.76 271.91 237.62C271.59 237.92 271.27 238.21 270.96 238.52C271.11 238.36 271.27 238.21 271.43 238.05Z" fill="#672448" fill-opacity="1.000000" fill-rule="evenodd"/>
		<path id="Fill-20" d="M281.87 268.91C281.22 272.2 283.39 275.29 286.7 275.81C290.03 276.34 293.24 274.1 293.89 270.81C294.53 267.53 292.37 264.45 289.04 263.92C285.72 263.4 282.51 265.63 281.87 268.91Z" fill="#C57450" fill-opacity="1.000000" fill-rule="evenodd"/>
		<path id="Fill-22" d="M301.07 282.79L300.61 285.74L299.87 290.45L299.88 290.45L299.82 290.87L299.65 291.93L299.22 294.69C298.41 295.19 297.32 295.63 296.12 295.97C294.24 296.52 292.08 296.82 290.31 296.81C288.05 296.78 286.39 296.22 286.64 294.91L288.56 285.18C290.94 284.69 300.65 283 301.07 282.79Z" fill="#765040" fill-opacity="1.000000" fill-rule="evenodd"/>
		<path id="Fill-24" d="M288.45 285.21L287.75 288.77C290.15 288.27 300.44 282.95 300.44 282.95L299.82 283.07C299.82 283.07 299.81 283.07 299.81 283.07L299.62 283.11L298.43 283.33L298.42 283.33L290.14 284.89L290.09 284.9L288.45 285.21Z" fill="#765040" fill-opacity="1.000000" fill-rule="evenodd"/>
		<path id="Fill-169" d="M284.3 248.29C284.4 248.44 284.58 248.45 284.74 248.38C284.81 248.34 284.95 248.3 285.05 248.3C285.2 248.29 285.29 248.3 285.43 248.33C285.53 248.35 285.65 248.4 285.76 248.47C285.77 248.48 285.81 248.51 285.81 248.51C285.84 248.53 285.86 248.56 285.89 248.58C285.94 248.63 285.95 248.64 285.99 248.68C286.28 249.09 286.19 249.68 285.82 250.03C285.69 250.15 285.71 250.36 285.83 250.47C285.96 250.59 286.16 250.56 286.29 250.44C286.86 249.9 286.98 248.93 286.51 248.31C286.02 247.68 285.14 247.5 284.41 247.85C284.24 247.93 284.22 248.16 284.3 248.29Z" fill="#672448" fill-opacity="1.000000" fill-rule="evenodd"/>
		<path id="Fill-171" d="M277.89 264.17C278.94 264.48 280.39 262.83 281.12 260.49C281.85 258.15 281.59 256.01 280.54 255.7C279.48 255.4 278.03 257.05 277.31 259.39C276.57 261.73 276.84 263.87 277.89 264.17Z" fill="#672448" fill-opacity="1.000000" fill-rule="evenodd"/>
		<path id="Fill-173" d="M281.02 254.11C280.98 254.31 281.08 254.47 281.23 254.52C282.03 254.74 282.66 255.56 282.76 256.52C282.77 256.71 282.87 256.86 283.05 256.84C283.2 256.83 283.37 256.64 283.35 256.47C283.22 255.17 282.46 254.14 281.38 253.83C281.23 253.78 281.06 253.94 281.02 254.11Z" fill="#672448" fill-opacity="1.000000" fill-rule="evenodd"/>
		<path id="Fill-175" d="M263.08 267.4C263.86 270.71 265.19 273.71 266.94 276.23C267.55 276.59 268.22 276.87 268.96 277.03C273.83 278.11 279.13 274.66 279.64 272.68C279.68 272.52 279.69 272.38 279.68 272.23C279.51 270.63 275.73 270.12 271.26 269.13C267.21 268.23 264.25 266.72 263.08 267.4Z" fill="#672448" fill-opacity="1.000000" fill-rule="evenodd"/>
	</g>
</svg>
