<svg xmlns="http://www.w3.org/2000/svg" width="271" height="232" fill="none" viewBox="0 0 271 232"><path fill="#CDEEEC" fill-rule="evenodd" d="M186.546 50.3827C210.065 50.3827 229.308 68.8093 229.308 91.3306V155.172H270.502L229.308 189.994V190.526C229.308 213.048 210.065 231.474 186.546 231.474H101.992C78.4721 231.474 59.2289 213.048 59.2289 190.526V91.3306C59.2289 68.8093 78.4721 50.3827 101.992 50.3827H186.546Z" clip-rule="evenodd"/><mask id="mask0_18408_28114" style="mask-type:luminance" width="271" height="232" x="0" y="0" maskUnits="userSpaceOnUse"><path fill="#fff" d="M270.502 0.194458C271.58 0.194458 270.502 135.339 270.502 231.474C270.502 231.474 185.381 231.474 181.574 231.474L103.07 230.957C98.6387 230.957 7.89374 231.474 7.89374 230.315C7.89374 166.703 4.08167 0.194458 0.442688 0.194458H270.502Z"/></mask><g mask="url(#mask0_18408_28114)"><path fill="#FF90A0" fill-rule="evenodd" d="M110.745 244.117C115.331 246.097 119.807 247.526 124.703 248.251L124.737 248.257C127.869 248.717 131.171 248.886 134.792 248.717C134.809 248.345 134.647 247.994 134.568 247.613C134.464 247.14 134.405 246.659 134.36 246.173L134.201 243.278C134.124 241.352 134.062 239.422 134.015 237.487C134.016 237.48 134.012 237.466 134.013 237.459C133.982 237.087 133.944 236.706 133.914 236.327C133.816 235.327 133.534 230.665 133.265 225.978C133.265 225.978 133.259 225.97 133.261 225.963C133.261 225.963 133.267 225.964 133.269 225.958C133.277 225.952 133.29 225.954 133.296 225.962C133.579 226.374 133.562 226.891 133.616 227.364C133.654 227.849 133.658 228.328 133.667 228.815C133.653 229.776 133.802 230.729 133.873 231.69L134.132 234.573C134.23 235.538 134.236 236.503 134.292 237.469C134.396 239.399 134.48 241.325 134.548 243.257L134.55 243.285C134.726 245.094 134.89 246.902 135.061 248.704C135.142 249.576 135.224 250.442 135.304 251.314C136.326 251.323 137.336 251.317 138.328 251.293C143.138 251.173 147.673 250.629 152.281 249.361C152.325 249.347 152.377 249.334 152.422 249.321C160.272 247.401 168.678 242.823 168.862 241.854C169.003 241.065 159.033 206.578 159.033 206.578L120.428 200.473C120.428 200.473 114.76 214.193 103.424 241.635C104.118 241.952 110.059 243.828 110.745 244.117Z" clip-rule="evenodd"/><path fill="#FF90A0" fill-rule="evenodd" d="M133.358 225.9C133.357 225.907 133.362 225.915 133.362 225.915C133.624 230.539 133.898 235.137 133.993 236.124C134.023 236.498 134.059 236.873 134.09 237.24C134.089 237.247 134.093 237.261 134.091 237.268C134.126 237.725 134.177 238.164 134.211 238.621L134.21 238.627C134.254 239.099 134.308 239.559 134.334 240.022L134.333 240.028C134.423 241.007 134.52 241.98 134.61 242.959C134.543 241.054 134.462 239.153 134.361 237.249C134.307 236.297 134.301 235.345 134.206 234.393L133.953 231.549C133.885 230.601 133.74 229.661 133.753 228.713C133.744 228.233 133.74 227.76 133.703 227.282C133.651 226.816 133.668 226.306 133.392 225.899C133.387 225.891 133.374 225.889 133.366 225.895C133.364 225.901 133.358 225.9 133.358 225.9Z" clip-rule="evenodd"/><path fill="#FF90A0" fill-rule="evenodd" d="M133.416 225.9C133.415 225.907 133.42 225.915 133.42 225.915C133.682 230.539 133.956 235.138 134.052 236.124C134.081 236.498 134.118 236.873 134.149 237.241C134.147 237.247 134.151 237.262 134.15 237.268C134.196 239.177 134.256 241.081 134.331 242.981L134.486 245.837C134.529 246.316 134.587 246.79 134.688 247.258C134.765 247.633 134.923 247.979 134.906 248.346C134.927 248.343 134.947 248.346 134.968 248.342C135.03 248.339 135.099 248.336 135.168 248.333C135.001 246.556 134.842 244.773 134.67 242.987L134.669 242.96C134.602 241.055 134.521 239.154 134.419 237.25C134.366 236.298 134.359 235.346 134.264 234.394L134.012 231.549C133.943 230.601 133.798 229.661 133.812 228.713C133.802 228.233 133.799 227.76 133.762 227.282C133.709 226.816 133.726 226.306 133.451 225.899C133.445 225.891 133.432 225.889 133.424 225.895C133.423 225.901 133.416 225.9 133.416 225.9Z" clip-rule="evenodd"/><path fill="#672448" fill-rule="evenodd" d="M133.415 225.9C133.414 225.907 133.419 225.915 133.419 225.915L133.424 225.922C133.669 226.31 133.659 226.821 133.698 227.286C133.715 227.761 133.711 228.239 133.707 228.717C133.671 229.675 133.794 230.625 133.842 231.569L134.039 234.418C134.123 235.355 134.111 236.296 134.147 237.239C134.145 237.245 134.149 237.26 134.148 237.266C134.194 239.175 134.254 241.078 134.329 242.978L134.484 245.833C134.527 246.312 134.585 246.787 134.685 247.254C134.762 247.629 134.92 247.975 134.903 248.342C134.905 248.438 134.886 248.537 134.853 248.635C134.852 248.641 134.856 248.656 134.863 248.657C134.876 248.659 134.884 248.653 134.885 248.647C134.932 248.545 134.958 248.446 134.965 248.338C135.018 247.964 134.889 247.574 134.834 247.223C134.76 246.76 134.729 246.29 134.718 245.816L134.668 242.984L134.666 242.957C134.6 241.052 134.518 239.152 134.417 237.248C134.363 236.296 134.357 235.344 134.262 234.392L134.01 231.548C133.941 230.6 133.797 229.661 133.81 228.713C133.801 228.232 133.797 227.76 133.76 227.282C133.708 226.816 133.725 226.306 133.449 225.899C133.444 225.891 133.431 225.889 133.423 225.895C133.422 225.901 133.415 225.9 133.415 225.9Z" clip-rule="evenodd"/><path fill="#672448" fill-rule="evenodd" d="M86.8431 206.9C87.0515 207.204 87.2258 207.503 87.4416 207.775C87.6489 208.049 87.8429 208.334 88.0895 208.582C88.5849 209.07 89.2081 209.445 89.9018 209.659C89.9112 209.661 89.9156 209.671 89.9124 209.68C89.91 209.688 89.9011 209.693 89.8928 209.692C89.1674 209.573 88.4706 209.26 87.8991 208.786C87.6119 208.553 87.3352 208.291 87.1495 207.966C86.9724 207.638 86.8316 207.288 86.8104 206.912C86.8096 206.902 86.8168 206.894 86.8274 206.893C86.8336 206.892 86.8396 206.895 86.8431 206.9Z" clip-rule="evenodd"/><path fill="#2A4D52" fill-rule="evenodd" d="M163.678 215.896L163.706 216.007L163.725 216.07C163.706 216 163.693 215.945 163.678 215.896Z" clip-rule="evenodd"/><path fill="#2A4D52" fill-rule="evenodd" d="M164.361 218.155L164.5 218.683L164.757 219.648C164.614 219.147 164.483 218.654 164.361 218.155Z" clip-rule="evenodd"/><path fill="#765040" fill-rule="evenodd" d="M87.1481 208.274C87.3368 208.599 87.6093 208.863 87.8997 209.094C88.4652 209.569 89.1619 209.878 89.8889 209.997C89.8958 209.998 89.9034 209.992 89.9043 209.985C89.912 209.979 89.9068 209.965 89.8931 209.964C89.2052 209.752 88.5793 209.374 88.0841 208.892C87.8373 208.644 87.6436 208.359 87.4413 208.088C87.2253 207.815 87.0469 207.519 86.8419 207.213C86.8359 207.205 86.8359 207.205 86.829 207.205C86.8153 207.204 86.8068 207.217 86.806 207.223C86.8287 207.602 86.973 207.95 87.1481 208.274ZM79.3705 209.349C80.1806 208.736 83.0346 208.018 84.8958 207.594C84.2629 207.442 83.606 207.26 83.0031 207.09C81.6197 206.673 80.476 206.222 80.521 205.856C80.5935 205.266 84.6334 205.558 86.9299 205.652L86.9444 205.647L86.965 205.649C87.0198 205.654 87.0892 205.653 87.1441 205.658C87.1055 205.634 87.0668 205.61 87.0222 205.578C85.6287 204.735 84.5135 203.376 84.5802 202.834C84.5852 202.793 84.5962 202.76 84.6141 202.727C85.1729 201.791 87.527 202.939 89.2346 203.933C92.4804 201.551 97.1572 198.242 99.6691 196.473C104.745 192.905 112.45 187.859 119.325 183.417L123.21 190.145C123.21 190.152 123.203 190.151 123.202 190.158C123.115 190.301 122.968 190.541 122.838 190.749C122.76 190.879 122.689 191.003 122.636 191.094C122.319 191.641 122.001 192.202 121.674 192.775C120.735 194.431 119.758 196.18 118.812 197.842C118.768 197.92 118.731 197.992 118.688 198.063C118.314 198.735 117.934 199.4 117.552 200.078C117.393 200.359 117.235 200.632 117.076 200.913C112.465 203.173 108.028 205.271 104.541 206.741C101.448 208.047 95.6972 210.282 91.9476 211.687C91.9399 211.694 91.9323 211.7 91.9254 211.699C91.5058 212.011 91.0835 212.288 90.9382 212.399C90.2801 212.847 83.3827 216.458 82.9313 215.507C82.7413 215.079 84.6949 213.624 86.4615 212.391C84.4132 212.701 81.4311 213.052 80.8428 212.651C80.7853 212.611 80.756 212.567 80.7412 212.518C80.6724 212.177 81.6379 211.653 82.8604 211.125C83.5482 210.83 84.326 210.536 85.0593 210.266C85.0429 210.23 85.0342 210.188 85.0263 210.14C83.3593 210.224 81.0042 210.268 79.8407 210.034C79.4275 209.956 79.1726 209.831 79.1514 209.665C79.1357 209.567 79.2184 209.458 79.3705 209.349Z" clip-rule="evenodd"/><path fill="#765040" fill-rule="evenodd" d="M86.901 205.361C86.8948 205.361 86.8885 205.361 86.8829 205.36C86.9024 205.332 86.9238 205.317 86.9575 205.298L86.9625 205.292C87.0048 205.322 87.0425 205.345 87.0856 205.369C87.0255 205.364 86.9619 205.365 86.901 205.361Z" clip-rule="evenodd"/><path fill="#765040" fill-rule="evenodd" d="M87.0902 205.369C87.0888 205.369 87.0874 205.369 87.0854 205.369C87.0422 205.346 87.0047 205.322 86.9624 205.292C87.0036 205.32 87.0447 205.349 87.0902 205.369Z" clip-rule="evenodd"/><path fill="#96DAD5" fill-rule="evenodd" d="M148.581 175.121L148.586 175.135C148.956 174.938 149.294 174.731 149.591 174.521L149.739 172.745C149.733 172.744 149.72 172.736 149.712 172.742L149.564 174.518C149.274 174.729 148.944 174.93 148.581 175.121Z" clip-rule="evenodd"/><path fill="#96DAD5" fill-rule="evenodd" d="M150.328 197.848C150.462 198.322 150.6 198.817 150.865 199.235C151.107 199.61 151.495 199.802 151.754 200.151L153.2 199.213L157.778 196.235L164.347 191.96L165.039 191.519C162.044 186.961 159.635 182.265 156.291 177.927C154.87 176.08 153.168 174.188 151.078 173.158C150.823 175.012 149.088 193.304 150.328 197.848Z" clip-rule="evenodd"/><path fill="#96DAD5" fill-rule="evenodd" d="M118.855 183.163L119.342 184.024L123.202 190.716C123.41 190.36 123.597 190.016 123.789 189.685C123.93 189.439 124.069 189.2 124.209 188.96C124.235 188.915 124.262 188.863 124.289 188.817C124.324 188.752 124.366 188.688 124.41 188.617C124.445 188.552 124.487 188.494 124.523 188.423C124.565 188.358 124.601 188.293 124.644 188.222C126.954 184.437 133.079 174.433 134.835 171.735C128.895 174.748 117.888 181.456 118.855 183.163Z" clip-rule="evenodd"/><path fill="#765040" fill-rule="evenodd" d="M162.882 212.561L162.127 209.749L161.984 209.232L158.494 196.228L165.084 191.946C169.131 199.015 173.627 207.124 176.26 212.698C177.636 215.619 180.003 221.06 181.501 224.612C181.5 224.619 181.506 224.626 181.512 224.634C181.83 225.016 182.126 225.41 182.233 225.543C182.696 226.149 186.48 232.602 185.529 233.116C185.103 233.337 183.594 231.554 182.322 229.922C182.671 231.901 183.086 234.791 182.688 235.403C182.654 235.454 182.615 235.492 182.565 235.508C182.222 235.606 181.672 234.706 181.113 233.546C180.807 232.899 180.491 232.163 180.204 231.47C180.168 231.487 180.124 231.504 180.082 231.514C180.192 233.137 180.289 235.434 180.077 236.593C180.007 237.002 179.892 237.265 179.723 237.297C179.624 237.316 179.508 237.251 179.394 237.111C178.77 236.368 177.977 233.634 177.515 231.85C177.375 232.478 177.212 233.137 177.048 233.742C176.656 235.138 176.226 236.291 175.856 236.272C175.258 236.266 175.472 232.281 175.516 230.017L175.518 230.004C175.52 229.936 175.514 229.867 175.522 229.8C175.522 229.801 175.521 229.802 175.52 229.804C175.52 229.802 175.52 229.8 175.521 229.799C175.507 229.828 175.49 229.855 175.473 229.882C175.463 229.897 175.454 229.912 175.445 229.929C174.559 231.478 173.076 232.741 172.62 232.524C171.667 232.05 172.773 229.657 173.739 227.904C171.276 224.92 167.839 220.623 166.01 218.308C165.26 217.356 164.44 216.302 163.574 215.169L163.019 213.077L162.882 212.561Z" clip-rule="evenodd"/><path fill="#765040" fill-rule="evenodd" d="M152.045 200.025C152.051 200.033 152.074 200.069 152.128 200.135C152.146 200.157 152.157 200.178 152.188 200.208C152.205 200.237 152.229 200.266 152.252 200.302C152.27 200.324 152.281 200.346 152.299 200.368C152.311 200.383 152.322 200.404 152.341 200.419C152.346 200.433 152.351 200.447 152.363 200.462L152.393 200.499C152.405 200.514 152.416 200.535 152.435 200.55C154.268 202.988 161.931 213.257 163.016 214.838C163.045 214.881 163.08 214.932 163.123 214.977C163.128 214.991 163.14 215.006 163.152 215.02C163.158 215.028 163.164 215.035 163.163 215.042L162.608 212.95L162.472 212.434L161.716 209.623L161.573 209.106L158.086 196.104L153.495 199.086L152.045 200.025Z" clip-rule="evenodd"/><path fill="#765040" fill-rule="evenodd" d="M149.735 172.399L149.732 172.42C149.739 172.421 149.752 172.429 149.759 172.429L149.76 172.422C149.773 172.43 149.78 172.431 149.794 172.432L149.788 172.418C149.775 172.41 149.768 172.409 149.762 172.409C149.755 172.408 149.748 172.407 149.735 172.399Z" clip-rule="evenodd"/><path fill="#765040" fill-rule="evenodd" d="M140.067 177.068L140.08 177.069L140.082 177.056C140.075 177.062 140.075 177.062 140.067 177.068Z" clip-rule="evenodd"/><path fill="#2A4D52" fill-rule="evenodd" d="M149.762 172.421C149.775 172.429 149.782 172.43 149.796 172.431L149.795 172.438C149.782 172.43 149.775 172.429 149.761 172.428L149.762 172.421Z" clip-rule="evenodd"/><path fill="#2A4D52" fill-rule="evenodd" d="M152.448 200.509C152.571 200.691 152.701 200.873 152.837 201.056C153.097 201.413 153.363 201.778 153.629 202.143C154.446 203.254 155.268 204.385 156.091 205.503C157.121 206.899 158.146 208.288 159.154 209.647C159.765 210.466 160.364 211.264 160.952 212.047C161.333 212.545 161.701 213.035 162.064 213.518C162.289 213.818 162.516 214.111 162.729 214.397C162.85 214.544 162.956 214.69 163.076 214.837C161.986 213.252 154.29 202.953 152.448 200.509Z" clip-rule="evenodd"/><path fill="#2A4D52" fill-rule="evenodd" d="M125.889 194.89C125.912 194.987 125.936 195.072 125.966 195.163C126.472 196.732 127.366 197.905 128.547 198.427L128.553 198.428C128.718 198.497 128.89 198.56 129.071 198.61C129.157 198.639 129.244 198.66 129.332 198.675C129.616 198.727 129.906 198.739 130.191 198.724C130.275 198.718 130.365 198.712 130.45 198.699C130.535 198.686 130.612 198.673 130.697 198.66C130.775 198.646 130.86 198.626 130.939 198.606C133.413 197.951 135.773 194.908 136.624 190.966L133.985 190.492L125.83 189.014L125.803 189.011C125.346 191.151 125.4 193.192 125.874 194.847C125.872 194.861 125.877 194.875 125.889 194.89ZM117.528 201.506C117.687 201.226 117.845 200.953 118.004 200.673C118.385 199.997 118.764 199.333 119.137 198.663C119.18 198.591 119.217 198.519 119.261 198.441C120.205 196.783 121.181 195.038 122.117 193.385C122.444 192.813 122.762 192.254 123.078 191.708C123.131 191.617 123.201 191.493 123.279 191.363C123.347 191.26 123.416 191.15 123.477 191.046C123.54 190.935 123.607 190.839 123.651 190.761C123.861 190.404 124.049 190.058 124.242 189.727C124.383 189.48 124.523 189.239 124.663 188.999C124.69 188.953 124.717 188.901 124.743 188.856C124.779 188.79 124.821 188.726 124.865 188.655C124.9 188.589 124.942 188.532 124.979 188.46C125.021 188.395 125.057 188.33 125.1 188.259C127.421 184.46 133.575 174.422 135.34 171.716C135.574 171.6 136.028 171.447 136.481 171.308C137.138 171.105 137.795 170.93 137.789 170.929C141.783 170.688 145.865 171.156 150.033 172.333C150.359 172.444 150.675 172.575 150.981 172.725C150.724 174.589 148.975 192.974 150.225 197.541C150.36 198.018 150.5 198.516 150.766 198.936C151.011 199.313 151.402 199.505 151.663 199.856C151.669 199.864 151.692 199.9 151.746 199.966C151.765 199.988 151.776 200.01 151.807 200.04C151.824 200.069 151.848 200.098 151.871 200.134C151.889 200.157 151.9 200.178 151.918 200.2C151.936 200.229 151.96 200.258 151.983 200.295L152.013 200.332C152.025 200.346 152.036 200.368 152.055 200.383C152.178 200.565 152.308 200.747 152.444 200.93C152.705 201.288 152.971 201.654 153.237 202.019C154.055 203.131 154.877 204.263 155.701 205.382C156.733 206.779 157.759 208.169 158.768 209.53C159.379 210.35 159.98 211.149 160.568 211.932C160.95 212.431 161.318 212.922 161.681 213.405C161.907 213.705 162.133 213.999 162.347 214.284C162.468 214.432 162.574 214.578 162.694 214.725C162.724 214.769 162.759 214.82 162.802 214.865C162.807 214.879 162.819 214.894 162.831 214.908C162.837 214.916 162.843 214.923 162.842 214.93C162.866 215.014 162.886 215.077 162.906 215.14L162.963 215.351L162.992 215.456L163.015 215.553C163.034 215.617 163.053 215.693 163.075 215.791L163.103 215.903L163.123 215.966C163.132 216.001 163.149 216.037 163.157 216.079C163.166 216.12 163.182 216.156 163.191 216.198C163.27 216.458 163.335 216.716 163.401 216.968C163.5 217.339 163.594 217.703 163.695 218.067C163.819 218.571 163.952 219.068 164.097 219.573C164.301 220.281 164.505 220.982 164.703 221.677L164.635 221.671C164.677 221.886 164.774 222.192 164.591 222.254C142.307 229.853 111.986 216.445 111.888 216.389C111.869 216.38 115.768 204.623 117.528 201.506Z" clip-rule="evenodd"/><path fill="#2A8C79" fill-rule="evenodd" d="M125.669 194.74C125.668 194.753 125.673 194.768 125.685 194.782C125.708 194.88 125.732 194.965 125.762 195.056C126.269 196.629 127.164 197.804 128.348 198.328L128.355 198.328C128.519 198.398 128.692 198.461 128.873 198.511C128.959 198.54 129.047 198.561 129.135 198.576C129.42 198.629 129.71 198.641 129.996 198.625C130.08 198.619 130.17 198.613 130.255 198.6C130.34 198.587 130.418 198.574 130.503 198.561C130.581 198.547 130.666 198.527 130.745 198.507C133.224 197.851 135.589 194.801 136.442 190.85L133.797 190.374L125.626 188.893L125.599 188.891C125.141 191.035 125.194 193.081 125.669 194.74Z" clip-rule="evenodd"/><path fill="#765040" fill-rule="evenodd" d="M149.202 165.727L149.185 165.815C149.162 165.825 149.131 165.841 149.108 165.851L149.202 165.727ZM162.12 160.802C162.155 160.801 162.19 160.8 162.226 160.798C162.19 160.8 162.151 160.821 162.116 160.823C159.991 160.806 157.284 159.897 157.26 159.914L157.253 159.913C157.227 159.902 157.193 159.897 157.168 159.879C157.506 159.981 160.535 160.864 162.12 160.802Z" clip-rule="evenodd"/><path fill="#765040" fill-rule="evenodd" d="M134.602 159.021C137.938 159.549 141.161 157.306 141.81 154.005C142.457 150.711 140.284 147.615 136.948 147.087C133.618 146.561 130.395 148.803 129.748 152.098C129.099 155.399 131.272 158.495 134.602 159.021ZM158.559 150.782L158.608 150.956L158.775 150.893C159.271 150.687 159.85 150.626 160.394 150.712C160.934 150.783 161.479 151.001 161.787 151.431C162.11 151.857 162.015 152.48 161.767 152.96C161.491 153.437 160.959 153.789 160.397 153.832L160.399 153.895C160.986 153.87 161.557 153.53 161.874 153.019C162.162 152.517 162.303 151.839 161.941 151.324C161.606 150.82 161.018 150.568 160.443 150.463C159.922 150.367 159.373 150.384 158.844 150.543C158.739 149.757 158.982 148.95 159.559 148.403C160.167 147.806 161.04 147.5 161.891 147.337C162.749 147.181 163.644 147.157 164.496 147.312C165.337 147.452 166.128 147.813 166.774 148.303C168.09 149.343 168.412 151.162 168.056 152.832C167.704 154.516 166.759 156.114 165.442 157.361L165.488 157.41C166.237 156.884 166.901 156.212 167.429 155.45C167.97 154.697 168.383 153.84 168.603 152.939C168.835 152.04 168.912 151.082 168.687 150.159C168.482 149.239 167.949 148.385 167.186 147.814C166.418 147.263 165.528 146.907 164.593 146.78C163.672 146.655 162.731 146.7 161.812 146.888C160.903 147.091 159.973 147.436 159.282 148.137C158.583 148.838 158.341 149.895 158.559 150.782ZM108.745 140.353C109.315 139.986 109.978 139.786 110.642 139.724C110.716 139.202 110.793 138.667 110.898 138.136C111.398 135.594 112.182 133.174 113.195 130.908C113.193 130.914 113.2 130.916 113.2 130.916C114.427 128.558 115.678 126.33 117.195 124.317C117.422 124.02 117.641 123.722 117.88 123.434C118.038 123.237 118.203 123.041 118.374 122.846C118.447 122.761 118.528 122.67 118.607 122.585C118.634 122.555 118.661 122.524 118.688 122.494C118.788 122.378 118.888 122.262 118.993 122.154C119.027 122.125 119.053 122.101 119.08 122.071C119.107 122.04 119.127 122.009 119.161 121.98C119.187 121.956 119.214 121.925 119.241 121.895C119.301 121.835 119.355 121.775 119.416 121.715C119.468 121.668 119.513 121.612 119.565 121.565L119.566 121.558C119.881 121.241 120.212 120.946 120.531 120.643L120.539 120.638C120.879 120.331 121.213 120.023 121.559 119.725C121.56 119.718 121.567 119.719 121.569 119.712C121.754 119.554 121.931 119.402 122.116 119.244C122.294 119.085 122.484 118.942 122.674 118.792L122.676 118.785C122.906 118.613 123.136 118.442 123.357 118.276C123.579 118.11 123.815 117.946 124.049 117.789C123.673 120.412 124.365 123.024 126.162 125.18C126.426 125.513 126.711 125.808 127.013 126.091C130.61 129.461 136.383 129.646 140.45 126.352C140.617 126.212 140.763 126.075 140.925 125.928C141.175 126.868 141.622 127.764 142.278 128.561C142.736 129.119 143.27 129.577 143.841 129.952C143.432 130.747 143.183 131.623 143.14 132.517C143.124 132.778 143.121 133.041 143.147 133.302C143.165 133.498 143.185 133.682 143.232 133.87C143.796 137.092 146.843 139.273 150.203 138.792C151.11 138.665 151.949 138.354 152.681 137.908C152.696 138.084 152.697 138.257 152.718 138.434C153.003 140.905 154.326 142.979 156.227 144.285C155.126 144.686 154.158 145.331 153.727 146.42C153.519 146.942 153.502 147.494 153.706 147.949C153.354 148.386 153.164 148.924 153.333 149.491C153.489 150.015 154.734 151.488 153.811 151.91C153.557 152.022 153.168 152.328 153.171 152.634C153.175 152.933 153.456 152.963 153.702 152.856C154.449 152.51 155.111 151.852 155.259 151.03C155.4 150.206 154.87 149.658 154.57 148.973C154.537 148.891 154.505 148.803 154.48 148.716C155.25 149.115 156.234 149.097 156.959 148.547C157.593 148.065 157.896 147.059 156.929 146.809C156.301 146.654 155.483 146.823 154.837 147.116C154.628 146.646 154.73 146.059 155.208 145.691C155.779 145.247 156.606 145.066 157.334 144.932L157.34 144.933C158.831 145.654 160.559 145.955 162.369 145.693C164.415 145.407 166.223 144.445 167.566 143.063C168.338 143.559 169.04 144.156 169.666 144.858C171.405 146.81 172.169 149.198 172.016 151.545C171.995 151.902 171.954 152.249 171.893 152.6C171.469 154.897 170.181 157.064 168.048 158.647C166.186 160.03 163.969 160.754 161.745 160.839C161.71 160.84 161.675 160.842 161.64 160.843C160.058 160.905 157.036 160.025 156.698 159.923C156.679 159.913 156.666 159.911 156.666 159.911C154.333 162.405 151.687 164.351 148.749 165.751L148.655 165.875L148.61 166.138C148.184 166.348 147.749 166.528 147.315 166.702C147.308 166.701 147.307 166.708 147.3 166.707L147.112 166.74L145.926 166.961L145.918 166.967C143.336 167.841 140.571 168.36 137.639 168.521L137.588 168.526C137.063 168.561 136.534 168.581 136.001 168.58C133.556 168.617 131.009 168.422 128.372 168.005C123.541 167.241 117.858 165.351 114.784 160.712C113.063 158.131 111.753 155.061 110.999 151.663C110.681 150.254 110.457 148.79 110.347 147.282C110.32 147.278 110.309 147.297 110.282 147.293C108.253 146.993 106.942 144.928 107.174 142.926C107.286 141.897 107.863 140.921 108.745 140.353Z" clip-rule="evenodd"/><path fill="#672448" fill-rule="evenodd" d="M105.684 119.96C106.038 123.347 107.746 126.567 110.472 128.587C108.024 124.87 106.943 120.38 107.825 115.897C109.077 109.53 113.879 104.512 120.132 102.101C120.132 102.101 120.14 102.096 120.155 102.091C120.452 101.931 120.76 101.786 121.071 101.662C120.887 101.709 120.71 101.757 120.525 101.811C116.412 102.971 112.492 105.136 109.691 108.397C106.938 111.597 105.248 115.821 105.684 119.96ZM159.61 171.029C163.128 171.295 166.766 170.495 169.894 168.551C175.198 165.243 178.649 159.065 178.502 152.816C178.47 151.38 178.252 149.964 177.87 148.604L177.862 148.61C177.923 150.216 177.801 151.869 177.474 153.531C175.677 162.665 168.304 169.495 159.61 171.029ZM204.497 144.245C211.071 142.727 218.049 139.256 220.832 132.779C221.131 132.08 221.376 131.365 221.562 130.635C219.249 136.391 211.684 141.421 202.283 142.858C199.345 143.299 196.518 143.357 193.9 143.06C192.119 143.553 189.992 143.818 187.662 143.83C192.987 145.57 198.941 145.53 204.497 144.245ZM108.291 109.551C113.435 102.438 123.082 99.4303 131.474 100.356C136.165 100.876 140.711 102.701 143.939 106.079C143.945 106.086 143.957 106.095 143.949 106.101C144.153 106.126 144.336 106.155 144.532 106.193C144.701 106.151 144.857 106.099 145.026 106.057C148.001 105.394 150.754 106.209 152.79 108.044C152.997 107.31 153.261 106.536 153.583 105.751C148.181 105.436 142.786 102.172 139.577 96.6408C135.669 89.9008 136.228 81.8699 140.415 76.7134C136.189 74.394 133.612 70.5869 134.062 66.4153C134.748 59.9453 142.42 55.0772 151.209 55.5474C159.605 55.9901 165.958 61.1681 165.887 67.286C166.86 67.2049 167.83 67.2822 168.771 67.5416C175.505 69.366 178.202 79.3836 174.789 89.914C173.936 92.5432 172.786 94.9458 171.435 97.054C171.077 98.8768 170.317 100.961 169.178 103.13C168.6 104.255 167.913 105.404 167.131 106.538C166.69 107.18 166.23 107.778 165.766 108.361L165.765 108.368C165.523 108.675 165.282 108.976 165.03 109.26C169.445 111.078 172.633 115.617 172.998 121.576C173.082 122.964 172.996 124.326 172.786 125.675C174.723 125.456 176.109 125.765 176.296 126.658C176.478 127.474 175.581 128.59 174.062 129.635C174.499 129.863 174.916 130.088 175.313 130.345C176.263 130.129 177.292 129.98 178.384 129.897C176.622 124.471 177.793 117.628 182.08 111.817C187.281 104.734 195.478 101.359 202.225 102.937C202.908 97.6894 205.713 93.3373 210.024 91.7385C216.743 89.2695 224.529 94.3767 227.44 103.164C230.148 111.352 227.641 119.835 221.852 122.941C222.873 125.604 222.772 128.601 221.864 131.373C220.784 134.658 218.596 137.47 215.836 139.604C212.994 141.794 209.663 143.279 206.234 144.264C202.471 145.348 198.534 145.859 194.657 145.675C191.549 145.529 188.477 144.912 185.635 143.765L185.628 143.764C184.703 143.707 183.757 143.613 182.793 143.468C181.156 143.23 179.611 142.882 178.178 142.455C177.849 142.886 177.48 143.305 177.074 143.697C177.295 144.457 177.474 145.218 177.597 146.011C177.603 146.019 177.608 146.027 177.6 146.033C177.606 146.04 177.61 146.055 177.609 146.062L177.607 146.068C179.589 150.666 179.495 156.151 177.164 160.896C175.743 163.788 173.624 166.321 171.054 168.195C168.371 170.148 165.221 171.281 162.019 171.535C160.472 171.656 158.929 171.578 157.427 171.292L157.42 171.291C157.42 171.291 157.419 171.298 157.412 171.297C157.404 171.303 157.404 171.303 157.399 171.295C157.391 171.301 157.384 171.299 157.378 171.292C155.797 171.408 154.215 171.351 152.596 171.095C150.969 170.838 149.344 170.395 147.904 169.794L147.898 169.793L148.361 166.833L148.406 166.57L148.5 166.447C151.43 165.051 154.068 163.112 156.395 160.626C156.395 160.626 156.408 160.628 156.427 160.638C156.764 160.74 159.777 161.617 161.355 161.555C161.39 161.554 161.425 161.552 161.46 161.551C163.678 161.466 165.888 160.745 167.746 159.366C169.873 157.788 171.157 155.628 171.58 153.338C171.641 152.989 171.681 152.643 171.703 152.287C171.855 149.948 171.093 147.568 169.359 145.621C168.735 144.922 168.034 144.327 167.265 143.832C165.925 145.21 164.123 146.169 162.082 146.454C160.277 146.715 158.554 146.415 157.067 145.696L157.061 145.695C156.335 145.829 155.51 146.01 154.941 146.452C154.464 146.819 154.363 147.404 154.571 147.872C155.215 147.58 156.031 147.412 156.658 147.566C157.622 147.815 157.32 148.818 156.687 149.298C155.964 149.847 154.983 149.865 154.215 149.467C154.24 149.554 154.272 149.642 154.305 149.723C154.604 150.406 155.132 150.953 154.992 151.774C154.844 152.593 154.184 153.249 153.439 153.594C153.194 153.701 152.914 153.67 152.909 153.372C152.906 153.068 153.295 152.763 153.547 152.651C154.469 152.23 153.227 150.762 153.071 150.24C152.903 149.674 153.092 149.138 153.443 148.703C153.239 148.249 153.257 147.699 153.464 147.179C153.894 146.093 154.859 145.451 155.957 145.051C154.061 143.749 152.742 141.682 152.458 139.218C152.437 139.042 152.436 138.869 152.421 138.694C151.691 139.139 150.854 139.449 149.949 139.575C146.599 140.054 143.56 137.881 142.997 134.669C142.95 134.481 142.93 134.299 142.913 134.102C142.887 133.843 142.89 133.581 142.906 133.321C142.949 132.429 143.197 131.556 143.605 130.764C143.035 130.39 142.503 129.933 142.047 129.377C141.392 128.583 140.946 127.69 140.697 126.752C140.536 126.9 140.39 127.035 140.223 127.175C136.167 130.459 130.411 130.274 126.823 126.915C126.522 126.633 126.238 126.339 125.974 126.007C124.182 123.858 123.492 121.255 123.867 118.64C123.633 118.796 123.399 118.96 123.178 119.125C122.943 119.288 122.72 119.461 122.498 119.633L122.496 119.639C122.306 119.789 122.117 119.932 121.94 120.09C121.225 120.668 120.532 121.278 119.875 121.92C119.71 122.081 119.554 122.235 119.397 122.397L119.395 122.404C119.344 122.451 119.298 122.506 119.247 122.553C119.186 122.613 119.133 122.673 119.072 122.733C119.045 122.763 119.018 122.793 118.993 122.817C118.959 122.846 118.939 122.878 118.912 122.908C118.885 122.938 118.859 122.962 118.826 122.991C118.721 123.099 118.621 123.214 118.521 123.33C118.494 123.36 118.468 123.39 118.441 123.421C118.361 123.505 118.28 123.596 118.208 123.681C118.037 123.875 117.873 124.07 117.715 124.267C115.854 126.481 114.271 128.988 113.043 131.716C112.498 131.181 111.989 130.61 111.511 130.016C108.228 128.343 106.015 125.098 105.292 121.529C104.457 117.389 105.778 113.017 108.291 109.551Z" clip-rule="evenodd"/><path fill="#765040" fill-rule="evenodd" d="M158.91 151.049L158.96 151.223L159.126 151.159C159.621 150.954 160.198 150.894 160.74 150.979C161.278 151.05 161.822 151.268 162.129 151.696C162.45 152.12 162.356 152.741 162.109 153.219C161.834 153.694 161.303 154.045 160.743 154.088L160.745 154.15C161.33 154.125 161.899 153.787 162.216 153.278C162.503 152.777 162.643 152.102 162.282 151.589C161.948 151.087 161.362 150.836 160.789 150.731C160.27 150.636 159.722 150.653 159.195 150.811C159.09 150.028 159.332 149.223 159.907 148.679C160.513 148.084 161.383 147.779 162.233 147.617C163.087 147.462 163.979 147.437 164.829 147.592C165.667 147.731 166.456 148.091 167.1 148.579C168.412 149.616 168.733 151.428 168.378 153.091C168.027 154.77 167.085 156.361 165.772 157.604L165.818 157.653C166.564 157.129 167.226 156.46 167.753 155.7C168.292 154.95 168.704 154.096 168.923 153.198C169.155 152.303 169.231 151.348 169.006 150.428C168.803 149.512 168.271 148.661 167.51 148.092C166.745 147.542 165.858 147.188 164.926 147.062C164.008 146.937 163.07 146.982 162.153 147.169C161.247 147.371 160.321 147.715 159.631 148.414C158.935 149.112 158.693 150.165 158.91 151.049Z" clip-rule="evenodd"/><path fill="#765040" fill-rule="evenodd" d="M129.872 151.918C129.225 155.207 131.391 158.291 134.709 158.815C138.035 159.341 141.247 157.107 141.893 153.818C142.539 150.536 140.373 147.452 137.048 146.927C133.729 146.402 130.517 148.636 129.872 151.918Z" clip-rule="evenodd"/><path fill="#765040" fill-rule="evenodd" d="M118.956 121.597C119.268 121.281 119.596 120.989 119.912 120.688C119.752 120.835 119.585 120.974 119.431 121.121C119.268 121.281 119.112 121.436 118.956 121.597Z" clip-rule="evenodd"/><path fill="#765040" fill-rule="evenodd" d="M112.693 130.747C112.692 130.754 112.699 130.755 112.699 130.755C113.902 128.425 115.128 126.223 116.616 124.234C116.838 123.94 117.053 123.646 117.287 123.361C115.458 125.556 113.901 128.042 112.693 130.747Z" clip-rule="evenodd"/><path fill="#672448" fill-rule="evenodd" d="M158.91 151.049L158.96 151.223L159.126 151.159C159.621 150.954 160.198 150.894 160.74 150.979C161.278 151.05 161.822 151.268 162.129 151.696C162.45 152.12 162.356 152.741 162.109 153.219C161.834 153.694 161.303 154.045 160.743 154.088L160.745 154.15C161.33 154.125 161.899 153.787 162.216 153.278C162.503 152.777 162.643 152.102 162.282 151.589C161.948 151.087 161.362 150.836 160.789 150.731C160.27 150.636 159.722 150.653 159.195 150.811C159.09 150.028 159.332 149.223 159.907 148.679C160.513 148.084 161.383 147.779 162.233 147.617C163.087 147.462 163.979 147.437 164.829 147.592C165.667 147.731 166.456 148.091 167.1 148.579C168.412 149.616 168.733 151.428 168.378 153.091C168.027 154.77 167.085 156.361 165.772 157.604L165.818 157.653C166.564 157.129 167.226 156.46 167.753 155.7C168.292 154.95 168.704 154.096 168.923 153.198C169.155 152.303 169.231 151.348 169.006 150.428C168.803 149.512 168.271 148.661 167.51 148.092C166.745 147.542 165.858 147.188 164.926 147.062C164.008 146.937 163.07 146.982 162.153 147.169C161.247 147.371 160.321 147.715 159.631 148.414C158.935 149.112 158.693 150.165 158.91 151.049Z" clip-rule="evenodd"/><path fill="#672448" fill-rule="evenodd" d="M117.304 123.383C117.069 123.668 116.853 123.963 116.63 124.257C115.137 126.248 113.906 128.453 112.699 130.784C112.699 130.784 112.692 130.783 112.693 130.777C113.906 128.068 115.468 125.581 117.304 123.383ZM119.435 121.054C119.588 120.907 119.753 120.769 119.912 120.623C119.598 120.923 119.273 121.214 118.963 121.528C119.118 121.368 119.273 121.214 119.435 121.054Z" clip-rule="evenodd"/><path fill="#C57450" fill-rule="evenodd" d="M129.872 151.918C129.225 155.207 131.391 158.291 134.709 158.815C138.035 159.341 141.247 157.107 141.893 153.818C142.539 150.536 140.373 147.452 137.048 146.927C133.729 146.402 130.517 148.636 129.872 151.918Z" clip-rule="evenodd"/><path fill="#765040" fill-rule="evenodd" d="M149.076 165.795L148.615 168.745L147.878 173.45L147.885 173.451L147.822 173.875L147.657 174.93L147.225 177.693C146.416 178.198 145.327 178.639 144.126 178.979C142.244 179.522 140.089 179.829 138.31 179.816C136.055 179.783 134.39 179.223 134.647 177.914L136.56 168.181C138.946 167.691 148.652 166.003 149.076 165.795Z" clip-rule="evenodd"/><path fill="#765040" fill-rule="evenodd" d="M136.452 168.21L135.752 171.772C138.157 171.278 148.446 165.957 148.446 165.957L147.827 166.074C147.82 166.073 147.819 166.08 147.812 166.078L147.623 166.111L146.436 166.333L146.428 166.339L138.141 167.895L138.091 167.9L136.452 168.21Z" clip-rule="evenodd"/><path fill="#672448" fill-rule="evenodd" d="M132.305 131.291C132.402 131.441 132.582 131.45 132.742 131.381C132.819 131.346 132.959 131.308 133.058 131.303C133.2 131.292 133.29 131.3 133.438 131.33C133.537 131.359 133.654 131.405 133.766 131.477C133.771 131.484 133.815 131.511 133.815 131.511C133.845 131.536 133.869 131.56 133.892 131.584C133.945 131.633 133.958 131.642 133.991 131.688C134.288 132.099 134.195 132.683 133.825 133.035C133.697 133.156 133.718 133.369 133.837 133.475C133.969 133.59 134.162 133.567 134.291 133.446C134.865 132.905 134.985 131.933 134.51 131.319C134.025 130.689 133.143 130.509 132.411 130.857C132.249 130.932 132.225 131.164 132.305 131.291Z" clip-rule="evenodd"/><path fill="#672448" fill-rule="evenodd" d="M125.891 147.179C126.947 147.481 128.394 145.833 129.121 143.493C129.854 141.154 129.59 139.014 128.541 138.707C127.485 138.405 126.038 140.053 125.311 142.393C124.578 144.732 124.842 146.872 125.891 147.179Z" clip-rule="evenodd"/><path fill="#672448" fill-rule="evenodd" d="M129.029 137.117C128.984 137.313 129.083 137.473 129.236 137.52C130.036 137.745 130.663 138.562 130.76 139.529C130.776 139.712 130.876 139.864 131.055 139.847C131.2 139.833 131.373 139.649 131.355 139.472C131.225 138.176 130.466 137.142 129.389 136.834C129.236 136.787 129.063 136.941 129.029 137.117Z" clip-rule="evenodd"/><path fill="#672448" fill-rule="evenodd" d="M111.082 150.405C111.864 153.716 113.198 156.711 114.941 159.232C115.552 159.592 116.228 159.875 116.969 160.034C121.831 161.113 127.132 157.662 127.643 155.689C127.682 155.527 127.696 155.381 127.682 155.237C127.51 153.634 123.739 153.119 119.268 152.129C115.213 151.233 112.255 149.723 111.082 150.405Z" clip-rule="evenodd"/></g></svg>