<svg xmlns="http://www.w3.org/2000/svg" width="559" height="175" fill="none" viewBox="0 0 559 175"><path fill="#25D389" d="M6 76.5V85.5L17 105.5L118.5 121L195.5 127.5H251H292.5L322 129.5L349.5 127.5H369.5H393H424L470.5 123L493 118H511.5L522.5 115.5L532.5 112.5L543 108L547 104L549.5 98.5L551.5 93.5L553 88.5L553.5 84L554.5 80.5V77L553 75.5H551.5L549.5 78L547.5 76.5L547 71.5L545.5 72.5H543V69L545.5 62L547.5 61L551.5 60.5L555.5 56V48L554.5 51L553 53.5L549.5 53L547.5 51L546 48.5L555.5 45L558.5 43V39H555.5V35.5L558.5 32.5V26.5L550 10.5V5L546 0H540L527 5L516.5 7.5L507 10.5L493 7.5L475 10.5H460.5H450L424 14H409H393L369.5 16.5L349.5 19H329H314.5L308.5 16.5H300.5L292.5 19H244.5H213.5L187.5 17L158.5 15H127.5L103 10.5L86 9L81.5 7H74.5L70 9H65.5L67 11L65.5 12H55L53 10.5H50.5V17L40 15L38 17L63 21L70 23.5L73 26L68 29.5L65.5 32L44.5 29.5H40L36 31L33 32H29L24.5 31L21 29.5H17L15.5 31L12 32L11 34H8.5L6 37.5V42V49.5L2.5 53.5L0 57.5L2.5 65.5L6 76.5Z"/><path fill="#fff" d="M95.9443 97H81.6914V44.2266H106.882V56.6338H95.9443V64.3242H106.13V76.2529H95.9443V97ZM149.162 97H134.431L133.371 90.3008H123.767L122.604 97H107.873L120.554 44.2266H137.985L149.162 97ZM131.696 78.9873L130.773 72.835C130.751 72.8122 130.705 72.5046 130.637 71.9121C130.591 71.4108 130.352 69.4284 129.919 65.9648C129.873 65.5775 129.816 65.0534 129.748 64.3926C129.68 63.709 129.589 62.8545 129.475 61.8291L129.03 56.8389C128.985 57.3174 128.916 57.8529 128.825 58.4453C128.757 59.0378 128.677 59.6872 128.586 60.3936C128.426 61.8063 128.312 62.7861 128.244 63.333C128.176 63.8799 128.13 64.2103 128.107 64.3242L127.116 70.7158L125.681 78.9873H131.696ZM183 80.7646L182.18 96.0088C179.012 97.2848 176.175 97.9229 173.669 97.9229C167.767 97.9229 162.8 95.7581 158.767 91.4287C154.255 86.5752 151.999 79.7051 151.999 70.8184C151.999 62.5013 154.118 55.8249 158.356 50.7891C162.595 45.776 168.257 43.2695 175.344 43.2695C177.645 43.2695 179.992 43.7025 182.385 44.5684V59.6416C180.266 57.5225 178.09 56.4629 175.856 56.4629C172.94 56.4629 170.661 57.7048 169.021 60.1885C167.38 62.695 166.56 66.1585 166.56 70.5791C166.56 72.721 166.765 74.6351 167.175 76.3213C167.585 78.0075 168.166 79.4316 168.918 80.5938C169.693 81.7559 170.638 82.6445 171.755 83.2598C172.871 83.875 174.147 84.1826 175.583 84.1826C178.044 84.1826 180.516 83.0433 183 80.7646ZM202.858 97H188.605V44.2266H202.858V97Z"/><path fill="#565656" d="M264.587 97H249.685L248.625 72.9375L248.181 63.333C248.021 65.1787 247.839 66.9447 247.634 68.6309C247.429 70.2943 247.178 71.9121 246.882 73.4844L242.404 97H230.783L226.955 73.4502C226.727 72.083 226.42 69.736 226.032 66.4092C225.987 65.9079 225.884 64.8825 225.725 63.333L225.383 73.0742L224.118 97H208.942L215.095 44.2266H232.834L235.808 62C236.058 63.4583 236.275 65.042 236.457 66.751C236.662 68.46 236.844 70.3171 237.004 72.3223C237.3 68.9727 237.71 65.9762 238.234 63.333L241.857 44.2266H259.46L264.587 97ZM308.918 97H294.187L293.127 90.3008H283.522L282.36 97H267.629L280.31 44.2266H297.741L308.918 97ZM291.452 78.9873L290.529 72.835C290.507 72.8122 290.461 72.5046 290.393 71.9121C290.347 71.4108 290.108 69.4284 289.675 65.9648C289.629 65.5775 289.572 65.0534 289.504 64.3926C289.436 63.709 289.344 62.8545 289.23 61.8291L288.786 56.8389C288.741 57.3174 288.672 57.8529 288.581 58.4453C288.513 59.0378 288.433 59.6872 288.342 60.3936C288.182 61.8063 288.068 62.7861 288 63.333C287.932 63.8799 287.886 64.2103 287.863 64.3242L286.872 70.7158L285.437 78.9873H291.452ZM331.511 97H317.258V56.873H309.396V44.2266H339.68V56.873H331.511V97ZM378.679 97H364.426V75.7744H357.624V97H343.371V44.2266H357.624V62.8887H364.426V44.2266H378.679V97Z"/><path fill="#565656" d="M165.109 166H158.594V147.656H155V141.875H168.844V147.656H165.109V166ZM186.672 166H180.156V156.297H177.047V166H170.531V141.875H177.047V150.406H180.156V141.875H186.672V166ZM190.062 166V141.875H202.172V147.547H196.578V151.062H201.594V156.516H196.578V160.203H202.172V166H190.062ZM239.422 166H232.609L232.125 155L231.922 150.609C231.849 151.453 231.766 152.26 231.672 153.031C231.578 153.792 231.464 154.531 231.328 155.25L229.281 166H223.969L222.219 155.234C222.115 154.609 221.974 153.536 221.797 152.016C221.776 151.786 221.729 151.318 221.656 150.609L221.5 155.062L220.922 166H213.984L216.797 141.875H224.906L226.266 150C226.38 150.667 226.479 151.391 226.562 152.172C226.656 152.953 226.74 153.802 226.812 154.719C226.948 153.188 227.135 151.818 227.375 150.609L229.031 141.875H237.078L239.422 166ZM259.688 166H252.953L252.469 162.938H248.078L247.547 166H240.812L246.609 141.875H254.578L259.688 166ZM251.703 157.766L251.281 154.953C251.271 154.943 251.25 154.802 251.219 154.531C251.198 154.302 251.089 153.396 250.891 151.812C250.87 151.635 250.844 151.396 250.812 151.094C250.781 150.781 250.74 150.391 250.688 149.922L250.484 147.641C250.464 147.859 250.432 148.104 250.391 148.375C250.359 148.646 250.323 148.943 250.281 149.266C250.208 149.911 250.156 150.359 250.125 150.609C250.094 150.859 250.073 151.01 250.062 151.062L249.609 153.984L248.953 157.766H251.703ZM270.016 166H263.5V147.656H259.906V141.875H273.75V147.656H270.016V166ZM291.578 166H285.062V156.297H281.953V166H275.438V141.875H281.953V150.406H285.062V141.875H291.578V166ZM325.281 166H319L317.5 157.547C317.208 155.911 316.99 154.495 316.844 153.297C316.771 152.703 316.708 152.208 316.656 151.812C316.604 151.417 316.568 151.115 316.547 150.906C316.495 151.333 316.417 152.13 316.312 153.297C316.26 153.891 316.198 154.516 316.125 155.172C316.052 155.828 315.964 156.521 315.859 157.25L314.625 166H308.281L302.906 141.875H309.344L310.406 148.516C310.812 151.161 311.094 153.24 311.25 154.75L311.469 156.953L311.672 155.062C311.891 152.854 312.172 150.755 312.516 148.766L313.734 141.875H319.344L320.438 147.672C320.958 150.37 321.411 153.562 321.797 157.25C321.911 155.594 322.036 154.125 322.172 152.844C322.307 151.562 322.458 150.401 322.625 149.359L323.812 141.875H330.172L325.281 166ZM349.609 154.016C349.609 157.693 348.771 160.682 347.094 162.984C345.427 165.276 343.255 166.422 340.578 166.422C338.203 166.422 336.167 165.542 334.469 163.781C332.333 161.552 331.266 158.208 331.266 153.75C331.266 149.479 332.38 146.214 334.609 143.953C336.266 142.276 338.229 141.438 340.5 141.438C343.281 141.438 345.495 142.573 347.141 144.844C348.786 147.115 349.609 150.172 349.609 154.016ZM342.844 154.062C342.844 149.698 342.073 147.516 340.531 147.516C339.76 147.516 339.146 148.089 338.688 149.234C338.24 150.297 338.016 151.859 338.016 153.922C338.016 155.953 338.224 157.531 338.641 158.656C339.068 159.771 339.656 160.328 340.406 160.328C341.177 160.328 341.771 159.776 342.188 158.672C342.625 157.568 342.844 156.031 342.844 154.062ZM369.562 166H362.516L359.297 157.406C359.266 157.26 359.208 157.068 359.125 156.828C359.052 156.589 358.958 156.302 358.844 155.969L358.891 157.562V166H352.406V141.875H359.078C362.016 141.875 364.214 142.453 365.672 143.609C367.526 145.089 368.453 147.193 368.453 149.922C368.453 152.839 367.208 154.854 364.719 155.969L369.562 166ZM358.922 153.047H359.359C360.109 153.047 360.734 152.76 361.234 152.188C361.734 151.615 361.984 150.885 361.984 150C361.984 148.198 361.042 147.297 359.156 147.297H358.922V153.047ZM383.125 166H371.719V141.875H378.234V160.203H383.125V166ZM385.062 166V141.875H390.688C393.906 141.875 396.411 142.74 398.203 144.469C400.557 146.729 401.734 149.891 401.734 153.953C401.734 157.953 400.74 161.042 398.75 163.219C397.052 165.073 394.521 166 391.156 166H385.062ZM391.578 160.172C393.911 160.057 395.078 158.047 395.078 154.141C395.078 152.214 394.781 150.693 394.188 149.578C393.594 148.453 392.792 147.891 391.781 147.891H391.578V160.172Z"/><path stroke="#565656" stroke-miterlimit="10" stroke-width="10.24" d="M404.777 44.04H437.474"/><path stroke="#565656" stroke-miterlimit="10" stroke-width="10.24" d="M421.108 27.7083V60.4058"/><path stroke="#fff" stroke-miterlimit="10" stroke-width="10.24" d="M408.057 76.7375L434.194 102.875"/><path stroke="#fff" stroke-miterlimit="10" stroke-width="10.24" d="M434.194 76.7375L408.057 102.875"/><path stroke="#fff" stroke-miterlimit="10" stroke-width="10.24" d="M450.526 44.04H483.223"/><path stroke="#565656" stroke-miterlimit="10" stroke-width="10.24" d="M450.526 89.7892H483.223"/><path stroke="#565656" stroke-miterlimit="10" stroke-width="10.24" d="M463.612 76.7375H470.137"/><path stroke="#565656" stroke-miterlimit="10" stroke-width="10.24" d="M463.612 102.875H470.137"/></svg>