<svg xmlns="http://www.w3.org/2000/svg" xmlns:xlink="http://www.w3.org/1999/xlink" width="487" height="375" fill="none" viewBox="0 0 487 375"><desc>Created with Pixso.</desc><defs><clipPath id="clip18408_28758"><rect id="24644996_Tiny students with huge sign pi flat vector illustration 1" width="487" height="375" fill="#fff" fill-opacity="0"/></clipPath></defs><rect id="24644996_Tiny students with huge sign pi flat vector illustration 1" width="487" height="375" fill="#FFF" fill-opacity="0"/><g clip-path="url(#clip18408_28758)"><path id="_x31_2" fill="#FFF" fill-opacity="1" fill-rule="evenodd" d="M0 0L487 0L487 375L0 375L0 0Z"/><path id="Vector" fill="#DCE6FF" fill-opacity="1" fill-rule="nonzero" d="M58.98 291.08C58.1 288.47 57.24 285.77 56.4 283.04L58.46 282.45C59.29 285.16 60.15 287.84 61.02 290.43L58.98 291.08ZM426.75 287.71L424.62 287.45C424.97 284.68 425.31 281.88 425.62 279.14L427.75 279.37C427.44 282.11 427.1 284.92 426.75 287.71ZM54.03 274.95C53.28 272.26 52.56 269.51 51.87 266.8L53.95 266.3C54.63 269 55.36 271.73 56.1 274.4L54.03 274.95ZM428.63 271.01L426.49 270.81C426.76 268.02 427.02 265.22 427.24 262.47L429.38 262.64C429.15 265.39 428.9 268.21 428.63 271.01ZM49.91 258.6C49.29 255.86 48.7 253.09 48.16 250.36L50.26 249.97C50.8 252.68 51.39 255.43 52.01 258.16L49.91 258.6ZM429.99 254.26L427.85 254.12C428.03 251.34 428.19 248.53 428.33 245.77L430.47 245.86C430.33 248.63 430.18 251.46 429.99 254.26ZM46.62 242.08C46.15 239.3 45.7 236.51 45.31 233.76L47.43 233.47C47.83 236.2 48.26 238.98 48.74 241.74L46.62 242.08ZM430.8 237.47L428.65 237.41C428.74 234.61 428.79 231.79 428.82 229.04L430.97 229.06C430.94 231.83 430.88 234.65 430.8 237.47ZM44.23 225.41C43.91 222.61 43.64 219.79 43.41 217.03L45.54 216.86C45.77 219.6 46.05 222.4 46.37 225.18L44.23 225.41ZM428.83 220.67C428.81 217.87 428.75 215.06 428.67 212.31L430.81 212.25C430.9 215.01 430.95 217.84 430.98 220.66L428.83 220.67ZM42.84 208.63C42.7 205.81 42.61 202.97 42.56 200.21L44.71 200.18C44.75 202.92 44.84 205.73 44.99 208.52L42.84 208.63ZM428.32 203.96C428.18 201.16 428 198.35 427.79 195.61L429.92 195.46C430.14 198.21 430.32 201.04 430.47 203.85L428.32 203.96ZM44.73 191.83L42.58 191.79C42.64 188.96 42.76 186.13 42.93 183.37L45.07 183.49C44.9 186.22 44.79 189.03 44.73 191.83ZM427.04 187.28C426.76 184.49 426.43 181.69 426.08 178.98L428.21 178.72C428.56 181.45 428.89 184.26 429.18 187.08L427.04 187.28ZM45.75 175.18L43.61 174.97C43.9 172.15 44.26 169.34 44.67 166.6L46.79 166.9C46.39 169.6 46.04 172.39 45.75 175.18ZM424.88 170.71C424.43 167.93 423.94 165.16 423.42 162.48L425.53 162.09C426.05 164.79 426.55 167.58 427 170.39L424.88 170.71ZM171.23 170.41C168.25 169.96 166.09 168.64 163.1 166.36L164.46 164.75C167.08 166.74 168.96 167.93 171.45 168.34L171.23 170.41ZM178.67 165.46L176.76 164.51C177.74 162.64 178.61 160.05 179.34 156.81L181.43 157.25C180.65 160.72 179.75 163.4 178.67 165.46ZM156.81 160.39C155.1 158.54 153.27 156.41 151.23 153.89L152.91 152.6C154.93 155.09 156.73 157.18 158.4 159L156.81 160.39ZM48.22 158.68L46.12 158.28C46.67 155.5 47.3 152.73 47.99 150.04L50.07 150.54C49.39 153.2 48.77 155.93 48.22 158.68ZM421.69 154.3C421.05 151.55 420.37 148.82 419.65 146.19L421.72 145.66C422.45 148.31 423.14 151.07 423.78 153.84L421.69 154.3ZM182.87 148.87L180.75 148.6C181.08 146.12 181.37 143.39 181.65 140.28L183.79 140.46C183.51 143.6 183.21 146.35 182.87 148.87ZM145.97 147.18C144.23 144.89 142.42 142.47 140.86 140.39L142.6 139.16C144.16 141.25 145.96 143.66 147.7 145.94L145.97 147.18ZM302.99 147C301.32 147 299.69 146.52 298.12 145.56L299.27 143.8C301.61 145.24 303.92 145.24 306.41 144.1L307.34 145.98C305.86 146.66 304.4 147 302.99 147ZM52.35 142.52L50.3 141.91C51.15 139.2 52.09 136.51 53.08 133.91L55.09 134.63C54.11 137.2 53.19 139.85 52.35 142.52ZM314.35 140.53L312.77 139.12C314.4 137.41 316.14 135.3 318.1 132.67L319.84 133.89C317.83 136.59 316.03 138.76 314.35 140.53ZM292.03 139.1C290.64 137.02 289.26 134.57 287.82 131.61L289.76 130.72C291.16 133.59 292.49 135.96 293.82 137.97L292.03 139.1ZM417.28 138.18C416.42 135.48 415.5 132.82 414.54 130.28L416.56 129.57C417.52 132.14 418.46 134.83 419.33 137.56L417.28 138.18ZM135.78 133.6C133.82 130.99 132.18 128.85 130.64 126.87L132.35 125.61C133.9 127.6 135.54 129.75 137.51 132.37L135.78 133.6ZM184.43 132.05L182.29 131.91C182.45 129.47 182.62 126.73 182.8 123.53L184.94 123.64C184.76 126.85 184.59 129.6 184.43 132.05ZM58.3 126.92L56.34 126.08C57.52 123.49 58.77 120.95 60.11 118.46L62.01 119.42C60.7 121.87 59.46 124.37 58.3 126.92ZM324.75 126.92L322.96 125.77C324.49 123.52 326.06 121.14 327.65 118.73L329.46 119.86C327.86 122.27 326.28 124.66 324.75 126.92ZM284.37 123.84C283.4 121.47 282.39 118.89 281.3 115.94L283.32 115.24C284.4 118.16 285.4 120.72 286.36 123.07L284.37 123.84ZM411.39 122.54C410.23 119.93 409.01 117.4 407.76 115.01L409.67 114.06C410.95 116.49 412.19 119.07 413.36 121.72L411.39 122.54ZM125.34 120.27C123.39 117.92 121.58 115.83 119.8 113.88L121.41 112.5C123.21 114.47 125.04 116.59 127.01 118.96L125.34 120.27ZM185.38 115.24L183.24 115.13C183.39 112.35 183.53 109.56 183.68 106.73L185.83 106.84C185.67 109.67 185.53 112.45 185.38 115.24ZM334.16 112.82L332.37 111.67C334.16 109.04 335.76 106.76 337.27 104.71L339.02 105.92C337.53 107.95 335.94 110.21 334.16 112.82ZM66.26 112.23L64.45 111.11C66.14 108.55 67.88 106.23 69.62 104.23L71.26 105.58C69.58 107.51 67.9 109.75 66.26 112.23ZM278.44 108C277.45 105.2 276.49 102.4 275.67 100.02L277.71 99.37C278.52 101.73 279.48 104.53 280.47 107.32L278.44 108ZM113.91 107.85C111.71 105.78 109.56 103.95 107.5 102.41L108.81 100.76C110.93 102.34 113.15 104.23 115.4 106.36L113.91 107.85ZM403.6 107.76C402.06 105.33 400.45 103.02 398.81 100.91L400.52 99.66C402.2 101.82 403.85 104.18 405.43 106.67L403.6 107.76ZM77.27 99.91L75.97 98.25C78.53 96.35 81.2 94.99 83.9 94.18L84.52 96.18C82.07 96.9 79.63 98.16 77.27 99.91ZM344.19 99.27L342.52 97.96C344.54 95.55 346.44 93.47 348.35 91.62L349.87 93.09C348.01 94.89 346.15 96.92 344.19 99.27ZM186.31 98.45L184.17 98.33C184.35 95.3 184.54 92.55 184.73 89.92L186.87 90.07C186.68 92.69 186.49 95.43 186.31 98.45ZM100.41 98.02C97.73 96.72 95.1 95.9 92.58 95.56L92.88 93.5C95.62 93.86 98.48 94.76 101.36 96.15L100.41 98.02ZM393.29 94.65C391.23 92.59 389.09 90.78 386.94 89.26L388.2 87.57C390.45 89.16 392.68 91.05 394.83 93.19L393.29 94.65ZM272.94 92.05C271.87 88.95 270.99 86.43 270.17 84.1L272.2 83.43C273.02 85.76 273.9 88.29 274.97 91.39L272.94 92.05ZM356.29 87.77L355.06 86.07C357.69 84.27 360.36 82.95 362.98 82.12L363.64 84.1C361.22 84.86 358.75 86.1 356.29 87.77ZM379.69 85.22C377.03 84.13 374.34 83.46 371.7 83.22L371.9 81.15C374.76 81.41 377.66 82.13 380.52 83.3L379.69 85.22ZM187.55 81.71L185.42 81.52C185.69 78.6 185.98 75.78 186.28 73.13L188.41 73.37C188.11 75.99 187.82 78.8 187.55 81.71ZM267.32 76.18C266.28 73.37 265.3 70.8 264.33 68.33L266.33 67.58C267.31 70.07 268.29 72.65 269.34 75.48L267.32 76.18ZM189.51 65.06L187.38 64.76C187.82 61.85 188.29 59.04 188.8 56.43L190.91 56.81C190.41 59.4 189.94 62.17 189.51 65.06ZM261.14 60.55C259.99 57.86 258.83 55.28 257.69 52.89L259.64 52.02C260.79 54.43 261.96 57.03 263.12 59.75L261.14 60.55ZM192.73 48.66L190.65 48.16C191.4 45.25 192.22 42.51 193.1 40.01L195.13 40.69C194.27 43.13 193.46 45.81 192.73 48.66ZM253.88 45.42C252.47 42.84 251.03 40.41 249.6 38.22L251.41 37.1C252.87 39.35 254.34 41.81 255.78 44.44L253.88 45.42ZM198.35 33.05L196.43 32.13C197.83 29.36 199.4 26.91 201.07 24.85L202.75 26.14C201.17 28.09 199.69 30.41 198.35 33.05ZM244.68 31.46C242.81 29.18 240.88 27.16 238.94 25.45L240.37 23.91C242.4 25.69 244.41 27.79 246.36 30.16L244.68 31.46ZM208.74 20.74L207.58 18.98C210.12 17.4 212.92 16.38 215.9 15.93L216.23 17.99C213.54 18.39 211.02 19.32 208.74 20.74ZM232.17 20.74C229.67 19.43 227.07 18.54 224.43 18.08L224.81 16.03C227.67 16.52 230.49 17.49 233.19 18.9L232.17 20.74Z"/><path id="Vector" fill="#C3D6F4" fill-opacity="1" fill-rule="nonzero" d="M21.57 303.2C21.57 303.2 18.77 315.53 31.66 318.82C49.3 323.33 149.03 335.41 123.88 344.41C109.68 349.48 134.93 356.12 204.09 358.66C273.25 361.2 391.92 351.26 352.01 336.54C312.1 321.82 475.15 333.81 465.24 303.2L21.57 303.2Z"/><path id="Vector" fill="#D4E1FC" fill-opacity="1" fill-rule="nonzero" d="M99.85 302.34C99.85 302.34 49.72 164.93 87.31 135.69C112.43 116.15 136.96 165.35 168.75 142.56C197.05 122.27 178.93 74.87 206.49 52.02C240.37 23.91 296.98 163.46 336.75 141.81C399.3 107.76 437.54 161.48 394.11 302.59L99.85 302.34Z"/><path id="Vector" fill="#EEF7FF" fill-opacity="1" fill-rule="nonzero" d="M441.65 244.11C423.85 241.55 425.47 280.06 400.1 280.06C376.9 280.06 364.49 194.03 339.04 211.52C236.71 281.87 316.32 162.17 247.52 159.83C216.41 158.77 195.67 190.99 188.03 248.04C176.95 299.61 151.25 208.7 124.8 217.15C107.99 222.53 109.91 280.06 86.72 280.06C61.35 280.06 63.02 247.68 45.22 250.24C26.06 253 21.57 303.2 21.57 303.2L465.24 303.2C465.24 303.2 460.81 246.87 441.65 244.11Z"/><path id="Vector" fill="#D4E1FC" fill-opacity="1" fill-rule="nonzero" d="M424.58 284.51C408.21 283.41 410.88 293.31 387.54 293.31C366.2 293.31 366.79 271.14 352.51 266.42C326.21 257.74 304.53 301.67 294.33 279.62C274.97 221.13 218.5 191.8 192.44 279.62C182.25 301.67 158.4 262.33 134.27 266.42C119.41 268.94 120.58 293.31 99.24 293.31C75.9 293.31 78.57 283.41 62.2 284.51C44.57 285.69 39.3 303.2 39.3 303.2L447.47 303.2C447.47 303.2 442.21 285.69 424.58 284.51Z"/><path id="Vector" fill="#4867AA" fill-opacity="1" fill-rule="nonzero" d="M372.89 129.41L366.29 129.41L366.29 139.22L356.49 139.22L356.49 145.82L366.29 145.82L366.29 155.63L372.89 155.63L372.89 145.82L382.69 145.82L382.69 139.22L372.89 139.22L372.89 129.41Z"/><path id="Vector" fill="#4867AA" fill-opacity="1" fill-rule="evenodd" d="M267.37 113.08L293.56 113.08L293.56 119.68L267.37 119.68L267.37 113.08Z"/><path id="Vector" fill="#4867AA" fill-opacity="1" fill-rule="evenodd" d="M47.92 245.99L74.12 245.99L74.12 252.59L47.92 252.59L47.92 245.99Z"/><path id="Vector" fill="#4867AA" fill-opacity="1" fill-rule="evenodd" d="M47.92 255.92L74.12 255.92L74.12 262.53L47.92 262.53L47.92 255.92Z"/><path id="Vector" fill="#8C4225" fill-opacity="1" fill-rule="nonzero" d="M342.36 274.67C343.89 270.56 344.21 266.87 342.1 264.19C339.74 261.2 336.28 262.67 336.28 262.67L336.28 262.67C336.28 262.67 334.66 258.56 331.66 258.56C329.52 258.56 325.88 260.57 324.83 264.19C324.01 267 319.83 267.17 319.51 271.64C319.2 276.11 323.44 277.92 321.46 281.89C319.88 285.07 321.94 287.23 326.2 288.44C330.46 289.65 341.31 288.91 344.89 284.59C348.47 280.27 340.74 279.04 342.36 274.67Z"/><path id="Vector" fill="#F99370" fill-opacity="1" fill-rule="nonzero" d="M342.65 318.82C342.65 318.82 344.92 320.54 346.17 320.85C347.84 321.27 351.8 321.76 352.61 321.87C354.82 322.15 354.98 324.19 352.15 324.39L345.6 324.99C343.61 325.02 340.95 323.63 340.75 323.58C337.28 322.41 339.33 317.27 342.65 318.82Z"/><path id="Vector" fill="#7640CC" fill-opacity="1" fill-rule="nonzero" d="M310.39 309.41C310.39 309.41 327.51 306.42 354.27 309.18C354.27 309.18 339.98 315.67 332.05 315.86C324.12 316.05 310.39 309.41 310.39 309.41Z"/><path id="Vector" fill="#F99370" fill-opacity="1" fill-rule="nonzero" d="M329.19 289.29C329.26 289.25 329.36 289.19 329.43 289.15C329.43 289.14 329.43 289.14 329.44 289.14C326.68 291.86 324.95 295.35 323.07 298.78C321.8 301.01 319.51 305.02 323.17 306.11C325.13 306.11 325.14 309.11 323.17 309.12C322.8 309.15 322.4 309.18 322.02 309.16C315.03 308.74 314.9 300.73 316.82 295.65C318.6 290.94 320.7 285.69 324.84 282.48C329.48 279.33 334.01 286.42 329.19 289.29Z"/><path id="Vector" fill="#F99370" fill-opacity="1" fill-rule="nonzero" d="M336.05 289.29C335.98 289.25 335.88 289.19 335.81 289.15C335.81 289.14 335.81 289.14 335.8 289.14C338.56 291.86 340.29 295.35 342.17 298.78C343.44 301.01 345.73 305.02 342.07 306.11C340.11 306.11 340.1 309.11 342.07 309.12C342.44 309.15 342.84 309.18 343.22 309.16C350.21 308.74 350.34 300.73 348.42 295.65C346.64 290.94 344.54 285.69 340.4 282.48C335.76 279.33 331.23 286.42 336.05 289.29Z"/><path id="Vector" fill="#EB5648" fill-opacity="1" fill-rule="nonzero" d="M325.91 281.84L325.07 287.04L323.97 293.84L323.82 294.78C322.92 294.77 322.06 294.64 321.27 294.46C319.23 293.99 317.74 293.16 317.74 293.16C317.74 293.16 317.9 292.7 318.18 291.98C318.78 290.43 319.98 287.67 321.55 285.6C323.85 282.58 325.91 281.84 325.91 281.84Z"/><path id="Vector" fill="#EB5648" fill-opacity="1" fill-rule="nonzero" d="M347.82 293.52C347.82 293.52 346.35 294.2 344.25 294.57C343.15 294.77 341.86 294.89 340.52 294.78L340.48 293.84L340.45 293.29L339.9 281.69C339.9 281.69 344.64 282.51 347.47 292.22C347.59 292.64 347.7 293.07 347.82 293.52Z"/><path id="Vector" fill="#CE3932" fill-opacity="1" fill-rule="nonzero" d="M318.18 291.98C318.18 291.98 320.27 293 323.97 293.84L323.82 294.78C322.92 294.77 322.06 294.64 321.27 294.46C319.23 293.99 317.74 293.16 317.74 293.16C317.74 293.16 317.9 292.7 318.18 291.98Z"/><path id="Vector" fill="#CE3932" fill-opacity="1" fill-rule="nonzero" d="M347.82 293.52C347.82 293.52 346.35 294.2 344.25 294.57C343.15 294.77 341.86 294.89 340.52 294.78L340.48 293.84C343.15 293.47 345.63 292.94 347.47 292.22C347.59 292.64 347.7 293.07 347.82 293.52Z"/><path id="Vector" fill="#CE3932" fill-opacity="1" fill-rule="nonzero" d="M325.07 285.42L325.07 287.04L323.82 294.78C322.92 294.77 322.06 294.64 321.27 294.46C321.36 293.64 321.6 292.25 322.28 290.96C323.33 288.98 325.07 285.42 325.07 285.42Z"/><path id="Vector" fill="#CE3932" fill-opacity="1" fill-rule="nonzero" d="M344.25 294.57C343.15 294.77 341.86 294.89 340.52 294.78L340.45 293.29L340.73 285.42C340.73 285.42 341.57 288.26 342.9 290.46C343.78 291.91 344.12 293.6 344.25 294.57Z"/><path id="Vector" fill="#EB5648" fill-opacity="1" fill-rule="nonzero" d="M345.76 307.99C341.78 309.83 337.27 310.63 332.99 310.63C328.71 310.63 323.86 309.73 319.88 307.89C320.05 304.22 324 301.59 322.18 297.15C321.32 295.06 322.33 292.41 323.13 290.69C323.31 290.3 323.48 289.96 323.62 289.69C324.83 287.21 325.91 281.85 325.91 281.85L326.59 281.55C328.65 280.77 330.79 280.71 330.79 280.71L335.19 280.71C335.19 280.71 337.2 280.69 339.17 281.4L339.9 281.69C340.14 281.89 340.89 287.1 341.84 289.79C342.49 291.63 344.2 294.21 343.17 297.36C341.51 302.44 345.61 304.8 345.76 307.99Z"/><path id="Vector" fill="#F99370" fill-opacity="1" fill-rule="nonzero" d="M335.19 280.17L335.19 275.5L330.79 275.5L330.79 280.2C330.79 280.2 327.75 281.11 326.59 281.55C326.63 281.62 329.28 286.37 332.99 287.78C332.99 287.78 337.67 285.18 339.17 281.4C338.11 281.02 335.19 280.17 335.19 280.17Z"/><path id="Vector" fill="#F99370" fill-opacity="1" fill-rule="nonzero" d="M340.11 271.1C339.92 272.03 339.15 272.66 338.4 272.5C337.66 272.34 337.21 271.46 337.41 270.53C337.6 269.6 338.37 268.98 339.12 269.13C339.86 269.29 340.31 270.17 340.11 271.1Z"/><path id="Vector" fill="#C16256" fill-opacity="1" fill-rule="nonzero" d="M339.48 271.54C339.47 271.54 339.46 271.54 339.45 271.54C339.39 271.52 339.36 271.46 339.38 271.4C339.57 270.76 339.57 270.32 339.36 270.13C339.13 269.92 338.67 270.03 338.51 270.1C338.46 270.12 338.39 270.09 338.37 270.03C338.35 269.98 338.38 269.92 338.43 269.89C338.46 269.88 339.13 269.63 339.51 269.97C339.78 270.23 339.81 270.73 339.59 271.47C339.57 271.51 339.53 271.54 339.48 271.54Z"/><path id="Vector" fill="#C16256" fill-opacity="1" fill-rule="nonzero" d="M338.47 271.39C338.46 271.39 338.44 271.39 338.43 271.38C338.37 271.36 338.35 271.29 338.37 271.24C338.39 271.2 338.77 270.32 339.6 270.27C339.66 270.26 339.71 270.31 339.71 270.37C339.72 270.43 339.67 270.48 339.61 270.49C338.92 270.53 338.57 271.32 338.57 271.32C338.55 271.37 338.51 271.39 338.47 271.39Z"/><path id="Vector" fill="#F99370" fill-opacity="1" fill-rule="nonzero" d="M326.13 271.1C326.32 272.03 327.09 272.66 327.84 272.5C328.58 272.34 329.03 271.46 328.83 270.53C328.64 269.6 327.87 268.98 327.12 269.13C326.38 269.29 325.93 270.17 326.13 271.1Z"/><path id="Vector" fill="#C16256" fill-opacity="1" fill-rule="nonzero" d="M326.76 271.54C326.71 271.54 326.67 271.51 326.65 271.47C326.43 270.73 326.46 270.23 326.73 269.97C327.11 269.63 327.78 269.88 327.81 269.89C327.86 269.92 327.89 269.98 327.87 270.03C327.85 270.09 327.78 270.12 327.73 270.1C327.72 270.09 327.16 269.88 326.88 270.13C326.67 270.32 326.67 270.76 326.86 271.4C326.88 271.46 326.85 271.52 326.79 271.54C326.78 271.54 326.77 271.54 326.76 271.54Z"/><path id="Vector" fill="#C16256" fill-opacity="1" fill-rule="nonzero" d="M327.77 271.39C327.73 271.39 327.69 271.37 327.67 271.32C327.66 271.32 327.32 270.53 326.63 270.49C326.57 270.48 326.52 270.43 326.53 270.37C326.53 270.31 326.58 270.26 326.64 270.27C327.47 270.32 327.85 271.2 327.87 271.24C327.89 271.29 327.87 271.36 327.81 271.38C327.8 271.39 327.78 271.39 327.77 271.39Z"/><path id="Vector" fill="#E57D61" fill-opacity="1" fill-rule="nonzero" d="M335.19 279.02L335.19 276.68L330.79 276.68L330.79 279.02C330.79 279.02 332.99 280.18 335.19 279.02Z"/><path id="Vector" fill="#F99370" fill-opacity="1" fill-rule="nonzero" d="M327.6 273.59C327.8 280.19 338.05 280.37 338.59 273.84C338.7 271.45 337.94 270.68 337.62 267.7C337.05 262.28 329.36 261.99 328.67 267.66C328.4 269.89 327.58 271.55 327.6 273.59Z"/><path id="Vector" fill="#C16256" fill-opacity="1" fill-rule="nonzero" d="M331.64 270.28C331.72 270.13 331.66 269.95 331.51 269.88C331.37 269.81 331.19 269.87 331.12 270.01C331.05 270.15 331.1 270.33 331.25 270.4C331.39 270.48 331.57 270.42 331.64 270.28Z"/><path id="Vector" fill="#C16256" fill-opacity="1" fill-rule="nonzero" d="M335.15 270.28C335.23 270.14 335.17 269.96 335.03 269.89C334.88 269.81 334.71 269.87 334.63 270.02C334.56 270.16 334.62 270.34 334.76 270.41C334.9 270.48 335.08 270.43 335.15 270.28Z"/><path id="Vector" fill="#C16256" fill-opacity="1" fill-rule="nonzero" d="M333.38 272.83C333.27 272.83 333.15 272.81 333.06 272.78C333 272.76 332.96 272.7 332.98 272.64C333 272.58 333.06 272.55 333.12 272.57C333.49 272.69 334.02 272.5 334.09 272.33C334.12 272.27 334.04 272.21 333.97 272.18C333.34 271.83 332.92 270.64 332.9 270.59C332.88 270.54 332.91 270.47 332.97 270.45C333.02 270.43 333.09 270.46 333.11 270.52C333.11 270.53 333.52 271.68 334.07 271.98C334.37 272.14 334.33 272.34 334.3 272.42C334.2 272.66 333.77 272.83 333.38 272.83Z"/><path id="Vector" fill="#C16256" fill-opacity="1" fill-rule="nonzero" d="M333.41 274.49C332.71 274.49 332.17 274.21 332.14 274.19C332.08 274.16 332.06 274.1 332.09 274.04C332.12 273.99 332.19 273.97 332.24 274C332.25 274 333.41 274.6 334.44 274C334.49 273.97 334.56 273.99 334.59 274.04C334.62 274.09 334.6 274.16 334.55 274.19C334.16 274.42 333.76 274.49 333.41 274.49Z"/><path id="Vector" fill="#8C4225" fill-opacity="1" fill-rule="nonzero" d="M335.51 264.19C335.51 264.19 334.85 268.14 328.31 269.54C328.31 269.54 327.94 266.14 329.31 264.19C330.67 262.25 334.4 262.08 335.51 264.19Z"/><path id="Vector" fill="#8C4225" fill-opacity="1" fill-rule="nonzero" d="M335.51 264.19C335.51 264.19 335.21 267.95 337.92 269.55C337.92 269.55 338.61 265.29 335.51 264.19Z"/><path id="Vector" fill="#CE3932" fill-opacity="1" fill-rule="nonzero" d="M325.91 281.84C325.91 281.84 328.5 287.21 332.99 288.72C332.99 288.72 337.98 286.99 339.9 281.69C339.9 281.69 339.25 281.31 338.77 281.26C338.77 281.26 336.74 285.42 332.99 287.44C332.99 287.44 329.52 285.81 327 281.4C327 281.4 326.4 281.45 325.91 281.84Z"/><path id="Vector" fill="#163260" fill-opacity="1" fill-rule="nonzero" d="M345.99 312.18L318.88 312.18L318.88 296.32C318.88 295.96 319.17 295.67 319.53 295.67L345.34 295.67C345.69 295.67 345.99 295.96 345.99 296.32L345.99 312.18Z"/><path id="Vector" fill="#9358E0" fill-opacity="1" fill-rule="nonzero" d="M342.16 325.26C342.1 325.27 341.49 325.27 340.46 325.24C339.33 325.2 337.7 325.12 335.76 324.99C335.63 324.98 335.51 324.97 335.39 324.97C334.91 324.93 334.42 324.9 333.91 324.85C333.28 324.8 332.63 324.75 331.96 324.68C320.51 323.62 303.76 320.71 305.82 313.18C308.59 303.02 336.02 314.89 342.43 317.82C343.29 318.21 343.77 318.44 343.77 318.44C345.05 322.28 342.16 325.26 342.16 325.26Z"/><path id="Vector" fill="#7640CC" fill-opacity="1" fill-rule="nonzero" d="M343.08 321.2L342.52 323.31L335.39 324.97C334.91 324.93 334.42 324.9 333.91 324.85C333.28 324.8 332.63 324.75 331.96 324.68L331.42 323.08L343.08 321.2Z"/><path id="Vector" fill="#7640CC" fill-opacity="1" fill-rule="nonzero" d="M342.16 325.26C342.1 325.27 341.49 325.27 340.46 325.24C340.46 325.24 343.64 322.2 342.43 317.82C343.29 318.21 343.77 318.44 343.77 318.44C345.05 322.28 342.16 325.26 342.16 325.26Z"/><path id="Vector" fill="#F99370" fill-opacity="1" fill-rule="nonzero" d="M322.46 319.77C322.46 319.77 320.37 321.7 319.16 322.13C317.53 322.71 313.64 323.57 312.84 323.75C310.66 324.25 310.7 326.29 313.54 326.22L320.11 326.19C322.1 326.03 324.61 324.39 324.81 324.32C328.15 322.82 325.62 317.91 322.46 319.77Z"/><path id="Vector" fill="#9358E0" fill-opacity="1" fill-rule="nonzero" d="M325.26 325.98C324.35 326.1 323.81 326.15 323.75 326.15C323.75 326.15 320.59 323.46 321.5 319.51C321.5 319.51 321.97 319.23 322.8 318.75C328.95 315.19 355.05 300.8 358.77 310.63C362.44 320.31 332.42 325.07 325.26 325.98Z"/><path id="Vector" fill="#7640CC" fill-opacity="1" fill-rule="nonzero" d="M325.26 325.98C324.35 326.1 323.81 326.15 323.75 326.15C323.75 326.15 320.59 323.46 321.5 319.51C321.5 319.51 321.96 319.17 322.8 318.75C322.8 318.75 322.24 322.92 325.26 325.98Z"/><path id="Vector" fill="#7640CC" fill-opacity="1" fill-rule="nonzero" d="M322.56 319.07C322.53 319.07 322.5 319.06 322.49 319.03C322.46 318.98 322.48 318.93 322.52 318.9C322.6 318.86 330.25 314.42 333.62 312.86C333.67 312.84 333.72 312.86 333.75 312.9C333.77 312.95 333.75 313 333.7 313.03C330.33 314.58 322.69 319.02 322.61 319.06C322.6 319.07 322.58 319.07 322.56 319.07Z"/><path id="Vector" fill="#C16256" fill-opacity="1" fill-rule="nonzero" d="M335.82 269.3C335.8 269.3 335.78 269.29 335.76 269.28C334.94 268.64 334.17 268.9 334.14 268.91C334.08 268.93 334.02 268.9 334 268.84C333.98 268.78 334.01 268.72 334.07 268.7C334.1 268.69 334.98 268.39 335.89 269.1C335.94 269.14 335.95 269.21 335.91 269.26C335.89 269.29 335.86 269.3 335.82 269.3Z"/><path id="Vector" fill="#C16256" fill-opacity="1" fill-rule="nonzero" d="M330.69 269.3C330.66 269.3 330.63 269.29 330.61 269.26C330.57 269.22 330.57 269.15 330.62 269.11C330.65 269.08 331.33 268.52 332.49 268.75C332.55 268.76 332.59 268.82 332.57 268.88C332.56 268.94 332.5 268.98 332.44 268.97C331.39 268.76 330.77 269.27 330.77 269.28C330.74 269.29 330.72 269.3 330.69 269.3Z"/><path id="Vector" fill="#11CE18" fill-opacity="1" fill-rule="nonzero" d="M81.5 214.21C65.49 214.21 52.47 201.18 52.47 185.15C52.47 169.13 65.49 156.09 81.5 156.09C97.51 156.09 110.53 169.13 110.53 185.15C110.53 201.18 97.51 214.21 81.5 214.21ZM81.5 157.96C66.52 157.96 54.34 170.16 54.34 185.15C54.34 200.14 66.52 212.34 81.5 212.34C96.47 212.34 108.66 200.14 108.66 185.15C108.66 170.16 96.47 157.96 81.5 157.96Z"/><path id="Vector" fill="#11CE18" fill-opacity="1" fill-rule="nonzero" d="M81.5 214.03C80.79 214.03 80.08 213.82 79.4 213.41L80.18 212.13C81.06 212.66 81.95 212.66 82.84 212.12L83.62 213.4C82.93 213.81 82.22 214.03 81.5 214.03ZM76.7 210.49C76.12 209.53 75.57 208.38 75.06 207.07L76.46 206.53C76.93 207.76 77.44 208.83 77.98 209.71L76.7 210.49ZM86.31 210.47L85.03 209.69C85.57 208.81 86.08 207.74 86.55 206.51L87.95 207.05C87.44 208.36 86.89 209.51 86.31 210.47ZM73.91 203.51C73.6 202.38 73.32 201.16 73.08 199.89L74.55 199.6C74.79 200.84 75.06 202.02 75.36 203.12L73.91 203.51ZM89.09 203.49L87.65 203.1C87.94 202 88.22 200.81 88.45 199.58L89.93 199.87C89.68 201.13 89.4 202.35 89.09 203.49ZM72.48 196.23C72.32 195.04 72.18 193.81 72.07 192.56L73.56 192.43C73.67 193.65 73.8 194.86 73.96 196.03L72.48 196.23ZM90.52 196.21L89.04 196.01C89.2 194.84 89.33 193.63 89.44 192.4L90.93 192.53C90.82 193.78 90.69 195.02 90.52 196.21ZM71.84 188.87C71.79 187.65 71.76 186.41 71.76 185.18L73.26 185.17C73.26 186.39 73.28 187.61 73.33 188.81L71.84 188.87ZM91.16 188.84L89.67 188.78C89.72 187.59 89.74 186.37 89.74 185.15L89.74 185.1L91.24 185.1L91.24 185.15C91.24 186.39 91.21 187.63 91.16 188.84ZM73.33 181.54L71.83 181.48C71.89 180.24 71.96 179 72.07 177.79L73.56 177.92C73.46 179.1 73.38 180.32 73.33 181.54ZM89.66 181.47C89.61 180.25 89.53 179.04 89.43 177.85L90.93 177.72C91.03 178.93 91.11 180.17 91.16 181.41L89.66 181.47ZM73.96 174.32L72.47 174.12C72.64 172.86 72.84 171.63 73.07 170.46L74.54 170.74C74.32 171.89 74.12 173.09 73.96 174.32ZM89.03 174.25C88.87 173.02 88.67 171.82 88.45 170.68L89.92 170.39C90.14 171.56 90.35 172.79 90.52 174.04L89.03 174.25ZM75.35 167.23L73.9 166.84C74.24 165.55 74.63 164.36 75.04 163.28L76.44 163.81C76.05 164.85 75.68 165.99 75.35 167.23ZM87.63 167.16C87.3 165.93 86.93 164.78 86.53 163.75L87.93 163.21C88.34 164.29 88.73 165.48 89.08 166.77L87.63 167.16ZM77.96 160.64L76.68 159.86C77.51 158.49 78.41 157.51 79.36 156.92L80.14 158.2C79.4 158.66 78.66 159.48 77.96 160.64ZM85.01 160.58C84.3 159.42 83.56 158.61 82.81 158.17L83.57 156.88C84.53 157.45 85.44 158.43 86.28 159.79L85.01 160.58Z"/><path id="Vector" fill="#11CE18" fill-opacity="1" fill-rule="nonzero" d="M81.55 194.9L81.5 194.9C80.26 194.9 79.02 194.88 77.81 194.83L77.87 193.33C79.07 193.38 80.29 193.4 81.5 193.4L81.55 193.4L81.55 194.9ZM85.24 194.82L85.17 193.32C86.39 193.27 87.61 193.19 88.79 193.09L88.92 194.59C87.72 194.69 86.48 194.77 85.24 194.82ZM74.12 194.59C72.88 194.48 71.64 194.35 70.45 194.19L70.65 192.7C71.82 192.86 73.03 192.99 74.25 193.1L74.12 194.59ZM92.59 194.18L92.39 192.69C93.62 192.53 94.82 192.33 95.96 192.11L96.25 193.58C95.08 193.81 93.85 194.01 92.59 194.18ZM66.8 193.59C65.53 193.34 64.32 193.06 63.18 192.75L63.57 191.3C64.67 191.6 65.85 191.87 67.08 192.11L66.8 193.59ZM99.87 192.74L99.47 191.29C100.71 190.96 101.85 190.59 102.88 190.19L103.42 191.59C102.34 192 101.15 192.39 99.87 192.74ZM59.63 191.61C58.31 191.1 57.17 190.55 56.21 189.96L56.99 188.68C57.87 189.22 58.94 189.73 60.16 190.21L59.63 191.61ZM106.83 189.94L106.05 188.66C107.2 187.95 108.01 187.21 108.46 186.46L109.74 187.23C109.17 188.19 108.19 189.1 106.83 189.94ZM53.28 187.27C52.87 186.59 52.65 185.87 52.65 185.15C52.65 184.44 52.86 183.73 53.27 183.05L54.55 183.83C54.29 184.27 54.15 184.71 54.15 185.15C54.15 185.59 54.29 186.05 54.56 186.49L53.28 187.27ZM108.43 183.79C107.97 183.05 107.15 182.31 105.99 181.61L106.77 180.33C108.13 181.15 109.12 182.06 109.7 183.01L108.43 183.79ZM56.97 181.63L56.19 180.35C57.14 179.77 58.29 179.21 59.6 178.71L60.14 180.11C58.92 180.58 57.85 181.09 56.97 181.63ZM102.81 180.09C101.78 179.69 100.64 179.32 99.4 178.99L99.8 177.54C101.08 177.89 102.27 178.27 103.35 178.69L102.81 180.09ZM63.55 179L63.16 177.56C64.29 177.25 65.51 176.97 66.77 176.72L67.06 178.19C65.83 178.43 64.65 178.71 63.55 179ZM95.89 178.18C94.75 177.96 93.55 177.77 92.32 177.6L92.52 176.11C93.78 176.28 95.01 176.48 96.18 176.71L95.89 178.18ZM70.63 177.61L70.43 176.12C71.62 175.96 72.85 175.82 74.1 175.71L74.23 177.21C73.01 177.31 71.8 177.45 70.63 177.61ZM88.72 177.2C87.54 177.1 86.32 177.03 85.1 176.98L85.16 175.48C86.41 175.53 87.65 175.61 88.85 175.71L88.72 177.2ZM77.85 176.98L77.79 175.48C79 175.43 80.24 175.4 81.48 175.4L81.48 176.9C80.26 176.9 79.04 176.93 77.85 176.98Z"/><path id="Vector" fill="#11CE18" fill-opacity="1" fill-rule="nonzero" d="M81.87 211.31L80.94 211.31L80.94 209.43L81.87 209.43L81.87 211.31ZM81.87 207.56L80.94 207.56L80.94 205.68L81.87 205.68L81.87 207.56ZM81.87 203.81L80.94 203.81L80.94 201.93L81.87 201.93L81.87 203.81ZM81.87 200.06L80.94 200.06L80.94 198.18L81.87 198.18L81.87 200.06ZM81.87 196.31L80.94 196.31L80.94 194.43L81.87 194.43L81.87 196.31ZM81.87 192.56L80.94 192.56L80.94 190.68L81.87 190.68L81.87 192.56ZM81.87 188.81L80.94 188.81L80.94 186.93L81.87 186.93L81.87 188.81ZM81.87 185.06L80.94 185.06L80.94 183.18L81.87 183.18L81.87 185.06ZM81.87 181.31L80.94 181.31L80.94 179.43L81.87 179.43L81.87 181.31ZM81.87 177.56L80.94 177.56L80.94 175.68L81.87 175.68L81.87 177.56ZM81.87 173.81L80.94 173.81L80.94 171.93L81.87 171.93L81.87 173.81ZM81.87 170.06L80.94 170.06L80.94 168.18L81.87 168.18L81.87 170.06ZM81.87 166.31L80.94 166.31L80.94 164.43L81.87 164.43L81.87 166.31ZM81.87 162.56L80.94 162.56L80.94 160.68L81.87 160.68L81.87 162.56ZM81.87 158.81L80.94 158.81L80.94 156.93L81.87 156.93L81.87 158.81Z"/><path id="Vector" fill="#11CE18" fill-opacity="1" fill-rule="nonzero" d="M109.5 185.53L107.63 185.53L107.63 184.59L109.5 184.59L109.5 185.53ZM105.76 185.53L103.88 185.53L103.88 184.59L105.76 184.59L105.76 185.53ZM102.01 185.53L100.14 185.53L100.14 184.59L102.01 184.59L102.01 185.53ZM98.26 185.53L96.39 185.53L96.39 184.59L98.26 184.59L98.26 185.53ZM94.52 185.53L92.64 185.53L92.64 184.59L94.52 184.59L94.52 185.53ZM90.77 185.53L88.9 185.53L88.9 184.59L90.77 184.59L90.77 185.53ZM87.02 185.53L85.15 185.53L85.15 184.59L87.02 184.59L87.02 185.53ZM83.28 185.53L81.41 185.53L81.41 184.59L83.28 184.59L83.28 185.53ZM79.53 185.53L77.66 185.53L77.66 184.59L79.53 184.59L79.53 185.53ZM75.79 185.53L73.91 185.53L73.91 184.59L75.79 184.59L75.79 185.53ZM72.04 185.53L70.17 185.53L70.17 184.59L72.04 184.59L72.04 185.53ZM68.29 185.53L66.42 185.53L66.42 184.59L68.29 184.59L68.29 185.53ZM64.55 185.53L62.67 185.53L62.67 184.59L64.55 184.59L64.55 185.53ZM60.8 185.53L58.93 185.53L58.93 184.59L60.8 184.59L60.8 185.53ZM57.06 185.53L55.18 185.53L55.18 184.59L57.06 184.59L57.06 185.53Z"/><path id="_x37_" fill="#11CE18" fill-opacity="1" fill-rule="nonzero" d="M340.6 233.15L332.52 228.48L332.52 232.22L310.07 232.22L310.07 209.75L313.81 209.75L309.14 201.65L304.47 209.75L308.2 209.75L308.2 234.09L332.52 234.09L332.52 237.83L340.6 233.15Z"/><path id="Vector" fill="#ED8569" fill-opacity="1" fill-rule="nonzero" d="M182.91 205.88C183.78 208.31 182.1 207.08 185.79 207.31C186.56 207.36 188.19 207.3 187.38 205.71C186.72 203.89 187.29 198.82 186.87 196.93C184.96 188.49 178.5 193.51 182.91 205.88Z"/><path id="Vector" fill="#EB5648" fill-opacity="1" fill-rule="nonzero" d="M187.91 208.75C187.89 209.31 187.63 209.94 187 209.94L175.36 210.19C174.76 210.21 174.32 209.61 174.52 209.05C174.94 207.77 176.81 205.54 182.77 205.47C182.77 205.47 184.71 206.01 187.26 205.29C187.26 205.29 188.12 206.67 187.91 208.75Z"/><path id="Vector" fill="#E8C0A6" fill-opacity="1" fill-rule="nonzero" d="M178.1 208.56C178.13 208.56 178.16 208.55 178.19 208.54C178.32 208.48 178.37 208.34 178.32 208.21C177.76 206.92 176.76 206.53 176.72 206.52C176.59 206.47 176.45 206.54 176.4 206.66C176.35 206.79 176.42 206.93 176.54 206.98C176.58 207 177.39 207.32 177.86 208.41C177.91 208.5 178 208.56 178.1 208.56Z"/><path id="Vector" fill="#E8C0A6" fill-opacity="1" fill-rule="nonzero" d="M180.01 208.28C180.04 208.28 180.06 208.28 180.09 208.27C180.22 208.23 180.29 208.09 180.24 207.96C179.76 206.5 178.49 205.86 178.43 205.83C178.31 205.77 178.16 205.82 178.1 205.94C178.04 206.07 178.09 206.21 178.21 206.27C178.22 206.28 179.35 206.85 179.77 208.12C179.81 208.22 179.91 208.29 180.01 208.28Z"/><path id="Vector" fill="#E8C0A6" fill-opacity="1" fill-rule="nonzero" d="M182.2 207.97C182.22 207.97 182.25 207.96 182.28 207.95C182.4 207.9 182.47 207.76 182.42 207.63C181.87 206.16 180.69 205.4 180.64 205.37C180.52 205.29 180.37 205.33 180.3 205.44C180.22 205.56 180.26 205.71 180.37 205.78C180.38 205.79 181.47 206.49 181.96 207.81C182 207.91 182.09 207.97 182.2 207.97Z"/><path id="Vector" fill="#CE3932" fill-opacity="1" fill-rule="nonzero" d="M174.52 209.05L187.91 208.75C187.87 209.16 187.77 209.56 187.57 209.93L175.36 210.19C174.76 210.21 174.33 209.63 174.51 209.07C174.51 209.06 174.52 209.05 174.52 209.05Z"/><path id="Vector" fill="#F99370" fill-opacity="1" fill-rule="nonzero" d="M200.09 213.15C201.35 215.26 199.73 215.82 202.6 214.77C204.49 213.93 205.11 213.72 204.4 212C203.84 209.94 203.2 205.97 202.79 203.88C201.73 197.5 193.26 201.74 200.09 213.15Z"/><path id="Vector" fill="#EB5648" fill-opacity="1" fill-rule="nonzero" d="M205.89 215.15C206 215.69 205.91 216.36 205.29 216.52L194.07 219.63C193.49 219.79 192.92 219.32 192.97 218.72C193.07 217.38 193.99 214.76 200.12 213.22C200.12 213.22 202.09 213.33 204.38 211.9C204.38 211.9 205.58 213.08 205.89 215.15Z"/><path id="Vector" fill="#E8C0A6" fill-opacity="1" fill-rule="nonzero" d="M196.32 217.37C196.35 217.36 196.38 217.35 196.41 217.33C196.52 217.24 196.54 217.09 196.46 216.98C195.59 215.86 194.53 215.73 194.49 215.73C194.35 215.72 194.23 215.81 194.22 215.95C194.2 216.08 194.3 216.21 194.43 216.22C194.47 216.22 195.34 216.34 196.06 217.28C196.13 217.36 196.23 217.39 196.32 217.37Z"/><path id="Vector" fill="#E8C0A6" fill-opacity="1" fill-rule="nonzero" d="M198.12 216.63C198.14 216.62 198.16 216.61 198.18 216.6C198.3 216.53 198.33 216.37 198.26 216.26C197.43 214.96 196.04 214.65 195.98 214.64C195.85 214.61 195.72 214.7 195.69 214.83C195.66 214.96 195.74 215.1 195.88 215.12C195.89 215.13 197.12 215.41 197.84 216.53C197.9 216.62 198.01 216.66 198.12 216.63Z"/><path id="Vector" fill="#E8C0A6" fill-opacity="1" fill-rule="nonzero" d="M200.15 215.79C200.18 215.78 200.2 215.77 200.23 215.75C200.34 215.68 200.37 215.52 200.29 215.41C199.39 214.11 198.06 213.67 198.01 213.65C197.88 213.61 197.74 213.68 197.69 213.81C197.65 213.94 197.72 214.08 197.85 214.12C197.86 214.12 199.09 214.53 199.88 215.69C199.94 215.78 200.05 215.82 200.15 215.79Z"/><path id="Vector" fill="#CE3932" fill-opacity="1" fill-rule="nonzero" d="M192.97 218.72L205.89 215.15C205.95 215.55 205.94 215.97 205.84 216.37L194.07 219.63C193.5 219.78 192.93 219.33 192.97 218.74C192.97 218.74 192.97 218.73 192.97 218.72Z"/><path id="Vector" fill="#CE4ABF" fill-opacity="1" fill-rule="nonzero" d="M178.83 200.04C179.01 201.51 179.16 202.39 179.17 202.48C179.17 202.48 183.77 203.42 189.9 202.48C189.94 194.42 189.89 179.43 195.84 174.47C197.22 173.54 200.73 171.07 203.34 169.54C209.88 166.36 219.58 163.91 222.25 157.74C218.72 156.28 211.36 153.23 207.8 151.76C178.86 154.92 176.08 180.99 178.83 200.04Z"/><path id="Vector" fill="#A523A2" fill-opacity="1" fill-rule="nonzero" d="M190.12 193.1C191.07 179.79 192.46 175.34 203.34 169.54L208.45 157.83C194.69 162.1 182.99 176.23 190.12 193.1Z"/><path id="Vector" fill="#CE4ABF" fill-opacity="1" fill-rule="nonzero" d="M190.27 190.96C191.62 198.7 193.93 204.79 195.84 210.91C195.84 210.91 203.37 211.39 207.14 207.41C205.52 201.4 202.68 189.72 205.77 181C207 177.8 210.22 172.79 219.88 169.95C231.93 166.42 230.1 155.47 230.1 155.47C225.89 147.29 218.13 154.49 215.85 155.09C196.63 160.9 185.76 173.03 190.27 190.96Z"/><path id="Vector" fill="#A523A2" fill-opacity="1" fill-rule="nonzero" d="M195.12 208.65L195.84 210.91C195.84 210.91 203.37 211.39 207.14 207.41C207.14 207.41 206.9 206.53 206.56 205.17C206.56 205.17 202.39 209.7 195.12 208.65Z"/><path id="Vector" fill="#A523A2" fill-opacity="1" fill-rule="nonzero" d="M178.83 200.04C179.01 201.51 179.16 202.39 179.17 202.48C179.17 202.48 183.77 203.42 189.9 202.48C189.9 202.51 189.92 200.29 189.92 200.29C189.92 200.29 183.83 201.61 178.83 200.04Z"/><path id="Vector" fill="#F99370" fill-opacity="1" fill-rule="nonzero" d="M227.72 131.89C242.06 123.2 245.92 110.13 242.85 94.18C242.39 91.94 239.01 92.42 239.17 94.69C239.22 107.36 233.35 117.04 220.8 121.59C220.81 121.59 221.11 134.93 227.72 131.89Z"/><path id="Vector" fill="#1D3F70" fill-opacity="1" fill-rule="nonzero" d="M238.35 127.69L238.35 127.69C238.35 127.69 238.35 127.69 238.35 127.69C238.2 127.88 238.05 128.06 237.89 128.25C235.96 130.52 233.92 133.33 231.36 135.14C231.35 135.14 231.35 135.14 231.35 135.14C230.45 135.79 229.48 136.3 228.43 136.63C226.65 135.79 220.47 129.69 220.5 120.64C228.53 117.94 237.33 112.91 239.14 96.52C239.14 96.52 241.54 97.4 243.3 96.82C245.43 105.67 245.96 118.3 238.35 127.69Z"/><path id="Vector" fill="#103663" fill-opacity="1" fill-rule="nonzero" d="M243.59 98.21C241.57 98.9 239.06 97.91 238.98 97.87C239.04 97.43 239.09 96.98 239.14 96.52C239.14 96.52 241.54 97.4 243.3 96.82C243.3 96.82 243.42 97.33 243.59 98.21Z"/><path id="Vector" fill="#F99370" fill-opacity="1" fill-rule="nonzero" d="M213.4 131.63C197.03 127.96 189.21 116.8 187.06 100.7C186.78 98.44 190.09 97.83 190.66 100.04C194.73 111.93 201.31 120.27 214.64 120.56C214.64 120.56 214.63 120.55 214.62 120.55C221.86 121.39 220.63 132.4 213.4 131.63Z"/><path id="Vector" fill="#1D3F70" fill-opacity="1" fill-rule="nonzero" d="M216.05 120.32L206.82 134C206.82 134 206.15 133.65 205.1 132.98C203.42 131.91 200.76 130 198.3 127.34C190.93 119.32 187.68 107.48 187.34 102.6C189.87 102.83 191.2 101.45 191.2 101.45C191.37 101.83 191.56 102.22 191.76 102.62L191.76 102.62C196.98 113.6 206.34 120.68 216.05 120.32Z"/><path id="Vector" fill="#103663" fill-opacity="1" fill-rule="nonzero" d="M191.76 102.62L191.76 102.62C190.3 104.05 187.51 104.01 187.51 104.01C187.38 103.12 187.34 102.6 187.34 102.6C189.87 102.83 191.2 101.45 191.2 101.45C191.37 101.83 191.56 102.22 191.76 102.62Z"/><path id="Vector" fill="#F99370" fill-opacity="1" fill-rule="nonzero" d="M216.05 120.32C215.95 117.9 216.58 114.46 217.02 113.06C217.82 110.3 222.2 111.71 221.26 114.42C221.12 114.32 220.29 119.37 220.51 120.81C224.6 122.37 211.72 125.58 216.05 120.32Z"/><path id="Vector" fill="#E57D61" fill-opacity="1" fill-rule="nonzero" d="M221.32 114.19C221.31 114.22 221.3 114.25 221.3 114.28C221.28 114.33 221.27 114.37 221.26 114.42C221.16 114.34 220.67 117.13 220.52 119.17C218.54 119.9 216.43 119.36 216.04 119.25C216.11 117.09 216.64 114.44 216.89 113.46C216.96 113.23 217.01 113.09 217.02 113.06C217.04 113 217.06 112.94 217.08 112.88C217.34 112.26 217.86 111.81 218.47 111.62C218.47 111.62 218.47 111.62 218.47 111.62C218.9 111.48 219.36 111.48 219.82 111.62C220.27 111.77 220.64 112.04 220.9 112.39C220.92 112.4 220.93 112.42 220.94 112.43C221.29 112.92 221.45 113.56 221.32 114.19Z"/><path id="Vector" fill="#C92828" fill-opacity="1" fill-rule="nonzero" d="M214.14 108.44C214.14 108.44 214.74 106.11 215.85 104.67L217.04 105.65L214.14 108.44Z"/><path id="Vector" fill="#F99370" fill-opacity="1" fill-rule="nonzero" d="M212.48 115.29C213.68 117.28 216.03 118.33 218.09 118.37C218.73 118.39 219.37 118.32 219.96 118.12L219.96 118.12C220.16 118.05 220.36 117.97 220.55 117.88L220.55 117.88C229.81 112.13 222.59 97.4 215.41 107.05C213.13 109.7 210.02 110.67 212.48 115.29Z"/><path id="Vector" fill="#F9F8F3" fill-opacity="1" fill-rule="nonzero" d="M214.34 113L217.25 112.29C217.25 112.29 217.07 113.74 215.96 113.88C214.89 114.01 214.34 113 214.34 113Z"/><path id="Vector" fill="#C16256" fill-opacity="1" fill-rule="nonzero" d="M217.14 109.95C217.1 109.79 217.2 109.62 217.37 109.58C217.54 109.54 217.7 109.64 217.74 109.81C217.78 109.97 217.68 110.14 217.51 110.18C217.35 110.22 217.18 110.12 217.14 109.95Z"/><path id="Vector" fill="#C16256" fill-opacity="1" fill-rule="nonzero" d="M214.72 108.93C214.68 108.77 214.79 108.6 214.95 108.56C215.12 108.52 215.28 108.62 215.32 108.79C215.36 108.95 215.26 109.12 215.1 109.16C214.93 109.2 214.76 109.1 214.72 108.93Z"/><path id="Vector" fill="#C16256" fill-opacity="1" fill-rule="nonzero" d="M214.3 113.11C214.33 113.11 214.35 113.12 214.37 113.11L217.28 112.4C217.34 112.38 217.38 112.32 217.37 112.26C217.35 112.2 217.29 112.16 217.23 112.17L214.32 112.88C214.25 112.9 214.22 112.96 214.23 113.02C214.24 113.06 214.27 113.09 214.3 113.11Z"/><path id="Vector" fill="#C16256" fill-opacity="1" fill-rule="nonzero" d="M214.89 111.71C215.06 111.77 215.24 111.81 215.4 111.79C215.47 111.79 215.52 111.73 215.51 111.67C215.51 111.6 215.45 111.56 215.39 111.56C214.98 111.59 214.49 111.27 214.45 111.08C214.44 111.02 214.54 110.98 214.62 110.95C215.34 110.76 216.06 109.65 216.09 109.6C216.13 109.54 216.11 109.47 216.06 109.44C216 109.4 215.93 109.42 215.9 109.47C215.89 109.48 215.2 110.56 214.56 110.73C214.21 110.82 214.21 111.04 214.22 111.12C214.26 111.35 214.56 111.59 214.89 111.71Z"/><path id="Vector" fill="#E57D61" fill-opacity="1" fill-rule="nonzero" d="M215.93 106.39C217.76 105.91 220.52 107.4 221.97 107.73C221.97 107.73 221.07 110.13 223.15 112.49C222.82 114.81 222.96 115.9 219.96 118.12L219.96 118.12C220.16 118.05 220.36 117.97 220.55 117.88L220.55 117.88C229.45 112.41 222.99 97.94 215.93 106.39Z"/><path id="Vector" fill="#C92828" fill-opacity="1" fill-rule="nonzero" d="M215.88 101.16C217.24 99.54 220.25 99.2 222.09 102.04C223.52 104.23 225.5 104.69 225.03 106.53C228.31 109.08 225.52 112.71 225.52 112.71L223.72 112.05C222.02 109.84 222.68 107.34 222.68 107.34L222.68 107.34C222.2 107.25 221.71 107.11 221.3 106.89C220.02 106.22 218.05 105.58 216.38 105.78C214.71 105.98 214.34 102.97 215.88 101.16Z"/><path id="Vector" fill="#F99370" fill-opacity="1" fill-rule="nonzero" d="M225.43 114.26C225 115.16 224.07 115.62 223.34 115.28C222.62 114.93 222.37 113.92 222.8 113.02C223.22 112.12 224.16 111.66 224.88 112.01C225.61 112.35 225.85 113.36 225.43 114.26Z"/><path id="Vector" fill="#C16256" fill-opacity="1" fill-rule="nonzero" d="M223.91 112.57C223.94 112.57 224.71 112.46 225.02 112.92C225.1 113.04 225.13 113.18 225.13 113.34C225.13 113.34 225.13 113.34 225.13 113.34C225.13 113.36 225.14 113.37 225.14 113.39C225.14 113.39 225.14 113.39 225.14 113.39L225.14 113.39C225.12 113.69 224.99 114.06 224.73 114.5C224.7 114.55 224.64 114.57 224.59 114.55C224.58 114.55 224.58 114.55 224.57 114.54C224.52 114.51 224.5 114.44 224.53 114.39C224.74 114.03 224.86 113.72 224.89 113.48C224.21 113.44 223.71 114.1 223.7 114.1C223.67 114.15 223.62 114.16 223.57 114.14C223.56 114.14 223.55 114.14 223.54 114.13C223.49 114.09 223.48 114.02 223.52 113.97C223.54 113.93 224.09 113.2 224.89 113.24C224.88 113.17 224.86 113.11 224.82 113.05C224.6 112.72 223.95 112.8 223.95 112.8C223.88 112.81 223.82 112.77 223.81 112.7C223.8 112.64 223.85 112.58 223.91 112.57Z"/><path id="Vector" fill="#FDFFDE" fill-opacity="1" fill-rule="nonzero" d="M222.42 114.21L223.52 113.63C223.53 113.58 223.54 113.53 223.56 113.49C223.69 113.23 224 113.12 224.26 113.25C224.52 113.38 224.63 113.69 224.5 113.95C224.38 114.21 224.08 114.31 223.82 114.2L222.72 114.78C222.64 114.82 222.54 114.83 222.46 114.8C222.39 114.77 222.32 114.72 222.29 114.65C222.2 114.49 222.26 114.29 222.42 114.21Z"/><path id="Vector" fill="#1D3F70" fill-opacity="1" fill-rule="nonzero" d="M201.35 152.94C201.35 152.94 211.79 158.57 230.2 157.03C230.2 157.03 230.26 156.55 230.35 155.71C230.73 152.14 231.7 142.09 231.35 135.15C231.35 135.15 230.86 129.26 229.82 126.39C226.66 117.67 220.5 120.64 220.5 120.64C219.07 123.55 215.65 125.86 215.65 125.86C215.06 122.82 216 120.46 216.05 120.32C211.31 121.41 207.05 124.99 205.14 132.85C204.25 136.54 201.01 145.45 200.66 150.12C200.56 151.43 200.88 152.51 201.35 152.94Z"/><path id="Vector" fill="#E8C0A6" fill-opacity="1" fill-rule="nonzero" d="M214.43 120.31C214.43 120.31 213.5 124.69 215.16 127.34C215.16 127.34 220.15 125.66 221.98 120.12C221.98 120.12 221.3 120.08 220.5 120.64C220.5 120.64 218.17 123.88 215.87 125.43C215.87 125.43 215.33 123.52 216.05 120.32C216.05 120.32 215.2 120.09 214.43 120.31Z"/><path id="Vector" fill="#C16256" fill-opacity="1" fill-rule="nonzero" d="M218.93 109.63C218.87 109.63 218.83 109.6 218.8 109.54C218.41 108.66 217.57 108.41 217.56 108.41C217.48 108.39 217.43 108.31 217.46 108.23C217.48 108.15 217.56 108.1 217.64 108.13C217.68 108.14 218.62 108.41 219.07 109.42C219.1 109.5 219.07 109.59 219 109.62C218.97 109.63 218.95 109.63 218.93 109.63Z"/><path id="Vector" fill="#C16256" fill-opacity="1" fill-rule="nonzero" d="M216.69 107.89C216.66 107.89 216.64 107.88 216.61 107.86C215.87 107.34 215.34 107.61 215.34 107.62C215.26 107.66 215.18 107.63 215.14 107.56C215.1 107.49 215.12 107.4 215.2 107.36C215.22 107.34 215.9 106.99 216.79 107.62C216.85 107.67 216.87 107.76 216.82 107.83C216.79 107.87 216.74 107.89 216.69 107.89Z"/><path id="Vector" fill="#103663" fill-opacity="1" fill-rule="nonzero" d="M238.35 127.69C238.2 127.88 238.05 128.06 237.89 128.25C235.96 130.52 233.92 133.33 231.36 135.14C231.35 135.14 231.35 135.14 231.35 135.14C231.35 135.15 231.35 135.15 231.35 135.15C231.28 131.27 230.27 129.07 230.2 128.93C233.09 132.2 238.23 127.79 238.35 127.69Z"/><path id="Vector" fill="#103663" fill-opacity="1" fill-rule="nonzero" d="M206.83 128.05C206.83 128.05 205.75 130.65 205.14 132.85C205.13 132.9 205.12 132.94 205.1 132.98C203.42 131.91 200.76 130 198.3 127.34C198.3 127.34 203.22 131.02 206.83 128.05Z"/><path id="Vector" fill="#EB5648" fill-opacity="1" fill-rule="nonzero" d="M154.47 100.42L209.86 31.56L278.65 87L154.47 100.42ZM212.48 55.88L194.1 78.74L235.31 74.28L212.48 55.88Z"/><path id="Vector" fill="#CE3932" fill-opacity="1" fill-rule="evenodd" d="M268.5 83.82L269.24 83.74L269.7 87.96L268.95 88.04L268.5 83.82Z"/><path id="Vector" fill="#CE3932" fill-opacity="1" fill-rule="evenodd" d="M264.67 81.42L265.42 81.34L266.17 88.35L265.43 88.43L264.67 81.42Z"/><path id="Vector" fill="#CE3932" fill-opacity="1" fill-rule="evenodd" d="M257.64 82.16L258.38 82.08L259.14 89.1L258.4 89.18L257.64 82.16Z"/><path id="Vector" fill="#CE3932" fill-opacity="1" fill-rule="evenodd" d="M240.34 86.86L241.09 86.78L241.54 91L240.8 91.08L240.34 86.86Z"/><path id="Vector" fill="#CE3932" fill-opacity="1" fill-rule="evenodd" d="M236.52 84.45L237.27 84.37L238.02 91.38L237.28 91.46L236.52 84.45Z"/><path id="Vector" fill="#CE3932" fill-opacity="1" fill-rule="evenodd" d="M254.42 85.34L255.17 85.26L255.62 89.48L254.88 89.56L254.42 85.34Z"/><path id="Vector" fill="#CE3932" fill-opacity="1" fill-rule="evenodd" d="M250.59 82.94L251.34 82.86L252.09 89.88L251.35 89.96L250.59 82.94Z"/><path id="Vector" fill="#CE3932" fill-opacity="1" fill-rule="evenodd" d="M226.27 88.38L227.01 88.3L227.46 92.52L226.72 92.6L226.27 88.38Z"/><path id="Vector" fill="#CE3932" fill-opacity="1" fill-rule="evenodd" d="M222.44 85.97L223.19 85.89L223.94 92.9L223.2 92.98L222.44 85.97Z"/><path id="Vector" fill="#CE3932" fill-opacity="1" fill-rule="evenodd" d="M205.15 90.67L205.89 90.59L206.35 94.81L205.6 94.89L205.15 90.67Z"/><path id="Vector" fill="#CE3932" fill-opacity="1" fill-rule="evenodd" d="M201.33 88.25L202.07 88.17L202.83 95.18L202.08 95.26L201.33 88.25Z"/><path id="Vector" fill="#CE3932" fill-opacity="1" fill-rule="evenodd" d="M184.03 92.95L184.77 92.87L185.23 97.09L184.48 97.17L184.03 92.95Z"/><path id="Vector" fill="#CE3932" fill-opacity="1" fill-rule="evenodd" d="M180.21 90.53L180.95 90.45L181.71 97.47L180.97 97.55L180.21 90.53Z"/><path id="Vector" fill="#CE3932" fill-opacity="1" fill-rule="evenodd" d="M212.19 89.9L212.93 89.82L213.39 94.04L212.64 94.12L212.19 89.9Z"/><path id="Vector" fill="#CE3932" fill-opacity="1" fill-rule="evenodd" d="M208.37 87.49L209.11 87.41L209.87 94.42L209.12 94.5L208.37 87.49Z"/><path id="Vector" fill="#CE3932" fill-opacity="1" fill-rule="evenodd" d="M191.07 92.19L191.81 92.11L192.27 96.33L191.52 96.41L191.07 92.19Z"/><path id="Vector" fill="#CE3932" fill-opacity="1" fill-rule="evenodd" d="M187.25 89.77L187.99 89.69L188.75 96.71L188 96.79L187.25 89.77Z"/><path id="Vector" fill="#CE3932" fill-opacity="1" fill-rule="evenodd" d="M169.95 94.48L170.69 94.4L171.15 98.61L170.4 98.69L169.95 94.48Z"/><path id="Vector" fill="#CE3932" fill-opacity="1" fill-rule="evenodd" d="M166.13 92.06L166.88 91.98L167.63 98.99L166.89 99.07L166.13 92.06Z"/><path id="Vector" fill="#CE3932" fill-opacity="1" fill-rule="evenodd" d="M176.99 93.72L177.73 93.63L178.19 97.85L177.44 97.93L176.99 93.72Z"/><path id="Vector" fill="#CE3932" fill-opacity="1" fill-rule="evenodd" d="M173.17 91.3L173.91 91.22L174.67 98.23L173.93 98.31L173.17 91.3Z"/><path id="Vector" fill="#CE3932" fill-opacity="1" fill-rule="evenodd" d="M261.46 84.58L262.2 84.5L262.66 88.72L261.91 88.8L261.46 84.58Z"/><path id="Vector" fill="#CE3932" fill-opacity="1" fill-rule="evenodd" d="M247.38 86.1L248.13 86.02L248.58 90.24L247.84 90.32L247.38 86.1Z"/><path id="Vector" fill="#CE3932" fill-opacity="1" fill-rule="evenodd" d="M243.56 83.69L244.3 83.61L245.06 90.62L244.32 90.7L243.56 83.69Z"/><path id="Vector" fill="#CE3932" fill-opacity="1" fill-rule="evenodd" d="M233.3 87.62L234.05 87.54L234.5 91.76L233.76 91.84L233.3 87.62Z"/><path id="Vector" fill="#CE3932" fill-opacity="1" fill-rule="evenodd" d="M229.48 85.21L230.23 85.13L230.98 92.14L230.24 92.22L229.48 85.21Z"/><path id="Vector" fill="#CE3932" fill-opacity="1" fill-rule="evenodd" d="M219.23 89.14L219.97 89.06L220.43 93.28L219.68 93.36L219.23 89.14Z"/><path id="Vector" fill="#CE3932" fill-opacity="1" fill-rule="evenodd" d="M215.4 86.73L216.15 86.65L216.91 93.66L216.16 93.74L215.4 86.73Z"/><path id="Vector" fill="#CE3932" fill-opacity="1" fill-rule="evenodd" d="M198.11 91.43L198.85 91.35L199.31 95.57L198.56 95.65L198.11 91.43Z"/><path id="Vector" fill="#CE3932" fill-opacity="1" fill-rule="evenodd" d="M194.29 89.01L195.03 88.93L195.79 95.94L195.04 96.02L194.29 89.01Z"/><path id="Vector" fill="#CE3932" fill-opacity="1" fill-rule="evenodd" d="M162.91 95.23L163.66 95.15L164.11 99.37L163.37 99.45L162.91 95.23Z"/><path id="Vector" fill="#F99370" fill-opacity="1" fill-rule="nonzero" d="M239.26 88.72C239.93 88.72 239.76 90.66 240.11 91.16L245.04 90.63C244.81 91.91 243.85 93.88 242.98 94.87C242.46 95.45 239.45 95.4 239.17 94.69C238.63 93.32 238.68 91.87 238.76 91.53C238.95 90.73 238.55 89.08 239.26 88.72Z"/><path id="Vector" fill="#F99370" fill-opacity="1" fill-rule="nonzero" d="M188.76 94.29C188 94.52 189 96.69 189 96.69L184.12 97.22C185.18 98.94 185.83 100.07 187.62 101.15C188.29 101.55 190.82 101.39 190.87 100.63C190.93 99.45 190.47 97.15 190.36 96.82C190.26 96.13 189.53 94.06 188.76 94.29Z"/><path id="Vector" fill="#8A9EDD" fill-opacity="1" fill-rule="nonzero" d="M142.6 117.22L132.81 117.22L132.81 64.44C132.81 64.08 132.52 63.79 132.16 63.79L118.61 63.79C118.4 63.79 118.19 63.89 118.07 64.07L81.57 117.56C81.49 117.67 81.45 117.8 81.45 117.93L81.45 132.07C81.45 132.43 81.75 132.73 82.11 132.73L115.89 132.73L115.89 149.02C115.89 149.38 116.18 149.67 116.55 149.67L132.16 149.67C132.52 149.67 132.81 149.38 132.81 149.02L132.81 132.72L142.6 132.72C142.97 132.72 143.26 132.43 143.26 132.07L143.26 117.88C143.26 117.51 142.97 117.22 142.6 117.22ZM98.43 117.22L115.89 91.24L115.89 117.22L98.43 117.22Z"/><path id="Vector" fill="#8A9EDD" fill-opacity="1" fill-rule="nonzero" d="M416.13 211.48C411.05 206.16 404.77 203.46 397.47 203.46C394.03 203.46 390.62 204.21 387.31 205.68L389.52 193.17L419.39 193.17C419.75 193.17 420.05 192.87 420.05 192.51L420.05 177.4C420.05 177.04 419.75 176.74 419.39 176.74L376.75 176.74C376.43 176.74 376.16 176.97 376.1 177.28L367.84 221.12C367.8 221.29 367.84 221.47 367.95 221.62C368.05 221.77 368.21 221.86 368.39 221.89L381.47 223.78C381.69 223.82 381.91 223.74 382.06 223.57C385.58 219.64 389.61 217.64 394.02 217.64C397.57 217.64 400.37 218.84 402.57 221.3C404.77 223.75 405.88 227.52 405.88 232.5C405.88 237.83 404.75 241.85 402.53 244.45C400.31 247.06 397.68 248.33 394.48 248.33C391.72 248.33 389.25 247.32 387.12 245.32C384.99 243.31 383.69 240.54 383.25 237.07C383.21 236.72 382.89 236.46 382.53 236.5L366.46 238.17C366.29 238.18 366.12 238.27 366.01 238.41C365.9 238.55 365.86 238.73 365.88 238.91C366.85 246.09 369.88 251.89 374.89 256.15C379.88 260.41 386.42 262.57 394.31 262.57C404.2 262.57 412.05 258.73 417.62 251.16C421.71 245.63 423.78 239.26 423.78 232.21C423.78 223.77 421.21 216.79 416.13 211.48Z"/><path id="Vector" fill="#F49F9F" fill-opacity="1" fill-rule="nonzero" d="M348.54 74.2L307.99 74.2C307.72 74.2 307.51 74.41 307.51 74.68L307.51 85.7C307.51 85.97 307.72 86.19 307.99 86.19L333.96 86.19C328.67 93.02 324.36 100.82 321.15 109.4C317.81 118.31 316.02 127.18 315.82 135.75C315.82 135.88 315.87 136 315.96 136.1C316.05 136.19 316.17 136.24 316.3 136.24L327.74 136.24C327.87 136.24 327.99 136.19 328.08 136.1C328.17 136.01 328.22 135.89 328.22 135.76C328.19 130.36 329.09 124.14 330.89 117.27C332.68 110.4 335.33 103.83 338.75 97.72C342.17 91.62 345.58 86.89 348.88 83.64C348.97 83.55 349.03 83.42 349.03 83.3L349.03 74.68C349.03 74.41 348.81 74.2 348.54 74.2Z"/><path id="Vector" fill="#11CE18" fill-opacity="1" fill-rule="nonzero" d="M425.98 111.53L423.66 111.53L423.66 109.98L424.43 109.98L424.43 109.2L425.98 109.2L425.98 111.53Z"/><path id="Vector" fill="#11CE18" fill-opacity="1" fill-rule="nonzero" d="M420.24 111.53L416.83 111.53L416.83 109.98L420.24 109.98L420.24 111.53ZM413.41 111.53L410 111.53L410 109.98L413.41 109.98L413.41 111.53ZM406.58 111.53L403.17 111.53L403.17 109.98L406.58 109.98L406.58 111.53ZM399.76 111.53L396.34 111.53L396.34 109.98L399.76 109.98L399.76 111.53Z"/><path id="Vector" fill="#11CE18" fill-opacity="1" fill-rule="nonzero" d="M392.93 111.53L390.6 111.53L390.6 109.2L392.15 109.2L392.15 109.98L392.93 109.98L392.93 111.53Z"/><path id="Vector" fill="#11CE18" fill-opacity="1" fill-rule="nonzero" d="M392.15 105.79L390.6 105.79L390.6 102.37L392.15 102.37L392.15 105.79ZM392.15 98.95L390.6 98.95L390.6 95.53L392.15 95.53L392.15 98.95ZM392.15 92.11L390.6 92.11L390.6 88.69L392.15 88.69L392.15 92.11ZM392.15 85.28L390.6 85.28L390.6 81.86L392.15 81.86L392.15 85.28Z"/><path id="Vector" fill="#11CE18" fill-opacity="1" fill-rule="nonzero" d="M392.15 78.44L390.6 78.44L390.6 76.11L392.93 76.11L392.93 77.66L392.15 77.66L392.15 78.44Z"/><path id="Vector" fill="#11CE18" fill-opacity="1" fill-rule="nonzero" d="M420.24 77.66L416.83 77.66L416.83 76.11L420.24 76.11L420.24 77.66ZM413.41 77.66L410 77.66L410 76.11L413.41 76.11L413.41 77.66ZM406.58 77.66L403.17 77.66L403.17 76.11L406.58 76.11L406.58 77.66ZM399.76 77.66L396.34 77.66L396.34 76.11L399.76 76.11L399.76 77.66Z"/><path id="Vector" fill="#11CE18" fill-opacity="1" fill-rule="nonzero" d="M425.98 78.44L424.43 78.44L424.43 77.66L423.66 77.66L423.66 76.11L425.98 76.11L425.98 78.44Z"/><path id="Vector" fill="#11CE18" fill-opacity="1" fill-rule="nonzero" d="M425.98 105.79L424.43 105.79L424.43 102.37L425.98 102.37L425.98 105.79ZM425.98 98.95L424.43 98.95L424.43 95.53L425.98 95.53L425.98 98.95ZM425.98 92.11L424.43 92.11L424.43 88.69L425.98 88.69L425.98 92.11ZM425.98 85.28L424.43 85.28L424.43 81.86L425.98 81.86L425.98 85.28Z"/><path id="Vector" fill="#11CE18" fill-opacity="1" fill-rule="nonzero" d="M394 101.58L393.87 100.03C395.39 99.9 396.91 99.61 398.36 99.16L398.82 100.64C397.26 101.12 395.63 101.44 394 101.58ZM389.09 101.48C387.46 101.28 385.85 100.9 384.31 100.35L384.82 98.89C386.26 99.4 387.76 99.75 389.28 99.94L389.09 101.48ZM403.33 98.71L402.57 97.35C403.91 96.61 405.16 95.71 406.31 94.7L407.34 95.86C406.11 96.95 404.76 97.91 403.33 98.71ZM379.88 98.24C378.48 97.38 377.17 96.37 375.99 95.24L377.06 94.11C378.17 95.17 379.39 96.11 380.69 96.91L379.88 98.24ZM410.66 92.24L409.41 91.32C410.32 90.09 411.1 88.76 411.73 87.37L413.14 88C412.47 89.5 411.63 90.92 410.66 92.24ZM372.82 91.49C371.89 90.13 371.11 88.67 370.5 87.15L371.94 86.57C372.51 87.99 373.24 89.35 374.1 90.61L372.82 91.49ZM414.68 83.33L413.16 83.01C413.48 81.52 413.64 79.99 413.64 78.45L415.19 78.45C415.19 80.09 415.02 81.74 414.68 83.33ZM369.15 82.43C368.93 81.12 368.81 79.78 368.81 78.45C368.81 78.14 368.82 77.83 368.83 77.52L370.38 77.58C370.37 77.87 370.37 78.16 370.37 78.45C370.37 79.69 370.47 80.94 370.68 82.16L369.15 82.43ZM413.46 75.59C413.26 74.07 412.89 72.57 412.38 71.13L413.84 70.61C414.39 72.15 414.78 73.76 414.99 75.39L413.46 75.59ZM371.04 73.05L369.54 72.66C369.95 71.07 370.53 69.52 371.26 68.05L372.65 68.75C371.96 70.12 371.42 71.57 371.04 73.05ZM410.38 67.01C409.57 65.71 408.62 64.49 407.56 63.39L408.68 62.31C409.81 63.49 410.83 64.79 411.7 66.18L410.38 67.01ZM375.13 64.89L373.92 63.92C374.94 62.64 376.11 61.47 377.38 60.43L378.36 61.64C377.17 62.6 376.08 63.7 375.13 64.89ZM404.05 60.45C402.77 59.59 401.41 58.87 399.99 58.31L400.56 56.87C402.08 57.47 403.55 58.24 404.91 59.16L404.05 60.45ZM382.19 59.13L381.49 57.75C382.95 57.01 384.5 56.42 386.08 56L386.47 57.5C385 57.89 383.56 58.44 382.19 59.13ZM395.58 57.08C394.08 56.83 392.52 56.74 391 56.81L390.93 55.26C392.56 55.18 394.23 55.28 395.83 55.55L395.58 57.08Z"/><path id="Vector" fill="#3A72AA" fill-opacity="1" fill-rule="nonzero" d="M231.86 178.95C231.84 179.37 231.64 183.79 230.85 191.75C230.67 193.6 230.45 195.65 230.2 197.89C228.92 209.25 226.7 225.45 222.88 245.72C219.44 263.99 214.01 279.82 206.75 292.79C204.13 297.47 200.04 302.97 196.34 307.58C192.05 312.93 184.04 313.31 179.26 308.4C179.18 308.31 179.1 308.23 179.02 308.14C174.96 303.96 174.69 297.4 178.4 292.9C181.3 289.38 184.57 284.9 186.99 280.11C190.73 272.75 196.32 260.23 199.87 241.38C203.48 222.2 205.61 206.75 206.85 195.89C207.07 193.96 207.26 192.18 207.43 190.55C208.25 182.43 208.46 178.02 208.47 177.92C208.76 171.45 214.23 166.44 220.69 166.73C227.14 167.02 232.15 172.49 231.86 178.95Z"/><path id="Vector" fill="#3A72AA" fill-opacity="1" fill-rule="nonzero" d="M315.62 284.61C312.17 292.93 306.9 299.72 300.36 304.24C294.79 308.1 288.51 310.12 282.31 310.12C280.9 310.12 279.5 310.02 278.1 309.81C270.92 308.71 264.41 304.77 259.76 298.7C255.25 292.8 252.54 285.18 251.7 276.03C249.8 255.3 253.71 222.26 256.8 201.03C257.13 198.72 257.46 196.55 257.76 194.55C258.97 186.71 259.9 181.49 260.03 180.78C261.16 174.4 267.25 170.16 273.61 171.3C279.98 172.44 284.21 178.53 283.07 184.9C283.05 185.06 282.45 188.42 281.59 193.85C281.3 195.66 280.98 197.69 280.65 199.92C277.67 219.65 273.21 254.13 275.02 273.89C275.68 281.12 278.27 286.12 281.63 286.63C285.18 287.18 290.73 283.5 293.99 275.62C296.47 269.65 303.32 266.81 309.29 269.29C310.67 269.86 311.87 270.67 312.89 271.64C316.29 274.88 317.53 280.01 315.62 284.61Z"/><path id="Vector" fill="#23659B" fill-opacity="1" fill-rule="nonzero" d="M231.86 178.95C231.84 179.37 231.64 183.79 230.85 191.75C230.67 193.6 230.45 195.65 230.2 197.89L230.2 197.89C218.12 194.75 206.85 195.89 206.85 195.89C207.07 193.96 207.26 192.18 207.43 190.55C208.25 182.43 208.46 178.02 208.47 177.92C208.76 171.45 214.23 166.44 220.69 166.73C227.14 167.02 232.15 172.49 231.86 178.95Z"/><path id="Vector" fill="#23659B" fill-opacity="1" fill-rule="nonzero" d="M283.07 184.9C283.05 185.06 282.45 188.42 281.59 193.85C281.3 195.66 280.98 197.69 280.65 199.92C272.84 200.97 264.55 201.25 256.8 201.03C257.13 198.72 257.46 196.55 257.76 194.55C258.97 186.71 259.9 181.49 260.03 180.78C261.16 174.4 267.25 170.16 273.61 171.3C279.98 172.44 284.21 178.53 283.07 184.9Z"/><path id="Vector" fill="#3A72AA" fill-opacity="1" fill-rule="nonzero" d="M325.66 181.52C320.99 183.69 312.14 187.8 299.49 190.83C296.88 191.45 294.11 192.03 291.18 192.54C288.05 193.08 284.85 193.52 281.59 193.85C273.98 194.64 266.03 194.87 257.76 194.55C249.12 194.22 240.14 193.29 230.85 191.75C229.6 191.54 228.34 191.32 227.08 191.09C220.16 189.84 213.59 189.66 207.43 190.55C206.7 190.65 205.99 190.77 205.28 190.9C199.93 191.91 194.89 193.74 190.19 196.41C182.92 200.54 179.11 205.29 179.07 205.33C176.77 208.41 173.25 210.03 169.69 210.03C167.25 210.03 164.79 209.27 162.69 207.7C157.51 203.82 156.45 196.48 160.32 191.29C160.97 190.43 166.98 182.63 178.65 176.01C184.74 172.56 191.32 170.02 198.24 168.45C199.09 168.25 199.94 168.07 200.8 167.91C210.46 166.07 220.71 166.11 231.26 168.03C256.84 172.67 275.89 171.67 289.78 168.96C302.37 166.5 310.71 162.62 315.8 160.26C321.66 157.53 328.62 160.08 331.35 165.95C334.07 171.82 331.52 178.79 325.66 181.52Z"/><path id="Vector" fill="#23659B" fill-opacity="1" fill-rule="nonzero" d="M312.89 271.64C305.26 267.47 300.62 274.75 298.71 278.11C296.8 281.47 293.16 290.07 283.26 290.12C273.35 290.17 275.02 273.89 275.02 273.89C275.68 281.12 278.27 286.12 281.63 286.63C285.18 287.18 290.73 283.5 293.99 275.62C296.47 269.65 303.32 266.81 309.29 269.29C310.67 269.86 311.87 270.67 312.89 271.64Z"/><path id="Vector" fill="#8A9EDD" fill-opacity="1" fill-rule="nonzero" d="M183.12 228.7L183.12 299.64C183.12 306.89 177.25 312.78 170 312.78L118.5 312.78C111.26 312.78 105.38 306.89 105.38 299.64L105.38 228.7C105.38 221.24 111.42 215.2 118.87 215.2L169.63 215.2C177.08 215.2 183.12 221.24 183.12 228.7Z"/><path id="Vector" fill="#4867AA" fill-opacity="1" fill-rule="nonzero" d="M183.12 228.24L183.12 246.63L105.38 246.63L105.38 228.24C105.38 221.04 111.21 215.2 118.4 215.2L170.1 215.2C177.29 215.2 183.12 221.04 183.12 228.24Z"/><path id="Vector" fill="#8A9EDD" fill-opacity="1" fill-rule="nonzero" d="M167.37 239.84L121.23 239.84C116.33 239.84 112.36 235.87 112.36 230.96C112.36 226.06 116.33 222.08 121.23 222.08L167.37 222.08C172.27 222.08 176.24 226.06 176.24 230.96C176.24 235.87 172.27 239.84 167.37 239.84Z"/><path id="Vector" fill="#D4E8FF" fill-opacity="1" fill-rule="nonzero" d="M119.98 261.49L117.29 261.49C114.57 261.49 112.36 259.28 112.36 256.55C112.36 253.83 114.57 251.62 117.29 251.62L119.98 251.62C122.71 251.62 124.91 253.83 124.91 256.55C124.91 259.28 122.71 261.49 119.98 261.49Z"/><path id="Vector" fill="#D4E8FF" fill-opacity="1" fill-rule="nonzero" d="M119.98 276.13L117.29 276.13C114.57 276.13 112.36 273.92 112.36 271.19C112.36 268.46 114.57 266.25 117.29 266.25L119.98 266.25C122.71 266.25 124.91 268.46 124.91 271.19C124.91 273.92 122.71 276.13 119.98 276.13Z"/><path id="Vector" fill="#D4E8FF" fill-opacity="1" fill-rule="nonzero" d="M119.98 290.76L117.29 290.76C114.57 290.76 112.36 288.55 112.36 285.82C112.36 283.09 114.57 280.88 117.29 280.88L119.98 280.88C122.71 280.88 124.91 283.09 124.91 285.82C124.91 288.55 122.71 290.76 119.98 290.76Z"/><path id="Vector" fill="#D4E8FF" fill-opacity="1" fill-rule="nonzero" d="M119.98 305.39L117.29 305.39C114.57 305.39 112.36 303.18 112.36 300.45C112.36 297.73 114.57 295.51 117.29 295.51L119.98 295.51C122.71 295.51 124.91 297.73 124.91 300.45C124.91 303.18 122.71 305.39 119.98 305.39Z"/><path id="Vector" fill="#D4E8FF" fill-opacity="1" fill-rule="nonzero" d="M137.09 261.49L134.4 261.49C131.67 261.49 129.47 259.28 129.47 256.55C129.47 253.83 131.67 251.62 134.4 251.62L137.09 251.62C139.82 251.62 142.02 253.83 142.02 256.55C142.02 259.28 139.82 261.49 137.09 261.49Z"/><path id="Vector" fill="#D4E8FF" fill-opacity="1" fill-rule="nonzero" d="M137.09 276.13L134.4 276.13C131.67 276.13 129.47 273.92 129.47 271.19C129.47 268.46 131.67 266.25 134.4 266.25L137.09 266.25C139.82 266.25 142.02 268.46 142.02 271.19C142.02 273.92 139.82 276.13 137.09 276.13Z"/><path id="Vector" fill="#D4E8FF" fill-opacity="1" fill-rule="nonzero" d="M137.09 290.76L134.4 290.76C131.67 290.76 129.47 288.55 129.47 285.82C129.47 283.09 131.67 280.88 134.4 280.88L137.09 280.88C139.82 280.88 142.02 283.09 142.02 285.82C142.02 288.55 139.82 290.76 137.09 290.76Z"/><path id="Vector" fill="#D4E8FF" fill-opacity="1" fill-rule="nonzero" d="M137.09 305.39L134.4 305.39C131.67 305.39 129.47 303.18 129.47 300.45C129.47 297.73 131.67 295.51 134.4 295.51L137.09 295.51C139.82 295.51 142.02 297.73 142.02 300.45C142.02 303.18 139.82 305.39 137.09 305.39Z"/><path id="Vector" fill="#D4E8FF" fill-opacity="1" fill-rule="nonzero" d="M154.2 261.49L151.51 261.49C148.78 261.49 146.58 259.28 146.58 256.55C146.58 253.83 148.78 251.62 151.51 251.62L154.2 251.62C156.92 251.62 159.13 253.83 159.13 256.55C159.13 259.28 156.92 261.49 154.2 261.49Z"/><path id="Vector" fill="#D4E8FF" fill-opacity="1" fill-rule="nonzero" d="M154.2 276.13L151.51 276.13C148.78 276.13 146.58 273.92 146.58 271.19C146.58 268.46 148.78 266.25 151.51 266.25L154.2 266.25C156.92 266.25 159.13 268.46 159.13 271.19C159.13 273.92 156.92 276.13 154.2 276.13Z"/><path id="Vector" fill="#D4E8FF" fill-opacity="1" fill-rule="nonzero" d="M154.2 290.76L151.51 290.76C148.78 290.76 146.58 288.55 146.58 285.82C146.58 283.09 148.78 280.88 151.51 280.88L154.2 280.88C156.92 280.88 159.13 283.09 159.13 285.82C159.13 288.55 156.92 290.76 154.2 290.76Z"/><path id="Vector" fill="#D4E8FF" fill-opacity="1" fill-rule="nonzero" d="M154.2 305.39L151.51 305.39C148.78 305.39 146.58 303.18 146.58 300.45C146.58 297.73 148.78 295.51 151.51 295.51L154.2 295.51C156.92 295.51 159.13 297.73 159.13 300.45C159.13 303.18 156.92 305.39 154.2 305.39Z"/><path id="Vector" fill="#EB5648" fill-opacity="1" fill-rule="nonzero" d="M171.31 261.49L168.62 261.49C165.89 261.49 163.69 259.28 163.69 256.55C163.69 253.83 165.89 251.62 168.62 251.62L171.31 251.62C174.04 251.62 176.24 253.83 176.24 256.55C176.24 259.28 174.04 261.49 171.31 261.49Z"/><path id="Vector" fill="#4867AA" fill-opacity="1" fill-rule="nonzero" d="M171.31 276.13L168.62 276.13C165.89 276.13 163.69 273.92 163.69 271.19C163.69 268.46 165.89 266.25 168.62 266.25L171.31 266.25C174.04 266.25 176.24 268.46 176.24 271.19C176.24 273.92 174.04 276.13 171.31 276.13Z"/><path id="Vector" fill="#4867AA" fill-opacity="1" fill-rule="nonzero" d="M171.31 290.76L168.62 290.76C165.89 290.76 163.69 288.55 163.69 285.82C163.69 283.09 165.89 280.88 168.62 280.88L171.31 280.88C174.04 280.88 176.24 283.09 176.24 285.82C176.24 288.55 174.04 290.76 171.31 290.76Z"/><path id="Vector" fill="#4867AA" fill-opacity="1" fill-rule="nonzero" d="M171.31 305.39L168.62 305.39C165.89 305.39 163.69 303.18 163.69 300.45C163.69 297.73 165.89 295.51 168.62 295.51L171.31 295.51C174.04 295.51 176.24 297.73 176.24 300.45C176.24 303.18 174.04 305.39 171.31 305.39Z"/><path id="Vector" fill="#FCB4B4" fill-opacity="1" fill-rule="nonzero" d="M265.01 327.2C262.41 327.2 114.03 327 117.59 327.01C107.39 326.97 107.39 307.35 117.62 307.34C119.5 307.36 258.86 307.52 265.03 307.54L265.03 308.9L265.01 327.2Z"/><path id="Vector" fill="#EB5648" fill-opacity="1" fill-rule="nonzero" d="M125.09 327.01C123.85 327.03 118.92 326.99 117.59 327.01C110.26 327.27 107.32 314.88 112.36 309.88L112.36 309.88C114.92 306.24 121.42 307.56 125.11 307.35L125.09 327.01Z"/><path id="Vector" fill="#F49F9F" fill-opacity="1" fill-rule="nonzero" d="M129.51 314.57C130.05 313.21 265.19 313.4 265.73 314.74C265.19 316.1 130.05 315.91 129.51 314.57Z"/><path id="Vector" fill="#FFE7D7" fill-opacity="1" fill-rule="nonzero" d="M265.01 327.2C265.01 323.89 265.03 311.07 265.03 307.54C271.24 309.92 284.63 315.06 290.73 317.4C284.66 319.71 271.18 324.84 265.01 327.2Z"/><path id="Vector" fill="#EB5648" fill-opacity="1" fill-rule="nonzero" d="M280.3 321.37C279.41 318.89 279.43 315.84 280.31 313.4L290.73 317.4L280.3 321.37Z"/><path id="Vector" fill="#F9C0C0" fill-opacity="1" fill-rule="nonzero" d="M265.03 308.9L130.21 309.21L130.2 307.36L265.03 307.54L265.03 308.9Z"/><path id="Vector" fill="#CE3932" fill-opacity="1" fill-rule="nonzero" d="M123.2 327.01L117.59 327.01C110.26 327.27 107.32 314.88 112.36 309.88L112.36 309.88C112.36 309.88 112.13 322.68 123.21 322.65L123.2 327.01Z"/><path id="Vector" fill="#93ABE5" fill-opacity="1" fill-rule="nonzero" d="M130.19 327.24C130.19 327.24 130.25 324.99 130.17 322.53C129.98 316.68 129.57 307.29 129.83 307.09C129.87 304.83 126.93 305.28 126.95 307.55L126.55 307.33C126.59 305.07 123.29 305.35 123.32 307.62L123.21 322.59L123.2 327.23C123.2 328.19 123.98 328.98 124.95 328.98C125.91 328.98 126.7 328.2 126.7 327.23C126.7 328.2 127.48 328.98 128.44 328.99C129.41 328.99 130.19 328.2 130.19 327.24Z"/><path id="Vector" fill="#BBCEEA" fill-opacity="1" fill-rule="nonzero" d="M130.18 322.36L130.2 306.9C130.09 306.05 129.36 305.39 128.47 305.39C127.53 305.39 126.77 306.13 126.73 307.07L126.7 306.9C126.59 306.04 125.86 305.39 124.98 305.39C124.01 305.38 123.23 306.17 123.23 307.13L123.21 322.59C123.32 323.44 124.05 324.1 124.93 324.1C125.9 324.1 126.68 323.32 126.68 322.35L126.7 322.2L126.7 322.59C126.82 323.45 127.55 324.1 128.43 324.1C129.4 324.11 130.18 323.32 130.18 322.36Z"/><path id="Vector" fill="#F49F9F" fill-opacity="1" fill-rule="nonzero" d="M265.01 327.2L130.24 327.02L130.17 322.53L265 322.22L265.01 327.2Z"/><path id="Vector" fill="#EDD5C5" fill-opacity="1" fill-rule="nonzero" d="M265.01 327.2L265 322.22C265 322.22 290.73 317.4 290.73 317.4C284.66 319.71 271.18 324.84 265.01 327.2Z"/><path id="Vector" fill="#CE3932" fill-opacity="1" fill-rule="nonzero" d="M280.3 321.37C280.09 320.76 279.92 320.11 279.81 319.45L290.73 317.4L280.3 321.37Z"/></g></svg>