<svg width="632.000000" height="659.000000" viewBox="0 0 632 659" fill="none" xmlns="http://www.w3.org/2000/svg" xmlns:xlink="http://www.w3.org/1999/xlink">
	<desc>
			Created with Pixso.
	</desc>
	<defs>
		<clipPath id="clip18408_29612">
			<rect id="undraw_mathematics_-4-otb(1) 1" width="632.000000" height="659.000000" fill="white" fill-opacity="0"/>
		</clipPath>
	</defs>
	<rect id="undraw_mathematics_-4-otb(1) 1" width="632.000000" height="659.000000" fill="#FFFFFF" fill-opacity="0"/>
	<g clip-path="url(#clip18408_29612)">
		<path id="Vector" d="M598.92 614.07C598.92 638.88 464.85 659 299.46 659C134.07 659 0 638.88 0 614.07C0 596.51 67.2 581.29 165.14 573.91C205.53 570.86 251.17 569.15 299.46 569.15C319.31 569.15 338.71 569.44 357.47 569.99C495.1 574.05 598.92 592.24 598.92 614.07Z" fill="#3F3D56" fill-opacity="1.000000" fill-rule="nonzero"/>
		<g opacity="0.100000">
			<path id="Vector" d="M375.77 609.24C375.77 616.98 324.31 623.25 260.82 623.25C197.33 623.25 145.86 616.98 145.86 609.24C145.86 601.5 197.33 595.23 260.82 595.23C324.31 595.23 375.77 601.5 375.77 609.24Z" fill="#000000" fill-opacity="1.000000" fill-rule="evenodd"/>
		</g>
		<path id="Vector" d="M369.01 503.45C369.01 567.48 320.35 619.38 260.34 619.38C200.32 619.38 151.66 567.48 151.66 503.45C151.66 439.42 200.32 387.52 260.34 387.52C320.35 387.52 369.01 439.42 369.01 503.45Z" fill="#3F3D56" fill-opacity="1.000000" fill-rule="evenodd"/>
		<path id="Vector" d="M227.01 572.05L294.63 572.05L294.63 633.88L227.01 633.88L227.01 572.05Z" fill="#00BFA6" fill-opacity="1.000000" fill-rule="evenodd"/>
		<path id="Vector" d="M383.02 587.02L379.15 608.28L404.27 612.14L420.69 602.48L419.73 587.02L383.02 587.02Z" fill="#575A89" fill-opacity="1.000000" fill-rule="nonzero"/>
		<path id="Vector" d="M256.47 188.01C256.47 188.01 254.54 210.24 249.71 211.2C244.88 212.17 260.34 250.81 260.34 250.81L283.52 250.81L301.87 245.98L293.18 224.73C293.18 224.73 281.59 209.27 290.28 196.71C298.98 184.15 256.47 188.01 256.47 188.01Z" fill="#A0616A" fill-opacity="1.000000" fill-rule="nonzero"/>
		<g opacity="0.100000">
			<path id="Vector" d="M256.47 188.01C256.47 188.01 254.54 210.24 249.71 211.2C244.88 212.17 260.34 250.81 260.34 250.81L283.52 250.81L301.87 245.98L293.18 224.73C293.18 224.73 281.59 209.27 290.28 196.71C298.98 184.15 256.47 188.01 256.47 188.01Z" fill="#000000" fill-opacity="1.000000" fill-rule="nonzero"/>
		</g>
		<path id="Vector" d="M208.17 358.05C208.17 358.05 183.05 406.36 203.34 416.02C223.63 425.68 228.46 424.71 228.46 427.61C228.46 430.51 224.59 429.54 226.53 434.37C228.46 439.2 222.66 458.53 228.46 470.12C234.25 481.71 232.32 490.41 232.32 490.41C232.32 490.41 232.32 491.37 234.25 495.24C236.19 499.1 237.15 502 236.19 503.93C235.22 505.87 229.42 518.43 235.22 521.32C241.02 524.22 270.96 526.15 273.86 521.32C276.76 516.49 270.96 513.59 273.86 510.7C276.76 507.8 278.69 506.83 276.76 504.9C274.82 502.97 272.89 478.82 272.89 478.82C272.89 478.82 277.72 450.8 275.79 446.93C273.86 443.07 270.96 439.2 272.89 436.31C274.82 433.41 276.76 434.37 277.72 430.51C278.69 426.64 280.62 417.95 280.62 417.95L291.25 416.98L316.36 421.81C316.36 421.81 344.38 452.73 375.29 462.39C375.29 462.39 383.99 471.09 386.88 471.09C389.78 471.09 389.78 471.09 388.82 473.02C387.85 474.95 384.95 474.95 386.88 476.88C388.82 478.82 391.71 475.92 389.78 478.82C387.85 481.71 385.92 481.71 387.85 483.65C389.78 485.58 386.88 496.21 386.88 497.17C386.88 498.14 378.19 588.95 381.09 590.88C383.99 592.82 424.56 598.61 427.46 590.88C430.35 583.15 425.52 573.49 425.52 573.49C425.52 573.49 440.01 457.56 436.15 449.83C432.29 442.1 418.76 407.32 346.31 385.1C346.31 385.1 326.02 381.24 326.02 378.34C326.02 375.44 324.09 357.08 320.23 356.12C316.36 355.15 294.15 354.19 294.15 354.19L266.13 362.88L227.49 356.12L208.17 358.05Z" fill="#2F2E41" fill-opacity="1.000000" fill-rule="nonzero"/>
		<path id="Vector" d="M241.98 520.36L237.15 537.75C237.15 537.75 233.29 565.77 238.12 572.53C241.91 577.84 248.69 584.34 261.25 585.49C264.77 585.81 268.29 584.92 271.24 582.97C274.19 581.01 276.38 578.11 277.46 574.75C277.6 574.34 277.69 573.92 277.72 573.49C277.72 571.56 274.82 548.38 274.82 548.38L270 524.22L269.03 517.46L241.98 520.36Z" fill="#2F2E41" fill-opacity="1.000000" fill-rule="nonzero"/>
		<path id="Vector" d="M383.02 603.44C383.02 603.44 378.19 598.61 377.22 603.44C376.26 608.27 372.39 628.56 379.15 629.53C385.92 630.5 450.64 640.16 457.4 636.29C464.16 632.43 476.72 626.63 468.99 623.73C461.27 620.83 439.05 612.14 439.05 612.14C439.05 612.14 426.49 595.71 424.56 594.75C422.63 593.78 412 595.71 407.17 599.58C402.34 603.44 383.02 603.44 383.02 603.44Z" fill="#2F2E41" fill-opacity="1.000000" fill-rule="nonzero"/>
		<path id="Vector" d="M309.6 178.35C309.6 194.89 296.19 208.3 279.66 208.3C263.12 208.3 249.71 194.89 249.71 178.35C249.71 161.81 263.12 148.4 279.66 148.4C296.19 148.4 309.6 161.81 309.6 178.35Z" fill="#A0616A" fill-opacity="1.000000" fill-rule="evenodd"/>
		<path id="Vector" d="M276.76 245.98L265.17 233.42L252.32 208.3C252.32 208.3 242.95 205.4 241.02 210.24C239.08 215.07 204.31 230.52 204.31 230.52C204.31 230.52 213 311.68 209.14 319.41C205.27 327.13 198.51 358.05 204.31 360.95C210.1 363.85 237.15 360.95 245.85 364.81C254.54 368.68 279.66 368.68 286.42 363.85C293.18 359.02 295.11 355.15 301.87 358.05C307.63 360.52 321.09 276.16 324.96 251.02C325.29 248.91 325.02 246.75 324.18 244.79C323.34 242.82 321.97 241.13 320.22 239.9C311.55 233.82 295.94 223.34 293.18 224.73C289.32 226.66 276.76 245.98 276.76 245.98Z" fill="#575A89" fill-opacity="1.000000" fill-rule="nonzero"/>
		<path id="Vector" d="M318.3 242.12C320.56 242.68 322.6 243.93 324.14 245.69C325.68 247.45 326.65 249.64 326.9 251.97L334.72 322.3C334.72 322.3 315.4 363.85 305.74 335.83C296.08 307.81 318.3 242.12 318.3 242.12Z" fill="#575A89" fill-opacity="1.000000" fill-rule="nonzero"/>
		<path id="Vector" d="M316.36 329.07L337.62 323.27C337.62 323.27 341.48 350.32 345.34 350.32C349.21 350.32 331.82 365.78 323.13 363.85C314.43 361.92 301.87 355.15 300.91 350.32C299.94 345.49 309.6 325.2 309.6 325.2L316.36 329.07Z" fill="#575A89" fill-opacity="1.000000" fill-rule="nonzero"/>
		<path id="Vector" d="M257.05 191.27C259.09 186.78 258.73 181.54 260.42 176.91C261.32 174.43 262.78 172.19 264.69 170.37C266.6 168.54 268.91 167.19 271.43 166.4C273.95 165.62 276.62 165.43 279.22 165.85C281.83 166.27 284.3 167.28 286.45 168.81C288.62 170.36 290.79 172.53 293.43 172.23C296.28 171.92 298.82 168.74 301.44 169.9C304.34 171.19 303.55 176.39 306.49 177.59C308.04 178.23 309.87 177.25 310.76 175.84C311.54 174.35 311.96 172.71 312 171.03C312.41 166.91 312.77 162.55 310.99 158.82C310.23 157.55 309.58 156.23 309.03 154.86C308.71 153.59 308.59 152.28 308.65 150.97C308.64 146.12 308.28 141.07 305.85 136.89C303.14 132.24 298.14 129.27 292.93 127.98C287.71 126.68 282.25 126.88 276.89 127.33C268.04 128.08 258.81 129.69 251.84 135.19C250.89 135.88 250.07 136.74 249.43 137.72C248.82 138.89 248.38 140.14 248.15 141.43C246.64 147.57 244.38 153.5 241.41 159.09C239.99 161.46 238.83 163.97 237.94 166.59C237.2 169.25 237.25 172.29 238.8 174.57C240.06 176.44 242.08 177.43 243.66 178.95C245.23 180.46 245.96 183.36 247.7 184.5C249.22 185.5 251.03 184.8 252.58 185.85C254.57 187.21 254.71 190.19 257.05 191.27Z" fill="#2F2E41" fill-opacity="1.000000" fill-rule="nonzero"/>
		<path id="Vector" d="M281.59 260.47L284.49 254.68C284.49 254.68 326.99 267.24 335.68 278.83C335.68 278.83 356.94 265.3 368.53 267.24L380.12 269.17L344.38 301.05L298.98 297.19L281.59 260.47Z" fill="#F2F2F2" fill-opacity="1.000000" fill-rule="nonzero"/>
		<path id="Vector" d="M279.66 254.68L240.05 309.75L297.04 337.76C297.04 337.76 302.37 340.66 306.47 337.76L344.38 320.37L380.12 269.17L344.38 287.52C344.38 287.52 340.51 279.79 332.79 283.66L279.66 254.68Z" fill="#00BFA6" fill-opacity="1.000000" fill-rule="nonzero"/>
		<path id="Vector" d="M340.51 352.25L348.24 331.97C348.24 331.97 365.63 309.75 355.97 299.12C346.31 288.49 335.68 330.03 335.68 330.03L340.51 352.25Z" fill="#A0616A" fill-opacity="1.000000" fill-rule="nonzero"/>
		<path id="Vector" d="M251.35 349.02L268.21 335.34C268.21 335.34 294.4 324.85 291.38 310.81C288.35 296.77 258.32 327.37 258.32 327.37L251.35 349.02Z" fill="#A0616A" fill-opacity="1.000000" fill-rule="nonzero"/>
		<g opacity="0.100000">
			<path id="Vector" d="M209.62 251.29L208.65 251.29C208.65 251.29 193.68 233.42 190.78 257.57C187.88 281.73 178.22 361.91 203.34 364.81C228.46 367.71 246.33 352.74 246.33 352.74C246.33 352.74 264.68 324.72 257.92 324.72C254.65 324.72 245.75 323.25 237.63 323.75C228.98 324.29 221.2 326.73 221.7 324.24C222.66 319.41 236.67 258.06 209.62 251.29Z" fill="#000000" fill-opacity="1.000000" fill-rule="nonzero"/>
		</g>
		<path id="Vector" d="M208.17 232.46L204.31 230.52C204.31 230.52 188.85 233.42 185.95 257.57C183.05 281.73 173.39 361.92 198.51 364.81C223.63 367.71 257.44 360.95 257.44 360.95C257.44 360.95 264.2 324.24 257.44 324.24C250.68 324.24 215.9 329.07 216.87 324.24C217.83 319.41 235.22 239.22 208.17 232.46Z" fill="#575A89" fill-opacity="1.000000" fill-rule="nonzero"/>
		<path id="Vector" d="M326.51 341.14L337.16 324.82L343.9 351.77L326.51 359.5L326.51 341.14Z" fill="#575A89" fill-opacity="1.000000" fill-rule="nonzero"/>
		<path id="Vector" d="M133.76 82.22C133.76 96.63 122.08 108.31 107.68 108.31C93.27 108.31 81.6 96.63 81.6 82.22C81.6 67.82 93.27 56.14 107.68 56.14C122.08 56.14 133.76 67.82 133.76 82.22Z" fill="#F2F2F2" fill-opacity="1.000000" fill-rule="evenodd"/>
		<path id="Vector" d="M76.77 276.41L138.59 276.41L138.59 338.25L76.77 338.25L76.77 276.41Z" fill="#F2F2F2" fill-opacity="1.000000" fill-rule="evenodd"/>
		<path id="Vector" d="M359.35 0L375 27.1L390.65 54.21L359.35 54.21L328.06 54.21L343.7 27.1L359.35 0Z" fill="#F2F2F2" fill-opacity="1.000000" fill-rule="nonzero"/>
		<path id="Vector" d="M632 162.52C631.62 174.09 628.81 183.36 623.55 190.33C618.29 197.31 612.04 200.79 604.81 200.8C598.91 200.8 593.75 197.38 589.31 190.56C584.87 183.73 582.65 173.23 582.65 159.06C582.65 155.92 582.73 152.94 582.87 150.1C583.02 147.27 583.21 144.58 583.43 142.05L587.35 105.23L561.5 105.23C557.03 151.78 553.35 179.48 550.48 188.32C547.61 197.16 542.74 201.58 535.88 201.58C532.78 201.5 529.83 200.26 527.6 198.11C526.31 196.97 525.29 195.55 524.61 193.96C523.93 192.38 523.62 190.66 523.68 188.93C523.68 185.5 526.39 180.71 531.8 174.55C537.2 168.4 540.21 162.78 540.8 157.71L547.52 105.23L536.66 105.23C533.6 105.25 530.59 106 527.88 107.41C525.38 108.56 523.21 110.31 521.56 112.5L516.75 119.66L512.83 119.66C516.48 108.33 520.98 99.8 526.31 94.09C531.65 88.39 537.78 85.53 544.72 85.53L630.21 85.53L630.21 105.23L601.34 105.23C600.44 114.18 599.75 123.13 599.27 132.09C598.78 141.04 598.54 150.03 598.54 159.05C598.54 165.17 599.96 170.13 602.79 173.94C605.63 177.74 609.17 179.65 613.42 179.65C616.03 179.65 618.77 178.58 621.65 176.46C623.01 175.5 624.15 174.26 624.99 172.82C625.83 171.38 626.35 169.78 626.51 168.12C626.74 166.48 626.9 165.19 627.02 164.26C627.13 163.33 627.18 162.75 627.18 162.52L632 162.52Z" fill="#00BFA6" fill-opacity="1.000000" fill-rule="nonzero"/>
		<g opacity="0.100000">
			<path id="Vector" d="M632 162.52C631.62 174.09 628.81 183.36 623.55 190.33C618.29 197.31 612.04 200.79 604.81 200.8C598.91 200.8 593.75 197.38 589.31 190.56C584.87 183.73 582.65 173.23 582.65 159.06C582.65 155.92 582.73 152.94 582.87 150.1C583.02 147.27 583.21 144.58 583.43 142.05L587.35 105.23L561.5 105.23C557.03 151.78 553.35 179.48 550.48 188.32C547.61 197.16 542.74 201.58 535.88 201.58C532.78 201.5 529.83 200.26 527.6 198.11C526.31 196.97 525.29 195.55 524.61 193.96C523.93 192.38 523.62 190.66 523.68 188.93C523.68 185.5 526.39 180.71 531.8 174.55C537.2 168.4 540.21 162.78 540.8 157.71L547.52 105.23L536.66 105.23C533.6 105.25 530.59 106 527.88 107.41C525.38 108.56 523.21 110.31 521.56 112.5L516.75 119.66L512.83 119.66C516.48 108.33 520.98 99.8 526.31 94.09C531.65 88.39 537.78 85.53 544.72 85.53L630.21 85.53L630.21 105.23L601.34 105.23C600.44 114.18 599.75 123.13 599.27 132.09C598.78 141.04 598.54 150.03 598.54 159.05C598.54 165.17 599.96 170.13 602.79 173.94C605.63 177.74 609.17 179.65 613.42 179.65C616.03 179.65 618.77 178.58 621.65 176.46C623.01 175.5 624.15 174.26 624.99 172.82C625.83 171.38 626.35 169.78 626.51 168.12C626.74 166.48 626.9 165.19 627.02 164.26C627.13 163.33 627.18 162.75 627.18 162.52L632 162.52Z" fill="#000000" fill-opacity="1.000000" fill-rule="nonzero"/>
		</g>
		<path id="Vector" d="M632 159.03C631.62 170.59 628.81 179.86 623.55 186.84C618.29 193.81 612.04 197.3 604.81 197.3C598.91 197.3 593.75 193.89 589.31 187.06C584.87 180.23 582.65 169.73 582.65 155.56C582.65 152.42 582.73 149.44 582.87 146.61C583.02 143.77 583.21 141.09 583.43 138.55L587.35 101.73L561.5 101.73C557.03 148.28 553.35 175.98 550.48 184.82C547.61 193.66 542.74 198.08 535.88 198.08C532.78 198.01 529.83 196.77 527.6 194.61C526.31 193.47 525.29 192.05 524.61 190.47C523.93 188.88 523.62 187.16 523.68 185.44C523.68 182.01 526.39 177.21 531.8 171.06C537.2 164.9 540.21 159.29 540.8 154.22L547.52 101.73L536.66 101.73C533.6 101.75 530.59 102.5 527.88 103.91C525.38 105.06 523.21 106.81 521.56 109.01L516.75 116.17L512.83 116.17C516.48 104.83 520.98 96.31 526.31 90.6C531.65 84.89 537.78 82.04 544.72 82.04L630.21 82.04L630.21 101.73L601.34 101.73C600.44 110.68 599.75 119.64 599.27 128.59C598.78 137.54 598.54 146.53 598.54 155.56C598.54 161.68 599.96 166.64 602.79 170.44C605.63 174.25 609.17 176.15 613.42 176.15C616.03 176.15 618.77 175.09 621.65 172.96C623.01 172 624.15 170.76 624.99 169.32C625.83 167.88 626.35 166.28 626.51 164.62C626.74 162.98 626.9 161.7 627.02 160.76C627.13 159.83 627.18 159.25 627.18 159.03L632 159.03Z" fill="#00BFA6" fill-opacity="1.000000" fill-rule="nonzero"/>
	</g>
</svg>
