<svg xmlns="http://www.w3.org/2000/svg" xmlns:xlink="http://www.w3.org/1999/xlink" id="Capa_1" width="800" height="800" fill="#fff" version="1.1" viewBox="0 0 60.16 60.16" xml:space="preserve"><g id="SVGRepo_iconCarrier"><g><path style="fill:#ffff" d="M59.809,41.435c-4.588-4.371-9.336-8.532-14.7-11.914c4.984-4.592,9.521-9.594,13.364-15.192 c0.828-0.134,1.483-1.212,0.71-1.993C55.745,8.865,52.04,4.318,47.91,1.68c-1.197-0.764-2.161-1.674-3.697-1.206 c-2.484,0.758-5.102,4.822-6.82,6.619c-3.175,3.322-6.315,6.676-9.456,10.031c-4.906-5.271-9.858-10.501-14.722-15.811 c-0.387-0.423-1.218-0.454-1.6,0C7.606,6.089,2.624,11.42,0.059,17.115c-0.259,0.576,0.383,1.119,0.883,0.682 c4.399-3.842,7.941-9.242,11.546-13.938c4.9,5.256,9.726,10.584,14.601,15.865c0.43,0.465,1.263,0.457,1.694,0 c4.293-4.559,8.561-9.139,12.814-13.736c0.572-0.618,1.774-2.501,2.559-2.751c2.007-0.639,4.385,2.087,5.715,3.331 c0.035,0.033,0.069,0.067,0.104,0.1c-2.076-0.162-4.229-0.113-6.247-0.076c-0.384,0.007-0.366,0.543,0,0.583 c2.345,0.258,4.869,0.542,7.27,0.475c0.904,0.86,1.809,1.719,2.702,2.591c-2.422-0.118-4.949,0.075-7.3,0.181 c-0.368,0.017-0.365,0.545,0,0.569c2.693,0.182,5.627,0.497,8.363,0.297c0.635,0.625,1.272,1.248,1.905,1.876 c-0.382,0.519-0.775,1.026-1.165,1.536c-3.061-0.293-6.392,0.034-9.437,0.208c-0.267,0.015-0.267,0.4,0,0.415 c2.819,0.161,5.89,0.46,8.761,0.27c-0.644,0.827-1.297,1.644-1.96,2.451c-2.632-0.26-5.52,0.038-8.134,0.19 c-0.276,0.016-0.276,0.413,0,0.429c2.373,0.138,4.976,0.399,7.406,0.252c-0.892,1.064-1.796,2.115-2.728,3.142 c-1.789-0.085-3.739,0.098-5.401,0.349c-0.243,0.037-0.149,0.369,0.053,0.394c1.378,0.165,2.956,0.267,4.47,0.221 c-0.837,0.898-1.685,1.786-2.56,2.653c-1.64-0.015-3.33,0.163-4.907,0.202c-0.308,0.008-0.308,0.47,0,0.478 c1.29,0.032,2.657,0.157,4.009,0.194c-0.831,0.8-1.674,1.592-2.543,2.364c-0.351,0.312-0.39,0.759-0.238,1.142 c-0.974,0.031-1.95,0.103-2.894,0.134c-0.335,0.011-0.335,0.509,0,0.52c1.189,0.039,2.426,0.132,3.648,0.137 c1.545,1.066,3.071,2.147,4.57,3.257c-0.29,0.006-0.58,0.012-0.869,0.001c-0.874-0.033-1.74-0.144-2.603-0.278 c-0.362-0.056-0.529,0.473-0.155,0.563c1.409,0.337,3.122,0.656,4.613,0.449c1.728,1.309,3.418,2.661,5.047,4.091 c-2.736-0.458-5.766-0.243-8.338,0.13c-0.309,0.045-0.237,0.563,0.074,0.545c1.789-0.1,3.562-0.166,5.352-0.041 c1.419,0.099,2.815,0.39,4.222,0.551c0.765,0.706,1.521,1.423,2.256,2.169c-0.275,0.269-0.55,0.549-0.825,0.822 c-1.961-0.201-4.03,0.021-5.99,0.077c-0.344,0.01-0.344,0.524,0,0.534c1.712,0.05,3.508,0.219,5.244,0.132 c-0.767,0.772-1.53,1.556-2.281,2.36c-2.531-0.302-5.349-0.331-7.678,0.208c-0.128,0.03-0.14,0.251,0,0.271 c1.438,0.208,2.902,0.143,4.352,0.206c0.844,0.036,1.686,0.112,2.528,0.186c-0.743,0.821-1.474,1.654-2.168,2.513 c-1.876-0.143-3.821-0.06-5.66-0.085c-0.271-0.004-0.262,0.391,0,0.415c1.629,0.15,3.337,0.398,5.019,0.489 c-1.12,1.449-2.153,2.948-3.024,4.515c-3.639-3.38-7.279-6.759-10.918-10.139c-1.319-1.225-3.883-4.858-6.037-4.657 c-1.925,0.18-3.27,3.358-4.133,4.594c-2.772,3.969-5.516,7.957-8.23,11.965c-4.209-3.4-8.185-7.125-12.478-10.4 c2.942-2.11,5.369-4.955,7.904-7.53c2.267-2.302,5.746-4.745,7.04-7.692c0.245-0.559,0.204-1.062-0.198-1.53 c-4.253-4.964-12.313-8.621-18.077-11.406c-0.697-0.337-1.28,0.627-0.612,1.047c2.91,1.832,5.806,3.695,8.616,5.679 c1.172,0.828,2.328,1.679,3.475,2.541c1.071,0.789,2.125,1.602,3.161,2.438c1.597,0.63,1.812,1.103,0.643,1.42 c-0.279,0.713-2.552,2.214-3.31,2.978c-1.31,1.321-2.621,2.641-3.929,3.965c-2.249,2.278-4.641,4.413-6.413,7.085 c-0.214,0.322-0.153,0.686,0.037,0.97c0.013,0.029,0.019,0.06,0.039,0.088c3.664,5.047,8.656,9.211,13.476,13.114 c0.671,0.544,1.513,0.473,2.015-0.26c1.882-2.747,3.757-5.499,5.61-8.266c1.361-2.031,3.836-8.028,7.036-7.094 c2.018,0.589,4.628,4.326,6.18,5.777c2.518,2.353,5.036,4.707,7.554,7.06c0.554,0.518,1.25,0.353,1.663-0.068 c0.282,0.134,0.629,0.125,0.92-0.155c4.283-4.121,7.894-9.008,12.044-13.29C60.26,42.697,60.294,41.897,59.809,41.435z"/></g></g></svg>