<svg width="195.000000" height="195.000000" viewBox="0 0 195 195" fill="none" xmlns="http://www.w3.org/2000/svg" xmlns:xlink="http://www.w3.org/1999/xlink">
	<desc>
			Created with Pixso.
	</desc>
	<defs>
		<clipPath id="clip18408_29708">
			<rect id="multiply-cancel-svgrepo-com 1" width="195.000000" height="195.000000" fill="white" fill-opacity="0"/>
		</clipPath>
	</defs>
	<rect id="multiply-cancel-svgrepo-com 1" width="195.000000" height="195.000000" fill="#FFFFFF" fill-opacity="0"/>
	<g clip-path="url(#clip18408_29708)">
		<path id="Vector" d="M0 97.5C0 151.35 43.64 195 97.49 195C151.35 195 195 151.35 195 97.5C195 43.65 151.35 0 97.49 0C43.64 0 0 43.65 0 97.5Z" fill="#EB86BF" fill-opacity="1.000000" fill-rule="nonzero"/>
		<path id="Vector" d="M195 97.5C195 95.43 194.91 93.38 194.78 91.34C194.78 91.34 161.95 58.51 161.95 58.51C161.95 58.51 161.33 57.89 161.33 57.89L137.1 33.66C136.04 32.61 134.34 32.61 133.29 33.66L97.5 69.45L61.7 33.66C60.65 32.61 58.95 32.61 57.89 33.66L33.66 57.89C33.15 58.39 32.87 59.08 32.87 59.79C32.87 60.51 33.16 61.19 33.66 61.7L34.28 62.32L56.4 84.44L69.45 97.5L33.66 133.28C32.61 134.34 32.61 136.04 33.66 137.09L58.52 161.95L90.84 194.28L91.35 194.78C93.38 194.91 95.43 195 97.49 195C151.35 195 195 151.35 195 97.5Z" fill="#D670AD" fill-opacity="1.000000" fill-rule="nonzero"/>
		<path id="Vector" d="M125.54 97.5L161.33 61.7C161.84 61.19 162.12 60.51 162.12 59.79C162.12 59.08 161.84 58.39 161.33 57.89L137.1 33.66C136.04 32.61 134.34 32.61 133.29 33.66L97.5 69.45L61.7 33.66C60.65 32.61 58.95 32.61 57.89 33.66L33.66 57.89C33.15 58.39 32.87 59.08 32.87 59.79C32.87 60.5 33.16 61.19 33.66 61.7L69.45 97.5L33.66 133.28C32.61 134.34 32.61 136.04 33.66 137.09L57.89 161.33C58.4 161.84 59.08 162.12 59.8 162.12C60.51 162.12 61.2 161.83 61.7 161.33L97.5 125.53L133.29 161.33C133.79 161.84 134.48 162.12 135.19 162.12C135.91 162.12 136.59 161.84 137.1 161.33L161.33 137.09C162.38 136.04 162.38 134.34 161.33 133.28L125.54 97.5ZM135.19 155.62L99.4 119.82C98.89 119.31 98.21 119.03 97.5 119.03C96.78 119.03 96.1 119.32 95.59 119.82L59.8 155.62L39.37 135.19L75.17 99.4C75.67 98.89 75.95 98.21 75.95 97.5C75.95 96.78 75.67 96.1 75.17 95.59L39.37 59.79L59.8 39.37L95.59 75.16C96.64 76.21 98.35 76.21 99.4 75.16L135.19 39.37L155.62 59.79L119.83 95.59C119.32 96.1 119.04 96.78 119.04 97.5C119.04 98.21 119.32 98.89 119.83 99.4L155.62 135.19L135.19 155.62Z" fill="#F4F6F9" fill-opacity="1.000000" fill-rule="nonzero"/>
	</g>
</svg>
