<svg xmlns="http://www.w3.org/2000/svg" xmlns:svg="http://www.w3.org/2000/svg" width="451" height="646"><desc>Created with Pixso.</desc><g class="layer"><title>Layer 1</title><path id="Fill-1" fill="#000" fill-rule="evenodd" d="m216.48,29.46c-0.54,3.73 -1.64,6.76 -3.09,9.2c-0.03,-1.36 -0.08,-2.73 -0.16,-4.09c2.31,-4.56 3.5,-9.68 2.62,-13.35c0.8,2.51 1.06,5.3 0.63,8.24zm-19.95,17.53c-4.6,-0.48 -11.75,-3.25 -13.21,-7.21c-0.54,-1.44 -0.28,-2.95 0.74,-4.49c-0.72,2.23 -0.13,5.57 2.74,7.61c5.14,3.65 14.37,4.06 19.72,0.11c0.89,-0.65 1.75,-1.46 2.57,-2.35c-0.01,0.98 -0.04,1.97 -0.07,2.95c-3.8,2.91 -8.41,3.81 -12.49,3.38zm-6.45,-34.5c2.53,-1.97 5.67,-2.84 9.35,-2.63c-5.1,0.2 -10.67,2.86 -14.38,10.49c0.82,-2.8 2.37,-5.79 5.03,-7.86zm25.69,8.45c-0.02,-0.12 -0.06,-0.23 -0.1,-0.35c0.04,0.11 0.07,0.23 0.1,0.35zm-9.52,-10.28c-6.86,-2.29 -12.42,-1.82 -16.53,1.38c-3.05,2.38 -4.73,5.85 -5.49,8.97c-0.18,0.02 -0.36,0.05 -0.54,0.07c-5.64,-2.11 -11.45,-1.3 -16.24,1.37c-2.15,1.2 -3.34,2.72 -5.47,3.96c-1.58,0.97 -3.16,1.94 -4.73,2.91c-4.75,4 -8.73,8.54 -8.76,14.81c-0.01,1.83 0.61,6.37 1.54,10.73c-0.8,-0.13 -1.28,-0.17 -1.7,-0.31c-6.71,-2.22 -11.82,1.55 -11.56,8.62c0.19,5.25 2.72,9.31 7.37,11.5c2.73,1.28 3.35,2.77 3.11,5.53c-1.5,17.48 -4.34,34.74 -7.91,51.91c-0.41,1.97 -0.06,4.1 -0.06,6.31c3.64,-0.12 3.5,-2.38 3.91,-4.28c3.85,-17.86 6.79,-35.86 8.41,-54.07c0.51,-5.69 0.45,-5.87 -5.03,-8.7c-4.21,-2.18 -6.65,-6.86 -5.15,-10.44c0.51,-1.22 1.77,-2.73 2.88,-2.93c1,-0.17 2.39,1.17 3.39,2.08c0.65,0.58 0.75,1.78 1.4,2.34c1,0.86 2.26,1.41 3.41,2.09c0.13,-0.24 0.26,-0.47 0.4,-0.71c0.09,0.14 0.18,0.29 0.26,0.4c0.14,-0.56 0.29,-1.1 0.44,-1.65c0.2,-0.4 0.38,-0.81 0.45,-1.23c0.04,-0.27 0.07,-0.55 0.11,-0.82c4.7,-15.74 14.4,-27.24 30.08,-34.17c0.14,0.11 0.62,0.63 1.22,0.92c0.78,0.37 1.69,0.48 2.47,0.85c2.25,1.07 3.8,3.23 2.5,5.14c-1.74,2.53 -3.9,2.65 -4.93,0.31c-0.05,-0.12 -0.35,0.08 -0.53,0.12l-0.21,-0.19c-2.1,2.21 -2.76,4.4 -1.99,6.5c1.62,4.37 9.13,7.11 13.7,7.58c0.65,0.07 1.32,0.1 2,0.1c3.53,0 7.29,-0.98 10.53,-3.31c-0.07,1.76 -0.17,3.51 -0.33,5.26c-1.39,15.08 -3.37,30.08 -10.17,43.92c-3.14,6.38 -6.42,7.8 -13.41,5.65c-5.13,-1.59 -10.03,-3.68 -14.18,-7.25c-1.19,-1.03 -2.68,-2.75 -4.17,-0.77c-1.37,1.8 0.38,3.11 1.67,4.06c2.22,1.64 4.49,3.27 6.93,4.51c6.13,3.11 12.51,5.36 19.5,4.07c0.63,1.86 1.17,3.23 1.58,4.64c2.44,8.5 4.8,17.03 7.31,25.52c0.62,2.11 0.48,4.88 4.86,5.98c-0.34,-2.53 -0.37,-4.31 -0.83,-5.97c-2.53,-9.24 -5.23,-18.44 -7.74,-27.69c-0.55,-2.02 -1.72,-3.99 -0.25,-6.32c5.8,-9.2 8.57,-19.51 10.55,-30.09c1.87,-9.96 3.13,-19.99 3.07,-30.09c1.73,-2.63 3.04,-5.99 3.66,-10.24c1.28,-8.71 -3.06,-16.3 -10.8,-18.88z"/><path id="svg_1" fill="#000" fill-opacity="1" fill-rule="evenodd" d="m193.5,49.57l3.53,13.96l-5.15,0.52l1.62,-14.48z"/><path id="Fill-2" fill="#000" fill-opacity="1" fill-rule="evenodd" d="m193.51,49.71l-1.6,14.31l5.09,-0.5l-3.49,-13.81zm-1.63,14.36c0,0 -0.01,0 -0.02,0c0,-0.01 0,-0.02 0,-0.02l1.61,-14.48c0.01,-0.01 0.02,-0.02 0.03,-0.02c0.01,0 0.02,0.01 0.02,0.02l3.53,13.96c0,0.01 0,0.01 0,0.02c-0.01,0 -0.01,0.01 -0.02,0.01l-5.15,0.51l0,0z" transform="matrix(1, 0, 0, 1, 0, 0)"/><path id="Fill-4" fill="#000" fill-opacity="1" fill-rule="evenodd" d="m187.92,39.95c0,0 0.74,4.22 -0.09,5.22c-3.67,-0.55 -11.79,0.46 -16.9,5.14c1.09,-6.18 16.99,-10.36 16.99,-10.36z"/><path id="Fill-6" fill="#000" fill-opacity="1" fill-rule="evenodd" d="m187.9,39.98c-0.35,0.09 -4.17,1.13 -8.06,2.85c-2.38,1.06 -4.33,2.16 -5.78,3.27c-1.78,1.37 -2.82,2.77 -3.09,4.14c2.86,-2.59 6.43,-3.86 8.94,-4.48c2.19,-0.54 5.41,-0.98 7.91,-0.61c0.76,-0.97 0.14,-4.81 0.08,-5.17zm-16.97,10.36c0,0 -0.01,-0.01 -0.01,-0.01c-0.01,0 -0.01,-0.01 -0.01,-0.02c0.25,-1.42 1.3,-2.85 3.12,-4.25c1.46,-1.11 3.41,-2.22 5.79,-3.27c4.07,-1.8 8.05,-2.86 8.09,-2.86c0.01,-0.01 0.02,-0.01 0.02,0c0.01,0 0.01,0.01 0.01,0.01c0.03,0.18 0.73,4.24 -0.09,5.25c-0.01,0.01 -0.02,0.01 -0.03,0.01c-2.48,-0.37 -5.71,0.07 -7.9,0.61c-2.51,0.61 -6.11,1.9 -8.97,4.52c-0.01,0 -0.01,0.01 -0.02,0.01z"/><path id="Fill-8" fill="#000" fill-opacity="1" fill-rule="evenodd" d="m197.4,39.28c0,0 -0.66,4.23 0.2,5.23c3.99,-0.03 10.24,1.67 14.5,4.1c-1.33,-4.25 -14.7,-9.33 -14.7,-9.33z"/><path id="Fill-10" fill="#000" fill-opacity="1" fill-rule="evenodd" d="m197.71,44.48c4.09,0 10.22,1.74 14.35,4.08c-0.74,-2.18 -4.65,-4.56 -7.82,-6.19c-3.3,-1.69 -6.49,-2.93 -6.82,-3.05c-0.06,0.38 -0.6,4.22 0.19,5.16c0.03,0 0.06,0 0.1,0zm14.39,4.15c0,0 -0.01,0 -0.01,0c-4.12,-2.35 -10.27,-4.1 -14.38,-4.1l-0.11,0c-0.01,0 -0.02,0 -0.02,-0.01c-0.36,-0.41 -0.5,-1.42 -0.43,-3c0.06,-1.17 0.22,-2.23 0.22,-2.24c0,-0.01 0.01,-0.01 0.01,-0.02c0.01,0 0.02,0 0.02,0c0.04,0.01 3.39,1.29 6.86,3.07c3.21,1.64 7.17,4.06 7.86,6.27c0.01,0.01 0,0.02 0,0.03c-0.01,0 -0.01,0 -0.02,0z"/><path id="Fill-13" fill="#000" fill-opacity="1" fill-rule="evenodd" d="m184.26,62.36c2.54,3.76 4.6,5.86 8.03,6.22c3.43,0.36 5.83,-1.62 5.83,-1.62c0,0 -2.74,7.34 -6.06,8.7c-6.87,2.82 -6.54,-5.65 -7.8,-13.3z"/><path id="Fill-17" fill="#000" fill-opacity="1" fill-rule="evenodd" d="m174.36,56.36l-0.73,-0.65c0.12,-0.14 2.94,-3.3 7.77,-3.55c5.96,-0.3 8.58,2.47 8.69,2.58l-0.72,0.67c-0.03,-0.03 -2.46,-2.55 -7.92,-2.27c-4.4,0.22 -7.06,3.19 -7.09,3.22z"/><path id="Fill-19" fill="#000" fill-opacity="1" fill-rule="evenodd" d="m210.58,55.38c-0.02,-0.03 -2.38,-2.93 -6.32,-3.1c-2.57,-0.1 -4.38,0.54 -5.44,1.1c-1.16,0.61 -1.71,1.25 -1.72,1.25l-0.75,-0.63c0.11,-0.12 2.54,-2.92 7.95,-2.7c4.4,0.19 6.94,3.34 7.05,3.47l-0.77,0.61z"/><path id="Path-37" fill="none" fill-rule="evenodd" d="m4.61,188.08l62.36,0c-16.32,41.58 -24.49,66.79 -24.49,75.63c0,8.85 -1.03,20.32 -3.09,34.42l-34.78,3.12l0,-113.17z"/><path id="Path-38" fill="#00ff7f" fill-rule="evenodd" d="m74.68,174.51c6.2,-17.51 11.04,-26.26 14.53,-26.26c3.49,0 19.67,-3.25 48.53,-9.76c16.58,15.38 29.2,23.07 37.85,23.07c8.65,0 20.15,-7.01 34.52,-21.04c28.48,4.31 45.72,8.05 51.71,11.22c8.99,4.76 26.55,22.99 26.55,29.34c0,4.23 3.92,16.47 11.74,36.72c17.46,-14.73 27.07,-23.47 28.84,-26.23c2.65,-4.14 16.77,-24.54 14.47,-33.93c-2.3,-9.39 0.77,-44.29 5.31,-48.54c-0.89,-5.97 -0.89,-10.78 0,-14.41l48.76,1.28l5.26,13.13c6.68,3.48 9.36,9.94 8.03,19.39c-1.33,9.45 -6.19,26.98 -14.58,52.59l-9.87,46.6l-10.57,48.34c-2.5,10.21 -7.63,18.59 -15.39,25.14c-7.76,6.54 -31.76,10.33 -72,11.37c-2.87,-7.58 -6.54,-11.37 -11.01,-11.37c-6.71,0 -60.04,3.46 -67.25,0c-4.82,-2.32 -13.52,-8.42 -26.12,-18.31l2.37,29.68c-41.06,1.05 -61.58,1.58 -61.58,1.58c0,0 -24.78,-0.12 -74.34,-0.34c-5.67,-20.87 -5.67,-40.43 0,-58.69c5.68,-18.27 13.76,-45.12 24.24,-80.57z" transform="matrix(1, 0, 0, 1, 0, 0)"/><path id="Path-39" fill="#aad4ff" fill-rule="evenodd" d="m89.45,316.42c-3.86,36.08 -1.11,60.17 8.27,72.28c9.39,12.11 21.69,21.21 36.93,27.29l71.19,7.85l14.74,9.78l14.74,23.54l-46.4,54.13l20.74,22.3l30.89,32.27l39.86,-44.2l15.62,29.35l66.58,-29.35l-33.23,-64.5c17.8,-27.47 27.79,-46.35 29.97,-56.64c3.26,-15.42 -11.57,-48.33 -29.97,-55.32c-12.26,-4.65 -32.93,-14.21 -62.02,-28.66l-177.91,-0.12z"/><path id="Path-40" fill="#00f" fill-rule="evenodd" d="m177.84,568l18.14,-18.31l30.36,29.51l-17.98,21.3l-30.52,-32.5z" transform="matrix(1, 0, 0, 1, 0, 0)"/><path id="Path-41" fill="#7f3f00" fill-rule="evenodd" d="m172.17,570.48c-9.78,13.71 -15.66,22.48 -17.65,26.31c-1.99,3.82 -6.53,10.76 -13.64,20.8l15.65,13.1l15.64,-4.91l0,11.33l79.83,2.66c3.57,-4.69 2.49,-7.72 -3.26,-9.08c-5.75,-1.36 -21.31,-5.73 -46.67,-13.1l8.81,-12.83l-38.71,-34.28z" transform="matrix(1, 0, 0, 1, 0, 0)"/><path id="Path-42" fill="#00f" fill-rule="evenodd" d="m311.79,562l3.95,13.1l44.56,-15.34l-12.41,-19.31l-36.1,21.55z" transform="matrix(1, 0, 0, 1, 0, 0)"/><path id="Path-43" fill="#7f3f00" fill-rule="evenodd" d="m314.1,580.17c5.71,14.09 8.56,23.21 8.56,27.35c0,4.15 0,14.65 0,31.51l20.21,-2.21l5.92,-9.32l4.48,12.27c58.59,-4.03 89.59,-7.08 93,-9.15c3.4,-2.08 1.97,-5.66 -4.32,-10.74c-34.53,-8.24 -54.82,-15.08 -60.87,-20.53c-6.04,-5.45 -10.86,-18.93 -14.45,-40.42l-52.53,21.24z"/><path id="svg_2" fill="#000" fill-opacity="1" fill-rule="evenodd" d="m349.45,90.44c0,-0.55 -0.16,-1.33 0.13,-1.61c3.54,-3.29 1.63,-7.23 1.28,-10.91c-0.99,-10.28 -2.39,-20.52 -3.19,-30.81c-0.99,-12.88 -1.55,-25.78 -2.27,-38.67c-0.09,-1.47 -0.3,-3 0.01,-4.41c0.85,-3.93 3.29,-4.96 6.97,-3.23c10.18,4.78 13.98,13.74 15.46,24.03c0.72,5.05 0.84,10.18 1.27,15.79c7.12,-3.73 13.42,-7.2 19.88,-10.32c2.78,-1.34 5.85,-2.41 8.89,-2.8c4.64,-0.58 6.73,0.98 8.57,5.28c0.58,1.36 1.15,2.75 1.41,4.19c0.39,2.23 1.56,3.5 3.66,4.37c4.7,1.94 7.62,5.01 6.54,10.7c-0.22,1.14 0.78,2.73 1.62,3.81c5.99,7.72 2.95,16.63 -3.03,21.69c-2.53,2.13 -5.41,3.82 -8.11,5.75c-1.95,1.39 -3.95,2.74 -5.75,4.3c-1.66,1.44 -3.08,3.15 -4.56,4.69c0.04,0.72 0.07,1.27 0.09,1.81l-48.87,-3.65z"/><path id="svg_3" fill="#FFF" fill-opacity="1" fill-rule="evenodd" d="m349.45,5.06c2.08,27.97 2.27,55.22 7.13,82.07c0.96,0.18 1.68,0.37 2.4,0.43c10.64,0.94 21.26,1.92 31.91,2.68c1.41,0.1 3.12,-0.7 4.31,-1.59c1.41,-1.05 2.41,-2.66 3.04,-3.39c-2.5,-2.3 -4.67,-4.31 -7.5,-6.91c-1.77,-0.03 -5.51,0.91 -6.7,-2.37c-0.84,-2.33 0.22,-5.34 0.44,-8.11c-2.73,-0.23 -6.63,0.58 -7.76,-3.14c-0.82,-2.73 -0.11,-5.93 -0.08,-9.31c-4.77,-0.12 -7.65,-2.86 -7.96,-8.34c-3.07,1.07 -3.97,-0.54 -4.08,-2.96c-0.08,-1.84 0.02,-3.69 -0.07,-5.53c-0.39,-7.72 -0.55,-15.49 -3.7,-22.77c-2.11,-4.9 -5.38,-8.6 -11.38,-10.76z"/><path id="svg_4" fill="#FFF" fill-opacity="1" fill-rule="evenodd" d="m373.78,50.65c11.8,0.16 20.82,-5.17 29.73,-10.34c-1.07,-10.28 -4.87,-9.81 -11.32,-6.74c-3.81,1.82 -7.65,3.64 -11.25,5.83c-3.79,2.3 -7.06,5.21 -7.16,11.25z"/><path id="svg_5" fill="#FFF" fill-opacity="1" fill-rule="evenodd" d="m380.65,62.52c0.95,0.39 1.31,0.7 1.62,0.65c10.71,-1.76 20.32,-6.48 29.91,-11.24c1.69,-0.84 2.01,-2.62 0.98,-4.3c-1.37,-2.24 -5.84,-3.58 -8.22,-2.46c-6.18,2.88 -12.43,5.65 -18.46,8.83c-3.19,1.68 -6.22,3.96 -5.83,8.52z"/><path id="svg_6" fill="#FFF" fill-opacity="1" fill-rule="evenodd" d="m388.61,73.46c10.17,-2.58 20.26,-5.15 29.82,-11.12c-1.85,-2.36 -3.23,-4.12 -4.63,-5.9c-9.82,4.17 -18.94,8.34 -25.19,17.02z"/><path id="Fill-12" fill="#FFF" fill-opacity="1" fill-rule="evenodd" d="m396.96,78.49c7.41,1.45 16.79,-3.21 18.36,-9.34c-5.9,3.96 -13.32,3.54 -18.36,9.34z"/><path id="Fill-14" fill="#000" fill-opacity="1" fill-rule="evenodd" d="m280.6,305.11c1.22,4.65 1.22,4.65 4.23,4.62c-1.36,-1.49 -2.49,-2.72 -4.23,-4.62zm-96.1,6.18c0,-8.87 0.2,-17.1 -0.08,-25.31c-0.15,-4.56 -0.81,-4.75 -6.38,-3.85c-0.12,9.68 -2.15,19.34 -1.84,29.16l8.3,0zm124.35,247.98c12.07,-6.76 23.54,-13.19 35.21,-19.74c-1.55,-2.7 -2.69,-4.69 -3.82,-6.66c-12.51,5.58 -24.39,10.89 -36.61,16.34c1.67,3.21 3.18,6.11 5.22,10.06zm91.13,-455.41c0.48,-8.14 0.29,-8.49 -6.64,-8.71c-12.72,-0.41 -25.44,-0.67 -38.16,-0.94c-1.59,-0.04 -3.18,0.29 -4.65,0.44c-0.98,8.86 -0.71,9.26 7.17,9.35c12.18,0.14 24.36,0.18 36.53,0.22c1.81,0.01 3.63,-0.22 5.75,-0.36zm-54.08,439.65c-11.86,6.65 -23.14,12.97 -34.73,19.47c2.38,4 4.58,7.71 6.96,11.7c12.26,-5.09 24.03,-9.97 36.11,-14.99c-2.9,-5.62 -5.41,-10.5 -8.34,-16.18zm-137.83,-7.11c-3.73,4.78 -7.52,9.64 -11.14,14.28c9.43,8.71 18.46,17.05 27.72,25.61c2.05,-2.14 4.09,-4.23 6.1,-6.36c1.63,-1.73 3.22,-3.49 4.77,-5.19c-4.67,-6.98 -23.51,-26.55 -27.45,-28.34zm-109.07,103.65c22.91,-0.33 45.43,-0.65 67.58,-0.97c-0.29,-3.22 -0.52,-5.8 -0.79,-8.76c-1.71,0.77 -3.35,1.45 -4.92,2.25c-2.75,1.42 -5.24,1.32 -7.64,-0.8c-1.38,-1.21 -2.87,-2.35 -4.46,-3.24c-1.72,-0.97 -3.64,-2.33 -5.42,-2.27c-11.95,0.43 -23.92,0.77 -35.8,1.99c-7.98,0.81 -9.3,3.33 -8.55,11.8zm122.26,-59.91c-8.85,-9.22 -17.41,-18.06 -27.98,-25.52c-4.51,5.11 -8.86,10.02 -13.29,15.03c7.4,10.7 15.87,19.46 25.82,27.18c5.3,-5.73 10.27,-11.09 15.45,-16.69zm-32.11,-267.73c29.24,0.28 58.53,1.4 88.87,-1.4c-4.81,-5.91 -10.32,-7.88 -16.21,-8.52c-6.41,-0.7 -12.89,-0.91 -19.34,-0.94c-7.19,-0.02 -14.39,0.61 -21.58,0.58c-10.33,-0.05 -20.16,-2.17 -28.86,-8.14c-0.64,-0.44 -1.53,-0.52 -2.88,-0.96l0,19.38zm-71.24,138.91c0.32,8.64 0.62,16.83 0.95,25.5c14.63,1.18 28.64,2.63 43.56,1.43c-0.48,-9.05 0.65,-17.75 -0.57,-26.93l-43.94,0zm-3.11,-42.66c-1.4,-1.22 -2.04,-1.85 -2.75,-2.38c-14.82,-11.17 -22.99,-26.15 -25.27,-44.4c-1.56,-12.48 -1.77,-25.02 -0.86,-37.57c0.19,-2.68 0.28,-5.36 0.44,-8.35c-6.61,-0.17 -12.52,0.11 -18.73,0.91c7.55,30.54 6.82,61.1 8.99,91.79l38.18,0zm23.25,212.91c-0.98,-4.78 -0.98,-4.78 2.32,-8.36c10.7,-11.64 10.71,-11.64 10.49,-26.78c-0.48,-32.48 -0.95,-64.96 -1.44,-97.44c-0.02,-1.8 -0.19,-3.6 -0.32,-5.82c-5.97,-0.3 -11.57,-0.57 -17.53,-0.87c-0.22,4.09 -0.56,7.57 -0.57,11.05c-0.07,17.9 -0.03,35.8 -0.07,53.71c-0.03,9.96 -0.35,19.93 -0.16,29.89c0.23,12.16 0.86,24.32 1.34,36.48c0.11,2.69 0.32,5.38 0.5,8.14l5.44,0zm36.55,-51.43c-0.9,1.22 -1.38,1.77 -1.74,2.39c-3.06,5.25 -5.67,10.82 -9.22,15.71c-6.39,8.81 -13.28,17.24 -20.07,25.75c-2.5,3.12 -2.74,4.39 0.4,6.84c2.73,2.12 6.12,3.39 8.81,5.54c3.81,3.05 6.9,2.05 10.42,-0.45c2.62,-1.86 5.49,-3.65 9.57,-3.2c-0.67,3.94 -1.28,7.63 -1.93,11.48c1.6,0.39 2.81,0.85 4.07,0.99c13.92,1.46 27.83,3.17 41.78,4.2c8.07,0.6 16.22,0.23 24.33,0c3.55,-0.09 7.08,-0.92 11.04,-1.48c-1.72,-3.67 -4.2,-5.34 -6.94,-6.3c-5.9,-2.07 -11.85,-4.11 -17.92,-5.54c-6.28,-1.47 -12.83,-1.79 -19.06,-3.4c-6.28,-1.62 -9.28,-5.73 -4.35,-11.05c2.1,-2.27 4.06,-4.66 6.05,-6.95c-14.62,-8.56 -24.9,-21.12 -35.24,-34.53zm65.07,-8.28c12.3,-14.3 24.1,-27.93 34.79,-42.43c-11.77,-20.81 -25.09,-40.15 -38.31,-60.12c-14.94,17.38 -29.33,34.1 -44.11,51.28c15.94,17.17 31.56,33.98 47.63,51.27zm-201.54,-266.04c0.19,-2.09 0.32,-3.71 0.5,-5.32c0.7,-6.59 0.97,-13.26 2.23,-19.75c5.27,-27.2 12.48,-53.85 23.96,-79.2c0.64,-1.41 1.03,-2.93 1.74,-4.98c-21.07,-0.01 -41.4,-0.12 -62.09,0.36c0.5,37.19 0.99,73.63 1.49,110.71c11.08,-0.63 21.48,-1.22 32.17,-1.82zm283.07,342.14c5.57,-0.3 10.35,-0.68 15.14,-0.77c2.62,-0.05 4.15,-1.1 4.83,-3.59c0.48,-1.78 0.91,-3.6 1.65,-5.27c0.4,-0.89 1.5,-2.18 2.13,-2.09c1.04,0.13 2.14,1.07 2.88,1.95c0.68,0.82 0.92,2 1.33,3.02c1.21,3.04 2.41,6.09 3.65,9.2c2.67,0 4.87,0.1 7.07,-0.02c18.59,-0.96 37.17,-1.77 55.52,-5.4c7.4,-1.46 14.96,-2.14 22.41,-3.43c2.76,-0.48 5.85,-0.49 8.05,-2.78c-1.45,-5.92 -4.76,-9.01 -10.81,-9.59c-12.53,-1.19 -24.77,-3.99 -36.53,-8.46c-4.96,-1.88 -9.81,-4.32 -14.24,-7.23c-8.6,-5.64 -13.73,-13.73 -15.12,-24.06c-0.72,-5.3 -1.5,-10.59 -2.31,-15.88c-0.19,-1.22 -0.66,-2.39 -1.08,-3.89c-17.03,7.14 -33.71,14.12 -50.67,21.22c5.06,8.97 6.69,17.93 6.45,27.34c-0.19,7.56 -0.25,15.13 -0.35,22.7c-0.03,2.18 0,4.36 0,7.03zm-296.63,-204.11c3.13,0.95 6.04,2.24 9.08,2.7c18.05,2.71 36.06,6.18 54.23,7.59c22.62,1.77 45.37,1.95 68.08,2.49c12.55,0.3 25.17,0.66 37.66,-0.33c10.2,-0.8 20.23,-0.33 30.33,0.36c0.97,0.07 1.97,-0.1 3.56,-0.2c-3.68,-6.14 -6.96,-11.66 -11.73,-16.07c-1.44,-1.34 -3.22,-2.66 -5.07,-3.17c-5.67,-1.6 -11.39,-3.36 -17.21,-4.05c-12.27,-1.44 -24.62,-2.24 -36.93,-3.31c-10.66,-0.94 -21.38,-1.5 -31.51,-5.48c-1.16,-0.45 -2.51,-0.55 -3.77,-0.56c-30.66,-0.19 -61.31,-0.35 -91.97,-0.48c-1.95,-0.01 -3.9,0.24 -6.21,0.39c0.5,6.87 0.95,13.1 1.46,20.12zm205.03,15.81c-2.44,0.54 -4.46,1.41 -6.45,1.33c-8.63,-0.36 -17.19,-1.11 -25.9,-0.16c-8.03,0.87 -16.22,0.36 -24.34,0.49c-1.81,0.03 -3.61,0.18 -5.85,0.3c0,3.17 0,5.9 0,8.63c0,5.36 0.1,10.71 -0.05,16.06c-0.14,5.18 -1.09,6.04 -6.16,6.42c-2.16,0.17 -4.32,0.36 -6.74,0.55c-0.08,1.79 -0.22,3.23 -0.2,4.67c0.41,29.34 0.78,58.68 1.33,88.01c0.1,4.99 0.96,9.98 1.6,16.32c2.05,-3.29 3.59,-5.5 4.86,-7.86c2.77,-5.2 5.39,-10.5 8.12,-15.72c0.94,-1.8 1.94,-3.96 4.43,-3.42c3.39,0.74 5.01,-1.31 6.82,-3.46c2.37,-2.82 4.99,-5.44 7.36,-8.27c5.89,-7.05 11.69,-14.17 17.82,-21.61c-4.25,-4.37 -8.1,-8.28 -11.9,-12.24c-8.16,-8.52 -8.22,-9.39 -0.73,-18.13c12.12,-14.14 24.3,-28.25 36.44,-42.38c1.16,-1.35 2.21,-2.79 3.28,-4.14c-1.31,-2.02 -2.29,-3.57 -3.32,-5.09c-0.19,-0.28 -0.59,-0.41 -0.42,-0.3zm-138.12,-133.48c-0.3,0.63 -0.56,0.94 -0.59,1.28c-1.75,16.42 -1.69,32.81 1.13,49.11c4.35,25.17 28.43,45.64 49.11,47.03c18.23,1.22 36.45,2.58 54.68,3.92c2.55,0.19 5.2,0.27 7.62,1c8.76,2.65 15.96,7.58 21.1,15.3c4.5,6.76 8.97,13.55 13.53,20.27c19.26,28.43 38.54,56.84 57.87,85.23c1.42,2.1 3.2,3.96 5.09,6.27c19.26,-8.58 38.22,-17.04 57.2,-25.5c-0.85,-3.09 -1.21,-5.9 -2.36,-8.34c-4.3,-9.17 -8.67,-18.33 -13.36,-27.32c-8.98,-17.17 -18.36,-34.13 -27.26,-51.35c-7.29,-14.11 -14.39,-28.26 -23.34,-41.46c-8.32,-12.26 -18.37,-22.09 -32.38,-27.48c-7.39,-2.85 -14.75,-5.77 -22.1,-8.7c-8.58,-3.41 -17.15,-6.83 -25.68,-10.34c-1.54,-0.64 -2.89,-1.72 -4.33,-2.6c0.18,-0.44 0.36,-0.88 0.54,-1.32c1.52,0.29 3.07,0.45 4.54,0.87c16.69,4.8 32.95,10.74 48.86,17.72c11.01,4.83 20.84,11.19 28.05,21c7.76,10.57 15.11,21.4 21.04,33.17c5.64,11.2 11.57,22.27 17.39,33.39c0.83,1.57 1.81,3.07 2.86,4.84c0.84,-0.9 1.44,-1.36 1.81,-1.97c6.4,-10.57 13.07,-21 19.02,-31.82c2.9,-5.28 4.7,-11.21 6.51,-17.01c2.96,-9.53 1.32,-18.6 -3.69,-27.14c-9.71,-16.57 -23.14,-29.37 -40.61,-37.1c-15.49,-6.86 -31.65,-12.2 -47.48,-18.31c-3.31,-1.28 -6.58,-1.85 -10.18,-1.82c-20.68,0.14 -41.36,0.12 -62.04,0.02c-6.8,-0.03 -13.64,-1.09 -20.37,-0.53c-14.24,1.2 -28.41,0.33 -42.62,-0.2c-13.07,-0.49 -26.17,-0.11 -39.56,-0.11zm187.94,-49.04c0,-2.79 -0.3,-4.26 0.05,-5.54c1.47,-5.34 2.95,-10.68 4.77,-15.9c3.1,-8.9 8.4,-16.72 13,-24.86c1.78,-3.15 2.38,-5.96 1.29,-9.41c-1.5,-4.74 -2.64,-9.6 -3.94,-14.41c-4.27,-15.78 -12.99,-28.7 -24.76,-39.92c-4.34,-4.15 -9.46,-6.69 -14.76,-8.07c-11.57,-3.02 -23.41,-5.08 -35.2,-7.21c-5.89,-1.07 -11.41,-0.25 -14.76,5.78c-0.61,1.1 -1.67,1.96 -2.59,2.87c-10.67,10.64 -24.08,13.04 -37.62,6.55c-7.53,-3.61 -14.54,-8.19 -20.3,-14.25c-2.8,-2.93 -5.32,-3.54 -9.19,-2.79c-12.49,2.43 -25.01,4.87 -37.62,6.36c-6.58,0.79 -10.5,3.46 -12.89,9.4c-3.65,9.07 -7.34,18.14 -11.44,27.01c-12.54,27.1 -21.54,55.32 -27.52,84.54c-2.31,11.26 -3.54,22.61 -2.97,34.11c0.25,5.17 2.35,8.08 6.87,8.66c6.75,0.86 13.57,1.66 20.36,1.69c18.28,0.1 36.56,-0.43 54.85,-0.33c13.1,0.07 26.2,0.78 39.31,1.1c2.13,0.06 4.27,-0.42 6.9,-0.7c0.68,-10.37 1.35,-20.28 1.99,-30.19c0.18,-2.89 -1.64,-4.56 -4.01,-5.33c-4.37,-1.43 -8.79,-2.97 -13.31,-3.62c-9.86,-1.43 -19.79,-2.31 -29.69,-3.46c-2.75,-0.32 -5.52,-0.65 -8.21,-1.25c-3.96,-0.9 -4.36,-1.94 -2.96,-5.76c1.27,-3.46 2.55,-6.93 3.57,-10.47c1.62,-5.67 2.92,-11.42 4.59,-17.07c0.34,-1.14 1.67,-2.8 2.57,-2.81c2.39,-0.04 2.01,2.07 1.88,3.71c-0.07,0.92 -0.2,1.84 -0.43,2.73c-1.23,4.63 -2.44,9.27 -3.79,13.87c-1.09,3.69 -2.36,7.33 -3.72,11.5c3.46,0.44 6.54,0.85 9.62,1.21c9.53,1.12 19.11,1.93 28.57,3.45c4.86,0.78 9.9,2.11 14.14,4.48c3.75,2.1 7.12,4.32 11.58,4.5c2.86,0.12 4.8,1.68 5.08,4.83c0.34,3.86 2.8,6.27 5.83,8.27c4.67,3.08 9.71,5.37 15.25,6.26c13.44,2.17 26.83,0.03 40.76,-0.05c0.02,-9.89 -1.18,-19.17 -2.74,-28.39c-1.68,-9.99 -3.64,-19.94 -5.51,-29.9c-0.4,-2.14 0.31,-3.91 2.35,-4.33c2.38,-0.48 2.35,1.69 2.64,3.31c3.11,17.62 6.75,35.16 7.68,53.1c0.11,2.1 0.68,4.17 0.97,5.92c6.58,0.65 12.45,1.13 18.3,1.83c6,0.71 10.81,3.52 14.08,8.74c0.47,0.75 1.1,1.39 1.15,1.45c9.37,-0.17 18,-0.29 26.62,-0.5c10.15,-0.25 20.3,-0.52 30.45,-0.9c5.81,-0.22 10.78,-2.5 14.54,-7c2.11,-2.54 4.24,-5.16 5.85,-8.02c6.31,-11.22 9.88,-23.41 12.23,-35.99c1.22,-6.51 1.75,-13.27 3.88,-19.48c4.74,-13.85 8.2,-27.96 10.54,-42.37c2.46,-15.17 5.58,-30.11 12.82,-43.9c1.36,-2.59 2.09,-5.51 3.14,-8.27c3.83,-10.13 1.8,-19.61 -3.29,-28.7c-1.73,-3.07 -4.28,-4.7 -8.12,-4.67c-14.4,0.12 -28.81,0 -43.21,-0.09c-5.78,-0.04 -6.82,0.12 -8.47,5.67c-1.56,5.24 -2.44,10.79 -2.75,16.25c-0.46,7.91 0.18,15.89 -0.22,23.81c-0.97,19.41 -8.21,35.82 -24.1,47.74c-7.05,5.29 -12.95,11.51 -17.11,19.32c-1.22,2.28 -2.41,4.58 -3.8,6.75c-6.21,9.72 -10.9,20.09 -13.69,31.29c-0.4,1.61 -0.61,3.36 -1.39,4.76c-0.57,1.02 -1.96,1.57 -3.99,3.09zm-3.88,49.58c2.49,1.03 4.13,1.72 5.77,2.39c12.82,5.2 25.7,10.26 38.44,15.65c8.05,3.4 15.68,7.98 21.56,14.33c8.5,9.17 16.39,19 20.74,31.04c2.32,6.44 2.31,13.03 0.85,19.64c-2.04,9.27 -5.48,18.03 -10.34,26.15c-5.59,9.34 -11.48,18.5 -17.23,27.74c-0.68,1.09 -1.3,2.2 -2,3.37c3.66,7.14 7.33,14.17 10.87,21.24c6.37,12.71 12.67,25.44 18.97,38.18c2.44,4.92 2.18,5.5 -3.01,7.72c-4.75,2.04 -9.49,4.07 -14.23,6.13c-0.31,0.14 -0.52,0.51 -1.06,1.05c4.42,8.65 8.9,17.41 13.55,26.5c2.67,-1.17 4.85,-2.1 7,-3.08c2.43,-1.1 4.07,-0.25 4.6,2.19c0.92,4.32 1.63,8.69 2.34,13.06c0.54,3.28 0.9,6.58 1.45,9.86c1.43,8.46 5.69,15.29 12.89,19.83c4.95,3.12 10.28,5.86 15.77,7.85c10.79,3.88 21.99,6.31 33.43,7.47c8.17,0.83 11.93,4.14 14.8,13.4c0.86,2.73 -0.2,4.43 -2.72,5.04c-5.54,1.36 -11.16,2.43 -16.72,3.71c-3.91,0.9 -7.78,1.94 -11.68,2.89c-0.89,0.21 -1.81,0.32 -2.72,0.41c-13.98,1.29 -27.94,2.68 -41.93,3.8c-6.43,0.51 -12.92,0.38 -19.37,0.76c-4.12,0.24 -6.73,-1.22 -7.78,-5.33c-0.3,-1.19 -1.01,-2.28 -1.98,-4.39c-2.18,6.46 -6.93,6.39 -11.74,6.51c-4.05,0.1 -8.09,0.7 -12.15,0.91c-3.65,0.18 -5.19,-1.03 -5.43,-4.63c-0.24,-3.49 0.09,-7.01 0.09,-10.52c0.02,-9.22 0.16,-18.45 -0.1,-27.67c-0.15,-5.6 -2.12,-10.82 -4.82,-15.73c-2.51,-4.58 -2.47,-4.6 1.88,-8.46c-1.56,-2.72 -3.19,-5.55 -4.81,-8.38c-2.28,-4.01 -4.59,-8.01 -6.83,-12.04c-1.3,-2.34 -1.91,-5.12 -5.68,-5.04c-1.08,0.03 -2.4,-2.07 -3.3,-3.4c-5.04,-7.5 -9.99,-15.06 -15.19,-22.93c-0.97,0.87 -1.83,1.46 -2.47,2.23c-10.27,12.34 -20.44,24.77 -30.81,37.03c-2.33,2.76 -5.52,4.77 -8.02,7.42c-7.73,8.18 -15.33,16.5 -22.96,24.79c-0.98,1.07 -1.81,2.27 -2.74,3.45c6.9,3.79 6.92,4 1.68,9.8c-2.08,2.31 -4.13,4.64 -6.01,6.74c0.75,3.13 2.98,3 4.93,3.35c7.63,1.37 15.34,2.42 22.85,4.27c5.15,1.26 10.17,3.32 14.97,5.62c4.62,2.22 7.89,5.95 9.06,12.01c-2.24,0.69 -4.39,1.53 -6.63,2.01c-15.39,3.29 -30.87,1.88 -46.35,0.75c-4.96,-0.36 -9.94,-0.4 -14.91,-0.35c-11.64,0.12 -23.27,0.35 -34.91,0.61c-18.63,0.42 -37.25,0.9 -55.88,1.37c-4.74,0.13 -5.41,-0.45 -5.53,-5.22c-0.03,-1.65 0.11,-3.31 0.23,-4.97c0.36,-5.2 2.92,-8.88 8.08,-9.91c5.95,-1.2 12,-1.86 18.03,-2.65c2.18,-0.28 4.4,-0.29 7.28,-0.47c-2.95,-46.54 -0.29,-92.92 -1.35,-139.54c-1.9,-0.36 -3.67,-0.71 -5.44,-1.04c-5.63,-1.05 -6.47,-1.98 -6.7,-7.54c-0.27,-6.45 -0.53,-12.91 -0.82,-19.37c-0.05,-1.08 -0.23,-2.16 -0.4,-3.69c-2.07,-0.19 -4.05,-0.48 -6.04,-0.54c-23.31,-0.68 -46.36,-3.73 -69.26,-7.92c-4.52,-0.83 -8.99,-2.11 -13.36,-3.56c-4.51,-1.49 -4.61,-2.42 -4.68,-7.18c-0.07,-5.34 -0.69,-10.68 -1.15,-16.01c-0.44,-5.08 0.41,-6.26 5.66,-6.39c12.38,-0.3 24.75,-0.44 37.12,-0.62c3.3,-0.04 6.6,0 9.85,0c1.9,-10.65 -2.13,-76.1 -8.31,-91.22c-4.06,-0.78 -8.14,-1.71 -12.28,-2.32c-7.3,-1.07 -11.01,-5.38 -11.89,-12.48c-0.07,-0.52 -0.31,-1.02 -0.62,-2c-1.91,0 -3.89,-0.1 -5.87,0.01c-8.3,0.48 -16.59,1.04 -24.88,1.54c-5.17,0.32 -5.78,-0.21 -5.85,-5.38c-0.46,-35.82 -0.91,-71.64 -1.34,-107.46c-0.07,-6.36 0.43,-6.92 6.98,-6.96c18.28,-0.09 36.56,-0.1 54.84,-0.14c2.21,0 4.42,0 6.99,0c1.73,-3.93 3.43,-7.78 5.1,-11.65c2.63,-6.1 5.22,-12.22 7.86,-18.31c2.85,-6.59 7.81,-9.38 15.05,-10.22c12.25,-1.43 24.44,-3.64 36.51,-6.23c6.16,-1.32 10.39,-0.73 15.05,4.26c6.94,7.42 15.55,13 25.73,15.55c8.36,2.09 15.75,-0.06 22.26,-5.35c2.56,-2.08 5.22,-4.39 6.88,-7.16c3.42,-5.72 8.55,-6.38 14.25,-5.87c3.3,0.3 6.59,0.89 9.84,1.54c10.3,2.08 20.74,3.45 30.59,7.5c15.18,6.24 26.79,16.38 33.46,31.4c3.95,8.89 6.72,18.31 9.98,27.5c0.55,1.56 0.92,3.18 1.51,5.29c1.14,-0.96 2.04,-1.68 2.91,-2.45c3.31,-2.94 6.41,-6.16 9.94,-8.8c16.11,-11.97 22.85,-28.47 23.43,-47.94c0.21,-7.01 0.04,-14.03 -0.04,-21.05c-0.09,-8.47 1.27,-16.53 6.24,-23.69c2.14,-3.08 0.47,-6.47 0.13,-9.63c-0.58,-5.33 -0.26,-5.84 4.78,-6.94c7.9,-1.73 15.83,-0.75 23.72,-0.56c8.09,0.19 16.15,1.12 24.23,1.6c3.01,0.18 4.99,1.45 5.5,4.41c0.57,3.26 0.24,6.82 1.47,9.77c1.21,2.92 4.26,5.03 5.84,7.86c5.94,10.63 6.65,21.71 2.02,33.04c-1.81,4.44 -3.49,8.95 -5.56,13.27c-4.19,8.77 -6.34,18.07 -7.83,27.59c-3.14,20.07 -8.38,39.66 -13.38,59.32c-2.99,11.79 -4.95,23.84 -9.33,35.28c-2.92,7.67 -6.63,14.78 -12.05,21c-4.61,5.29 -10.34,8.36 -17.27,8.88c-6.8,0.52 -13.63,0.68 -20.45,0.95c-11.44,0.47 -22.89,0.65 -34.29,1.44c-5.44,0.38 -10.79,1.89 -17.35,3.11z"/></g></svg>