<svg xmlns="http://www.w3.org/2000/svg" xmlns:xlink="http://www.w3.org/1999/xlink" width="195" height="195" fill="none" viewBox="0 0 195 195"><desc>Created with Pixso.</desc><defs><clipPath id="clip18408_29686"><rect id="minus-svgrepo-com 1" width="195" height="195" fill="#fff" fill-opacity="0"/></clipPath></defs><rect id="minus-svgrepo-com 1" width="195" height="195" fill="#FFF" fill-opacity="0"/><g clip-path="url(#clip18408_29686)"><path id="Vector" fill="#FFCD54" fill-opacity="1" fill-rule="nonzero" d="M0 97.5C0 151.35 43.64 195 97.49 195C151.35 195 195 151.35 195 97.5C195 43.65 151.35 0 97.49 0C43.64 0 0 43.65 0 97.5Z"/><path id="Vector" fill="#F4BA41" fill-opacity="1" fill-rule="nonzero" d="M194.2 109.74C194.1 109.64 194.02 109.52 193.9 109.44C193.73 109.19 161.83 77.29 161.58 77.11C161.09 76.43 160.33 75.95 159.43 75.95L35.56 75.95C34.08 75.95 32.87 77.16 32.87 78.65L32.87 116.34C32.87 117.25 33.35 118.01 34.03 118.5C34.2 118.74 34.41 118.95 34.65 119.12C34.83 119.37 109 193.54 109.25 193.71C109.38 193.91 109.56 194.06 109.74 194.21C153.79 188.68 188.68 153.79 194.2 109.74Z"/><path id="Vector" fill="#F4F6F9" fill-opacity="1" fill-rule="nonzero" d="M159.43 75.95L35.56 75.95C34.08 75.95 32.87 77.16 32.87 78.65L32.87 116.34C32.87 117.83 34.08 119.04 35.56 119.04L159.43 119.04C160.92 119.04 162.12 117.83 162.12 116.34L162.12 78.65C162.12 77.16 160.91 75.95 159.43 75.95ZM156.73 113.65L38.26 113.65L38.26 81.34L156.73 81.34L156.73 113.65L156.73 113.65Z"/></g></svg>