<svg xmlns="http://www.w3.org/2000/svg" xmlns:xlink="http://www.w3.org/1999/xlink" width="195" height="195" fill="none" viewBox="0 0 195 195"><desc>Created with Pixso.</desc><defs><clipPath id="clip18408_29667"><rect id="plus-svgrepo-com(1) 1" width="195" height="195" fill="#fff" fill-opacity="0"/></clipPath></defs><rect id="plus-svgrepo-com(1) 1" width="195" height="195" fill="#FFF" fill-opacity="0"/><g clip-path="url(#clip18408_29667)"><path id="Vector" fill="#47CEAC" fill-opacity="1" fill-rule="nonzero" d="M195 97.5C195 151.35 151.35 195 97.5 195C43.64 195 0 151.35 0 97.5C-0.01 43.65 43.64 0 97.5 0C151.35 0 195 43.65 195 97.5Z"/><path id="Vector" fill="#36BB9A" fill-opacity="1" fill-rule="nonzero" d="M194.97 98.47C194.93 98.42 194.88 98.38 194.84 98.33C194.72 98.22 146.04 49.53 145.92 49.42C133.54 36.95 116.41 29.21 97.5 29.21C59.85 29.21 29.21 59.85 29.21 97.5C29.21 116.41 36.95 133.54 49.42 145.92C49.53 146.04 49.65 146.15 49.77 146.27C49.88 146.39 98.22 194.72 98.33 194.84C98.38 194.88 98.42 194.93 98.47 194.97C151.54 194.45 194.45 151.55 194.97 98.47Z"/><path id="Vector" fill="#F4F6F9" fill-opacity="1" fill-rule="nonzero" d="M97.5 29.21C59.85 29.21 29.21 59.85 29.21 97.5C29.21 135.14 59.85 165.78 97.5 165.78C135.14 165.78 165.78 135.14 165.78 97.5C165.78 59.85 135.14 29.21 97.5 29.21ZM97.5 160.09C62.98 160.09 34.9 132.01 34.9 97.5C34.9 62.98 62.98 34.9 97.5 34.9C132.01 34.9 160.09 62.98 160.09 97.5C160.09 132.01 132.01 160.09 97.5 160.09Z"/><path id="Vector" fill="#F4F6F9" fill-opacity="1" fill-rule="nonzero" d="M131.64 94.65L100.34 94.65L100.34 63.35C100.34 61.78 99.07 60.51 97.5 60.51C95.92 60.51 94.65 61.78 94.65 63.35L94.65 94.65L63.35 94.65C61.78 94.65 60.51 95.92 60.51 97.49C60.51 99.07 61.78 100.34 63.35 100.34L94.65 100.34L94.65 131.64C94.65 133.21 95.92 134.48 97.5 134.48C99.07 134.48 100.34 133.21 100.34 131.64L100.34 100.34L131.64 100.34C133.21 100.34 134.48 99.07 134.48 97.49C134.48 95.92 133.21 94.65 131.64 94.65Z"/></g></svg>