<!DOCTYPE svg PUBLIC "-//W3C//DTD SVG 1.1//EN" "http://www.w3.org/Graphics/SVG/1.1/DTD/svg11.dtd">
<!-- Uploaded to: SVG Repo, www.svgrepo.com, Transformed by: SVG Repo Mixer Tools -->
<svg fill="#ffffff" height="800px" width="800px" version="1.1" id="Layer_1" xmlns="http://www.w3.org/2000/svg" xmlns:xlink="http://www.w3.org/1999/xlink" viewBox="0 0 512 512" xml:space="preserve" stroke="#ffffff" stroke-width="5.632">
<g id="SVGRepo_bgCarrier" stroke-width="0"/>
<g id="SVGRepo_tracerCarrier" stroke-linecap="round" stroke-linejoin="round"/>
<g id="SVGRepo_iconCarrier"> <g> <g> <path d="M286.081,61.998H199.39c-4.343,0-7.863,3.519-7.863,7.863v47.984c0,4.343,3.519,7.863,7.863,7.863h86.691v-0.001 c4.343,0,7.863-3.519,7.863-7.863V69.861C293.944,65.518,290.425,61.998,286.081,61.998z M278.218,109.982h-70.966V77.723h70.966 V109.982z"/> </g> </g> <g> <g> <path d="M146.972,61.998H60.28c-4.343,0-7.863,3.519-7.863,7.863v47.984c0,4.343,3.519,7.863,7.863,7.863h86.692 c4.343,0,7.863-3.519,7.863-7.863V69.861C154.835,65.518,151.315,61.998,146.972,61.998z M139.109,109.981H68.143V77.723h70.967 V109.981z"/> </g> </g> <g> <g> <path d="M146.972,162.398H60.28c-4.343,0-7.863,3.52-7.863,7.863V206.5c0,4.343,3.519,7.863,7.863,7.863h86.692 c4.343,0,7.863-3.519,7.863-7.863v-36.239C154.835,165.919,151.315,162.398,146.972,162.398z M139.109,198.639H68.143v-20.514 h70.967V198.639z"/> </g> </g> <g> <g> <path d="M146.972,251.056H60.28c-4.343,0-7.863,3.52-7.863,7.863v47.984c0,4.342,3.519,7.863,7.863,7.863h86.692 c4.343,0,7.863-3.52,7.863-7.863v-47.984C154.835,254.576,151.315,251.056,146.972,251.056z M139.109,299.04H68.143v-32.259 h70.967V299.04z"/> </g> </g> <g> <g> <path d="M312.611,386.293h-86.692c-4.343,0-7.863,3.52-7.863,7.863v47.984c0,4.342,3.519,7.863,7.863,7.863h86.692 c4.343,0,7.863-3.52,7.863-7.863v-47.984C320.473,389.813,316.954,386.293,312.611,386.293z M304.748,434.277h-70.967v-32.259 h70.967V434.277z"/> </g> </g> <g> <g> <path d="M477.929,144.818H346.361V43.652c0-18.787-15.284-34.071-34.071-34.071H113.054c-4.343,0-7.863,3.519-7.863,7.863 c0,4.342,3.519,7.863,7.863,7.863H312.29c10.115,0,18.346,8.231,18.346,18.346v101.165H199.71 c-18.787,0-34.071,15.284-34.071,34.071v172.568H34.071c-10.115,0-18.346-8.231-18.346-18.346V43.652 c0-10.115,8.231-18.346,18.346-18.346h47.532c4.343,0,7.863-3.52,7.863-7.863c0-4.343-3.519-7.863-7.863-7.863H34.071 C15.284,9.581,0,24.865,0,43.652v289.459c0,18.786,15.284,34.071,34.071,34.071h131.568v101.165 c0,18.787,15.284,34.071,34.071,34.071h213.678c4.343,0,7.863-3.52,7.863-7.863c0-4.342-3.519-7.863-7.863-7.863H199.71 c-10.116,0-18.346-8.231-18.346-18.346V359.32V178.889c0-10.115,8.231-18.346,18.346-18.346h278.219 c10.115,0,18.346,8.231,18.346,18.346v289.459c0,10.115-8.231,18.346-18.346,18.346H444.84c-4.343,0-7.863,3.52-7.863,7.863 c0,4.342,3.519,7.863,7.863,7.863h33.089c18.787,0,34.071-15.284,34.071-34.071V178.889 C512,160.101,496.716,144.818,477.929,144.818z"/> </g> </g> <g> <g> <path d="M451.719,386.293h-86.691c-4.343,0-7.863,3.52-7.863,7.863v47.984c0,4.342,3.519,7.863,7.863,7.863h86.691 c4.343,0,7.863-3.52,7.863-7.863v-47.984C459.582,389.813,456.062,386.293,451.719,386.293z M443.856,434.277h-70.966v-32.259 h70.966V434.277z"/> </g> </g> <g> <g> <path d="M312.611,297.635h-86.692c-4.343,0-7.863,3.52-7.863,7.863v36.239c0,4.343,3.519,7.863,7.863,7.863h86.692 c4.343,0,7.863-3.519,7.863-7.863v-36.239C320.473,301.155,316.954,297.635,312.611,297.635z M304.748,333.875h-70.967v-20.514 h70.967V333.875z"/> </g> </g> <g> <g> <path d="M451.719,197.234h-86.691c-4.343,0-7.863,3.519-7.863,7.863v47.984c0,4.343,3.52,7.863,7.863,7.863h86.691 c4.343,0,7.863-3.519,7.863-7.863v-47.984C459.582,200.753,456.062,197.234,451.719,197.234z M443.856,245.219h-70.966V212.96 h70.966V245.219z"/> </g> </g> <g> <g> <path d="M312.611,197.235h-86.692c-4.343,0-7.863,3.519-7.863,7.863v47.984c0,4.343,3.519,7.863,7.863,7.863h86.692 c4.343,0,7.863-3.519,7.863-7.863v-47.984C320.473,200.754,316.954,197.235,312.611,197.235z M304.748,245.218h-70.967v-32.259 h70.967V245.218z"/> </g> </g> <g> <g> <path d="M451.719,297.636h-86.691c-4.343,0-7.863,3.52-7.863,7.863v36.239c0,4.343,3.519,7.863,7.863,7.863h86.691 c4.343,0,7.863-3.519,7.863-7.863v-36.239C459.582,301.157,456.062,297.636,451.719,297.636z M443.856,333.874h-70.966V313.36 h70.966V333.874z"/> </g> </g> </g>
</svg>