<svg width="40" height="40" viewBox="0 0 69 69" fill="none" xmlns="http://www.w3.org/2000/svg">
<g clip-path="url(#clip0_3359_101)">
<path d="M53.9317 48.1925L52.1548 51.214C51.997 51.4824 51.9137 51.7881 51.9136 52.0994V53.0779C51.9137 53.5925 52.0438 54.0988 52.2917 54.5498L53.2004 56.2027L55.3011 51.7239L55.6965 47.3717C55.6979 47.3558 55.696 47.3397 55.6909 47.3246C55.6858 47.3094 55.6776 47.2955 55.6668 47.2837C55.6561 47.2718 55.643 47.2624 55.6284 47.2559C55.6137 47.2494 55.5979 47.246 55.5819 47.246C55.2482 47.2462 54.9203 47.3336 54.6309 47.4997C54.3414 47.6657 54.1003 47.9046 53.9317 48.1925ZM12.3961 20.4034H11.9216L10.9741 21.5042L11.6864 23.6256L11.7321 23.7668C11.7686 23.8802 11.8291 23.9845 11.9093 24.0726C11.9895 24.1607 12.0877 24.2306 12.1972 24.2776C12.3067 24.3246 12.425 24.3477 12.5442 24.3451C12.6633 24.3426 12.7805 24.3146 12.8879 24.2629C13.1484 24.1377 13.3615 23.9317 13.4956 23.6757C13.6296 23.4197 13.6775 23.1272 13.6321 22.8418L13.4168 21.4895L12.3961 20.4034ZM11.4117 49.2735H13.0593C13.3012 49.273 13.5367 49.3509 13.7306 49.4954C13.9246 49.64 14.0665 49.8434 14.1351 50.0754L14.3745 50.8764C14.4477 51.1235 14.5881 51.3454 14.78 51.5175C14.9719 51.6895 15.2079 51.8048 15.4615 51.8505C15.9611 51.9366 16.5192 52.0348 16.6355 52.0348C16.7517 52.0348 17.4778 52.5714 18.0997 53.0546C18.2249 53.1512 18.329 53.2724 18.4057 53.4107C18.4824 53.549 18.5299 53.7016 18.5455 53.8589C18.5611 54.0163 18.5443 54.1752 18.4962 54.3259C18.4481 54.4765 18.3698 54.6157 18.2659 54.735L18.1255 54.8969C18.1135 54.9107 18.1008 54.9242 18.0876 54.9374L16.5976 56.4438L13.0059 54.0038L11.031 49.8781C11.0001 49.8138 10.986 49.7426 10.9901 49.6714C10.9942 49.6001 11.0163 49.5311 11.0543 49.4707C11.0923 49.4102 11.1451 49.3605 11.2076 49.326C11.2701 49.2915 11.3403 49.2734 11.4117 49.2735ZM21.2839 9.87054L19.2564 12.389C19.2394 12.41 19.2213 12.4302 19.2022 12.4493L17.8697 13.7809C17.8426 13.8076 17.8176 13.8364 17.7948 13.867L16.5192 15.606C16.4018 15.7658 16.3517 15.9652 16.3797 16.1615L16.6381 17.959C16.6491 18.0333 16.6491 18.1088 16.6381 18.183L16.6312 18.2252C16.6075 18.3753 16.6295 18.529 16.6943 18.6664C16.7591 18.8038 16.8637 18.9186 16.9945 18.9958C17.1253 19.073 17.2763 19.1092 17.4279 19.0996C17.5795 19.0899 17.7248 19.035 17.8447 18.9418L22.7318 15.1607C22.8249 15.0887 22.9 14.9961 22.9512 14.8901C23.0023 14.7841 23.028 14.6677 23.0264 14.55C23.016 13.842 22.9979 12.3744 23.0324 12.2374C23.0668 12.1005 24.7722 10.7835 25.475 10.2478C25.5678 10.1771 25.643 10.0858 25.6947 9.98124C25.7464 9.87666 25.7732 9.76154 25.7731 9.64488V8.63371C25.773 8.50236 25.7388 8.37327 25.6739 8.25911C25.6089 8.14495 25.5154 8.04962 25.4025 7.98249C25.2896 7.91536 25.1612 7.87872 25.0298 7.87617C24.8985 7.87361 24.7688 7.90523 24.6534 7.96792L21.5156 9.68019C21.4265 9.72758 21.3477 9.7923 21.2839 9.87054Z" fill="#2FA65B"/>
<path d="M34.3111 6.29182C34.2786 6.33874 34.2574 6.39256 34.2492 6.44904C34.241 6.50553 34.246 6.56315 34.2638 6.61739C34.4799 7.27715 35.194 9.61732 34.6126 10.0239C33.9339 10.4984 32.7806 11.4631 33.5273 12.1272C34.2741 12.7912 30.4749 10.2659 29.4568 12.7912C28.4388 15.3166 27.1511 15.9195 27.2174 17.1399C27.2838 18.3604 28.2346 17.1399 28.642 17.1399C29.0494 17.1399 29.1114 19.3139 27.4887 19.9926C25.866 20.6713 22.5362 18.4319 23.01 20.94C23.4837 23.4481 24.7739 24.753 23.4174 25.2819C22.0608 25.8107 22.0608 29.2163 23.5534 28.7417C25.0461 28.2671 25.8652 28.5384 25.8652 27.8597C25.8652 27.181 26.6068 23.9253 27.4879 24.3999C28.369 24.8745 29.4551 24.486 29.6584 25.1458C29.8616 25.8055 28.437 26.7065 29.8616 26.8417C30.8332 26.9338 31.1734 25.6066 31.2923 24.753C31.3016 24.6879 31.3282 24.6264 31.3693 24.575C31.4104 24.5235 31.4644 24.484 31.5259 24.4605C31.5874 24.4369 31.654 24.4302 31.7189 24.4411C31.7839 24.4519 31.8447 24.4799 31.8952 24.5222C32.5084 25.039 33.604 25.039 33.6927 25.0269C34.4222 24.9227 35.8296 23.0459 35.8977 22.8392C35.9235 22.7617 36.0777 22.4275 36.2585 22.0442C36.672 21.1674 37.0682 20.6368 37.9811 20.3216L38.6357 20.1993C38.7005 20.2023 38.7654 20.1991 38.8295 20.1898C38.8962 20.182 38.9638 20.1924 39.0251 20.22L40.9604 21.2466C41.0188 21.273 41.0693 21.314 41.1071 21.3657C41.1448 21.4174 41.1686 21.478 41.176 21.5416C41.1833 21.6052 41.1741 21.6696 41.1491 21.7285C41.1242 21.7875 41.0844 21.839 41.0336 21.878C40.3945 22.3672 39.311 23.1958 38.8881 23.5205C38.2697 23.9951 37.1164 23.5351 36.9131 24.6738C36.7099 25.8124 36.777 25.9657 37.5238 26.4377C38.0621 26.7822 39.2369 26.3034 39.8493 26.0071C39.8978 25.9835 39.9509 25.9708 40.0049 25.97C40.0588 25.9691 40.1123 25.98 40.1615 26.002C40.2108 26.024 40.2546 26.0566 40.2899 26.0973C40.3253 26.138 40.3513 26.186 40.3661 26.2379L40.8088 27.7512C40.823 27.7998 40.827 27.8508 40.8207 27.901C40.8144 27.9513 40.7979 27.9997 40.7721 28.0433C40.7464 28.0868 40.712 28.1247 40.671 28.1545C40.6301 28.1842 40.5835 28.2053 40.5341 28.2163L37.9855 28.7856L35.0312 29.3464C34.3089 29.4834 33.5643 29.4453 32.8598 29.2352L31.3818 28.7943C31.3635 28.7888 31.3448 28.7848 31.3259 28.7822L29.4594 28.5238C28.2252 28.3549 26.97 28.6028 25.8927 29.2284L23.3777 30.6926C23.3586 30.7036 23.3404 30.7162 23.3235 30.7305L23.227 30.8166C21.5275 32.2601 20.2166 34.1064 19.414 36.1868L19.3933 36.2411C19.0107 37.2269 18.9643 38.3115 19.2616 39.3263L19.7594 41.0231C20.1114 42.2198 20.7917 43.294 21.7232 44.1237L21.7714 44.1668C22.8417 45.1203 24.1858 45.7114 25.612 45.8558L27.3535 46.0281C27.7518 46.0683 28.1538 46.0098 28.5241 45.8578C28.8944 45.7058 29.2215 45.4649 29.4766 45.1565C29.5121 45.1136 29.5567 45.0792 29.6073 45.0559C29.6578 45.0327 29.713 45.0211 29.7686 45.0221L30.7255 45.0402C31.4135 45.0535 32.0781 45.2917 32.6179 45.7183C33.1578 46.1449 33.5431 46.7365 33.7151 47.4027L34.1794 49.202C34.1944 49.2614 34.224 49.3162 34.2655 49.3613L35.7108 50.9229C35.9731 51.2062 36.1551 51.5544 36.2381 51.9315C36.3211 52.3087 36.302 52.7011 36.1827 53.0684L36.0889 53.3828C35.9312 53.8684 35.9127 54.3885 36.0354 54.8841C36.1581 55.3798 36.4171 55.8311 36.7831 56.1872L40.4712 59.7745C40.5005 59.8028 40.5342 59.8261 40.5711 59.8434L43.1249 61.0492C43.1979 61.0837 43.2801 61.0934 43.3591 61.0768L45.7294 60.5798C45.7939 60.5662 45.8537 60.5357 45.9024 60.4913C45.9512 60.447 45.9872 60.3904 46.0068 60.3275L47.5795 55.2682L48.7449 51.99C49.3116 50.3959 49.5227 48.697 49.3633 47.0126L49.2823 46.1513C49.1824 45.0937 49.2982 44.0268 49.6225 43.0152L50.8172 39.2936C50.824 39.2727 50.8326 39.2526 50.843 39.2333L52.7784 35.5899C52.8108 35.5287 52.8255 35.4596 52.8206 35.3904C52.8157 35.3213 52.7915 35.2549 52.7508 35.1988C52.71 35.1427 52.6544 35.0992 52.5901 35.0732C52.5259 35.0471 52.4556 35.0397 52.3873 35.0516L49.905 35.4857C49.4842 35.5594 49.0521 35.538 48.6406 35.4229L45.4667 34.5383C45.3797 34.5138 45.3047 34.4584 45.2557 34.3824L43.2446 31.2653L43.2299 31.2412C43.1893 31.1653 43.1763 31.0776 43.1933 30.9932C43.2103 30.9087 43.2562 30.8329 43.3231 30.7786C43.39 30.7244 43.4737 30.6952 43.5598 30.696C43.6459 30.6967 43.7291 30.7275 43.795 30.783L46.353 32.9638C46.3945 32.9993 46.4433 33.0252 46.496 33.0396L49.0024 33.7192C49.0624 33.7348 49.1255 33.7352 49.1857 33.7201C49.2459 33.7051 49.3013 33.6751 49.3469 33.6331L51.1617 31.9974C51.2062 31.9571 51.2401 31.9066 51.2607 31.8502L52.3959 28.7607C52.4132 28.7136 52.4207 28.6636 52.418 28.6135C52.4154 28.5635 52.4026 28.5145 52.3804 28.4695L52.0075 27.709C51.9801 27.6531 51.9391 27.6051 51.8882 27.5692C51.8373 27.5334 51.7782 27.511 51.7164 27.504L48.3848 27.1311C48.2973 27.1214 48.216 27.0807 48.1557 27.0165L47.4271 26.2413C47.385 26.1958 47.3551 26.1405 47.34 26.0804C47.3249 26.0203 47.3251 25.9574 47.3406 25.8974C47.3561 25.8374 47.3864 25.7822 47.4288 25.737C47.4711 25.6918 47.5241 25.6579 47.583 25.6384L48.4133 25.3697C48.4393 25.3613 48.4661 25.3558 48.4934 25.3533L53.3933 24.902C53.4586 24.896 53.5244 24.9074 53.5839 24.9351C53.6434 24.9627 53.6944 25.0057 53.7318 25.0596L55.3821 27.4437C55.4195 27.4978 55.4706 27.5409 55.5302 27.5686L58.469 28.9398C58.4842 28.9468 58.4988 28.9549 58.5129 28.9639C58.7334 29.106 60.6067 30.3231 60.6067 30.578V28.6556C60.6067 28.6266 60.6032 28.5977 60.5964 28.5695L59.8393 25.4688C59.7101 24.9407 59.6334 24.4012 59.6102 23.8581L59.5163 21.6187C59.5131 21.5425 59.4863 21.469 59.4397 21.4086L50.694 10.0488C50.6479 9.98876 50.5844 9.94427 50.5123 9.92136L35.4162 5.15404C35.3408 5.13019 35.2597 5.13112 35.1848 5.1567C35.11 5.18227 35.0452 5.23114 35.0002 5.29615L34.3111 6.29182Z" fill="#25D389"/>
<path d="M34.4995 65.0621C27.4551 65.0586 20.6285 62.62 15.1762 58.1594C9.72396 53.6988 5.98138 47.4904 4.58257 40.5863C3.18375 33.6821 4.21472 26.5067 7.5008 20.2756C10.7869 14.0446 16.126 9.14114 22.6136 6.39604C30.0748 3.24368 38.4828 3.18441 45.9878 6.23127C49.7038 7.73993 53.0864 9.96574 55.9423 12.7816C58.7981 15.5975 61.0714 18.9484 62.6323 22.6428C64.1932 26.3373 65.0111 30.303 65.0394 34.3135C65.0677 38.3241 64.3057 42.3009 62.7971 46.017C61.2884 49.7331 59.0626 53.1157 56.2467 55.9715C53.4308 58.8274 50.08 61.1007 46.3855 62.6616C42.6254 64.2533 38.5827 65.0698 34.4995 65.0621ZM34.4995 7.61307C19.6584 7.61307 7.58379 19.6877 7.58379 34.5288C7.58379 49.37 19.6584 61.4446 34.4995 61.4446C49.3407 61.4446 61.4153 49.37 61.4153 34.5288C61.4153 19.6877 49.3415 7.61307 34.4995 7.61307Z" fill="#203529"/>
<path d="M43.2842 61.9924C43.0951 61.9924 42.9083 61.9507 42.7372 61.8701L40.1835 60.6642C40.0562 60.6043 39.9398 60.5237 39.8389 60.4257L36.1508 56.8383C35.6611 56.3656 35.3146 55.7643 35.1513 55.1035C34.988 54.4427 35.0144 53.7493 35.2275 53.1028L35.3266 52.7988C35.396 52.5844 35.4071 52.3554 35.3586 52.1353C35.3102 51.9151 35.204 51.7119 35.0509 51.5465L33.6057 49.9849C33.4626 49.8303 33.3599 49.6427 33.3068 49.4389L32.8426 47.6396C32.7188 47.1652 32.4437 46.7442 32.059 46.4403C31.6743 46.1364 31.201 45.9663 30.7108 45.9557L29.9977 45.942C29.6472 46.3041 29.2192 46.5822 28.7459 46.7552C28.2726 46.9283 27.7662 46.9918 27.2648 46.9411L25.5232 46.7688C23.9065 46.6085 22.3826 45.9383 21.1719 44.855L21.1237 44.8119C20.0651 43.869 19.2925 42.6479 18.8937 41.2875L18.3959 39.5907C18.038 38.3827 18.0929 37.0898 18.5518 35.9164L18.5725 35.8621C19.431 33.6412 20.8308 31.67 22.6447 30.1276L22.7412 30.0414C22.7989 29.9924 22.8609 29.9486 22.9264 29.9105L23.3036 29.6917C22.5879 29.7012 21.9738 29.2421 21.6913 28.4428C21.2606 27.237 21.6051 25.0192 23.0917 24.4395L23.1141 24.43C23.084 24.2121 22.9247 23.7711 22.8032 23.4361C22.5124 22.6812 22.2851 21.9033 22.1236 21.1106C21.972 20.3078 22.1073 19.6911 22.5267 19.2777C23.2158 18.5964 24.2778 18.8117 25.3019 19.0193C25.9513 19.152 26.7592 19.3165 27.1399 19.1571C27.4168 19.0401 27.6435 18.829 27.7798 18.5611C27.5218 18.6202 27.2513 18.5873 27.015 18.4681C26.5843 18.2536 26.3501 17.823 26.3147 17.1882C26.2613 16.2313 26.7454 15.5517 27.2553 14.8377C27.6635 14.2649 28.1726 13.5518 28.6179 12.4467C29.083 11.2934 30.064 10.6853 31.3809 10.7344C31.7721 10.7533 32.16 10.8151 32.5377 10.9188C32.7607 10.4175 33.2215 9.91361 33.9313 9.39338C33.9528 9.04886 33.8167 8.15311 33.4041 6.8956C33.3438 6.70896 33.3271 6.51094 33.3553 6.31682C33.3835 6.12269 33.4559 5.93764 33.5669 5.77591L34.256 4.78024C34.4103 4.55565 34.6328 4.38672 34.8907 4.29845C35.1485 4.21019 35.4279 4.20728 35.6875 4.29016L50.7835 9.05748C51.0322 9.13553 51.2509 9.28831 51.4097 9.49502L60.1545 20.8591C60.3151 21.0668 60.4072 21.3193 60.4181 21.5817L60.5137 23.8211C60.5344 24.3038 60.6025 24.7832 60.717 25.2526L61.474 28.3533C61.4981 28.4522 61.5103 28.5537 61.5102 28.6556V30.6021C61.5101 30.8085 61.4394 31.0087 61.3099 31.1694C61.1803 31.3301 60.9997 31.4416 60.798 31.4855C60.5963 31.5293 60.3857 31.5029 60.2011 31.4105C60.0165 31.3181 59.8691 31.1654 59.7833 30.9777C59.5335 30.7503 58.8212 30.2413 58.0529 29.7443L55.1478 28.3886C54.9429 28.2927 54.7673 28.144 54.6387 27.9579L53.165 25.8288L48.6639 26.2439L48.6768 26.2577L51.8162 26.6022C52.0295 26.6254 52.2334 26.7023 52.4089 26.8256C52.5843 26.949 52.7257 27.1148 52.8197 27.3077L53.1926 28.0682C53.2682 28.2229 53.3118 28.3913 53.3208 28.5632C53.3299 28.7352 53.3041 28.9072 53.2451 29.069L52.1099 32.1585C52.0377 32.3524 51.9195 32.5259 51.7654 32.6641L49.9558 34.3109C49.7754 34.4744 49.5517 34.5826 49.3116 34.6227C49.4582 34.6302 49.6053 34.6213 49.75 34.596L52.2314 34.161C52.4661 34.1208 52.7074 34.1472 52.9279 34.2371C53.1484 34.327 53.3393 34.4769 53.479 34.6697C53.6187 34.8626 53.7015 35.0907 53.7182 35.3282C53.7349 35.5658 53.6847 35.8032 53.5733 36.0137L51.6603 39.6148L50.4804 43.296C50.1924 44.191 50.0901 45.1353 50.1798 46.0712L50.2607 46.9325C50.4297 48.748 50.2023 50.5786 49.5941 52.2975L48.4373 55.5541L46.8698 60.5962C46.8023 60.8129 46.6782 61.0078 46.5103 61.1605C46.3424 61.3133 46.1367 61.4185 45.9146 61.4652L43.5443 61.9622C43.4588 61.9812 43.3717 61.9913 43.2842 61.9924ZM41.0379 59.0639L43.3488 60.1587L45.2359 59.7633L46.7156 55.0037L46.7268 54.9693L47.8887 51.6912C48.4089 50.2208 48.6034 48.6551 48.4589 47.1021L48.3779 46.2408C48.265 45.0613 48.3939 43.8711 48.7569 42.7431L49.9558 39.0171C49.9783 38.9452 50.0072 38.8754 50.042 38.8086L51.4648 36.1308L50.0609 36.3772C49.5067 36.4723 48.9383 36.4429 48.3969 36.2911L45.2221 35.4039C44.9221 35.3204 44.6632 35.1298 44.4943 34.8682L42.4831 31.7554C42.4659 31.7287 42.4496 31.7012 42.4341 31.6693C42.2921 31.4078 42.2462 31.1048 42.3041 30.813C42.3621 30.5211 42.5204 30.2587 42.7515 30.0713C42.9826 29.8838 43.272 29.7831 43.5695 29.7867C43.867 29.7902 44.154 29.8977 44.3806 30.0905L46.8474 32.1938L48.9567 32.7657L50.4597 31.4075L51.4709 28.6556L51.327 28.3627L48.2832 28.0251C47.9812 27.9916 47.7011 27.8514 47.4934 27.6298L46.7647 26.8546C46.6179 26.6979 46.5131 26.5066 46.4599 26.2985C46.4068 26.0905 46.4071 25.8724 46.4608 25.6644C46.5145 25.4565 46.6199 25.2655 46.7671 25.1092C46.9143 24.9529 47.0987 24.8363 47.303 24.7702L48.1333 24.5015C48.2225 24.4725 48.3147 24.4535 48.4081 24.4447L53.308 23.9934C53.5341 23.9737 53.7613 24.0146 53.9663 24.112C54.1713 24.2093 54.3466 24.3595 54.4742 24.5472L56.0435 26.8141L58.8514 28.1242C58.9041 28.1494 58.955 28.1781 59.0038 28.2103C59.0753 28.2559 59.3535 28.4368 59.6877 28.6642L58.9608 25.6901C58.8181 25.1053 58.7333 24.5078 58.7075 23.9064L58.6214 21.8341L50.0798 10.7327L35.5238 6.13507L35.2094 6.58984C36.1474 9.57943 35.6676 10.3934 35.1362 10.7646C34.6048 11.1358 34.3559 11.4123 34.2499 11.5656C34.7202 12.0824 34.4877 12.5656 34.3989 12.7094C34.3352 12.8145 33.9786 13.3235 33.2491 13.0806C33.1733 13.0557 33.0889 13.0221 32.9821 12.9807C30.9908 12.2055 30.517 12.5931 30.3009 13.128C29.7755 14.432 29.1734 15.2761 28.7333 15.8928C28.6377 16.0271 28.5541 16.1451 28.4818 16.2511C28.5368 16.243 28.5924 16.239 28.648 16.239C29.0787 16.239 29.5954 16.5146 29.7488 17.2872C29.9598 18.3398 29.5085 20.1347 27.8436 20.8306C26.9495 21.2044 25.8858 20.9874 24.947 20.7962C24.5965 20.716 24.2412 20.6585 23.8833 20.6239C23.8876 20.6661 23.8953 20.717 23.9065 20.7781C24.0503 21.4767 24.2519 22.1621 24.5095 22.8271C24.7446 23.4774 24.9298 23.9916 24.9323 24.5015C24.9323 24.9373 24.7825 25.7289 23.7532 26.1302C23.6671 26.163 23.5 26.3619 23.3992 26.7573C23.2812 27.2215 23.3269 27.6461 23.3992 27.8503C23.8568 27.716 24.3234 27.6146 24.7954 27.5471L24.9961 27.5144C25.1158 26.5669 25.6059 24.2664 26.6481 23.6445C26.8383 23.5265 27.0565 23.4611 27.2803 23.4551C27.5042 23.449 27.7256 23.5025 27.9219 23.6101C28.1476 23.7315 28.4473 23.7608 28.7643 23.7927C29.2535 23.8409 30.0347 23.9176 30.4085 24.5988C30.4461 24.3773 30.5416 24.1697 30.6854 23.997C30.8292 23.8243 31.0161 23.6927 31.2271 23.6155C31.4382 23.5384 31.6658 23.5185 31.8871 23.5577C32.1083 23.597 32.3152 23.6941 32.4868 23.8392C32.7332 24.0476 33.2879 24.1269 33.5574 24.1337C33.9304 23.9365 34.8399 22.8754 35.0759 22.4835C35.113 22.3905 35.2 22.1932 35.448 21.6661C35.9398 20.6222 36.4867 19.891 37.6943 19.4715C37.737 19.4568 37.7808 19.4453 37.8252 19.4371L38.4798 19.3147C38.5499 19.3018 38.6213 19.2971 38.6925 19.301L38.7339 19.2967C38.9631 19.2696 39.1953 19.3054 39.4057 19.4L39.4591 19.4259L41.3755 20.4431C41.571 20.5381 41.739 20.6816 41.8635 20.8598C41.9879 21.0381 42.0647 21.2452 42.0865 21.4615C42.1084 21.6778 42.0745 21.8961 41.9882 22.0956C41.9019 22.2951 41.766 22.4693 41.5934 22.6015C40.9552 23.0898 39.8708 23.9184 39.4496 24.2431C39.0405 24.5575 38.5823 24.6307 38.2154 24.6893C38.0854 24.7057 37.9569 24.7325 37.8312 24.7694C37.8242 24.7916 37.8187 24.8144 37.8149 24.8374C37.7711 25.049 37.7424 25.2635 37.7287 25.4791C37.8119 25.5409 37.8981 25.5984 37.9871 25.6514C38.1189 25.666 38.5995 25.6135 39.4746 25.1949C39.6412 25.1153 39.8232 25.073 40.0078 25.0707C40.1924 25.0685 40.3754 25.1064 40.5439 25.1819C40.7124 25.2573 40.8625 25.3685 40.9838 25.5077C41.1051 25.6469 41.1947 25.8109 41.2463 25.9881L41.689 27.5014C41.7378 27.6689 41.7518 27.8445 41.73 28.0175C41.7082 28.1906 41.6511 28.3573 41.5623 28.5073C41.4735 28.6574 41.3548 28.7877 41.2137 28.8901C41.0725 28.9925 40.9118 29.0648 40.7416 29.1026L38.193 29.6719L38.1646 29.678L35.2103 30.2387C34.3458 30.4016 33.455 30.3558 32.6117 30.1052L31.1725 29.6745L29.3474 29.4247C28.3129 29.285 27.2613 29.4928 26.3578 30.0156L23.8755 31.4566L23.8152 31.5074C22.232 32.8539 21.0101 34.5746 20.2606 36.5133L20.24 36.5675C19.9271 37.3676 19.8889 38.2489 20.1314 39.0731L20.6293 40.7698C20.9328 41.8057 21.521 42.7356 22.3269 43.4537L22.3751 43.4967C23.3015 44.3258 24.4677 44.8386 25.7049 44.9609L27.4465 45.1332C27.697 45.1589 27.9501 45.1223 28.1831 45.0267C28.4161 44.9312 28.622 44.7796 28.7824 44.5854C28.9043 44.4373 29.0583 44.3188 29.2327 44.2388C29.4071 44.1588 29.5974 44.1195 29.7892 44.1237L30.7462 44.1418C31.6311 44.1608 32.4856 44.468 33.1802 45.0167C33.8747 45.5654 34.3712 46.3257 34.5945 47.1822L35.0251 48.8506L36.3791 50.3148C36.7505 50.7164 37.0082 51.2097 37.1257 51.7439C37.2432 52.2781 37.2161 52.834 37.0475 53.3543L36.9501 53.6592C36.8432 53.9841 36.83 54.3325 36.9121 54.6645C36.9942 54.9964 37.1683 55.2985 37.4144 55.536L41.0379 59.0639ZM30.2638 27.734L31.4516 27.8968C31.5163 27.9057 31.5802 27.9195 31.6428 27.9381L33.1208 28.3791C33.687 28.5462 34.285 28.5757 34.8649 28.4652L37.8054 27.9063L39.7864 27.4644L39.6744 27.082C38.5125 27.5471 37.6495 27.5867 37.0475 27.2034C35.8993 26.4722 35.7865 25.8917 36.032 24.5179C36.0595 24.3582 36.1043 24.202 36.1655 24.0519C35.9441 24.3318 35.7434 24.5584 35.7262 24.5773C34.7417 25.6858 34.1716 25.8796 33.8313 25.9287C33.2212 25.9686 32.6098 25.8733 32.0407 25.6496C31.6497 27.1853 30.8573 27.6281 30.2638 27.734ZM27.4629 25.3818C27.1416 25.9761 26.7738 27.4489 26.7738 27.8692V27.8761C27.5217 27.6436 28.3053 27.5473 29.0873 27.5919C28.817 27.4842 28.593 27.2852 28.4542 27.0294C28.1605 26.4722 28.4137 25.9416 28.6024 25.5971H28.586C28.2041 25.5703 27.8269 25.4968 27.4629 25.3783V25.3818ZM36.7546 23.1519C36.7184 23.2419 36.674 23.3284 36.622 23.4102C37.0526 23.0416 37.597 22.9538 37.9251 22.9012C38.069 22.878 38.2869 22.8435 38.3454 22.8056L39.8286 21.6696L38.7666 21.102H38.7192L38.2249 21.1941C37.6917 21.3922 37.4385 21.6704 37.0802 22.4301C36.8201 22.9899 36.7641 23.1226 36.7546 23.1484V23.1519ZM17.476 20.009C17.2359 20.0086 16.9986 19.9562 16.7805 19.8556C16.5624 19.755 16.3687 19.6084 16.2125 19.4259C16.0563 19.2434 15.9415 19.0293 15.8758 18.7983C15.8101 18.5672 15.7951 18.3247 15.8318 18.0874V18.0667L15.5777 16.2907C15.5163 15.86 15.6271 15.4224 15.8861 15.0728L17.1617 13.3339C17.2118 13.2657 17.2671 13.2015 17.327 13.1418L18.6534 11.8154L20.6758 9.30209C20.8128 9.13152 20.9823 8.98983 21.1745 8.88522L24.3122 7.17294C24.5654 7.03469 24.8502 6.9647 25.1386 6.96985C25.427 6.97499 25.7091 7.0551 25.9572 7.2023C26.2052 7.34949 26.4107 7.5587 26.5535 7.80937C26.6962 8.06004 26.7713 8.34354 26.7712 8.63199V9.64661C26.7705 9.90237 26.7111 10.1546 26.5977 10.3838C26.4842 10.613 26.3196 10.8131 26.1166 10.9687C24.9272 11.8748 24.2958 12.3856 24.0116 12.6293C24.0116 12.9514 24.0116 13.5612 24.0237 14.538C24.0269 14.7959 23.9703 15.051 23.8584 15.2834C23.7464 15.5157 23.5822 15.719 23.3786 15.8773L18.4915 19.6584C18.2013 19.8847 17.8441 20.008 17.476 20.009ZM17.3804 16.0952L17.6285 17.8342C17.6377 17.8984 17.6432 17.9631 17.6449 18.028L22.2149 14.4966C22.1831 12.29 22.2149 12.1608 22.2494 12.0247C22.3355 11.6801 22.3657 11.5604 24.9634 9.57943V8.88005L22.0668 10.4605L20.0574 12.9583C20.0198 13.0046 19.9799 13.0489 19.9376 13.091L18.6138 14.4148L17.3804 16.0952ZM16.6018 57.3465C16.4206 57.3468 16.2435 57.2924 16.0936 57.1906L12.4986 54.7488C12.3663 54.6589 12.2602 54.5356 12.1911 54.3914L10.2152 50.2692C10.1184 50.067 10.0745 49.8435 10.0874 49.6197C10.1004 49.3959 10.1698 49.1791 10.2893 48.9894C10.4088 48.7997 10.5744 48.6434 10.7707 48.5351C10.9669 48.4268 11.1874 48.37 11.4116 48.37H13.0593C13.4952 48.372 13.9191 48.5137 14.2686 48.7743C14.6182 49.0349 14.875 49.4006 15.0015 49.8178L15.241 50.6188C15.2663 50.7053 15.3153 50.7829 15.3824 50.843C15.4495 50.9031 15.5321 50.9433 15.6208 50.9591C16.396 51.0977 16.6113 51.1244 16.6612 51.1313C16.9937 51.1365 17.2495 51.2528 18.6569 52.3371C18.879 52.5096 19.0636 52.7255 19.1994 52.9717C19.3352 53.2179 19.4193 53.4892 19.4466 53.7691C19.474 54.0489 19.4439 54.3314 19.3583 54.5992C19.2727 54.867 19.1334 55.1146 18.9489 55.3267L18.8085 55.4887C18.7835 55.5171 18.7577 55.5446 18.731 55.5748L17.2409 57.0812C17.157 57.1652 17.0574 57.2319 16.9478 57.2775C16.8381 57.323 16.7205 57.3464 16.6018 57.3465ZM13.7164 53.3888L16.4881 55.2707L17.4493 54.2992L17.5889 54.139C17.6115 54.1125 17.6286 54.0817 17.639 54.0484C17.6494 54.0152 17.653 53.9802 17.6495 53.9455C17.6461 53.9108 17.6356 53.8772 17.6189 53.8466C17.6021 53.8161 17.5793 53.7893 17.5518 53.7678C16.843 53.22 16.5243 53.0012 16.3925 52.9168C16.2203 52.8944 15.9033 52.8453 15.3021 52.7377C14.8834 52.664 14.4935 52.4749 14.1764 52.1918C13.8593 51.9086 13.6275 51.5425 13.5072 51.1348L13.2677 50.3338C13.2541 50.2888 13.2264 50.2494 13.1887 50.2213C13.1511 50.1933 13.1054 50.178 13.0584 50.1779H12.1782L13.7164 53.3888Z" fill="#203529"/>
<path d="M53.2081 56.5877C53.0462 56.5877 52.8872 56.5442 52.7478 56.4618C52.6085 56.3793 52.4938 56.261 52.4157 56.1191L51.5062 54.4671C51.1852 53.8825 51.0167 53.2264 51.0161 52.5594V51.5809C51.0162 51.1081 51.1425 50.644 51.3822 50.2364L53.159 47.215C53.4083 46.7917 53.7635 46.4405 54.1897 46.1962C54.6159 45.9518 55.0984 45.8227 55.5896 45.8214C55.732 45.8213 55.8729 45.851 56.0031 45.9087C56.1333 45.9663 56.25 46.0506 56.3456 46.1561C56.4413 46.2616 56.5138 46.3859 56.5585 46.5211C56.6032 46.6563 56.6191 46.7994 56.6051 46.9411L56.2098 51.2924C56.1989 51.3974 56.1698 51.4997 56.1236 51.5947L54.0229 56.0735C53.9516 56.224 53.8401 56.3519 53.7008 56.4431C53.5614 56.5343 53.3996 56.5852 53.2331 56.5903L53.2081 56.5877ZM54.6723 48.2098L52.942 51.1528C52.8653 51.2834 52.8251 51.4321 52.8257 51.5835V52.5619C52.8265 52.9233 52.918 53.2787 53.0918 53.5955L53.1444 53.6902L54.4226 50.9659L54.6723 48.2098ZM12.5236 25.2491C12.1557 25.249 11.7973 25.1322 11.5 24.9155C11.2027 24.6988 10.9818 24.3935 10.869 24.0433L10.8251 23.9072L10.1145 21.791C10.0645 21.6422 10.0541 21.483 10.0843 21.3289C10.1145 21.1749 10.1843 21.0314 10.2867 20.9125L11.2342 19.8117C11.3191 19.7133 11.4242 19.6344 11.5424 19.5803C11.6605 19.5262 11.789 19.4982 11.9189 19.4982H12.3935C12.5172 19.4982 12.6395 19.5236 12.753 19.5728C12.8665 19.622 12.9687 19.6939 13.0533 19.7842L14.0705 20.8694C14.1941 21.0013 14.2754 21.1672 14.3039 21.3457L14.5192 22.6979C14.5931 23.1755 14.512 23.6642 14.2879 24.0923C14.0637 24.5205 13.7083 24.8655 13.2738 25.0769C13.0397 25.1896 12.7834 25.2485 12.5236 25.2491ZM11.993 21.7049L12.5416 23.3413V23.3517L12.5606 23.4094C12.6249 23.3613 12.675 23.2967 12.7053 23.2223C12.7357 23.1479 12.7452 23.0667 12.7329 22.9873L12.5606 21.909L12.173 21.4956L11.993 21.7049Z" fill="#203529"/>
<path d="M34.4998 68.9999C29.9682 69.0036 25.4803 68.1136 21.2929 66.3811C17.1055 64.6486 13.3009 62.1074 10.0965 58.903C6.89224 55.6986 4.35118 51.8939 2.61875 47.7065C0.886317 43.5191 -0.00348203 39.0312 0.000255869 34.4995C0.000255872 34.2597 0.0955374 34.0297 0.26514 33.8601C0.434742 33.6904 0.664772 33.5952 0.904625 33.5952C1.14448 33.5952 1.37451 33.6904 1.54411 33.8601C1.71371 34.0297 1.80899 34.2597 1.80899 34.4995C1.80899 52.5258 16.4744 67.1903 34.4998 67.1903C52.5252 67.1903 67.1915 52.5258 67.1915 34.4995C67.1915 16.4733 52.526 1.80874 34.4998 1.80874C34.2599 1.80874 34.0299 1.71346 33.8603 1.54385C33.6907 1.37425 33.5954 1.14422 33.5954 0.904369C33.5954 0.664516 33.6907 0.434486 33.8603 0.264884C34.0299 0.0952815 34.2599 0 34.4998 0C42.459 0.00499472 50.1717 2.76107 56.3316 7.80137C62.4915 12.8417 66.7197 19.8563 68.3001 27.657C69.8804 35.4577 68.7157 43.5649 65.0033 50.6052C61.2908 57.6455 55.2589 63.1862 47.9292 66.2885C43.6808 68.0867 39.1131 69.0089 34.4998 68.9999Z" fill="#203529"/>
</g>
<defs>
<clipPath id="clip0_3359_101">
<rect width="69" height="69" fill="white"/>
</clipPath>
</defs>
</svg>
