<svg width="25" height="25" viewBox="0 0 33 33" fill="none" xmlns="http://www.w3.org/2000/svg">
<path fill-rule="evenodd" clip-rule="evenodd" d="M5.65104 7.70624C8.11405 4.64586 11.8908 2.6875 16.125 2.6875C16.779 2.6875 17.4218 2.73421 18.0507 2.82445L19.1934 5.10969L14.8199 9.48311L10.1168 10.155L7.81183 12.46L5.65104 7.70624ZM3.94364 10.4446C3.13767 12.17 2.6875 14.0949 2.6875 16.125C2.6875 22.7443 7.47363 28.2458 13.774 29.3575L14.5105 28.1641L10.418 22.48L13.2119 18.8584L11.8836 18.1942L7.05965 18.9981L6.11614 15.2241L3.94364 10.4446ZM8.87876 15.1937L9.06515 15.9394L12.3038 15.3996L15.0009 16.7481L19.856 16.0738L28.585 21.1659C29.2155 19.6093 29.5625 17.9077 29.5625 16.125C29.5625 10.6376 26.2734 5.91852 21.5591 3.83159L22.4634 5.64035L16.0868 12.0169L11.3837 12.6888L8.87876 15.1937ZM27.3299 23.545C25.0428 26.9918 21.2078 29.3224 16.8164 29.5449L17.7395 28.0494L13.7695 22.5356L16.2778 19.2841L19.3049 18.8637L27.3299 23.545ZM16.125 0C7.21941 0 0 7.21941 0 16.125C0 25.0307 7.21941 32.25 16.125 32.25C25.0307 32.25 32.25 25.0307 32.25 16.125C32.25 7.21941 25.0307 0 16.125 0Z" fill="#25D389"/>
</svg>
